<?xml version="1.0" encoding="UTF-8" standalone="no"?>
<!-- Created with Inkscape (http://www.inkscape.org/) -->

<svg
   id="svg2"
   sodipodi:docname="chauve-souris-dashboard.svg"
   viewBox="0 0 342.99527 166.89982"
   sodipodi:version="0.32"
   version="1.0"
   inkscape:output_extension="org.inkscape.output.svg.inkscape"
   inkscape:version="1.1.1 (3bf5ae0d25, 2021-09-20)"
   width="342.99527"
   height="166.89981"
   xmlns:inkscape="http://www.inkscape.org/namespaces/inkscape"
   xmlns:sodipodi="http://sodipodi.sourceforge.net/DTD/sodipodi-0.dtd"
   xmlns="http://www.w3.org/2000/svg"
   xmlns:svg="http://www.w3.org/2000/svg"
   xmlns:rdf="http://www.w3.org/1999/02/22-rdf-syntax-ns#"
   xmlns:cc="http://creativecommons.org/ns#"
   xmlns:dc="http://purl.org/dc/elements/1.1/">
  <defs
     id="defs7" />
  <sodipodi:namedview
     id="base"
     bordercolor="#666666"
     inkscape:pageshadow="2"
     guidetolerance="10.0"
     pagecolor="#ffffff"
     gridtolerance="10.0"
     inkscape:zoom="1.83822"
     objecttolerance="10.0"
     borderopacity="1.0"
     inkscape:current-layer="svg2"
     inkscape:cx="179.24949"
     inkscape:cy="57.392478"
     inkscape:window-y="-8"
     inkscape:window-x="-8"
     inkscape:window-height="837"
     showgrid="false"
     inkscape:pageopacity="0.0"
     inkscape:window-width="1600"
     inkscape:pagecheckerboard="0"
     fit-margin-top="0"
     fit-margin-left="0"
     fit-margin-right="0"
     fit-margin-bottom="0"
     inkscape:window-maximized="1" />
  <path
     id="path2317"
     style="fill:#000000"
     d="m 197.41526,162.98001 c 1.47,-3.69 1.44,-4.31 -0.61,-10.56 -1.68,-5.1 -2.36,-6.2 -2.93,-4.75 -0.45,1.15 -0.77,1.34 -0.81,0.48 -0.04,-0.78 -0.31,-1.18 -0.59,-0.89 -0.29,0.28 -0.23,1.3 0.14,2.25 0.49,1.29 0.85,1.41 1.43,0.47 0.5,-0.81 1.19,0.28 1.93,3.01 0.63,2.35 0.94,4.49 0.68,4.75 -0.26,0.26 -0.78,-0.95 -1.16,-2.67 -0.38,-1.73 -0.9,-2.94 -1.16,-2.68 -0.26,0.26 0.04,2.36 0.66,4.68 1.35,5.01 0.59,6.65 -0.86,1.84 -0.55,-1.84 -2.16,-6.65 -3.57,-10.69 -2.56,-7.31 -3.25,-10.62 -1.8,-8.65 1.1,1.5 3.23,1.67 3.22,0.25 -0.01,-0.69 -1.14,-3.23 -2.52,-5.65 -1.7,-2.96 -1.97,-3.93 -0.84,-3 0.93,0.77 2.96,4.1 4.52,7.4 1.57,3.3 2.59,4.98 2.28,3.75 -0.32,-1.29 -0.11,-2.25 0.5,-2.25 0.59,0 1.07,-0.48 1.07,-1.06 0,-0.59 -0.35,-0.85 -0.77,-0.59 -0.43,0.27 -1.74,-1.28 -2.92,-3.44 -1.18,-2.15 -1.81,-3.91 -1.41,-3.91 0.41,0 1.51,1.46 2.45,3.25 1.65,3.11 1.68,2.51 0.1,-1.75 -0.55,-1.49 -0.45,-1.73 0.42,-0.94 0.64,0.59 2.49,4.19 4.12,8 1.63,3.81 3,6.04 3.05,4.94 0.08,-1.77 0.2,-1.72 1.04,0.39 0.53,1.32 1.17,2.19 1.42,1.94 0.68,-0.68 -3.75,-12.21 -5.75,-14.94 -1.44,-1.97 -1.41,-1.69 0.19,1.61 1.07,2.2 2.2,5.35 2.52,7 0.57,2.96 0.57,2.97 -0.63,0.5 -0.66,-1.38 -2.47,-5.07 -4,-8.19 -2.79,-5.67 -2.79,-5.69 -0.57,-5.26 1.23,0.23 2.36,0.82 2.52,1.29 0.16,0.48 0.98,1.72 1.83,2.76 0.85,1.04 1.2,1.22 0.79,0.4 -0.53,-1.08 -0.16,-0.99 1.31,0.3 1.13,0.99 2.4,3.24 2.82,5 l 0.76,3.2 0.61,-3.25 0.6,-3.25 3.25,1.98 c 2.18,1.33 3.26,1.58 3.27,0.75 0.01,-0.8 0.35,-0.71 0.98,0.27 0.82,1.27 0.97,1.22 0.98,-0.31 0.01,-1 0.42,-1.57 0.91,-1.27 0.48,0.31 1.11,-0.32 1.39,-1.38 0.68,-2.62 -2.23,-5.04 -6.07,-5.04 h -3.14 l 2.15,-5.75 c 1.18,-3.17 3.44,-7.66 5,-9.99 2.7,-4 2.77,-4.39 1.35,-7 l -1.52,-2.76 0.57,3.08 c 0.86,4.69 -2.05,3.97 -4.79,-1.2 -1.25,-2.35 -2.45,-4.1 -2.67,-3.88 -0.22,0.22 0.81,2.47 2.29,4.99 2.12,3.63 2.5,5.15 1.81,7.22 -0.87,2.62 -0.88,2.62 -3.61,-2.05 -1.5,-2.56 -2.94,-4.66 -3.2,-4.66 -0.26,0 0.89,2.39 2.54,5.33 3.24,5.73 3.68,7.2 1.84,6.06 -0.81,-0.5 -0.96,-0.14 -0.48,1.19 1.33,3.7 -10.27,-11.54 -13.29,-17.46 -1.12,-2.194997 -2.54,-4.304997 -3.17,-4.690997 -0.62,-0.385 0.1,1.405 1.61,3.980997 1.51,2.57 2.48,4.94 2.16,5.26 -0.32,0.32 -1.54,-1.05 -2.72,-3.05 -2.31,-3.917997 -3.22,-4.662997 -2.29,-1.87 0.32,0.98 -0.57,0.44 -2.05,-1.25 -2.38,-2.713997 -2.33,-2.495997 0.53,2.25 3.16,5.24 4.32,6.58 3.23,3.75 -0.97,-2.55 0.49,-1.66 2.07,1.25 1.09,2.02 1.5,2.27 1.53,0.96 0.04,-1.72 0.11,-1.72 1.86,0 1.95,1.91 4.39,5.39 8.2,11.71 3.83,6.36 0.45,3.1 -4.13,-3.97 -2.3,-3.57 -4.37,-6.31 -4.59,-6.09 -0.22,0.22 0.75,2.09 2.15,4.16 1.4,2.06 2.55,4.23 2.55,4.81 0,1.44 -1.01,0.25 -5.37,-6.32 -1.99,-3.02 -3.63,-4.87 -3.63,-4.11 0,0.76 -1.58,-0.68 -3.5,-3.2 -1.93,-2.52 -3.5,-4.84 -3.5,-5.16 0,-0.32 -2.03,-4.763997 -4.5,-9.885997 -2.48,-5.122 -4.5,-9.929 -4.5,-10.683 0,-0.754 1.86,2.431 4.13,7.077 2.27,4.646 4.33,7.882 4.58,7.191 0.25,-0.691 0.87,-1.002 1.38,-0.691 1.46,0.906 1.1,-0.242 -2.09,-6.553 -1.65,-3.269 -3.01,-6.743 -3.02,-7.721 0,-0.979 -0.49,-2.454 -1.08,-3.279 -2.07,-2.912 0.06,5.327 2.68,10.333 1.39,2.662 2.33,5.363 2.09,6.003 -0.71,1.875 -5.68,-9.724 -5.94,-13.85 -0.3,-4.855 1.85,-5.751 3.13,-1.304 0.86,2.986 0.98,3.068 1.15,0.818 0.17,-2.248 0.26,-2.298 0.89,-0.5 0.86,2.414 3.54,8.549 6.13,14 l 1.9,4 -0.62,-3.405 c -0.42,-2.285 -0.27,-3.19 0.44,-2.749 0.68,0.418 0.88,-0.163 0.57,-1.595 -0.4,-1.808 -0.28,-1.956 0.58,-0.751 1.46,2.04 1.25,0.236 -0.47,-4 l -1.41,-3.5 0.53,3.5 c 0.46,3.022 0.37,3.236 -0.66,1.562 -1.61,-2.595 -3.86,-15.974 -2.76,-16.395 0.48,-0.184 0.82,-1.984 0.75,-4 l -0.12,-3.667 -0.84,3 c -0.75,2.625 -0.8,2.5 -0.4,-1 0.25,-2.2 0.46,-5.087 0.47,-6.417 0.02,-4.468 0.97,-1.508 2.08,6.48 0.61,4.359 1.55,8.604 2.08,9.432 0.99,1.521 0.79,-0.811 -0.66,-7.628 -0.43,-1.99 -0.33,-2.408 0.32,-1.367 0.92,1.478 2.66,8.872 2.39,10.162 -0.08,0.363 0.93,3.815 2.24,7.67 1.31,3.854 2.1,7.293 1.75,7.641 -0.34,0.348 0.08,0.362 0.94,0.032 1.16,-0.446 2.02,0.587 3.32,4.008 0.97,2.535 1.95,4.42 2.18,4.189 0.23,-0.23 -0.46,-2.479 -1.54,-4.998 -1.08,-2.518 -1.58,-4.72 -1.1,-4.891 0.48,-0.172 0.22,-1.438 -0.57,-2.813 l -1.44,-2.5 0.66,2.899 c 0.44,1.96 0.3,2.683 -0.43,2.232 -1.12,-0.691 -4.72,-11.467 -4.35,-12.995 0.12,-0.475 -0.48,-3.244 -1.32,-6.154 -1.79,-6.15 -1.92,-7.837 -0.55,-6.991 0.54,0.336 0.08,-1.502 -1.03,-4.082 -1.11,-2.581 -1.85,-4.848 -1.66,-5.039 0.54,-0.542 6.44,11.671 7.79,16.13 0.67,2.2 1.77,4.9 2.45,6 0.68,1.1 1.78,3.718 2.45,5.817 0.66,2.099 1.41,3.613 1.66,3.364 0.63,-0.623 -5.89,-17.563 -10.21,-26.548 -1.95,-4.052 -3.34,-7.563 -3.1,-7.803 0.84,-0.845 4.75,6.598 7.12,13.546 2.2,6.486 4.44,11.45 4.51,10.031 0.02,-0.327 -0.87,-3.213 -1.97,-6.415 -1.1,-3.201 -1.81,-6.02 -1.56,-6.264 0.5,-0.498 3.56,6.435 3.56,8.061 0,0.574 0.29,0.759 0.63,0.41 0.74,-0.734 -3.21,-11.788 -5.78,-16.199 -2.4,-4.119 -5.26,-11.227 -4.03,-10 1.76,1.746 10.19,18.843 11.28,22.87 1.18,4.375 7.83,19.674 7.87,18.12 0.02,-0.556 -1.54,-4.606 -3.46,-9 -1.92,-4.395 -3.49,-8.586 -3.5,-9.315 0,-0.729 -2.45,-6.467 -5.44,-12.75 -2.99,-6.284 -5.29,-11.425 -5.12,-11.425 0.43,0 7.75,12.574 9.91,17 1.1,2.274 1.48,2.625 1.06,1 -0.36,-1.375 -0.64,-3.625 -0.62,-5 0.01,-1.375 -0.34,-2.95 -0.78,-3.5 -0.45,-0.55 -1.52,-2.704 -2.38,-4.787 -2.79,-6.735 -0.01,-2.992 3.91,5.267 2.1,4.411 4.12,8.02 4.51,8.02 0.38,0 1.74,2.782 3.01,6.181 1.27,3.4 2.49,5.631 2.72,4.958 0.39,-1.172 -4.31,-12.105 -5.64,-13.139 -0.36,-0.275 -2.54,-4.325 -4.85,-9 -2.33,-4.728 -3.28,-7.395 -2.14,-6.01 1.13,1.37 3.18,4.723 4.56,7.452 1.39,2.728 3.37,6.116 4.42,7.53 1.04,1.413 3,5.26 4.35,8.548 1.36,3.289 2.47,5.305 2.49,4.48 0.01,-0.825 -1.31,-4.318 -2.94,-7.763 -1.63,-3.445 -2.72,-6.912 -2.41,-7.704 0.53,-1.383 -3.57,-9.925 -4.38,-9.119 -0.21,0.216 0.57,2.279 1.75,4.586 3.58,7.013 1.44,5.623 -2.57,-1.674 -2.07,-3.755 -4.24,-7.501 -4.83,-8.326 -0.58,-0.825 -0.06,-0.643 1.17,0.405 1.23,1.048 2.23,2.558 2.23,3.357 0,0.823 0.6,1.223 1.38,0.923 0.76,-0.291 1.88,-0.024 2.5,0.593 1.4,1.406 1.45,0.204 0.08,-2.344 -0.56,-1.064 -0.8,-1.934 -0.51,-1.934 0.87,0 5.21,7.317 5.94,10 0.43,1.594 -0.09,1.106 -1.43,-1.344 -1.16,-2.115 -2.35,-3.601 -2.65,-3.303 -0.29,0.298 0.36,2.028 1.45,3.844 1.1,1.817 1.78,3.881 1.52,4.587 -0.26,0.706 0.01,1.858 0.59,2.56 1.84,2.214 10.12,25.018 10.23,28.156 0.05,1.65 0.47,4.125 0.92,5.5 0.51,1.558 0.61,0.239 0.27,-3.5 -0.31,-3.3 -1.62,-8.665 -2.92,-11.922 -1.3,-3.258 -2.37,-6.408 -2.37,-7 0,-0.593 -1.36,-3.947 -3.02,-7.455 -2.36,-4.989 -2.76,-6.681 -1.85,-7.779 0.88,-1.06 0.88,-2.02 0.02,-3.921 -1.45,-3.175 -1.45,-3.723 0.02,-2.818 0.79,0.486 0.96,0.178 0.53,-0.941 -1.12,-2.925 0.19,-1.782 1.82,1.586 1.39,2.871 1.4,3.023 0.03,1.309 -2.01,-2.524 -1.98,-0.738 0.05,3.35 1.62,3.244 1.09,5.792 -0.64,3.062 -1.74,-2.755 -0.97,0.095 1.16,4.264 1.17,2.286 2.71,5.755 3.43,7.71 0.72,1.955 1.34,2.88 1.37,2.055 0.03,-0.825 -1.03,-3.852 -2.37,-6.726 -1.34,-2.875 -2.06,-5.456 -1.61,-5.737 0.74,-0.46 5.05,8.174 5.06,10.148 0.01,0.448 1.12,3.515 2.48,6.815 2.58,6.255 3.14,8.998 1.64,8.076 -0.48,-0.298 -1.38,-2.548 -2,-5 -0.61,-2.451 -1.5,-4.695 -1.98,-4.986 -0.47,-0.292 -0.04,1.944 0.96,4.968 1,3.024 1.52,6.273 1.16,7.22 -0.6,1.606 -0.53,1.604 1.12,-0.028 2.22,-2.203 3.62,-2.236 3.62,-0.083 0,0.916 0.32,1.349 0.71,0.96 0.38,-0.388 -0.03,-2.151 -0.93,-3.916 -2.59,-5.073 -5.78,-12.858 -5.78,-14.088 0,-0.618 -1.37,-4.006 -3.03,-7.529 -1.67,-3.523 -2.85,-6.898 -2.63,-7.5 0.23,-0.602 1.98,2.15 3.91,6.115 1.92,3.965 3.71,7 3.96,6.743 0.26,-0.256 -1.18,-3.726 -3.19,-7.709 -6.51,-12.892 -6.41,-14.661 0.17,-2.946 4.75,8.455 4.93,7.374 0.3,-1.822 -1.93,-3.836 -3.3,-6.975 -3.03,-6.975 0.27,0 2.58,3.488 5.13,7.75 4.18,6.99 4.55,7.301 2.65,2.25 -1.14,-3.052 0.95,-0.061 4.28,6.126 4.592,8.522 4.383,6.865 -0.46,-3.608 -2.16,-4.685 -3.71,-8.518 -3.44,-8.518 0.27,0 2.71,4.613 5.42,10.25 5.586,11.611 6.778,11.851 1.517,0.305 -1.897,-4.155 -3.227,-7.555 -2.957,-7.555 0.27,0 2.29,3.902 4.479,8.671 2.927,6.366 3.663,8.871 2.768,9.424 -0.892,0.551 -0.925,1.108 -0.122,2.079 1.658,2.006 2.729,8.826 1.386,8.826 -0.611,0 -1.114,-1.237 -1.118,-2.75 -0.003,-1.512 -0.9,-4.1 -1.993,-5.75 -1.123,-1.696 -1.996,-2.348 -2.009,-1.5 -0.019,1.333 -0.129,1.333 -0.991,0 -1.48,-2.285 -1.2,-0.958 1.049,5.038 1.882,5.018 2.085,4.075 0.439,-2.038 l -0.673,-2.5 1.443,2.575 c 2.22,3.964 2.676,7.736 1.012,8.375 -1.982,0.761 -2.27,0.701 -2.27,-0.473 0,-1.459 -6.22,-16.09 -6.66,-15.655 -0.19,0.199 1,3.645 2.65,7.657 1.66,4.013 2.98,8.247 2.94,9.409 -0.06,1.932 -0.16,1.899 -1.13,-0.388 -0.59,-1.375 -1.65,-3.85 -2.35,-5.5 -0.71,-1.65 -2.05,-4.931 -2.99,-7.291 -0.94,-2.361 -1.87,-4.132 -2.07,-3.936 -0.19,0.196 1.32,4.566 3.37,9.71 2.66,6.675 3.37,9.473 2.48,9.769 -0.68,0.228 -1.24,0.858 -1.24,1.399 0,0.542 1.24,0.143 2.75,-0.887 4.794,-3.264 11.197,-5.605 15.859,-5.799 5.383,-0.224 7.061,-1.475 5.525,-4.119 -0.59,-1.015 -1.087,-1.283 -1.104,-0.596 -0.035,1.448 -2.03,1.731 -2.03,0.288 0,-2.721 -4.27,-11.989 -5.246,-11.386 -0.7,0.433 -0.864,0.078 -0.455,-0.988 0.891,-2.322 -0.005,-2.082 -1.307,0.35 -0.828,1.548 -0.778,1.953 0.215,1.75 1.271,-0.26 1.548,2.192 0.592,5.236 -0.259,0.825 -0.265,1.112 -0.014,0.637 0.251,-0.475 0.882,-0.25 1.402,0.5 0.652,0.942 0.753,0.591 0.327,-1.137 -0.594,-2.405 -0.559,-2.426 0.934,-0.559 1.783,2.231 1.994,4.168 0.552,5.059 -1.583,0.978 -1.162,2.776 0.5,2.138 0.825,-0.316 1.5,-0.189 1.5,0.282 0,0.874 -6.887,2.527 -7.592,1.822 -0.213,-0.213 -0.655,-1.93 -0.982,-3.815 -0.47,-2.709 -0.353,-3.113 0.555,-1.927 0.925,1.207 1.016,1.011 0.465,-1 -0.377,-1.375 -1.307,-4.017 -2.066,-5.872 -1.677,-4.099 -1.699,-4.443 -0.222,-3.531 0.793,0.491 0.979,0.037 0.593,-1.442 -0.338,-1.29 -0.167,-1.912 0.423,-1.547 0.544,0.335 0.709,1.799 0.367,3.251 -0.619,2.632 -0.614,2.631 1.412,-0.359 2.405,-3.547 2.536,-4.85 0.644,-6.419 -1.073,-0.891 -1.5,-0.873 -1.816,0.077 -0.283,0.849 -0.608,0.735 -1.028,-0.36 -0.637,-1.66 0.739,-1.872 2.997,-0.461 2.741,1.713 0.906,-0.464 -6.207,-7.361 -4.103,-3.977 -7.363,-7.543 -7.253,-7.924 0.12,-0.381 -1.14,-1.939 -2.79,-3.461 -1.94,-1.794 -0.8,-1.275 3.26,1.474 6.122,4.145 7.738,6.229 3.08,3.961 -2.26,-1.098 -2.27,-1.083 -0.34,0.437 10.655,8.384 15.5,13.024 15.5,14.843 0,0.733 -0.396,0.698 -1.2,-0.106 -1.645,-1.645 -3.313,-1.523 -1.931,0.142 0.612,0.738 0.78,1.699 0.372,2.135 -0.407,0.437 0.212,0.299 1.378,-0.306 1.165,-0.605 2.491,-0.779 2.947,-0.386 1.651,1.424 -2.89,-5.355 -5.383,-8.035 -2.62,-2.817 -2.133,-3.739 0.794,-1.5 2.989,2.286 -3.463,-3.691 -8.006,-7.417 -9.221,-7.561 -9.231,-7.809 -0.079,-1.652 5.166,3.475 11.916,8.569 15,11.319 3.085,2.75 4.955,4.1 4.157,3 -0.798,-1.1 -2.121,-2.562 -2.941,-3.25 -1.04,-0.872 -1.112,-1.25 -0.24,-1.25 0.687,0 0.972,-0.45 0.632,-1 -1.256,-2.032 0.866,-0.902 4.543,2.42 2.081,1.88 3.568,3.635 3.304,3.899 -0.264,0.265 -0.024,0.763 0.534,1.108 2.03,1.254 0.127,-3.809 -2.438,-6.487 -1.553,-1.621 -2.191,-2.978 -1.577,-3.357 0.566,-0.35 2.907,1.851 5.202,4.89 2.295,3.04 4.397,5.527 4.671,5.527 0.703,0 -4.45,-6.858 -8.143,-10.835 -1.703,-1.835 -6.246,-5.127 -10.096,-7.316 -3.85,-2.189 -5.875,-3.679 -4.5,-3.311 1.375,0.369 3.4,1.213 4.5,1.877 1.1,0.664 3.767,2.278 5.927,3.587 2.16,1.309 3.596,1.844 3.191,1.189 -0.905,-1.465 -0.095,-1.516 2.448,-0.156 1.432,0.767 1.934,0.711 1.934,-0.212 0,-0.686 2.321,0.985 5.158,3.715 3.936,3.787 4.644,4.211 2.988,1.791 -1.194,-1.744 -3.549,-4.332 -5.235,-5.75 -1.685,-1.419 -2.658,-2.579 -2.162,-2.579 0.496,0 1.959,1.125 3.251,2.5 2.442,2.6 4.676,3.429 3.367,1.25 -0.516,-0.86 -0.226,-0.824 0.93,0.113 0.925,0.75 1.475,1.697 1.223,2.105 -0.252,0.408 0.653,1.785 2.011,3.061 2.97,2.79 3.151,3.988 0.527,3.482 -1.454,-0.28 -1.785,0.036 -1.317,1.257 0.434,1.13 0.755,1.244 1.046,0.37 0.313,-0.937 0.894,-0.831 2.271,0.415 1.763,1.595 1.828,1.546 1.362,-1.019 -0.362,-1.999 -0.157,-2.503 0.796,-1.953 0.706,0.408 0.271,-0.373 -0.966,-1.734 -2.248,-2.474 -3.038,-4.452 -1.363,-3.417 0.487,0.301 1.438,-0.117 2.112,-0.929 0.998,-1.202 0.88,-1.601 -0.636,-2.141 -2.167,-0.772 -5.363,-3.364 -5.363,-4.348 0,-0.373 0.655,-0.679 1.456,-0.679 0.801,0 1.253,0.328 1.006,0.729 -0.248,0.401 0.259,1.001 1.126,1.333 2.264,0.869 2.624,0.757 1.806,-0.566 -0.398,-0.644 0.462,-0.306 1.91,0.75 1.448,1.057 2.647,2.399 2.665,2.984 0.041,1.407 5.276,6.387 6.448,6.135 0.504,-0.109 1.085,0.308 1.291,0.927 0.75,2.249 -4.486,1.158 -5.747,-1.197 -0.683,-1.277 -1.895,-2.573 -2.694,-2.879 -0.798,-0.306 -0.282,0.833 1.147,2.532 1.43,1.698 2.301,3.571 1.936,4.161 -0.438,0.71 0.152,0.855 1.744,0.429 1.323,-0.354 3.368,-0.65 4.545,-0.657 1.666,-0.011 2.29,-0.822 2.825,-3.674 0.87,-4.639 9.004,-12.797 17.575,-17.627 4.123,-2.324 5.618,-3.631 4.599,-4.022 -0.83,-0.318 -1.699,-0.041 -1.931,0.615 -0.304,0.861 -1.368,0.694 -3.815,-0.6 -2.743,-1.45 -2.962,-1.475 -1.142,-0.128 1.237,0.916 2.25,2.061 2.25,2.544 0,1.803 -2.597,0.722 -5.5,-2.29 -1.65,-1.712 -5.7,-4.379 -9,-5.927 -3.3,-1.547 -5.325,-2.862 -4.5,-2.922 2.633,-0.192 -3.332,-2.153 -7.956,-2.615 -2.45,-0.245 -4.7,-0.715 -5,-1.045 -1.325,-1.459 11.285,0.765 19.663,3.468 l 9.208,2.97 1.589,-2.13 c 0.874,-1.172 1.345,-1.616 1.048,-0.986 -0.297,0.63 0.173,1.419 1.044,1.753 1.835,0.705 3.674,-0.152 2.926,-1.362 -0.281,-0.455 0.185,-1.093 1.036,-1.42 1.009,-0.387 1.297,-0.191 0.83,0.565 -0.462,0.748 -0.185,0.955 0.781,0.584 0.905,-0.347 1.498,-0.001 1.498,0.873 0,0.842 -0.596,1.219 -1.424,0.902 -2.371,-0.91 -3.494,0.553 -1.553,2.024 2.023,1.534 3.703,1.881 2.913,0.603 -0.283,-0.459 0.133,-0.834 0.925,-0.834 1.087,0 1.169,0.328 0.334,1.334 -1.328,1.599 0.269,1.802 1.838,0.233 0.8,-0.8 1.6727,-0.527 3.2,1 1.916,1.916 7.1,2.982 7.1,1.46 -10e-6,-1.446 -11.74,-9.28 -21.589,-14.407 -6.015,-3.1301998 -7.964,-3.7387998 -9.06,-2.8290998 -1.109,0.9199 -1.275,0.8412 -0.806,-0.3813 0.965,-2.5143 1.218,-2.4365 -20.045,-6.1687 -8.875,-1.55780003 -30.157,-2.19170003 -36,-1.07230003 -21.46,4.11150003 -29.14,6.06410003 -39.84,10.13599983 -4.86,1.849 -9.24,3.362 -9.75,3.362 -1.34,0 -1.11,-2.385 0.54,-5.5639998 1.81,-3.4938 0.9,-5.2572 -1.45,-2.7868 -2.41,2.5352 -3.46,10.9599998 -1.47,11.7249998 0.81,0.31 1.47,0.104 1.47,-0.456 0,-1.16 6.94,-4.311 7.74,-3.514 0.28,0.287 -0.64,1.049 -2.06,1.694 -4.12,1.878 -4.08,3.717 0.11,4.855 2.04,0.554 6.18,3.045 9.21,5.536 3.02,2.491 6.05,4.32 6.72,4.064 0.67,-0.256 1.52,0.034 1.9,0.645 0.42,0.673 0.23,0.83 -0.47,0.398 -0.63,-0.393 -1.15,-0.234 -1.15,0.353 0,0.587 -2.14,-0.503 -4.75,-2.423 -7.48,-5.493 -11.98,-7.607 -15.69,-7.357 -3.03,0.204 -3.66,0.779 -5.73,5.228 -1.28,2.749 -2.22,5.36 -2.08,5.801 0.14,0.441 -0.23,0.802 -0.81,0.802 -0.58,0 -0.78,0.45 -0.44,1 0.34,0.55 0.11,1 -0.5,1 -0.61,0 -0.84,0.45 -0.5,1 0.34,0.55 0.11,1 -0.5,1 -0.61,0 -0.84,0.45 -0.5,1 0.34,0.55 0.11,1 -0.5,1 -0.61,0 -0.84,0.45 -0.5,1 0.34,0.55 0.11,1 -0.5,1 -0.61,0 -0.85,0.439 -0.51,0.976 0.33,0.537 -0.08,2.225 -0.91,3.75 -0.82,1.526 -1.52,2.336 -1.54,1.802 -0.02,-0.535 -0.76,0.048 -1.63,1.296 -0.87,1.248 -1.33,2.946 -1.01,3.774 0.36,0.949 0.16,1.25 -0.54,0.815 -0.68,-0.419 -0.93,-0.143 -0.63,0.698 0.27,0.764 -0.42,3.639 -1.52,6.389 -1.11,2.75 -2.3,6.8 -2.63,9 -0.57,3.702 -0.84,3.984 -3.6,3.781 -2.5,-0.184 -2.66,-0.075 -0.98,0.68 1.74,0.783 1.61,0.908 -1,0.974 -4.69,0.119 -10.44,2.009 -12.56,4.13 -1.78,1.774 -1.79,1.936 -0.19,1.95 0.96,0.009 2.42,0.491 3.25,1.071 1.16,0.814 0.81,0.958 -1.5,0.626 -1.65,-0.236 -3.9,-0.746 -5,-1.134 -1.18,-0.417 -0.98,-0.119 0.5,0.727 1.37,0.787 4.3,1.79 6.5,2.228 2.29,0.456 3.25,0.97 2.25,1.205 -0.96,0.225 -1.75,0.856 -1.75,1.403 0,0.546 -1.01,0.717 -2.25,0.379 -2.11,-0.577 -2.13,-0.539 -0.31,0.586 1.06,0.661 3.46,1.324 5.33,1.472 2.97,0.235 3.18,0.108 1.67,-1.001 -1.29,-0.938 -1.42,-1.469 -0.53,-2.022 1.6,-0.991 5.11,2.23 4.41,4.052 -0.3,0.78 0.07,2.174 0.82,3.098 0.94,1.157 0.97,1.445 0.11,0.928 -0.69,-0.413 -1.25,-0.352 -1.25,0.135 0,0.487 -1.24,0.798 -2.75,0.691 -1.51,-0.107 -1.97,10e-4 -1.02,0.24 2.16,0.543 5.96,5.745997 4.99,6.825997 -0.4,0.44 -0.21,0.5 0.41,0.15 1.4,-0.8 6.6,3.14 5.82,4.4 -0.82,1.33 3.79,8.43 5.47,8.43 0.78,0 1.64,0.67 1.91,1.5 0.42,1.28 0.26,1.3 -1.17,0.12 -0.91,-0.75 -1.66,-1.03 -1.66,-0.62 0,0.4 -0.68,0.18 -1.5,-0.5 -1.04,-0.87 -1.5,-0.9 -1.5,-0.13 0,2.77 -4.25,0.92 -14.4,-6.26 -1.46,-1.04 -2.91,-1.64 -3.21,-1.34 -0.3,0.3 0.53,1.15 1.85,1.88 7.01,3.94 9.83,6.21 9.34,7.51 -0.44,1.13 0.4,1.27 4.44,0.74 4.34,-0.58 5.51,-0.32 8.95,1.96 2.18,1.44 3.82,2.06 3.66,1.38 -0.17,-0.69 -0.08,-0.79 0.2,-0.24 0.28,0.55 0.48,1.22 0.45,1.5 -0.15,1.37 10.29,7.68 12.14,7.33 1.84,-0.35 1.81,-0.27 -0.2,0.61 -1.89,0.84 -3.08,0.44 -7,-2.35 -4.94,-3.51 -14.46,-8.59 -16.12,-8.59 -0.52,0 -1.68,0.72 -2.57,1.61 -1.48,1.48 -1.89,1.32 -5.12,-2 -1.93,-1.99 -3.91,-3.61 -4.41,-3.61 -0.49,0 -1.26,-0.62 -1.7,-1.37 -0.44,-0.75 -2.38,-2.16 -4.3,-3.14 l -3.5,-1.77 2,2.35 2,2.35 -2.71,-1.71 c -3.64,-2.29 -4.51,-2.16 -2.25,0.33 1.8,1.99 1.8,2.02 -0.01,1.33 -1.36,-0.52 -1.65,-0.37 -1.07,0.55 1.17,1.91 -2.76,-0.35 -4.54,-2.6 -1.3,-1.64 -1.17,-1.63 1.58,0.1 l 3,1.88 -1.9,-2.15 c -1.16,-1.31 -1.43,-2.15 -0.7,-2.15 0.67,0 0.96,-0.42 0.65,-0.92 -0.31,-0.5 -0.06,-1.08 0.56,-1.29 0.61,-0.2 -0.13,-0.94 -1.66,-1.64 -2.43,-1.1 -2.63,-1.08 -1.56,0.21 1.02,1.23 0.9,1.39 -0.72,0.97 -1.07,-0.28 -2.24,-0.03 -2.61,0.57 -0.37,0.59 -0.08,0.93 0.64,0.75 0.71,-0.18 0.96,-0.14 0.54,0.09 -0.41,0.24 -0.56,0.74 -0.32,1.13 0.24,0.38 -0.35,0.7 -1.31,0.7 -1.79,0 -2.13,-2.11 -0.71,-4.41 0.84,-1.36 -1.9,-5.16 -3.73,-5.16 -0.56,0 -0.01,1.07 1.23,2.39 1.66,1.76 1.93,2.6 1.02,3.15 -0.74,0.46 -0.97,0.35 -0.59,-0.28 0.36,-0.57 -0.03,-1.6 -0.87,-2.29 -2.39,-1.99 -2.69,-0.54 -0.47,2.28 2.2,2.81 2.62,4.24 0.93,3.19 -0.6,-0.36 -0.35,0.85 0.56,2.69 l 1.64,3.37 -2.15,-2.5 c -1.83,-2.12 -2.06,-2.2 -1.56,-0.5 0.59,1.97 0.57,1.97 -0.91,0.05 -0.82,-1.06 -1.49,-2.41 -1.48,-3 0,-0.58 0.47,-0.38 1.03,0.45 0.74,1.09 0.83,0.69 0.35,-1.5 -0.36,-1.65 -1.1,-3.45 -1.64,-4 -0.65,-0.66 -0.74,-0.19 -0.27,1.37 0.54,1.78 0.41,2.18 -0.54,1.59 -0.92,-0.57 -1.11,-0.19 -0.7,1.38 0.83,3.17 -0.03,2.63 -1.73,-1.09 l -1.49,-3.25 0.49,3.5 c 0.45,3.18 0.39,3.27 -0.57,1.01 -0.58,-1.37 -0.87,-3.22 -0.63,-4.12 0.26,-1.02 -0.16,-1.59 -1.13,-1.51 -0.85,0.06 -1.91,-1.01 -2.35,-2.38 -0.79,-2.460997 -0.8,-2.456997 -0.46,0.25 0.19,1.51 -0.04,2.75 -0.52,2.75 -0.47,0 -0.9,-1.02 -0.96,-2.25 -0.09,-2.155997 -0.13,-2.144997 -0.86,0.25 -0.9,2.93 -1.58,1.65 -2.41,-4.504997 -0.52,-3.865 -0.49,-3.916 0.88,-1.5 l 1.42,2.5 0.15,-2.5 c 0.11,-1.746 0.29,-1.968 0.61,-0.738 0.25,0.97 0.88,1.505 1.39,1.19 0.56,-0.345 0.5,-1.447 -0.14,-2.763 -0.84,-1.742 -0.54,-1.617 1.5,0.617 3.09,3.386 3.41,1.761 0.44,-2.251 -1.16,-1.576 -1.86,-3.283 -1.54,-3.793 0.31,-0.511 -0.09,-0.929 -0.9,-0.929 -1,0 -1.29,0.668 -0.92,2.084 0.3,1.146 -0.38,0.508 -1.52,-1.417 -1.28,-2.166 -1.84,-2.645 -1.47,-1.256 0.47,1.767 0.26,2.114 -0.99,1.632 -0.88,-0.336 -2.11,-1.571 -2.73,-2.744 -0.99,-1.853 -0.94,-1.968 0.38,-0.881 1.25,1.031 1.99,0.815 4.2,-1.238 1.48,-1.368 3.01,-2.44 3.4,-2.382 1.98,0.294 3.26,-0.24 2.71,-1.131 -0.34,-0.55 0.2,-1.007 1.19,-1.015 1.53,-0.013 1.58,-0.163 0.31,-0.985 -1.19,-0.769 -0.98,-0.976 1,-1 1.75,-0.021 2.1,-0.283 1.17,-0.876 -1.08,-0.684 -1.04,-0.96 0.21,-1.441 2.12,-0.813 2.94,0.846 1.63,3.296 -0.59,1.112 -0.78,2.021 -0.42,2.021 0.36,0 0.12,0.644 -0.53,1.43 -0.95,1.142 -0.79,1.646 0.81,2.5 1.1,0.589 2.59,1.033 3.31,0.989 0.73,-0.045 -0.03,-0.7 -1.68,-1.455 l -3,-1.374 2.64,-0.045 c 1.46,-0.025 2.91,-0.72 3.22,-1.545 0.32,-0.825 1.38,-1.532 2.36,-1.57 1.57,-0.062 1.54,-0.182 -0.22,-1.011 -1.5,-0.704 -0.99,-0.82 2,-0.462 2.2,0.263 3.44,0.23 2.75,-0.073 -2.15,-0.948 -1.36,-2.384 1.31,-2.384 1.68,0 2.31,-0.397 1.84,-1.154 -0.44,-0.722 -0.27,-0.883 0.46,-0.431 0.65,0.398 0.93,1.11 0.64,1.582 -0.72,1.164 2.82,2.201 4.85,1.421 0.9,-0.345 1.39,-1.036 1.08,-1.535 -0.31,-0.498 0.82,-1.182 2.5,-1.52 1.69,-0.337 3.07,-1.007 3.07,-1.488 0,-0.481 0.64,-0.875 1.43,-0.875 0.79,0 2.29,-1.237 3.34,-2.75 2.94,-4.244 21.18,-38.989 24.41,-46.5 1.56,-3.63 -0.15,-1.539 -3.28,4 -7.49,13.245 -20.15,30.658 -25.49,35.06 -4.76,3.924 -17.92,10.276 -22.36,10.794 -1.95,0.228 -2.98,0.147 -2.29,-0.18 1.74,-0.823 0.54,-2.424 -1.82,-2.424 -1.07,0 -1.94,-0.477 -1.94,-1.059 0,-0.582 -0.45,-0.781 -1,-0.441 -0.55,0.34 -1,0.115 -1,-0.5 0,-0.615 -0.45,-0.84 -1,-0.5 -0.55,0.34 -1,0.172 -1,-0.374 0,-0.545 -0.83,-1.255 -1.85,-1.578 -1.02,-0.323 -2.35,-2.259 -2.98,-4.317 -1.54,-5.049 -5.56,-10.025 -6.66,-8.243 -0.53,0.848 -0.43,1.081 0.27,0.65 0.59,-0.369 1.35,-0.241 1.67,0.283 0.34,0.552 -0.5,0.756 -2,0.485 -3.65,-0.662 -9.89,5.52 -9.2,9.117 0.38,2.018 0.22,2.279 -0.89,1.363 -1.06,-0.884 -1.39,-0.722 -1.48,0.742 -0.09,1.596 -0.18,1.623 -0.56,0.181 -0.51,-1.951 1.72,-5.858 6.11,-10.684 2.49,-2.742 2.65,-3.162 0.86,-2.237 -1.69,0.871 -6.25,6.033 -7.87,8.902 -0.09,0.159 -1.86,0.453 -3.92,0.653 -2.07,0.201 -4.09,0.899 -4.5,1.551 -0.5,0.81 -1.72,0.126 -3.86,-2.154 -4.270002,-4.561 -3.980002,-6.05 0.36,-1.84 4.85,4.696 4.4,3.271 -0.63,-2.016 l -4.130002,-4.342 0.69,3.929 c 0.990002,5.565 0.750002,12.463 -0.55,15.661 -1.56,3.846 -0.52,5.768 3.130002,5.768 2.31,0 3,-0.411 2.78,-1.646 -0.16,-0.906 0.27,-1.843 0.96,-2.084 0.84,-0.292 1.03,0.144 0.58,1.311 -0.43,1.124 -0.28,1.509 0.41,1.08 1.36,-0.839 4.42,0.269 3.75,1.356 -0.71,1.141 1.56,0.636 4.51,-1.004 2.36,-1.311 2.39,-1.423 0.5,-1.952 -1.96,-0.549 -1.95,-0.607 0.25,-2.772 l 2.24,-2.212 2.05,2.198 c 1.74,1.863 2.19,1.972 2.97,0.716 0.77,-1.26 1.13,-1.185 2.37,0.508 0.8,1.093 1.15,2.216 0.78,2.495 -1.69,1.288 -0.96,3.006 1.28,3.006 1.34,0 2.68,0.385 2.97,0.856 0.29,0.47 -0.58,0.643 -1.94,0.383 -1.55,-0.296 -2.47,-0.011 -2.47,0.761 0,0.741 -0.8,1.024 -2,0.71 -1.1,-0.288 -1.77,-0.147 -1.49,0.314 0.29,0.461 0.11,1.091 -0.39,1.401 -0.5,0.31 -1.17,-0.109 -1.48,-0.931 -0.32,-0.822 -1.07,-1.494 -1.67,-1.494 -0.6,0 -0.83,0.423 -0.51,0.939 0.32,0.517 -0.32,0.872 -1.43,0.789 -1.32,-0.1 -1.67,-0.489 -1.02,-1.14 1.42,-1.414 1.23,-2.283 -0.65,-3.004 -1.32,-0.505 -1.41,-0.352 -0.48,0.771 0.92,1.11 0.75,1.507 -0.8,1.914 -1.08,0.282 -2.22,0.259 -2.53,-0.052 -0.31,-0.31 -1.57,-0.662 -2.81,-0.781 -1.23,-0.119 -4.06,-0.452 -6.29,-0.739 -3.920002,-0.505 -4.050002,-0.433 -3.860002,2.257 0.25,3.652 -1.2,6.218 -2.14,3.774 -0.36,-0.944 -1.13,-1.425 -1.71,-1.068 -0.62,0.382 -0.75,0.168 -0.33,-0.522 0.4,-0.644 1.18,-0.893 1.73,-0.554 0.55,0.345 0.85,-0.195 0.68,-1.226 -0.21,-1.225 -1.99,-2.369 -5.32,-3.416 -8.84,-2.781 -30.48,-12.83 -33.98,-15.773 -1.86,-1.563 -1.9,-1.561 -0.68,0.025 1.12,1.448 1.05,1.707 -0.51,1.788 -7.51,0.39 -9.19,0.699 -11.37,2.09 -4.53,2.899 -5.48,3.094 -2.46,0.505 1.65,-1.412 2.64,-2.569 2.21,-2.572 -1.43,-0.009 -6.64,4.296 -6.15,5.085 0.26,0.424 -0.05,1.097 -0.7,1.495 -0.73,0.452 -0.9,0.291 -0.46,-0.43 0.4,-0.635 0.21,-1.155 -0.4,-1.155 -0.61,0 -0.79,-0.562 -0.4,-1.25 0.42,-0.726 0.34,-0.901 -0.19,-0.417 -0.5,0.459 -0.91,1.696 -0.91,2.75 0,1.055 -0.34,1.917 -0.75,1.917 h -1.87 c -0.74,0 -0.65,-0.605 0.25,-1.75 1.24,-1.589 1.21,-1.623 -0.39,-0.367 -1.23,0.966 -1.46,1.747 -0.76,2.592 1.17,1.405 0.35,2.59 -1.33,1.943 -1.39,-0.531 -8.87,5.411 -8.2,6.504 0.26,0.419 -1.19,2.295 -3.22,4.17 -2.03,1.874 -2.82,2.374 -1.76,1.11 1.06,-1.264 2.02,-2.946 2.14,-3.739 0.11,-0.792 1.61,-2.62 3.33,-4.062 1.71,-1.442 4.11,-3.457 5.34,-4.478 1.22,-1.021 1.92,-1.871 1.55,-1.89 -2.13,-0.106 -18.83,16.997 -18.83,19.287 0,0.293 0.65,0.679 1.46,0.857 1.17,0.261 1.06,0.806 -0.57,2.823 -1.82,2.247 -1.9100002,2.272 -0.92,0.25 0.72,-1.479 0.75,-2.25 0.08,-2.25 -1.1100002,0 -2.6700002,3.346 -7.0800002,15.154997 -2.97000001,7.98 -4.83000001,22.27 -3.56000001,27.35 l 0.67000001,2.68 2.96,-4.08 c 1.63,-2.25 2.95,-4.43 2.94,-4.85 0,-0.41 -0.45,-0.08 -0.98,0.75 -0.77,1.19 -0.99,0.99 -1.06,-1 -0.1,-2.66 -0.4,-2.18 -1.37,2.25 -0.34,1.51 -1.1,2.75 -1.69,2.75 -0.75,0 -0.86,-2.54 -0.36,-8.25 0.83,-9.39 2.13,-13.94 3.41,-11.87 0.54,0.88 1.04,0.08 1.51,-2.43 0.39,-2.06 1.37,-4.41 2.18,-5.22 0.81,-0.81 1.7500002,-2.81 2.0700002,-4.44 0.33,-1.63 1.2,-3.199997 1.95,-3.485997 0.74,-0.285 1.04,-1.034 0.66,-1.664 -0.44,-0.73 -0.13,-0.696 0.85,0.096 1.58,1.277 2.86,0.753 2.83,-1.158 0,-0.595 -0.39,-0.483 -0.86,0.251 -0.7,1.103 -0.93,1.094 -1.37,-0.05 -0.36,-0.941 0.23,-1.384 1.86,-1.384 3.07,0 2.99,0.94 -0.63,7.504997 -3.25,5.9 -3.81,7.57 -1.51,4.54 1.12,-1.49 1.48,-1.59 1.51,-0.44 0.05,1.33 0.16,1.33 1.02,0 1.32,-2.05 1.24,-3.88 -0.09,-2 -0.94,1.33 -1.02,1.33 -0.65,0 0.22,-0.83 0.72,-1.28 1.11,-1 0.39,0.27 1.18,-0.18 1.76,-1 0.84,-1.2 0.91,-1.1 0.35,0.5 -2.24,6.34 -3.46,12.73 -3.47,18.21 l -0.01,6.21 -4.1,1.1 c -2.2600002,0.61 -3.9100002,1.29 -3.6800002,1.52 0.22,0.23 1.9500002,-0.02 3.8400002,-0.56 4.55,-1.31 10.89,-1.25 14.87,0.14 1.83,0.64 3.58,0.75 4.04,0.25 1,-1.06 -1.25,-12.76 -2.26,-11.75 -0.39,0.39 -0.7,-0.38 -0.69,-1.71 0.01,-1.93 0.21,-2.11 0.98,-0.91 0.86,1.33 0.97,1.33 1,0 0.03,-1.3 0.15,-1.31 0.95,-0.05 0.5,0.8 0.66,1.92 0.34,2.5 -0.32,0.57 0.01,0.49 0.74,-0.18 1.03,-0.95 1.09,-2.23 0.28,-5.77 -0.57,-2.5 -0.68,-4.77 -0.24,-5.05 0.44,-0.27 0.98,0.98 1.21,2.78 0.34,2.77 0.43,2.59 0.63,-1.23 0.13,-2.48 0.65,-5.4 1.16,-6.5 0.74,-1.62 0.83,-1.42 0.45,1 -0.26,1.65 -0.1,4.57 0.35,6.5 0.8,3.43 0.83,3.39 1.68,-2.5 0.8,-5.59 0.9,-5.76 1.45,-2.5 0.53,3.1 0.68,2.77 1.36,-3 1.38,-11.689997 2.52,-14.393997 2.1,-5.004997 -0.37,8.474997 -0.37,8.484997 0.54,2.148 1.06,-7.441 2.2,-10.57 1.6,-4.398 -0.22,2.338 0,4.25 0.5,4.25 0.49,0 0.91,-0.562 0.92,-1.25 0.01,-0.833 0.33,-0.75 0.98,0.25 0.53,0.825 0.92,3.074997 0.85,5.004997 l -0.11,3.5 -0.81,-3.5 c -0.79,-3.460997 -0.8,-3.454997 -0.36,0.5 0.25,2.2 0.44,5.27 0.42,6.82 -0.02,1.67 0.38,2.56 0.99,2.19 0.57,-0.36 1.07,0.38 1.14,1.68 0.09,1.88 0.24,1.75 0.79,-0.69 l 0.68,-3 0.78,2.97 c 0.5,1.9 0.39,3.1 -0.29,3.33 -0.6,0.2 -1.04,1.11 -1,2.03 0.05,1.04 0.27,1.19 0.58,0.42 0.28,-0.69 0.95,-1.25 1.48,-1.25 0.54,0 0.73,0.4 0.42,0.9 -0.77,1.24 0.45,4.21 1.46,3.58 0.45,-0.28 0.69,1.08 0.54,3.01 -0.2,2.47 0.13,3.51 1.11,3.51 1.07,0 1.16,-0.46 0.37,-1.94 -1.31,-2.43 -1.32,-3.36 -0.05,-2.57 0.58,0.35 0.75,-0.14 0.42,-1.19 -0.53,-1.7 -0.5,-1.71 0.57,-0.05 0.62,0.97 0.85,2.21 0.52,2.75 -0.34,0.55 -0.14,1 0.44,1 0.58,0 0.95,0.33 0.81,0.75 -0.14,0.41 0.2,0.75 0.75,0.75 0.55,0 0.88,-0.38 0.73,-0.83 -0.16,-0.45 0.16,-0.55 0.7,-0.22 0.54,0.34 0.78,1.16 0.52,1.83 -0.25,0.67 0.86,1.96 2.48,2.88 2.52,1.43 3,1.46 3.49,0.19 0.3,-0.8 0.15,-1.21 -0.35,-0.9 -1.11,0.69 -4.34,-3.27 -6.05,-7.41 -0.7,-1.68 -1.61,-3.04 -2.03,-3.04 -0.43,0 -1.04,-0.7 -1.37,-1.56 -0.34,-0.89 -0.18,-1.29 0.39,-0.94 0.55,0.34 0.99,-0.14 0.99,-1.05 0,-1.03 -0.54,-1.46 -1.42,-1.13 -1.61,0.62 -2.79,-1.62 -1.97,-3.75 0.3,-0.78 1.18,-1.67 1.97,-1.97 0.78,-0.3 1.41,-1.12 1.4,-1.82 0,-0.79 -0.29,-0.9 -0.75,-0.28 -0.4,0.55 -1.55,1.64 -2.54,2.42 -1.68,1.32 -1.77,1.21 -1.17,-1.5 0.49,-2.23 0.39,-2.57 -0.42,-1.42 -0.95,1.33 -1.06,1.33 -1.01,0 0.03,-0.83 0.44,-2.4 0.91,-3.5 0.86,-2 0.86,-2 0.95,0 0.07,1.69 0.24,1.77 1.15,0.5 0.86,-1.21 0.98,-1.06 0.58,0.75 -0.27,1.23 -0.14,2.03 0.29,1.76 1.21,-0.75 3.09,-9.181997 2.43,-10.902997 -0.43,-1.134 -0.04,-1.429 1.49,-1.134 2.26,0.435 3.76,-0.957 2.13,-1.968 -1.28,-0.786 -1.35,-4.51 -0.09,-4.51 0.51,0 1.12,0.563 1.35,1.25 0.24,0.688 0.27,0.279 0.08,-0.907 -0.19,-1.186 -0.63,-2.874 -0.96,-3.75 -0.34,-0.876 -0.12,-1.593 0.49,-1.593 0.61,0 1.12,0.563 1.13,1.25 0.01,0.908 0.25,0.874 0.88,-0.124 0.72,-1.14 1.39,-1.066 3.93,0.433 1.68,0.995 2.86,2.135 2.61,2.534 -0.7,1.129 0.67,3.96 1.62,3.369 0.47,-0.29 1.56,0.837 2.42,2.505 0.87,1.668 1.8,3.033 2.07,3.033 0.28,0 -0.12,-1.237 -0.88,-2.75 -0.77,-1.512 -1.68,-4.1 -2.03,-5.75 l -0.64,-3 2.05,3.5 c 1.9,3.239 2.01,3.295 1.48,0.75 -0.76,-3.697 0.31,-3.499 1.64,0.301 0.58,1.678 1.24,2.873 1.46,2.656 0.21,-0.217 -0.28,-2.378 -1.11,-4.801 -1.36,-3.995 -1.36,-4.219 0.05,-2.406 0.86,1.1 1.8,3.204 2.1,4.676 0.34,1.641 1.05,2.485 1.84,2.182 0.71,-0.272 1.61,0.034 2.01,0.681 0.54,0.872 0.95,0.825 1.58,-0.182 0.54,-0.854 0.7,-0.153 0.45,1.893 -0.22,1.788 0.04,3.25 0.58,3.25 0.54,0 0.71,0.445 0.38,0.989 -0.36,0.577 0.07,0.727 1.02,0.36 0.9,-0.345 1.26,-0.902 0.8,-1.238 -1.14,-0.838 -1.32,-4.111 -0.22,-4.111 0.49,0 0.9,0.788 0.91,1.75 0.01,1.37 0.2,1.454 0.87,0.387 0.73,-1.151 0.95,-1.151 1.41,0 0.35,0.88 0.6,0.654 0.69,-0.637 0.1,-1.354 0.59,-0.798 1.52,1.722 0.96,2.628 1.09,4.672997 0.44,6.942997 -0.72,2.51 -0.54,3.79 0.79,5.78 2.2,3.28 6.260002,10.78 6.260002,11.57 0,0.33 -0.49,0.3 -1.1,-0.08 -0.72,-0.44 -0.69,0.1 0.11,1.58 0.85,1.58 1.43,1.89 1.96,1.04 0.51,-0.84 1.73,-0.03 3.89,2.59 1.73,2.1 3.14,4.16 3.14,4.58 0,1.49 2.91,0.76 3.92,-0.97 0.56,-0.97 1.03,-1.27 1.05,-0.67 0.02,0.59 0.7,1.08 1.53,1.08 0.82,0 1.52,-0.49 1.54,-1.08 0.02,-0.6 0.73,0.19 1.57,1.74 0.86,1.59 2.11,2.61 2.84,2.33 0.72,-0.27 1.88,0.03 2.57,0.67 0.98,0.9 1.12,0.9 0.61,-0.01 -0.36,-0.65 -0.21,-1.46 0.35,-1.8 0.56,-0.35 1.02,0.07 1.02,0.93 0,0.85 0.64,1.56 1.42,1.56 0.78,0 2.2,0.3 3.16,0.66 1.3,0.5 1.56,0.31 1.01,-0.75 -0.41,-0.78 -0.01,-0.52 0.88,0.58 1.38,1.71 1.74,1.78 2.56,0.5 0.52,-0.82 0.73,-2.17 0.46,-2.99 -0.27,-0.83 0.63,-0.15 2.01,1.5 1.37,1.65 2.49,3.25 2.5,3.56 0,0.31 1.57,1.32 3.5,2.23 3.84,1.84 4.26,2.83 2,4.71 -0.83,0.68 -1.5,2.07 -1.5,3.09 0,1.23 0.5,1.65 1.5,1.27 0.91,-0.35 1.5,0 1.5,0.89 0,0.89 0.89,1.43 2.25,1.36 1.78,-0.09 2.32,-0.8 2.56,-3.36 0.38,-3.93 2.02,-4.13 5.27,-0.66 3.49,3.73 14.32,9.78 22.29,12.45 3.78,1.27 8.35,3.31 10.17,4.55 l 3.31,2.24 1.57,-3.92 z m -15.23,-11.55 c -3.96,-4.47 -7.19,-8.5 -7.19,-8.96 0,-0.46 -2.14,-3.01 -4.75,-5.66 -3.9,-3.95 -4.48,-4.99 -3.25,-5.77 0.83,-0.52 1.05,-0.96 0.5,-0.99 -0.55,-0.03 -0.19,-0.52 0.8,-1.09 1.32,-0.77 2.26,-0.69 3.5,0.28 1.56,1.22 1.58,1.17 0.2,-0.61 -1.38,-1.79 -1.35,-1.89 0.5,-1.24 1.63,0.57 1.54,0.34 -0.44,-1.21 -1.34,-1.05 -3.14,-1.69 -4,-1.42 -1.34,0.42 -1.35,0.35 -0.09,-0.54 1.01,-0.72 1.86,-0.71 2.75,0.02 0.92,0.77 1.28,0.74 1.28,-0.11 0,-0.65 0.53,-0.86 1.17,-0.46 0.79,0.49 0.96,0.18 0.52,-0.96 -0.54,-1.41 -0.32,-1.52 1.27,-0.67 3.06,1.64 3.45,1.19 0.9,-1.03 l -2.36,-2.06 2.5,1.19 c 1.37,0.65 3.26,1.84 4.19,2.65 0.92,0.81 2.13,1.19 2.68,0.86 0.54,-0.34 1.27,-0.16 1.62,0.4 0.38,0.61 -0.88,1.07 -3.18,1.15 -2.73,0.1 -3.1,0.26 -1.31,0.59 1.37,0.24 2.95,0.92 3.5,1.51 0.69,0.73 0.47,0.88 -0.7,0.46 -1.26,-0.44 -1.54,-0.18 -1.08,1.02 0.48,1.26 0.15,1.48 -1.55,1.04 -1.95,-0.51 -2.61,0.17 -2.32,2.39 0.04,0.36 -0.92,0.43 -2.13,0.17 -2.15,-0.47 -2.14,-0.42 0.28,1.67 2.19,1.88 2.22,2.01 0.32,1.08 -2.8,-1.36 -3.19,-1.34 -2.94,0.19 0.39,2.42 3.85,6.72 4.9,6.07 0.65,-0.4 0.83,-0.05 0.46,0.9 -0.36,0.94 0.39,2.49 1.87,3.88 l 2.47,2.31 -2.53,-5.71 c -3.11,-7.04 -2.49,-7.5 0.95,-0.7 1.39,2.75 2.78,5 3.08,5 0.29,0 0.29,-0.4 -0.01,-0.89 -0.3,-0.49 0.19,-1.5 1.09,-2.24 1.45,-1.21 1.55,-1.1 0.88,1.01 -0.47,1.47 -0.38,2.14 0.23,1.76 1.33,-0.82 6.12,10.19 5.91,13.58 -0.21,3.13 1,4.14 -10.49,-8.86 z m 9.81,7.39 c 0,-0.97 -0.48,-1.75 -1.06,-1.75 -0.58,0 -0.79,-0.44 -0.46,-0.97 0.33,-0.54 -0.3,-2.67 -1.4,-4.75 -1.09,-2.08 -2,-3.33 -2,-2.78 -0.01,0.55 0.63,2.12 1.42,3.5 0.79,1.37 1.42,2.95 1.42,3.5 -0.01,0.55 -1.09,-1.03 -2.42,-3.5 -1.33,-2.48 -2.43,-3.92 -2.45,-3.2 -0.03,0.76 -0.55,1 -1.25,0.57 -1.24,-0.77 1.35,2.94 5.68,8.13 1.92,2.29 2.51,2.58 2.52,1.25 z m -20.5,-24.75 c -0.34,-0.55 -1.07,-1 -1.62,-1 -0.55,0 -0.72,0.45 -0.38,1 0.34,0.55 1.07,1 1.62,1 0.55,0 0.72,-0.45 0.38,-1 z m -2.5,8.25 c 0,-0.27 0.67,0.06 1.5,0.75 0.82,0.68 1.5,1.46 1.5,1.74 0,0.27 -0.68,-0.06 -1.5,-0.74 -0.83,-0.69 -1.5,-1.47 -1.5,-1.75 z m 12.01,-6.03 c 0,-0.4 0.9,0.63 1.99,2.28 1.09,1.65 1.99,3.45 1.99,4 0,0.55 -0.9,-0.48 -1.99,-2.28 -1.1,-1.8 -2,-3.6 -1.99,-4 z m -30.39,4.22 c -0.34,-0.89 -0.18,-1.29 0.39,-0.94 0.55,0.34 0.99,1.04 0.99,1.55 0,1.44 -0.72,1.13 -1.38,-0.61 z m 25.02,-3.41 c 0.55,-0.55 2.32,2.02 2.34,3.41 0.01,0.51 -0.62,0.06 -1.4,-1 -0.78,-1.07 -1.2,-2.15 -0.94,-2.41 z m 9.87,-1.66 c -0.94,-1.44 -1.22,-2.32 -0.62,-1.94 1.16,0.71 3.48,4.57 2.76,4.57 -0.23,0 -1.19,-1.19 -2.14,-2.63 z m -38.64,0.88 c -1.24,-1.59 -1.21,-1.63 0.38,-0.38 0.96,0.75 1.75,1.14 1.75,0.87 0,-1.51 -3.11,-7.59 -4.44,-8.7 -2.07,-1.72 -2,-0.19 0.1,2.13 0.91,1.01 1.33,2.17 0.93,2.57 -0.41,0.41 -1.17,-0.02 -1.69,-0.95 -0.52,-0.93 -1.64,-2.39 -2.49,-3.25 -0.86,-0.85 -1.18,-1.56 -0.73,-1.58 0.45,-0.01 0.02,-0.49 -0.95,-1.06 -0.98,-0.56 -1.48,-1.5 -1.13,-2.07 0.42,-0.68 0.95,-0.57 1.51,0.31 0.67,1.06 0.86,0.97 0.87,-0.39 0.02,-2.05 -1.29,-2.29 -2.77,-0.5 -0.74,0.88 -0.63,1.82 0.37,3.19 1.59,2.17 1.83,3.56 0.61,3.56 -1.12,0 -4.61,-7.18 -4.3,-8.86 0.13,-0.74 -0.2,-1.07 -0.75,-0.73 -0.55,0.34 -1.27,-0.24 -1.6,-1.29 -0.33,-1.05 -1.46,-2.13 -2.5,-2.4 -1.31,-0.35 -1.73,-0.08 -1.36,0.88 0.29,0.76 0.9,1.15 1.36,0.87 0.45,-0.28 1.15,0.02 1.55,0.66 0.45,0.73 0.29,0.91 -0.44,0.46 -0.63,-0.39 -1.15,-0.17 -1.15,0.5 0,0.77 -0.71,0.57 -1.93,-0.53 -1.07,-0.97 -1.69,-2.4 -1.38,-3.2 0.31,-0.8 0.16,-1.38 -0.32,-1.29 -1.99,0.37 -2.27,-0.22 -1.34,-2.82 0.86,-2.42 0.82,-2.54 -0.38,-1.01 -1.28,1.64 -1.46,1.63 -3.16,-0.25 -0.99,-1.1 -1.32,-1.99 -0.74,-1.99 0.59,0 0.83,-0.88 0.55,-1.95 -0.39,-1.52 -0.78,-1.69 -1.78,-0.75 -0.7,0.65 -1.06,1.86 -0.8,2.69 0.42,1.34 0.35,1.34 -0.61,0.01 -0.59,-0.83 -1.13,-2.85 -1.19,-4.5 -0.07,-1.65 -0.51,-4.13 -1,-5.504997 -0.67,-1.913 -0.75,-1.574 -0.32,1.434997 0.49,3.45 0.37,3.79 -0.96,2.68 -0.84,-0.7 -1.66,-2.68 -1.83,-4.403997 -0.27,-2.682 -0.81,-3.241 -3.72,-3.833 -2.41,-0.488 -3.85,-0.263 -4.87,0.762 -1.28,1.273 -1.67,1.262 -3.17,-0.093 -0.94,-0.851 -2.020002,-1.547 -2.410002,-1.547 -0.38,0 -2.9,-1.687 -5.59,-3.75 -6.46,-4.947 -12.82,-9.274 -22.48,-15.281 -4.36,-2.712 -8.29,-5.502 -8.73,-6.2 -0.45,-0.698 -0.82,-0.92 -0.82,-0.493 -0.02,0.725 -6.02,-1.932 -6.02,-2.664 0,-0.966 5.41,0.45 6.91,1.809 0.96,0.869 2.06,1.579 2.44,1.579 0.38,0 2.5,1.141 4.71,2.536 2.21,1.395 4.52,2.225 5.13,1.846 0.64,-0.393 0.84,-0.242 0.48,0.347 -0.66,1.058 5.07,3.988 6.75,3.452 0.5,-0.161 0.37,0.367 -0.3,1.174 -0.95,1.141 -0.95,1.632 -0.01,2.211 0.73,0.456 0.94,0.321 0.52,-0.351 -0.41,-0.666 0.11,-1.035 1.32,-0.944 1.1,0.083 2.23,0.754 2.51,1.492 0.32,0.822 0.08,1.068 -0.63,0.634 -0.72,-0.448 -0.86,-0.261 -0.38,0.515 0.41,0.672 0.98,0.995 1.25,0.718 0.28,-0.276 1.61,-0.082 2.96,0.431 1.87,0.71 2.28,0.635 1.74,-0.314 -0.39,-0.686 0.15,-0.448 1.2,0.529 1.04,0.977 4.05,3.371 6.68,5.322 3.970002,2.941 5.320002,3.43 7.880002,2.867 2.15,-0.471 2.88,-0.34 2.41,0.428 -0.39,0.621 -0.03,1.107 0.81,1.107 0.83,0 1.78,-0.446 2.11,-0.992 0.82,-1.316 5.51,3.423 5.51,5.562 0,1.541 0.18,1.543 2.5,0.022 2.34,-1.535 2.5,-1.526 2.52,0.135 0.01,1.429 0.18,1.499 0.9,0.361 0.65,-1.018 1.15,-0.181 1.81,2.996997 0.52,2.49 1.43,4.31 2.1,4.17 0.64,-0.14 1.18,0.76 1.19,2 0.01,1.81 0.2,1.96 0.98,0.75 0.84,-1.3 0.97,-1.28 0.98,0.17 0.01,0.93 0.64,2.3 1.39,3.05 2.31,2.32 4.63,7.53 4.63,10.43 0,2.06 0.29,2.46 1.14,1.6 0.86,-0.86 0.83,-1.91 -0.13,-4.23 -0.7,-1.7 -1.05,-3.31 -0.78,-3.59 0.28,-0.27 1.07,0.87 1.76,2.53 0.69,1.67 1.87,3.04 2.63,3.04 0.76,0 1.38,0.43 1.38,0.96 0,1.01 6.03,7.54 6.96,7.54 0.3,0 0.46,0.24 0.36,0.55 -0.1,0.3 0.68,1.09 1.75,1.75 1.06,0.67 1.93,0.78 1.93,0.26 0,-1.25 3.77,-0.49 5.77,1.15 1.39,1.14 1.42,1.02 0.29,-1.09 -0.74,-1.39 -0.82,-2.09 -0.19,-1.7 0.59,0.36 2.36,-0.01 3.93,-0.82 2.53,-1.31 2.87,-1.31 2.87,0 0,0.93 -0.58,1.26 -1.56,0.88 -1.1,-0.42 -0.95,0.09 0.51,1.71 2.92,3.24 3.76,4.88 2.18,4.29 -2.81,-1.05 -8.36,-1.24 -9.48,-0.32 -0.82,0.67 -1.53,0.32 -2.3,-1.13 -0.62,-1.15 -1.6,-1.8 -2.18,-1.43 -0.59,0.36 -1.46,0.03 -1.94,-0.73 -0.63,-0.99 -0.87,-0.65 -0.88,1.21 -0.02,2.17 -0.71,3.92 -1.56,3.92 -0.12,0 -0.83,-0.79 -1.59,-1.75 z m 10.11,-1.45 c 0.01,-0.93 -0.43,-1.97 -0.98,-2.3 -1.27,-0.79 -1.27,0.54 0,2.5 0.84,1.29 0.97,1.26 0.98,-0.2 z m 7.02,-1.06 c 0,-0.28 -0.68,-1.06 -1.5,-1.74 -0.83,-0.69 -1.5,-1.02 -1.5,-0.75 0,0.28 0.67,1.06 1.5,1.75 0.82,0.68 1.5,1.01 1.5,0.74 z m -34.02,-18.46 c -0.05,-2.76 -3.51,-3.96 -4.44,-1.53 -0.35,0.92 -0.34,1.38 0.04,1 0.38,-0.38 1.52,-0.23 2.55,0.32 1.03,0.55 1.86,0.64 1.85,0.21 z m -5.44,-7.78 c -0.43,-1.1 -0.8,-2.55 -0.83,-3.21 -0.02,-0.66 -0.42,-0.97 -0.88,-0.69 -0.46,0.28 -0.32,1.5 0.3,2.71 1.54,2.95 2.37,3.65 1.41,1.19 z m -2.54,-6.45 c 0,-0.51 -0.44,-1.211997 -0.99,-1.547997 -0.57,-0.35 -0.73,0.051 -0.39,0.937997 0.66,1.74 1.38,2.05 1.38,0.61 z m 0.2,29.49 c -0.79,-1.73 -1.73,-2.33 -3.22,-2.04 -1.35,0.26 -1.96,-0.03 -1.67,-0.8 0.24,-0.66 0.93,-1.1 1.53,-0.97 0.61,0.14 0.82,-0.45 0.48,-1.33 -0.48,-1.27 -0.76,-1.31 -1.44,-0.24 -0.68,1.07 -0.86,1.04 -0.88,-0.16 -0.03,-1.27 -0.17,-1.29 -0.92,-0.1 -0.49,0.78 -0.64,2.13 -0.33,3 0.37,1.04 -0.43,0.72 -2.27,-0.9 l -2.84,-2.5 2.25,3.25 c 1.24,1.78 1.78,3.25 1.2,3.25 -0.57,0 -1.71,-1.3 -2.53,-2.88 -0.82,-1.59 -2.13,-3.13 -2.91,-3.43 -1.58,-0.6 -7.65,-11.26 -7.65,-13.43 0,-0.76 -0.43,-1.12 -0.95,-0.8 -0.520002,0.33 -1.420002,-0.29 -2.000002,-1.37 -1.61,-3.02 -1.18,-3.92 0.53,-1.09 l 1.500002,2.5 -0.730002,-2.5 c -1.03,-3.54 -1.07,-10.004997 -0.06,-10.004997 0.47,0 0.730002,1.013 0.57,2.254997 -0.34,2.71 2.090002,11.75 3.160002,11.75 1.55,0 1.81,-2.9 0.38,-4.09 -0.82,-0.68 -1.25,-1.86 -0.96,-2.63 0.3,-0.76 0.17,-1.16 -0.28,-0.88 -0.46,0.28 -0.83,-0.82 -0.83,-2.44 v -2.945997 l 1.9,3.125997 c 1.05,1.71 2.05,4.75 2.23,6.74 0.19,1.99 0.42,3.62 0.52,3.62 0.09,0 0.32,0.75 0.5,1.67 0.45,2.36 6.41,10.83 7.62,10.83 0.55,0 -0.09,-1.47 -1.43,-3.25 -4.55,-6.08 -7.69,-13.76 -3.64,-8.89 1.08,1.29 1.97,2.03 1.97,1.64 0,-0.39 -1.13,-2.05 -2.5,-3.69 -1.38,-1.63 -2.46,-3.72 -2.42,-4.64 0.06,-1.37 0.18,-1.4 0.63,-0.17 0.93,2.53 3.42,4.88 4.66,4.41 1.09,-0.42 4.63,4.35 4.63,6.24 -0.01,0.46 -0.9,-0.62 -1.99,-2.4 -2.2,-3.62 -3.47,-4.28 -2.54,-1.34 0.34,1.05 0.14,2.21 -0.45,2.57 -0.58,0.36 -0.79,1.08 -0.47,1.6 0.32,0.52 0.98,0.71 1.45,0.42 0.47,-0.3 1.19,-0.01 1.59,0.63 0.45,0.73 0.29,0.91 -0.44,0.46 -1.57,-0.97 -1.45,0.61 0.21,2.88 1.66,2.28 5.05,3.03 4.25,0.95 -0.86,-2.23 0.75,-1.67 2.35,0.83 1.53,2.38 5.04,8.97 5.04,9.46 0,1.27 -1.9,-0.2 -2.8,-2.17 z m -11.2,-5.88 c 0,-0.69 -4.27,-7.34 -6.52,-10.16 -0.88,-1.1 -0.37,0.37 1.13,3.26 2.42,4.68 5.39,8.48 5.39,6.9 z m 19.36,-0.18 c 0.16,-2.77 1.49,-1.87 2.13,1.44 0.24,1.25 1,3.02 1.69,3.93 0.69,0.9 0.09,0.6 -1.35,-0.68 -1.57,-1.39 -2.55,-3.26 -2.47,-4.69 z m -6.65,2.53 c -0.29,-1.11 -0.17,-1.8 0.26,-1.53 0.43,0.27 1.03,1.39 1.32,2.5 0.29,1.11 0.17,1.8 -0.26,1.53 -0.43,-0.27 -1.03,-1.39 -1.32,-2.5 z m -97.100002,1.69 c -0.98,-0.72 -2.15,-2.86 -2.59,-4.75 l -0.82,-3.45 -0.1,3.75 c -0.12,4.3 -2.02,5.14 -2.25,1 l -0.15,-2.75 -0.42,2.75 c -0.87,5.75 -3.28,1 -3.28,-6.48 0,-3.96 2.9,-13.77 4.07,-13.77 1.2,0 1.2,-0.02 -0.57,5 -0.82,2.33 -1.45,5.88 -1.38,7.87 0.11,3.53 0.13,3.51 0.88,-0.9 0.42,-2.49 1.7,-7.62 2.84,-11.42 1.14,-3.79 1.79,-7.337997 1.46,-7.879997 -0.34,-0.549 -0.1,-0.669 0.55,-0.27 0.63,0.392 1.15,0.323 1.15,-0.155 0,-0.477 0.7,-1.741 1.56,-2.809 1.48,-1.851 1.5,-1.834 0.42,0.387 -0.62,1.281 -0.9,2.935 -0.62,3.676 0.29,0.741 0.05,3.050997 -0.53,5.140997 -0.58,2.09 -0.65,3.91 -0.16,4.08 0.48,0.16 0.62,3.32 0.3,7.03 -0.67,7.8 -0.17,12.17 1.15,10.09 0.65,-1.04 0.85,-0.94 0.86,0.41 0.01,0.96 -0.52,1.75 -1.17,1.75 -0.66,0 -0.32,0.66 0.75,1.46 1.07,0.81 1.46,1.49 0.88,1.5 -0.58,0.02 -1.86,-0.55 -2.83,-1.26 z m -4.77,-9.45 c 0.09,-1.24 0.58,-2.25 1.1,-2.25 0.52,0 1.13,-1.47 1.37,-3.25 0.24,-1.83 0.32,-1.39 0.18,1 -0.13,2.33 0.17,4.25 0.67,4.25 0.51,0 0.8,-3.49 0.67,-7.75 -0.14,-4.27 0.08,-8.88 0.5,-10.25 0.52,-1.710997 0.47,-2.027997 -0.17,-1 -0.52,0.82 -1.49,4.2 -2.17,7.5 -0.67,3.3 -1.65,6.27 -2.18,6.6 -0.53,0.33 -0.77,2.13 -0.54,4 0.23,1.89 0.48,2.4 0.57,1.15 z m 103.000002,4.5 c -4.95,-7.79 -5.28,-8.62 -1.9,-4.79 1.68,1.9 3.06,3.98 3.06,4.62 0,0.65 0.67,1.73 1.5,2.42 1.38,1.14 2.05,3 1.09,3 -0.23,0 -1.92,-2.37 -3.75,-5.25 z m 42.76,3.41 c -0.28,-0.46 0.12,-0.83 0.9,-0.83 0.78,0 1.18,0.37 0.9,0.83 -0.29,0.46 -0.69,0.84 -0.9,0.84 -0.21,0 -0.61,-0.38 -0.9,-0.84 z m -6.09,-1.15 c -0.35,-0.57 0.05,-0.74 0.94,-0.4 1.73,0.67 2.05,1.39 0.61,1.39 -0.52,0 -1.22,-0.45 -1.55,-0.99 z m 42.93,-2.62 c 0.51,1.6 0.37,1.69 -0.92,0.62 -1.24,-1.02 -1.52,-1 -1.53,0.11 -0.01,0.76 -1.14,-0.06 -2.53,-1.81 -1.65,-2.1 -3.18,-3.06 -4.46,-2.81 -1.08,0.2 -2.26,-0.12 -2.63,-0.72 -0.42,-0.68 -0.21,-0.81 0.54,-0.34 0.75,0.46 1.15,0.23 1.04,-0.59 -0.71,-5.2 0.86,-4.95 4.42,0.69 1.58,2.5 3.07,4.35 3.32,4.1 0.25,-0.25 -1.16,-2.68 -3.12,-5.42 -1.96,-2.73 -3.57,-5.3 -3.57,-5.72 0,-1.53 3.19,1.97 5.7,6.25 1.58,2.69 2.86,3.96 3.29,3.27 0.46,-0.75 1.28,-0.27 2.36,1.38 2.29,3.51 2.06,4.29 -0.43,1.46 -1.7,-1.93 -1.98,-2.02 -1.48,-0.47 z m -8.44,-5.34 c 0,-0.51 -0.44,-1.21 -0.99,-1.55 -0.57,-0.35 -0.73,0.05 -0.39,0.94 0.66,1.74 1.38,2.05 1.38,0.61 z m -7,5.83 c 0,-0.55 0.45,-0.72 1,-0.38 0.55,0.33 1,1.06 1,1.61 0,0.55 -0.45,0.72 -1,0.39 -0.55,-0.34 -1,-1.07 -1,-1.62 z m -34,-5.38 c -1.29,-1.38 -2.12,-2.5 -1.85,-2.5 0.28,0 1.56,1.12 2.85,2.5 1.29,1.37 2.12,2.5 1.85,2.5 -0.28,0 -1.56,-1.13 -2.85,-2.5 z m 3.74,-1.5 c -0.47,0 -0.52,0.56 -0.11,1.25 0.48,0.79 0.13,0.73 -0.99,-0.17 -0.96,-0.78 -2.15,-2.17 -2.64,-3.09 -1.56,-2.91 1.71,-1.92 4.71,1.42 1.53,1.7 2.13,2.52 1.33,1.84 -0.79,-0.69 -1.83,-1.25 -2.3,-1.25 z m -0.74,-0.89 c 0,-0.55 -0.45,-1.28 -1,-1.61 -0.55,-0.34 -1,-0.17 -1,0.38 0,0.55 0.45,1.28 1,1.62 0.55,0.33 1,0.16 1,-0.39 z m 31.44,-4.79 c -1.54,-2.02 -2.29,-3.35 -1.67,-2.97 1.28,0.8 5.61,6.65 4.92,6.65 -0.25,0 -1.71,-1.66 -3.25,-3.68 z m -159.040002,-0.05 c 0.33,-0.34 0.56,0.25 0.52,1.31 -0.05,1.16 -0.28,1.4 -0.6,0.6 -0.29,-0.72 -0.26,-1.58 0.08,-1.91 z m 158.010002,-5.55 c -0.31,-0.98 -1.61,-2.47 -2.9,-3.31 -2.97,-1.95 -3.81,-4.084997 -1.89,-4.820997 0.92,-0.354 1.23,-0.153 0.8,0.529 -0.37,0.605 -0.28,1.388 0.2,1.739 0.48,0.352997 2.64,2.822997 4.78,5.492997 2.59,3.22 3.18,4.4 1.74,3.5 -1.19,-0.74 -2.42,-2.15 -2.73,-3.13 z m -138.870002,0.21 c 0.86,-1.39 1.46,-1.13 1.46,0.62 0,0.86 -0.46,1.28 -1.02,0.93 -0.56,-0.34 -0.75,-1.04 -0.44,-1.55 z m 62.060002,-0.77 c -0.28,-0.46 0.12,-0.83 0.9,-0.83 0.78,0 1.18,0.37 0.9,0.83 -0.29,0.46 -0.69,0.84 -0.9,0.84 -0.21,0 -0.61,-0.38 -0.9,-0.84 z m -5.2,-4.89 c 0.33,-0.34 0.56,0.25 0.52,1.31 -0.05,1.16 -0.28,1.4 -0.6,0.6 -0.29,-0.72 -0.26,-1.58 0.08,-1.91 z m -54.260002,0.98 c -0.17,-0.97 -0.42,-7.604997 -0.56,-14.754997 l -0.26,-13 0.59,12 c 0.32,6.6 0.97,12.584 1.43,13.298 0.46,0.714 0.59,1.946997 0.28,2.746997 -0.73,1.91 -1.13,1.84 -1.48,-0.29 z m 5.27,-2.999997 c 1.08,-1.075 1.65,0.431 0.89,2.349997 -0.71,1.8 -0.76,1.81 -1.11,0.07 -0.2,-1.008997 -0.1,-2.095997 0.22,-2.419997 z m 71.980002,-1.328 c -0.13,-3.493 1.04,-2.732 1.99,1.296 0.47,1.971997 0.3,2.591997 -0.62,2.231997 -0.69,-0.26 -1.31,-1.852997 -1.37,-3.527997 z m -90.420002,-0.934 c 0.52,-2.208 0.86,-2.695 0.93,-1.325 0.1,2.179 -0.89,5.676997 -1.45,5.118 -0.16,-0.165 0.07,-1.871 0.52,-3.793 z m -7.09,0.332 c 0.87,-1.499 1.06,-1.542 1.09,-0.242 0.03,1.684 -1.02,3.201 -1.73,2.492 -0.23,-0.234 0.05,-1.246 0.64,-2.25 z m 16.43,-5.087 c 0.25,-0.956 0.45,0.062 0.44,2.262 -0.01,2.2 -0.22,2.982 -0.46,1.738 -0.24,-1.244 -0.23,-3.044 0.02,-4 z m -24.11,2.808 c 0.68,-1.075 1.36,-1.815 1.54,-1.644 0.59,0.593 -0.96,3.598 -1.86,3.598 -0.49,0 -0.35,-0.88 0.32,-1.954 z m 99.210002,-2.546 c 0.25,-1.375 0.04,-2.5 -0.48,-2.5 -0.51,0 -0.93,-0.505 -0.93,-1.122 0,-0.81 0.39,-0.797 1.41,0.043 0.77,0.642 1.25,1.934 1.07,2.873 -0.18,0.938 -0.36,2.044 -0.4,2.456 -0.05,0.413 -0.31,0.75 -0.6,0.75 -0.29,0 -0.32,-1.125 -0.07,-2.5 z m -90.410002,1.691 c 0,-0.445 0.68,-1.682 1.52,-2.75 1.4,-1.8 1.43,-1.741 0.34,0.809 -1.18,2.752 -1.86,3.461 -1.86,1.941 z m 82.250002,-1.613 c -0.32,-0.318 -0.03,-0.578 0.64,-0.578 0.68,0 0.96,-0.43 0.64,-0.956 -0.33,-0.526 -1.18,-0.731 -1.9,-0.455 -0.72,0.276 -1.94,-0.28 -2.72,-1.235 -0.78,-0.956 -0.89,-1.424 -0.25,-1.04 0.65,0.384 1.32,0.305 1.5,-0.176 0.19,-0.48 1.42,-1.21 2.74,-1.621 2,-0.623 2.29,-0.463 1.75,0.958 -0.89,2.302 0.18,3.909 1.74,2.617 0.89,-0.737 1.21,-0.393 1.21,1.292 0,1.828 -0.49,2.244 -2.39,2.035 -1.31,-0.144 -2.65,-0.523 -2.96,-0.841 z m 1.24,-4.567 c 0.35,-0.566 -0.05,-0.734 -0.94,-0.393 -1.73,0.665 -2.05,1.382 -0.61,1.382 0.52,0 1.22,-0.445 1.55,-0.989 z m -95.800002,3.058 c 0.47,-1.783 3.31,-3.816 3.31,-2.366 0,0.617 -3.05,4.297 -3.56,4.297 -0.14,0 -0.03,-0.869 0.25,-1.931 z m 157.230002,-6.546 c -1.11,-3.166 -1.84,-5.94 -1.61,-6.164 0.41,-0.414 4.69,10.673 4.69,12.16 0,1.738 -1.14,-0.478 -3.08,-5.996 z m -71.41,5.488 c -0.35,-0.566 0.05,-0.734 0.94,-0.393 1.73,0.665 2.05,1.382 0.61,1.382 -0.52,0 -1.22,-0.445 -1.55,-0.989 z m -7.860002,-1.329 c -0.36,0.358 -0.65,0.378 -0.65,0.044 0,-1.805 2.050002,-1.465 3.000002,0.496 0.99,2.039 0.96,2.096 -0.29,0.544 -0.780002,-0.954 -1.700002,-1.442 -2.060002,-1.084 z m -41.31,-1.932 c 0.28,-0.687 0.5,-0.125 0.5,1.25 0,1.375 -0.22,1.938 -0.5,1.25 -0.28,-0.687 -0.28,-1.812 0,-2.5 z m -24.46,0.983 c 0.98,-0.98 1.1,-0.865 0.56,0.56 -0.38,0.986 -0.94,1.541 -1.25,1.233 -0.3,-0.307 0,-1.114 0.69,-1.793 z m 157.080002,-4.983 c -1.63,-3.437 -2.93,-7.15 -2.89,-8.25 0.07,-2 0.07,-2 0.94,0 0.53,1.238 0.64,-0.476 0.29,-4.5 -0.32,-3.575 -0.3,-6.242 0.05,-5.928 0.34,0.315 0.84,3.814 1.1,7.775 0.27,4.094 1.36,9.19 2.51,11.805 2.21,4.99 2.31,5.348 1.5,5.348 -0.3,0 -1.88,-2.812 -3.5,-6.25 z m -128.700002,5.66 c 0.32,-0.325 -0.03,-2.35 -0.79,-4.5 -1.44,-4.076 -1.05,-5.598 0.42,-1.66 2.04,5.438 2.23,6.75 1.01,6.75 -0.68,0 -0.97,-0.266 -0.64,-0.59 z m 43.820002,-2.753 c -1.33,-0.086 -2.62,-0.788 -2.88,-1.559 -0.35,-1.045 0.14,-1.239 1.92,-0.763 1.31,0.351 4.12,0.644 6.25,0.651 3.41,0.012 3.72,0.204 2.57,1.584 -0.83,1.003 -2.05,1.33 -3.37,0.906 -1.14,-0.364 -3.16,-0.733 -4.49,-0.819 z m -66.250002,-1.407 c 0.49,-0.962 0.72,-2.245 0.5,-2.85 -0.44,-1.21 2.41,-3.996 3.23,-3.169 0.29,0.285 -0.44,2.149 -1.62,4.143 -2.17,3.673 -3.77,5.094 -2.11,1.876 z m 93.380002,-1.649 c 0.71,-0.77 1.45,-1.25 1.64,-1.067 0.59,0.564 -0.91,2.466 -1.95,2.466 -0.54,0 -0.4,-0.63 0.31,-1.399 z m -68.330002,-0.868 c 0.98,-0.98 1.1,-0.865 0.56,0.56 -0.38,0.986 -0.94,1.541 -1.25,1.233 -0.3,-0.307 0,-1.114 0.69,-1.793 z m -9.54,-2.002 c 0.28,-0.677 0.49,0.119 0.47,1.769 -0.03,1.65 -0.25,2.204 -0.5,1.231 -0.26,-0.973 -0.24,-2.323 0.03,-3 z m 76.660002,-2.79 c 0,-0.582 0.42,-0.801 0.93,-0.485 2.55,1.577 2.93,-9.932 0.55,-16.832 -0.73,-2.133 -0.89,-3.437 -0.36,-2.899 1.27,1.268 3.85,10.976 3.87,14.539 0,1.52 -0.55,3.657 -1.23,4.75 -1.32,2.105 -3.76,2.708 -3.76,0.927 z m -32.000002,0.059 c 0,-0.55 0.9,-1 2.000002,-1 1.1,0 2,0.45 2,1 0,0.55 -0.9,1 -2,1 -1.100002,0 -2.000002,-0.45 -2.000002,-1 z m 85.190002,-7.5 c -0.05,-2 -0.05,-2 0.81,0 0.82,1.911 0.86,1.915 0.93,0.083 0.04,-1.054 0.34,-1.647 0.67,-1.317 0.33,0.33 0.25,2.542 -0.19,4.917 -0.77,4.254 -0.79,4.273 -1.48,1.317 -0.38,-1.65 -0.71,-3.9 -0.74,-5 z m -75.19,5.5 c 0,-0.55 0.48,-1 1.06,-1 0.58,0 0.78,0.45 0.44,1 -0.34,0.55 -0.82,1 -1.06,1 -0.24,0 -0.44,-0.45 -0.44,-1 z m 56.5,-2 c 1.1,-0.473 2.67,-0.884 3.5,-0.914 1.33,-0.049 1.33,0.052 0,0.914 -0.83,0.533 -2.4,0.945 -3.5,0.914 -2,-0.055 -2,-0.055 0,-0.914 z m -113.500002,-1 c 0,-1.1 0.17,-2 0.38,-2 0.21,0 0.62,0.9 0.91,2 0.29,1.1 0.11,2 -0.38,2 -0.5,0 -0.91,-0.9 -0.91,-2 z m 197.400002,-1.729 c 0.332,-0.332 0.568,0.258 0.525,1.312 -0.048,1.165 -0.285,1.402 -0.604,0.605 -0.289,-0.722 -0.253,-1.585 0.079,-1.917 z m -125.24,0.334 c -0.29,-1.497 -0.06,-1.559 1.69,-0.467 1.11,0.694 1.78,1.646 1.49,2.115 -0.81,1.315 -2.8,0.283 -3.18,-1.648 z m -12.16,1.305 c 0,-0.366 0.69,-1.234 1.52,-1.929 1.29,-1.068 1.42,-0.985 0.83,0.542 -0.47,1.242 -0.32,1.58 0.48,1.082 0.64,-0.398 1.17,-0.274 1.17,0.274 0,0.548 -0.9,0.929 -2,0.846 -1.1,-0.083 -2,-0.45 -2,-0.815 z m -3.9,-0.192 c 0.88,-0.67 1.71,-1.668 1.84,-2.218 0.13,-0.55 0.58,-1.612 1,-2.359 0.63,-1.118 0.86,-1.094 1.34,0.135 0.75,1.974 -1.94,5.732 -4.09,5.692 -1.54,-0.029 -1.55,-0.142 -0.09,-1.25 z m 51.9,-1.277 c 0,-0.243 0.45,-0.441 1,-0.441 0.55,0 1,0.477 1,1.059 0,0.582 -0.45,0.781 -1,0.441 -0.55,-0.34 -1,-0.816 -1,-1.059 z m 5.41,-2.547 c 2.74,-2.154 3.59,-2.352 3.59,-0.835 0,0.582 -0.53,0.734 -1.17,0.336 -0.75,-0.461 -0.97,-0.21 -0.63,0.691 0.37,0.955 -0.23,1.461 -1.83,1.558 l -2.37,0.144 z m -38.44,-0.836 c 0.65,-1.222 1.64,-1.823 2.33,-1.426 0.66,0.379 0.85,0.304 0.42,-0.167 -0.43,-0.471 -2.16,-0.961 -3.84,-1.09 -3.46,-0.263 -5.24,-1.358 -2.3,-1.407 1.06,-0.017 2.79,-0.692 3.86,-1.5 1.07,-0.807 1.43,-1.468 0.81,-1.468 -0.62,0 -1.41,0.45 -1.75,1 -0.34,0.55 -1.38,0.997 -2.31,0.994 -1.06,-0.004 -0.62,-0.564 1.19,-1.511 3.24,-1.687 6.18,-0.372 5.15,2.304 -0.31,0.807 -0.04,2.095 0.6,2.864 0.63,0.769 0.87,1.686 0.51,2.04 -0.35,0.353 -0.64,0.091 -0.64,-0.583 0,-0.674 -0.46,-0.943 -1.02,-0.598 -0.56,0.346 -0.76,1.042 -0.44,1.548 0.31,0.505 -0.13,0.651 -0.99,0.324 -0.9,-0.347 -1.55,-0.063 -1.55,0.678 0,0.7 -0.26,1.012 -0.58,0.692 -0.32,-0.319 -0.07,-1.532 0.55,-2.694 z m 44.64,-1.241 c 0.29,-0.467 0.95,-0.591 1.46,-0.274 1.31,0.808 1.16,1.124 -0.53,1.124 -0.8,0 -1.22,-0.383 -0.93,-0.85 z m 74.39,-5.935 c 0,-0.55 0.45,-0.722 1,-0.382 0.55,0.34 1,1.068 1,1.618 0,0.55 -0.45,0.722 -1,0.382 -0.55,-0.34 -1,-1.068 -1,-1.618 z m -52.39,-0.464 c -0.34,-0.87 -0.59,-2.332 -0.57,-3.25 0.02,-1.191 0.44,-0.953 1.46,0.832 0.79,1.375 1.45,2.838 1.46,3.25 0.07,1.399 -1.74,0.759 -2.35,-0.832 z m 5.91,-6.385 c -1.39,-2.731 -2.51,-5.319 -2.5,-5.75 0.02,-0.967 5.94,8.925 5.96,9.967 0.04,1.819 -1.13,0.394 -3.46,-4.217 z m 63.181,-5.998 c -1.636,-1.238 -1.757,-1.126 -1.328,1.235 l 0.47,2.597 -4.258,-3.183 c -2.342,-1.751 -5.569,-4.226 -7.172,-5.5 l -2.913,-2.316 3.586,1.936 c 1.973,1.064 4.785,2.721 6.25,3.681 1.465,0.96 2.664,1.505 2.664,1.212 0,-0.294 -1.599,-1.522 -3.553,-2.729 -4.668,-2.885 -3.618,-3.856 1.136,-1.051 2.018,1.19 3.861,1.973 4.095,1.738 0.386,-0.386 -8.338,-5.655 -9.363,-5.655 -0.238,0 -0.155,0.45 0.185,1 0.34,0.55 0.168,1 -0.382,1 -0.55,0 -1.278,-0.45 -1.618,-1 -0.34,-0.55 -0.029,-1.007 0.691,-1.015 0.951,-0.011 0.899,-0.281 -0.191,-0.985 -2.714,-1.754 -0.003,-1.042 4.29,1.127 9.487,4.792 12.894,7.141 11.557,7.967 -1,0.619 -0.603,1.595 1.668,4.109 l 2.981,3.297 -3.498,-3.052 c -1.924,-1.679 -4.308,-3.665 -5.297,-4.413 z m 2.799,-1.035 c -0.34,-0.55 -1.293,-1 -2.118,-1 -0.825,0 -1.222,0.45 -0.882,1 0.34,0.55 1.293,1 2.118,1 0.825,0 1.222,-0.45 0.882,-1 z m -26.41,-1.366 c -0.11,-1.074 8.256,6.34 8.814,7.805 0.223,0.584 -1.648,-0.739 -4.156,-2.939 -2.508,-2.2 -4.598,-4.39 -4.658,-4.866 z m -6.09,4.008 c 0,-1.27 0.46,-0.703 1.92,2.358 1.12,2.357 1.1,2.389 -0.36,0.559 -0.86,-1.068 -1.56,-2.38 -1.56,-2.917 z m -27.03,0.805 c -1.21,-1.954 -1.95,-3.797 -1.65,-4.096 0.3,-0.3 1.48,1.299 2.63,3.552 2.57,5.038 1.99,5.358 -0.98,0.544 z m 79.03,-0.947 c -1.292,-1.375 -2.124,-2.5 -1.849,-2.5 0.275,0 1.557,1.125 2.849,2.5 1.292,1.375 2.124,2.5 1.849,2.5 -0.275,0 -1.557,-1.125 -2.849,-2.5 z m 10.25,-5.244 c -1.238,-0.817 -2.25,-2.083 -2.25,-2.812 0,-0.729 -0.52,-1.647 -1.155,-2.039 -0.771,-0.477 -0.88,-0.271 -0.328,0.622 0.454,0.735 -0.784,0.109 -2.751,-1.392 -3.327,-2.537 -4.136,-4.598 -2.462,-6.273 0.383,-0.382 0.696,-1.16 0.696,-1.729 0,-0.618 -0.482,-0.551 -1.2,0.167 -0.66,0.66 -1.66,1.2 -2.223,1.2 -0.562,0 -0.014,-0.706 1.218,-1.569 2.094,-1.467 2.647,-1.366 8.463,1.54 7.41,3.703 6.547,2.398 -1.259,-1.904 -3.025,-1.667 -4.912,-3.039 -4.194,-3.049 1.924,-0.027 10.243,3.869 13.695,6.413 4.032,2.971 5.5,3.801 5.5,3.108 0,-0.319 -3.433,-2.82 -7.628,-5.559 -4.196,-2.739 -7.108,-4.98 -6.472,-4.98 2.376,0 12.712,6.054 15.74,9.218 l 3.139,3.282 -2.676,2.777 -2.676,2.778 -2.964,-3.203 -2.963,-3.203 3.75,2.142 c 2.062,1.178 3.75,2.007 3.75,1.843 0,-0.165 -1.791,-1.739 -3.981,-3.498 -2.189,-1.76 -3.716,-2.51 -3.393,-1.668 0.348,0.907 0.034,1.545 -0.769,1.564 -0.82,0.019 -0.368,0.921 1.143,2.282 3.55,3.196 5.412,5.686 4.252,5.686 -1.326,0 -8.752,-7.702 -8.752,-9.078 0,-1.961 -3.642,-3.916 -5.471,-2.937 -1.219,0.652 -1.696,0.513 -1.696,-0.495 0,-0.771 0.488,-1.131 1.084,-0.799 0.595,0.331 0.52,-0.004 -0.167,-0.744 -0.857,-0.923 -1.574,-1.023 -2.279,-0.318 -1.13,1.13 2.344,6.371 4.224,6.371 0.676,0 0.633,-0.503 -0.121,-1.411 -0.897,-1.08 -0.889,-1.585 0.032,-2.154 0.758,-0.469 0.942,-0.322 0.497,0.399 -0.469,0.759 -0.101,0.947 1.095,0.56 1.116,-0.361 1.362,-0.261 0.647,0.262 -1.843,1.348 -1.928,1.937 -0.522,3.631 0.728,0.877 1.899,1.373 2.602,1.103 1.122,-0.43 4.979,3.983 5.049,5.777 0.014,0.366 0.436,1.041 0.936,1.5 0.54,0.494 0.582,0.222 0.104,-0.667 -0.602,-1.118 -0.507,-1.224 0.372,-0.417 0.649,0.595 0.888,1.842 0.532,2.771 -0.567,1.476 -0.979,1.356 -3.283,-0.962 -1.449,-1.458 -3.648,-3.319 -4.885,-4.136 z m 0.75,2.999 c 0,-0.275 0.675,0.06 1.5,0.745 0.825,0.685 1.5,1.47 1.5,1.745 0,0.275 -0.675,-0.06 -1.5,-0.745 -0.825,-0.685 -1.5,-1.47 -1.5,-1.745 z m -48,0.245 c -1.292,-1.375 -1.899,-2.5 -1.349,-2.5 0.55,0 2.057,1.125 3.349,2.5 1.292,1.375 1.899,2.5 1.349,2.5 -0.55,0 -2.057,-1.125 -3.349,-2.5 z m 36.177,-2.844 c -0.421,-2.154 0.12,-2.09 2.254,0.268 1.659,1.833 1.655,1.912 -0.095,1.656 -1.01,-0.148 -1.982,-1.014 -2.159,-1.924 z m -56.077,-9.406 c -0.24,-0.137 -0.22,-0.465 0.04,-0.727 0.27,-0.262 2.7,1.875 5.42,4.749 l 4.94,5.227 -4.98,-4.5 c -2.74,-2.474 -5.18,-4.611 -5.42,-4.749 z m 50.9,5.25 c -1.864,-1.375 -2.878,-2.5 -2.253,-2.5 0.624,0 1.432,0.481 1.795,1.068 0.363,0.588 1.389,0.789 2.279,0.447 0.89,-0.341 1.298,-0.301 0.907,0.09 -0.391,0.391 -0.209,1.315 0.403,2.053 1.666,2.007 0.65,1.632 -3.131,-1.158 z m -14.559,0.032 c -2.278,-1.723 -1.198,-2.007 1.71,-0.451 1.111,0.595 2.247,0.855 2.523,0.578 0.277,-0.276 -0.774,-1.195 -2.336,-2.041 -3.867,-2.096 -2.259,-2.025 2.191,0.097 3.016,1.438 3.304,1.83 1.783,2.43 -2.761,1.089 -3.758,0.985 -5.871,-0.613 z m -62.441,-1.277 c 0,-0.275 0.67,0.06 1.5,0.745 0.82,0.685 1.5,1.47 1.5,1.745 0,0.275 -0.68,-0.06 -1.5,-0.745 -0.83,-0.685 -1.5,-1.47 -1.5,-1.745 z m 16.62,-0.807 c -0.34,-0.89 -0.18,-1.291 0.39,-0.941 0.55,0.336 0.99,1.034 0.99,1.552 0,1.438 -0.72,1.121 -1.38,-0.611 z m -9.62,-0.448 c -0.59,-1.1 -0.85,-2 -0.57,-2 0.27,0 0.98,0.9 1.57,2 0.59,1.1 0.85,2 0.57,2 -0.27,0 -0.98,-0.9 -1.57,-2 z m 71.441,-1.45 c -1.873,-1.399 -1.861,-1.43 0.325,-0.88 1.246,0.314 2.51,0.967 2.809,1.451 0.845,1.368 -0.984,1.035 -3.134,-0.571 z m -69.441,-0.55 c -0.59,-1.1 -0.85,-2 -0.57,-2 0.27,0 0.98,0.9 1.57,2 0.59,1.1 0.85,2 0.57,2 -0.27,0 -0.98,-0.9 -1.57,-2 z m 99.934,-0.035 c -1.064,-0.57 -1.934,-1.521 -1.934,-2.115 0,-0.614 1.188,-0.329 2.75,0.659 2.365,1.495 2.532,1.508 1.194,0.095 -0.855,-0.904 -2.43,-1.82 -3.5,-2.034 -1.069,-0.215 -4.149,-1.632 -6.844,-3.15 -2.696,-1.517 -6.521,-3.338 -8.5,-4.046 l -3.6,-1.286 3,-0.142 c 2.592,-0.123 2.253,-0.398 -2.5,-2.025 -5.011,-1.716 -5.144,-1.833 -1.5,-1.324 4.382,0.612 3.933,-1.077 -0.5,-1.882 -1.375,-0.249 -0.156,-0.415 2.71,-0.368 2.865,0.046 4.665,0.431 4,0.853 -0.666,0.423 -0.76,0.783 -0.21,0.8 0.55,0.017 0.325,0.51 -0.5,1.096 -1.143,0.812 -0.786,0.92 1.5,0.455 2.345,-0.478 2.672,-0.369 1.5,0.5 -1.189,0.881 -0.949,0.991 1.161,0.533 1.639,-0.356 4.328,0.19 7,1.421 2.389,1.1 3.215,1.776 1.839,1.503 -1.488,-0.295 -0.679,0.414 2,1.752 6.221,3.107 9.516,5.557 8.644,6.429 -0.404,0.404 -1.727,0.118 -2.939,-0.637 -2.044,-1.273 -2.1,-1.246 -0.769,0.364 1.247,1.509 1.247,1.855 0,2.645 -1.801,1.139 -1.689,1.142 -4.002,-0.096 z m -0.502,-6.075 c -0.804,-1.302 -10.921,-5.927 -12.711,-5.811 -0.671,0.043 0.019,0.532 1.535,1.085 1.516,0.554 2.505,1.413 2.198,1.91 -0.307,0.497 0.137,0.637 0.986,0.311 0.849,-0.326 3.149,0.355 5.112,1.513 1.962,1.158 3.259,1.604 2.88,0.992 z m -6.432,-5.89 c -0.825,-0.533 -1.95,-0.969 -2.5,-0.969 -0.55,0 -0.325,0.436 0.5,0.969 0.825,0.533 1.95,0.969 2.5,0.969 0.55,0 0.325,-0.436 -0.5,-0.969 z m -40.517,10.973 c -0.267,-0.433 0.422,-0.549 1.531,-0.259 1.11,0.29 2.236,0.881 2.503,1.313 0.267,0.433 -0.422,0.549 -1.531,0.259 -1.11,-0.29 -2.236,-0.881 -2.503,-1.313 z m -28.483,-2.524 c 0,-0.275 1.35,0.198 3,1.051 1.65,0.853 3,1.776 3,2.051 0,0.275 -1.35,-0.198 -3,-1.051 -1.65,-0.853 -3,-1.776 -3,-2.051 z m -5,0.806 c 0,-0.275 0.67,0.06 1.5,0.745 0.82,0.685 1.5,1.47 1.5,1.745 0,0.275 -0.68,-0.06 -1.5,-0.745 -0.83,-0.685 -1.5,-1.47 -1.5,-1.745 z m 43.5,-4.255 c -1.319,-0.567 -1.489,-0.878 -0.5,-0.914 0.825,-0.031 2.175,0.381 3,0.914 1.828,1.181 0.249,1.181 -2.5,0 z m 64.5,-3.059 c 0,-0.582 0.45,-0.781 1,-0.441 0.55,0.34 1,0.816 1,1.059 0,0.243 -0.45,0.441 -1,0.441 -0.55,0 -1,-0.477 -1,-1.059 z m -62.5,0.059 c -2.733,-0.695 -2.778,-0.769 -0.5,-0.824 1.375,-0.033 4.3,0.312 6.5,0.767 l 4,0.827 -3.5,-0.003 c -1.925,-0.002 -4.85,-0.347 -6.5,-0.767 z m -9.688,0.317 c 0.722,-0.289 1.585,-0.253 1.917,0.079 0.332,0.332 -0.258,0.568 -1.312,0.525 -1.165,-0.048 -1.402,-0.285 -0.605,-0.604 z m -6.812,-1.317 c -1.333,-0.862 -1.333,-0.963 0,-0.914 0.825,0.03 2.4,0.441 3.5,0.914 2,0.859 2,0.859 0,0.914 -1.1,0.031 -2.675,-0.381 -3.5,-0.914 z m 16.25,-1.689 c 0.962,-0.252 2.537,-0.252 3.5,0 0.962,0.251 0.175,0.457 -1.75,0.457 -1.925,0 -2.713,-0.206 -1.75,-0.457 z m 2.019,-2.004 c 0.973,-0.254 2.323,-0.237 3,0.037 0.677,0.274 -0.119,0.481 -1.769,0.461 -1.65,-0.02 -2.204,-0.244 -1.231,-0.498 z m -38.509,-0.014 c 1.25,-0.239 3.05,-0.23 4,0.02 0.958,0.25 -0.06,0.446 -2.26,0.435 -2.2,-0.011 -2.98,-0.216 -1.74,-0.455 z m 23.49,-1.009 c 1.512,-0.229 3.987,-0.229 5.5,0 1.512,0.229 0.275,0.416 -2.75,0.416 -3.025,0 -4.263,-0.187 -2.75,-0.416 z m -31.44,0.033 c 0.72,-0.289 1.59,-0.253 1.92,0.079 0.33,0.332 -0.26,0.568 -1.31,0.525 -1.17,-0.048 -1.41,-0.285 -0.61,-0.604 z m -19,0 c 0.72,-0.289 1.59,-0.253 1.92,0.079 0.33,0.332 -0.26,0.568 -1.31,0.525 -1.17,-0.048 -1.41,-0.285 -0.61,-0.604 z m 100.19,-1.317 c -1.828,-1.181 -0.249,-1.181 2.5,0 1.319,0.567 1.489,0.878 0.5,0.914 -0.825,0.031 -2.175,-0.381 -3,-0.914 z m -92.19,0.317 c 0.72,-0.289 1.59,-0.253 1.92,0.079 0.33,0.332 -0.26,0.568 -1.31,0.525 -1.17,-0.048 -1.41,-0.285 -0.61,-0.604 z m 96.19,-1.317 c -1.333,-0.862 -1.333,-0.969 0,-0.969 0.825,0 2.175,0.436 3,0.969 1.333,0.862 1.333,0.969 0,0.969 -0.825,0 -2.175,-0.436 -3,-0.969 z m -52.232,0.275 c 1.797,-0.222 4.497,-0.218 6,0.01 1.503,0.229 0.032,0.411 -3.268,0.405 -3.3,-0.005 -4.529,-0.192 -2.732,-0.415 z m 44.044,-0.958 c 0.722,-0.289 1.585,-0.253 1.917,0.079 0.332,0.332 -0.258,0.568 -1.312,0.525 -1.165,-0.048 -1.402,-0.285 -0.605,-0.604 z m 9.688,-1.317 c -1.319,-0.567 -1.489,-0.878 -0.5,-0.914 0.825,-0.031 2.175,0.381 3,0.914 1.828,1.181 0.249,1.181 -2.5,0 z m -5.688,0.317 c 0.722,-0.289 1.585,-0.253 1.917,0.079 0.332,0.332 -0.258,0.568 -1.312,0.525 -1.165,-0.048 -1.402,-0.285 -0.605,-0.604 z m -95.812,-1.233 c 0.82,-0.47 3.07,-1.127 5,-1.46 l 3.5,-0.606 -3.5,1.415 c -4.06,1.643 -7.53,2.095 -5,0.651 z m 94,-1.084 c -2.01,-0.644 -2.108,-0.806 -0.5,-0.83 1.1,-0.016 2.9,0.357 4,0.83 2.548,1.095 -0.081,1.095 -3.5,0 z m -81.5,-2.5279998 c 2.2,-0.725 4.9,-1.3087 6,-1.297 1.1,0.0118 -0.03,0.608 -2.5,1.325 -5.87,1.7009998 -8.68,1.6789998 -3.5,-0.028 z m 58.769,-0.165 c 0.973,-0.2535 2.323,-0.2368 3,0.0371 0.677,0.2739 -0.119,0.4814 -1.769,0.461 -1.65,-0.0204 -2.204,-0.2445 -1.231,-0.4981 z m -82.449,-1.5236 c 0.71,-0.7176 1.18,-0.7767 1.18,-0.15 0,1.3347 -1.18,2.5175998 -1.85,1.85 -0.28,-0.2842 0.02,-1.0492 0.67,-1.7 z m 97.992,0.5335 c 0.722,-0.2889 1.585,-0.2533 1.917,0.079 0.332,0.3322 -0.258,0.5686 -1.312,0.5252 -1.165,-0.048 -1.402,-0.285 -0.605,-0.6042 z m -65.062,-0.9792 c 0.69,-0.2774 1.81,-0.2774 2.5,0 0.69,0.2775 0.12,0.5044 -1.25,0.5044 -1.38,0 -1.94,-0.2269 -1.25,-0.5044 z m 5,-1 c 0.687,-0.2774 1.812,-0.2774 2.5,0 0.687,0.2775 0.125,0.5044 -1.25,0.5044 -1.38,0 -1.94,-0.2269 -1.25,-0.5044 z m 10.062,-1.0208 c 0.722,-0.2889 1.585,-0.2533 1.917,0.079 0.332,0.3322 -0.258,0.5686 -1.312,0.5252 -1.165,-0.048 -1.402,-0.285 -0.605,-0.6042 z m 7.457,-1.0099 c 0.973,-0.2535 2.323,-0.2368 3,0.0371 0.677,0.2739 -0.119,0.4814 -1.769,0.461 -1.65,-0.0204 -2.204,-0.2445 -1.231,-0.4981 z m 34.543,-0.9901 c 0.722,-0.2889 1.585,-0.2533 1.917,0.079 0.332,0.3322 -0.258,0.5686 -1.312,0.5252 -1.165,-0.048 -1.402,-0.285 -0.605,-0.6042 z m -20.062,0.0208 c 0.687,-0.2774 1.812,-0.2774 2.5,0 0.687,0.2775 0.125,0.5044 -1.25,0.5044 -1.375,0 -1.938,-0.2269 -1.25,-0.5044 z m -4.938,-0.0208 c 0.722,-0.2889 1.585,-0.2533 1.917,0.079 0.332,0.3322 -0.258,0.5686 -1.312,0.5252 -1.165,-0.048 -1.402,-0.285 -0.605,-0.6042 z m -69.612,153.1599968 c 0.59,-0.97 -3.07,-11.94 -3.76,-11.25 -0.19,0.2 0.43,3.03 1.4,6.29 0.97,3.27 2.03,5.5 2.36,4.96 z m 1.67,-3.47 c 0.02,-0.83 -0.58,-2.85 -1.33,-4.5 -0.76,-1.65 -1.39,-2.33 -1.41,-1.5 -0.02,0.82 0.58,2.85 1.33,4.5 0.76,1.65 1.39,2.32 1.41,1.5 z m 1.05,-4.42 c 0.04,-1.06 -0.19,-1.65 -0.52,-1.31 -0.34,0.33 -0.37,1.19 -0.08,1.91 0.32,0.8 0.55,0.56 0.6,-0.6 z m -11.01,-3.08 c -0.1,-1.9 -1.77,-5.09 -1.82,-3.5 -0.03,0.82 0.38,2.17 0.91,3 0.53,0.82 0.94,1.05 0.91,0.5 z m 7.06,-1 c 0,-0.55 -0.44,-1.68 -0.97,-2.5 -0.53,-0.83 -0.97,-1.05 -0.97,-0.5 0,0.55 0.44,1.67 0.97,2.5 0.53,0.82 0.97,1.05 0.97,0.5 z m 6.92,-2 c -0.02,-0.55 -0.9,-2.8 -1.96,-5 -1.06,-2.2 -1.65,-2.88 -1.3,-1.5 0.7,2.83 3.31,8.02 3.26,6.5 z m -63.89,-4.88 c 0,-0.21 -0.68,-0.94 -1.5,-1.62 -1.23,-1.02 -1.5,-0.96 -1.5,0.37 0,0.89 0.67,1.63 1.5,1.63 0.82,0 1.5,-0.17 1.5,-0.38 z m -107.750002,-5.48 c 0.36,-1.38 0.04,-1.86 -1.12,-1.69 -1.84,0.27 -2.22,2.68 -0.51,3.25 0.62,0.21 1.35,-0.49 1.63,-1.56 z m 86.750002,0.06 c 0,-0.44 -1.13,-0.8 -2.5,-0.8 -1.38,0 -2.5,0.36 -2.5,0.8 0,0.44 1.12,0.8 2.5,0.8 1.37,0 2.5,-0.36 2.5,-0.8 z m -12.22,-3.19 c -0.68,-1.09 -1.92,-2.24 -2.76,-2.55 -1.22,-0.47 -1.27,-0.33 -0.27,0.68 1.71,1.71 1.58,3.19 -0.22,2.51 -0.81,-0.31 -1.73,-0.14 -2.06,0.39 -0.33,0.54 0.96,0.96 2.98,0.96 3.31,0 3.48,-0.15 2.33,-1.99 z m -38.860002,0.57 c 0.04,-1.06 -0.19,-1.65 -0.52,-1.31 -0.34,0.33 -0.37,1.19 -0.08,1.91 0.32,0.8 0.55,0.56 0.6,-0.6 z m -67.0800002,-0.58 c 0,-1.38 -0.22,-1.94 -0.5,-1.25 -0.28,0.68 -0.28,1.81 0,2.5 0.28,0.68 0.5,0.12 0.5,-1.25 z m 97.2700022,-0.37 c -0.910002,-1.1 -0.630002,-1.31 1.44,-1.08 2.53,0.28 2.54,0.24 0.94,-2.22 -0.91,-1.37 -1.39,-3.15 -1.09,-3.94 0.48,-1.26 -4.860002,-11.39 -6.010002,-11.39 -0.24,0 0.48,1.78 1.59,3.96 2.3,4.5 2.49,5.44 0.92,4.47 -0.61,-0.37 -0.36,0.46 0.55,1.85 1.600002,2.44 0.96,4.3 -1,2.9 -1.06,-0.76 -1.56,-2.45 -1.84,-6.22 -0.18,-2.3 -3.61,-8.55 -3.61,-6.57 0,0.47 -0.78,0.23 -1.73,-0.52 -0.95,-0.76 -0.22,0.56 1.62,2.92 1.84,2.36 3.09,4.56 2.77,4.88 -0.33,0.32 -0.14,1.43 0.41,2.46 0.69,1.29 0.66,1.87 -0.09,1.87 -0.61,0 -0.86,0.38 -0.57,0.85 0.29,0.47 -0.17,1.7 -1.02,2.75 -1.42,1.73 -1.5,1.74 -0.98,0.09 0.31,-0.99 0.17,-1.55 -0.32,-1.25 -1.02,0.63 -2.34,-2.23 -1.59,-3.45 0.66,-1.07 -2.2,-0.65 -3.22,0.47 -0.43,0.47 -0.14,0.49 0.64,0.03 1.07,-0.62 1.26,-0.4 0.76,0.89 -0.44,1.15 -0.28,1.48 0.49,1.01 0.75,-0.46 0.86,-0.26 0.33,0.61 -0.63,1.02 -1.21,0.83 -2.57,-0.84 -0.96,-1.19 -2.49,-2.16 -3.4,-2.16 -1.5,0 -1.49,0.25 0.12,2.97 1.02,1.73 2.03,2.54 2.41,1.92 0.43,-0.68 0.86,-0.54 1.22,0.4 0.9,2.34 -10.02,2.05 -11.28,-0.3 -0.8,-1.49 -4,-3.58 -4,-2.61 0,0.18 1.1,1.51 2.45,2.97 2.18,2.35 3.2,2.65 9.11,2.65 5.44,0 6.55,-0.27 6.09,-1.47 -0.31,-0.81 -0.15,-1.73 0.36,-2.04 0.51,-0.32 1.24,0.65 1.62,2.16 0.68,2.73 0.68,2.73 1.54,0.42 0.72,-1.96 1.08,-2.11 2.43,-0.99 1.35,1.12 1.53,1.04 1.24,-0.53 -0.41,-2.18 2.76,-3.05 3.550002,-0.97 0.3,0.77 0.05,1.28 -0.540002,1.15 -0.6,-0.13 -1.22,0.55 -1.38,1.52 -0.17,1.03 0.33,1.75 1.24,1.75 1.180002,0 1.280002,-0.32 0.400002,-1.37 z m -3.380002,0.76 c -0.33,-0.33 -1.2,-0.37 -1.92,-0.08 -0.8,0.32 -0.56,0.56 0.61,0.61 1.05,0.04 1.64,-0.2 1.31,-0.53 z m -23.75,-0.64 c 0,-0.69 -0.45,-1.93 -0.99,-2.75 -0.74,-1.15 -0.92,-0.86 -0.76,1.25 0.2,2.66 1.79,4.01 1.75,1.5 z m -6.29,-1.5 c 0.34,-0.97 0.81,-2.2 1.04,-2.75 0.23,-0.55 -0.29,-0.13 -1.16,0.94 -1.57,1.93 -2.04,3.56 -1.04,3.56 0.29,0 0.81,-0.79 1.16,-1.75 z m -22.19,0.75 c 3.3,-0.37 5.07,-0.74 3.93,-0.84 -1.21,-0.1 -2.78,-1.51 -3.78,-3.41 -1.5,-2.84 -1.47,-1.73 0.05,2 0.8,1.96 -3.45,1.5 -4.62,-0.5 -0.92,-1.58 -1.02,-1.54 -1.05,0.41 -0.02,1.19 -0.59,2.4 -1.28,2.67 -1.41,0.57 -1.46,0.57 6.75,-0.33 z m -10.92,-3.66 c -0.06,-3.64 -0.44,-4.95 -1.33,-4.61 -1.51,0.58 -1.48,1.7 0.15,6.23 l 1.26,3.47 z m -25.0800002,1.66 c 0.38,-1.73 0.48,-3.36 0.23,-3.61 -0.26,-0.26 -0.75,0.97 -1.11,2.73 -0.83,4.17 -0.02,4.98 0.88,0.88 z m 75.5000002,-0.1 c 0,-0.36 -0.68,-1.22 -1.5,-1.9 -0.83,-0.69 -1.5,-0.88 -1.5,-0.44 0,0.45 -0.61,-0.01 -1.35,-1.03 -1.05,-1.43 -1.52,-1.55 -2.15,-0.53 -0.51,0.81 -0.42,1.06 0.24,0.66 0.58,-0.36 1.32,0.05 1.65,0.9 0.33,0.86 1.05,1.28 1.6,0.94 0.56,-0.34 1.01,-0.18 1.01,0.35 0,0.54 -0.56,1.2 -1.25,1.46 -0.69,0.26 -0.24,0.43 1,0.37 1.24,-0.06 2.25,-0.41 2.25,-0.78 z m -78.1600002,-0.9 c 0,-1.38 -0.22,-1.94 -0.5,-1.25 -0.28,0.68 -0.28,1.81 0,2.5 0.28,0.68 0.5,0.12 0.5,-1.25 z m 43.1600002,0.25 c 0,-0.48 -0.65,-1.75 -1.45,-2.81 -1.4,-1.88 -1.43,-1.87 -0.88,0.32 0.57,2.26 2.33,4.14 2.33,2.49 z m -7.08,-0.67 c 0.04,-1.06 -0.19,-1.65 -0.52,-1.31 -0.34,0.33 -0.37,1.19 -0.08,1.91 0.32,0.8 0.55,0.56 0.6,-0.6 z m 23.97,-0.96 c 1.58,-1.9 0.33,-5.05 -1.42,-3.6 -0.98,0.82 -1.47,0.56 -1.98,-1.05 -0.37,-1.17 -0.86,-1.94 -1.09,-1.7 -0.45,0.44 2.37,7.73 2.99,7.73 0.2,0 0.88,-0.62 1.5,-1.38 z m -1.01,-1.89 c 0.98,-0.98 1.1,-0.87 0.56,0.56 -0.38,0.98 -0.94,1.54 -1.25,1.23 -0.3,-0.31 0,-1.11 0.69,-1.79 z m -13.23,1.72 c 0.33,-0.85 0.37,-1.76 0.1,-2.04 -0.27,-0.27 -0.74,0.42 -1.03,1.55 -0.62,2.38 0.07,2.75 0.93,0.49 z m 42.09,-1.64 c 0.12,-1.61 -0.12,-1.75 -1.3,-0.77 -1.76,1.47 -1.77,1.61 -0.14,2.24 0.76,0.29 1.35,-0.31 1.44,-1.47 z m -81.82,0.77 c 0.04,-1.06 -0.19,-1.65 -0.52,-1.31 -0.34,0.33 -0.37,1.19 -0.08,1.91 0.32,0.8 0.55,0.56 0.6,-0.6 z m 27.1,-1.17 c 0.01,-1.6 0.17,-1.67 0.98,-0.41 0.8,1.23 0.95,1.14 0.89,-0.5 -0.05,-1.1 -0.41,-3.13 -0.8,-4.5 -0.64,-2.22 -0.8,-2 -1.44,1.88 -0.39,2.41 -0.48,4.62 -0.18,4.92 0.29,0.29 0.54,-0.33 0.55,-1.39 z m -3.1,0.17 c 0.04,-1.06 -0.19,-1.65 -0.52,-1.31 -0.34,0.33 -0.37,1.19 -0.08,1.91 0.32,0.8 0.55,0.56 0.6,-0.6 z m -21.23,-4.08 c 0.01,-3.3 -0.18,-4.78 -0.4,-3.27 -0.23,1.5 -0.24,4.2 -0.01,6 0.22,1.79 0.4,0.57 0.41,-2.73 z m 61.86,3.42 c 0.25,-0.41 -0.2,-0.65 -1.02,-0.53 -2.09,0.3 -2.84,1.27 -0.99,1.27 0.85,0 1.76,-0.33 2.01,-0.74 z m -66.6300002,-0.59 c 0.04,-0.65 0.3400002,-2 0.6600002,-3 0.54,-1.74 0.51,-1.75 -0.5800002,-0.05 -0.63,0.99 -0.92,2.34 -0.65,3 0.36,0.88 0.51,0.89 0.57,0.05 z m 59.4600002,-1.87 c 0.96,-2.52 0.68,-3.17 -0.5,-1.14 -0.59,1 -0.85,2.04 -0.6,2.29 0.26,0.26 0.75,-0.26 1.1,-1.15 z m -64.4600002,0.12 c 0.04,-1.06 -0.19,-1.65 -0.52,-1.31 -0.34,0.33 -0.37,1.19 -0.08,1.91 0.32,0.8 0.55,0.56 0.6,-0.6 z m 87.1200002,-1.3 c -0.74,-1.53 -1.61,-2.01 -2.81,-1.56 -1.46,0.55 -1.53,0.41 -0.47,-0.9 1.02,-1.26 0.91,-1.98 -0.61,-3.93 -1.02,-1.32 -2.63,-4.76 -3.58,-7.64 -0.95,-2.89 -1.95,-5.254997 -2.22,-5.254997 -0.27,0 -0.15,1.013 0.25,2.254997 0.4,1.23 0.85,3.15 0.98,4.25 0.14,1.1 0.29,2.3 0.34,2.67 0.04,0.38 0.76,1.36 1.59,2.19 0.83,0.83 1.1,1.76 0.61,2.06 -1.25,0.78 -4.21,-4.01 -4.66,-7.52 -0.2,-1.61 -0.78,-3.65 -1.28,-4.540997 -0.69,-1.241 -0.88,-0.907 -0.79,1.410997 0.06,1.66 0.52,2.77 1.03,2.46 0.51,-0.31 0.65,0.15 0.31,1.02 -0.75,1.95 6.23,12.25 8.31,12.25 0.8,0 2.05,0.67 2.77,1.5 1.09,1.26 1.13,1.14 0.23,-0.72 z m -5.35,-5.59 c 0.31,-0.5 0.92,-0.32 1.37,0.4 0.44,0.72 0.56,1.72 0.25,2.21 -0.31,0.5 -0.92,0.32 -1.37,-0.4 -0.44,-0.72 -0.56,-1.72 -0.25,-2.21 z m -1.38,6.56 c 0.23,-0.42 -0.42,-2.1 -1.44,-3.75 -1.02,-1.65 -1.86,-2.54 -1.86,-1.98 -0.01,0.57 0.65,1.97 1.45,3.12 0.81,1.15 1.19,2.38 0.84,2.72 -0.35,0.35 -0.36,0.64 -0.03,0.64 0.34,0 0.8,-0.34 1.04,-0.75 z m -47.33,-2 c -0.01,-2.15 -0.22,-2.42 -0.98,-1.25 -1.26,1.95 -1.26,4 0,4 0.55,0 0.99,-1.24 0.98,-2.75 z m 172.020002,1.2 c 0,-1.21 -7.04,-11.45 -7.87,-11.45 -0.49,0 -1.45,-1.36 -2.14,-3.03 -0.69,-1.66 -1.67,-3.279997 -2.19,-3.600997 -0.52,-0.321 -0.01,1.260997 1.15,3.520997 1.15,2.26 2.53,4.11 3.06,4.11 0.54,0 2.37,2.47 4.08,5.5 2.85,5.04 3.91,6.39 3.91,4.95 z m -175.080002,-1.87 c 0.04,-1.06 -0.19,-1.65 -0.52,-1.31 -0.34,0.33 -0.37,1.19 -0.08,1.91 0.32,0.8 0.55,0.56 0.6,-0.6 z m 29.08,-0.2 c 0,-0.55 -0.66,-1.88 -1.47,-2.94 -0.81,-1.07 -1.47,-1.49 -1.47,-0.94 0,0.55 0.66,1.87 1.47,2.94 0.81,1.06 1.47,1.49 1.47,0.94 z m 6.85,-0.88 c 0.01,-0.55 -0.33,-1.88 -0.75,-2.95 -0.73,-1.86 -0.79,-1.85 -1.34,0.25 -0.31,1.21 -0.2,1.97 0.25,1.69 0.45,-0.28 1.05,0.06 1.33,0.75 0.27,0.69 0.51,0.81 0.51,0.26 z m 142.140002,-1.69 c 0.01,-0.84 -6.14,-10.81 -6.67,-10.81 -0.2,0 0.29,1.23 1.11,2.75 2.04,3.8 5.56,8.89 5.56,8.06 z m -132.650002,-1.36 c -0.3,-0.79 -0.95,-1.19 -1.44,-0.89 -1.24,0.77 -1.13,1.13 0.55,1.78 0.97,0.37 1.26,0.07 0.89,-0.89 z m -14.37,1.05 c 0,-0.55 -0.44,-1.68 -0.97,-2.5 -0.53,-0.83 -0.97,-1.05 -0.97,-0.5 0,0.55 0.44,1.67 0.97,2.5 0.53,0.82 0.97,1.05 0.97,0.5 z m 116.030002,-1.76 c 0,-0.28 -0.68,-1.06 -1.5,-1.74 -0.83,-0.69 -1.5,-1.02 -1.5,-0.75 0,0.28 0.67,1.06 1.5,1.75 0.82,0.68 1.5,1.01 1.5,0.74 z m -4.08,-0.07 c -1.7,-1.33 -7.92,-4.74 -7.92,-4.34 0,0.65 6.49,4.67 7.53,4.67 0.44,0 0.62,-0.15 0.39,-0.33 z m -99.430002,-1.65 c 0.33,-0.54 -0.12,-2.23 -1.01,-3.75 -0.88,-1.53 -1.29,-1.87 -0.9,-0.77 0.39,1.1 0.74,2.78 0.78,3.75 0.08,2 0.28,2.14 1.13,0.77 z m -16.68,-3.17 c 0.7,-2.26 1.03,-4.35 0.73,-4.64 -0.3,-0.3 -0.54,0 -0.54,0.68 0,0.67 -0.42,0.96 -0.93,0.65 -1.34,-0.83 -2.25,2.79 -1.33,5.29 0.69,1.86 0.94,1.62 2.07,-1.98 z m 33.19,2.15 c 0,-0.55 -0.45,-1 -1,-1 -0.55,0 -1,0.45 -1,1 0,0.55 0.45,1 1,1 0.55,0 1,-0.45 1,-1 z m -20.03,0.5 c 0,-0.55 -0.44,-1.68 -0.97,-2.5 -0.53,-0.83 -0.97,-1.05 -0.97,-0.5 0,0.55 0.44,1.67 0.97,2.5 0.53,0.82 0.97,1.05 0.97,0.5 z m -11.59,-1.04 c 0.96,-2.52 0.68,-3.17 -0.5,-1.14 -0.59,1 -0.85,2.04 -0.6,2.29 0.26,0.26 0.75,-0.26 1.1,-1.15 z m -51.92,0.6 c 0.31,-0.51 0.12,-1.21 -0.44,-1.55 -0.56,-0.35 -1.0200002,0.07 -1.0200002,0.93 0,1.75 0.6000002,2.01 1.4600002,0.62 z m 212.830002,-6.32 c 2.59,-3.385997 4.66,-6.853997 4.59,-7.701997 -0.08,-1.162 -0.23,-1.108 -0.57,0.219 -0.25,0.97 -0.88,1.505 -1.39,1.191 -0.5,-0.314 -0.93,0.468 -0.94,1.738 -0.01,1.858 -0.2,2.016 -0.98,0.809 -0.78,-1.207 -0.97,-1.049 -0.98,0.809 -0.01,1.285997 -0.46,2.035997 -1.02,1.695997 -0.55,-0.35 -1.03,0.41 -1.07,1.69 -0.07,2.15 -0.12,2.17 -0.85,0.31 -0.65,-1.68 -0.87,-1.44 -1.31,1.5 -0.29,1.92 -0.46,3.59 -0.36,3.7 0.09,0.12 2.29,-2.56 4.88,-5.96 z m -45.93,4.76 c 0.32,-0.83 0.14,-1.5 -0.39,-1.5 -0.53,0 -0.97,0.67 -0.97,1.5 0,0.82 0.18,1.5 0.39,1.5 0.22,0 0.66,-0.68 0.97,-1.5 z m 5.64,0.05 c 0,-0.24 -0.45,-0.72 -1,-1.05 -0.55,-0.34 -1,-0.15 -1,0.44 0,0.58 0.45,1.06 1,1.06 0.55,0 1,-0.2 1,-0.45 z m -20.33,-1.44 c 0,-0.89 -0.71,-2.16 -1.58,-2.82 -1.35,-1.01 -1.21,-1.13 0.91,-0.73 1.37,0.25 1.89,0.17 1.14,-0.17 -1.03,-0.48 -1.07,-0.82 -0.17,-1.38 0.84,-0.517997 0.67,-0.940997 -0.61,-1.428997 -0.99,-0.38 -1.48,-0.375 -1.1,0.012 0.39,0.387 -0.07,1.311 -1.03,2.056997 -1.63,1.27 -1.61,1.44 0.27,2.95 1.96,1.57 1.95,1.59 -0.38,0.89 -1.47,-0.44 -2.14,-0.34 -1.76,0.28 1.12,1.81 4.31,2.07 4.31,0.34 z m -18.76,0.89 c 0.03,-0.83 -0.38,-2.18 -0.91,-3 -1.18,-1.83 -1.18,-0.25 0,2.5 0.57,1.31 0.88,1.48 0.91,0.5 z m -55.910002,0.05 c 0,-0.51 -0.44,-1.21 -0.99,-1.55 -0.57,-0.35 -0.73,0.05 -0.39,0.94 0.66,1.74 1.38,2.05 1.38,0.61 z m 116.260002,-2.3 c -0.75,-3.05 -6.01,-14.754997 -6.63,-14.754997 -0.28,0 0.82,2.915 2.43,6.478 1.62,3.563 2.94,7.136997 2.94,7.936997 0,0.81 0.41,1.72 0.91,2.03 0.5,0.31 0.66,-0.46 0.35,-1.69 z m -31.24,0.77 c -0.6,-0.73 -1.99,-1.08 -3.1,-0.79 -2.49,0.65 -1.8,1.44 1.6,1.82 2.04,0.22 2.36,0 1.5,-1.03 z m 44.9,-0.94 c 0.04,-1.06 -0.19,-1.65 -0.52,-1.31 -0.34,0.33 -0.37,1.19 -0.08,1.91 0.32,0.8 0.55,0.56 0.6,-0.6 z m -4.96,0.87 c -0.01,-0.53 -0.71,-2.08 -1.54,-3.45 l -1.5,-2.504997 0.65,2.504997 c 0.68,2.6 2.46,5.16 2.39,3.45 z m -10.96,-0.16 c 0,-1.2 -4.95,-10.294997 -5.6,-10.294997 -0.4,0 4.38,9.994997 5.22,10.914997 0.21,0.23 0.38,-0.05 0.38,-0.62 z m -108.210002,-2.46 c -1.24,-3.565997 -1.53,-3.565997 -1.4,0 0.06,1.55 0.62,2.83 1.25,2.83 0.82,0 0.86,-0.8 0.15,-2.83 z m -80.41,0.63 c 0.96,-2.52 0.68,-3.166997 -0.5,-1.14 -0.59,1 -0.85,2.04 -0.6,2.29 0.26,0.26 0.75,-0.26 1.1,-1.15 z m 200.890002,-1.55 c -0.35,-1.346997 -0.81,-1.800997 -1.06,-1.051997 -0.24,0.721997 0.04,1.791997 0.62,2.371997 0.74,0.74 0.87,0.35 0.44,-1.32 z m -57.95,0.48 c -0.25,-0.65 0.21,-1.797997 1.02,-2.541997 1.29,-1.189 1.27,-1.582 -0.18,-3.248 -1.59,-1.812 -1.56,-1.844 0.59,-0.715 3.52,1.845 2.64,-0.232 -1,-2.361 -2.49,-1.459 -2.95,-1.534 -1.97,-0.321 1.06,1.3 1.02,1.85 -0.24,3.106 -1.16,1.159 -1.22,1.665 -0.28,2.106 0.97,0.455 0.96,0.709 -0.05,1.177 -0.99,0.459 -1.02,0.923 -0.13,1.997997 1.44,1.74 -0.17,1.86 -2.08,0.16 -1.19,-1.061997 -1.21,-0.994997 -0.14,0.43 1.43,1.89 5.17,2.07 4.46,0.21 z m -90.350002,1.11 c 0,-0.55 -0.44,-1.68 -0.97,-2.5 -0.53,-0.829997 -0.97,-1.054997 -0.97,-0.504997 0,0.554997 0.44,1.674997 0.97,2.504997 0.53,0.82 0.97,1.05 0.97,0.5 z m 108.070002,-1.53 c 0.99,-0.61 0.62,-1.02 -1.39,-1.525997 -3.36,-0.843 -4.18,-0.261 -1.77,1.245997 1.04,0.65 2.37,0.77 3.16,0.28 z m -87.040002,-0.92 c 0,-0.512997 -0.44,-1.211997 -0.99,-1.547997 -0.57,-0.35 -0.73,0.051 -0.39,0.941 0.66,1.736997 1.38,2.046997 1.38,0.606997 z M 216.50526,95.169913 c -0.41,-1.868 -2.04,-6.143 -3.65,-9.5 -3.07,-6.439 -3.03,-6.193 0.8,4.85 2.69,7.749 3.95,9.811997 2.85,4.65 z m -2.58,2.341 c 0.1,-1.498 -4.07,-13.635 -4.53,-13.174 -0.21,0.211 0.7,3.498 2.03,7.306 1.33,3.808 2.45,6.449 2.5,5.868 z m -3.02,0.056 c -0.1,-1.894 -1.77,-5.084 -1.82,-3.5 -0.03,0.825 0.38,2.175 0.91,3 0.53,0.825 0.94,1.05 0.91,0.5 z m 8.09,-1.562 c 0,-1.787 -4.99,-15.135 -6.13,-16.381 -0.47,-0.519 0.54,3.081 2.25,8 3.23,9.313 3.88,10.718 3.88,8.381 z m 4.57,-2.649 c -0.42,-3.53 -3.58,-13.614 -4.1,-13.089 -0.33,0.322 3.08,13.331 4,15.3 0.26,0.55 0.3,-0.445 0.1,-2.211 z m -18.64,2.211 c 0,-0.55 -0.64,-2.125 -1.43,-3.5 -0.79,-1.375 -1.43,-2.05 -1.43,-1.5 0,0.55 0.64,2.125 1.43,3.5 0.79,1.375 1.43,2.05 1.43,1.5 z m 15.95,-2 c 0.02,-1.1 -0.59,-3.35 -1.34,-5 -1.78,-3.87 -1.8,-1.082 -0.04,3.5 0.87,2.271 1.36,2.798 1.38,1.5 z m -77.87,-0.477 c -0.58,-1.087 -2.01,-2.49 -3.18,-3.116 -2.13,-1.135 -2.12,-1.13 0.09,1.977 2.47,3.469 4.8,4.327 3.09,1.139 z m 87.91,-0.44 c 0.04,-1.054 -0.19,-1.644 -0.52,-1.312 -0.34,0.332 -0.37,1.195 -0.08,1.917 0.32,0.797 0.55,0.56 0.6,-0.605 z m -5.03,-1.133 c 0.06,-1.677 0.56,-3.496 1.1,-4.04 0.65,-0.654 0.31,-2.841 -1,-6.436 -1.09,-2.995 -1.99,-5.64 -1.99,-5.877 0,-0.236 -0.23,-0.204 -0.5,0.072 -0.28,0.277 0.37,3.042 1.44,6.146 1.06,3.103 1.58,5.862 1.15,6.131 -0.44,0.269 -1.34,-1.341 -2.01,-3.576 -0.67,-2.236 -1.43,-3.858 -1.68,-3.606 -0.25,0.252 0.04,1.759 0.66,3.347 0.61,1.589 1.47,4.689 1.91,6.889 0.73,3.617 0.82,3.708 0.92,0.95 z m -33.96,2.175 c 0.1,-1.229 -5.14,-12.749 -5.6,-12.293 -0.2,0.206 0.96,3.252 2.58,6.771 1.62,3.518 2.98,6.003 3.02,5.522 z m -17.93,-0.495 c 0,-0.493 -1.01,-1.116 -2.25,-1.385 -1.24,-0.268 -3.15,-0.842 -4.25,-1.276 -3.55,-1.396 -1.03,0.414 2.8,2.012 2.04,0.85 3.7,1.142 3.7,0.649 z m -11,0.265 c 0,-0.826 -3.19,-3.319 -4.31,-3.363 -0.44,-0.018 -0.53,0.416 -0.19,0.963 0.8,1.301 4.5,3.273 4.5,2.4 z m -18,-1.043 c 0,-0.562 -1.35,-2.224 -3,-3.694 -1.65,-1.471 -3,-2.304 -3,-1.853 0,0.452 1.35,2.114 3,3.695 1.65,1.581 3,2.414 3,1.852 z m -77.380002,-3.063 c -0.05,-2.827 -0.36,-3.718 -0.92,-2.712 -0.47,0.826 -0.43,2.716 0.09,4.211 0.84,2.463 0.92,2.325 0.83,-1.499 z m 160.300002,1.294 c 0.04,-1.054 -0.19,-1.644 -0.52,-1.312 -0.34,0.332 -0.37,1.195 -0.08,1.917 0.32,0.797 0.55,0.56 0.6,-0.605 z m -157.380002,0.35 c 0.36,-0.586 0.45,-1.281 0.18,-1.543 -0.26,-0.262 -0.74,0.218 -1.07,1.067 -0.67,1.762 -0.09,2.072 0.89,0.476 z m 166.060002,-2.166 c 1.37,-1.607 1.43,-1.871 0.23,-0.941 -1.44,1.113 -1.74,0.972 -2.13,-1.018 -0.3,-1.498 -0.43,-1.168 -0.37,0.942 0.05,1.788 0.15,3.25 0.23,3.25 0.07,0 0.99,-1.005 2.04,-2.233 z m -74.6,1.348 c 0,-0.897 -3,-2.443 -3.6,-1.851 -0.17,0.172 0.57,0.861 1.65,1.532 1.07,0.672 1.95,0.815 1.95,0.319 z m 67.92,-1.532 c 0.04,-1.054 -0.19,-1.644 -0.52,-1.312 -0.34,0.332 -0.37,1.195 -0.08,1.917 0.32,0.797 0.55,0.56 0.6,-0.605 z m -83.92,-0.083 c -1,-1.209 -0.98,-1.506 0.13,-1.53 0.92,-0.021 0.8,-0.363 -0.39,-1.055 -2.69,-1.569 -4.18,-0.06 -2.15,2.184 2.02,2.234 4.24,2.602 2.41,0.401 z m 61.97,-0.712 c 0.03,-1.963 -3.79,-12.727 -5.12,-14.412 -0.49,-0.619 -1.75,-3.544 -2.8,-6.5 -1.04,-2.957 -1.94,-4.574 -1.98,-3.594 -0.04,0.98 0.61,3.415 1.45,5.411 0.83,1.996 1.25,4.569 0.93,5.718 -0.45,1.625 -0.36,1.762 0.43,0.618 1.36,-1.983 1.58,-1.65 4.52,6.977 1.4,4.122 2.56,6.723 2.57,5.782 z m -138.430002,0.145 c 0.36,-0.586 0.45,-1.281 0.18,-1.543 -0.26,-0.262 -0.74,0.218 -1.07,1.067 -0.67,1.762 -0.09,2.072 0.89,0.476 z m 128.090002,-6.467 c -1.11,-3.532 -2.17,-6.255 -2.38,-6.051 -0.54,0.546 2.75,11.47 3.63,12.011 0.41,0.254 -0.15,-2.428 -1.25,-5.96 z m -36.36,5.41 c -0.68,-0.683 -1.49,-0.991 -1.8,-0.683 -0.3,0.308 0.25,0.867 1.24,1.243 1.42,0.542 1.54,0.428 0.56,-0.56 z m 68.68,-2.537 c 0.07,-1.532 -4.14,-12.485 -4.61,-12.014 -0.2,0.202 0.74,3.248 2.1,6.771 1.35,3.522 2.48,5.882 2.51,5.243 z m -26.98,-3.839 c 0,-0.55 -0.44,-1.675 -0.97,-2.5 -0.53,-0.825 -0.97,-1.05 -0.97,-0.5 0,0.55 0.44,1.675 0.97,2.5 0.53,0.825 0.97,1.05 0.97,0.5 z m -9.07,-4.083 c -0.05,-1.604 -0.48,-4.042 -0.95,-5.417 -0.57,-1.686 -0.66,-0.872 -0.27,2.5 0.65,5.625 1.37,7.353 1.22,2.917 z m 59.021,0.166 c 0.043,-1.054 -0.193,-1.644 -0.525,-1.312 -0.332,0.332 -0.368,1.195 -0.079,1.917 0.319,0.797 0.556,0.56 0.604,-0.605 z m -41.491,-0.833 c -1.31,-4.21 -2.38,-6.75 -2.84,-6.75 -0.26,0 0.22,2.025 1.06,4.5 1.54,4.508 3.1,6.483 1.78,2.25 z m 43.919,-0.218 c 0.31,-0.807 0.133,-1.734 -0.393,-2.059 -0.526,-0.325 -0.956,0.336 -0.956,1.468 0,2.415 0.556,2.658 1.349,0.591 z m -34.349,0.527 c 0,-0.518 -0.44,-1.216 -0.99,-1.552 -0.57,-0.35 -0.73,0.051 -0.39,0.941 0.66,1.732 1.38,2.049 1.38,0.611 z m -4.53,-2.769 c -0.57,-3.018 -5.3,-13.584 -5.42,-12.107 -0.03,0.375 1.32,3.975 2.99,8 1.68,4.024 2.77,5.873 2.43,4.107 z m 54.248,-4.654 c 3.366,-3.5 7.618,-7.586 9.451,-9.081 1.954,-1.594 2.401,-2.256 1.081,-1.601 -1.238,0.614 -2.25,0.851 -2.25,0.526 0,-0.325 -1.503,1.05 -3.341,3.056 l -3.341,3.646 -1.267,-3.058 c -0.696,-1.682 -1.903,-3.586 -2.68,-4.231 -0.778,-0.646 -0.321,0.752 1.016,3.106 1.873,3.296 2.165,4.577 1.272,5.571 -0.932,1.038 -1.513,0.864 -2.969,-0.89 -1.77,-2.131 -1.775,-2.107 -0.225,1.07 1.339,2.742 1.363,3.25 0.158,3.25 -0.785,0 -1.898,-1.35 -2.473,-3 -0.575,-1.65 -1.3,-3 -1.611,-3 -0.311,0 0.115,1.63 0.948,3.622 1.862,4.457 1.882,4.929 0.146,3.488 -1.036,-0.859 -1.651,-0.793 -2.535,0.272 -0.933,1.124 -0.808,1.378 0.617,1.263 0.982,-0.08 1.672,0.418 1.535,1.105 -0.138,0.688 -0.115,1.25 0.05,1.25 0.164,0 3.053,-2.864 6.418,-6.364 z m -97.218,5.364 c 1.26,-0.542 1.45,-0.859 0.5,-0.859 -0.83,0 -2.4,0.386 -3.5,0.859 -1.26,0.542 -1.45,0.859 -0.5,0.859 0.82,0 2.4,-0.386 3.5,-0.859 z m -54.5,-1 c 0,-0.55 -0.2,-1 -0.44,-1 -0.24,0 -0.72,0.45 -1.06,1 -0.34,0.55 -0.14,1 0.44,1 0.58,0 1.06,-0.45 1.06,-1 z m 98.43,-5 c -0.37,-1.375 -1.09,-3.175 -1.6,-4 -0.64,-1.042 -0.72,-0.737 -0.26,1 0.37,1.375 1.09,3.175 1.6,4 0.64,1.043 0.72,0.737 0.26,-1 z m -35.15,-0.638 c 0.32,-1.574 0.88,-3.762 1.26,-4.862 0.37,-1.1 -0.28,-0.513 -1.45,1.305 -1.44,2.23 -1.84,3.812 -1.26,4.862 0.69,1.234 1,0.963 1.45,-1.305 z m 59.69,0.138 c 0,-0.55 -0.44,-1.675 -0.97,-2.5 -0.53,-0.825 -0.97,-1.05 -0.97,-0.5 0,0.55 0.44,1.675 0.97,2.5 0.53,0.825 0.97,1.05 0.97,0.5 z m -4.99,-4.691 c 0.01,-0.93 -0.43,-1.969 -0.98,-2.309 -1.27,-0.782 -1.27,0.542 0,2.5 0.84,1.293 0.97,1.266 0.98,-0.191 z m -186.790002,0.047 c 1.95,-0.711 2.52,-1.454 2.07,-2.671 -0.57,-1.522 -0.45,-1.54 1.26,-0.185 1.04,0.825 0.56,-0.187 -1.06,-2.25 -3.08,-3.901 -4.84,-4.627 -6.06,-2.5 -0.4,0.688 -0.34,0.909 0.11,0.492 0.46,-0.417 1.66,0.483 2.66,2 2.21,3.361 2.31,4.379 0.33,3.62 -0.83,-0.317 -1.5,-0.111 -1.5,0.458 0,0.568 -0.79,1.239 -1.75,1.491 -1.18,0.307 -1.26,0.469 -0.25,0.494 0.82,0.02 2.71,-0.406 4.19,-0.949 z m -1.19,-6.601 c 0,-0.275 0.67,0.06 1.5,0.745 0.82,0.685 1.5,1.47 1.5,1.745 0,0.275 -0.68,-0.06 -1.5,-0.745 -0.83,-0.685 -1.5,-1.47 -1.5,-1.745 z m 216.040002,4.811 c -1.704,-3.184 -1.132,-3.735 1.106,-1.066 l 2.096,2.5 -1.748,-3 c -2.272,-3.9 -6.574,-8.504 -7.926,-8.485 -0.585,0.009 -0.392,0.44 0.428,0.958 0.82,0.519 1.507,1.525 1.527,2.235 0.019,0.711 1.08,2.98 2.357,5.042 2.41,3.892 3.975,5.207 2.16,1.816 z m -4.035,-5.657 c 0,-0.19 0.675,-0.087 1.5,0.229 0.825,0.317 1.5,1.033 1.5,1.591 0,0.586 -0.635,0.489 -1.5,-0.229 -0.825,-0.685 -1.5,-1.401 -1.5,-1.591 z m -75.14,1.841 c 1.09,-2.55 1.06,-2.609 -0.34,-0.809 -0.84,1.068 -1.52,2.305 -1.52,2.75 0,1.52 0.68,0.811 1.86,-1.941 z m 27.07,1.25 c 0,-0.55 -0.64,-2.125 -1.43,-3.5 -0.79,-1.375 -1.43,-2.05 -1.43,-1.5 0,0.55 0.64,2.125 1.43,3.5 0.79,1.375 1.43,2.05 1.43,1.5 z m 73.07,-2.5 c 0.901,-0.582 1.025,-0.975 0.309,-0.985 -0.655,-0.008 -1.469,0.435 -1.809,0.985 -0.767,1.242 -0.421,1.242 1.5,0 z m -17,-1.255 c 0,-0.275 -0.675,-1.06 -1.5,-1.745 -0.825,-0.685 -1.5,-1.02 -1.5,-0.745 0,0.275 0.675,1.06 1.5,1.745 0.825,0.685 1.5,1.02 1.5,0.745 z m 13,-2 c 0,-0.275 -0.675,-1.06 -1.5,-1.745 -0.825,-0.685 -1.5,-1.02 -1.5,-0.745 0,0.275 0.675,1.06 1.5,1.745 0.825,0.685 1.5,1.02 1.5,0.745 z m 11.389,-1.565 c 0.582,-0.941 -0.465,-2.083 -3.389,-3.696 -0.951,-0.525 -0.772,0.059 0.489,1.594 1.094,1.332 2.062,2.564 2.15,2.739 0.088,0.174 0.426,-0.113 0.75,-0.637 z m -17.389,-1.435 c 0,-0.275 -0.675,-1.06 -1.5,-1.745 -0.825,-0.685 -1.5,-1.02 -1.5,-0.745 0,0.275 0.675,1.06 1.5,1.745 0.825,0.685 1.5,1.02 1.5,0.745 z m 1,-3.245 c -1.292,-1.375 -2.574,-2.5 -2.849,-2.5 -0.275,0 0.557,1.125 1.849,2.5 1.292,1.375 2.574,2.5 2.849,2.5 0.275,0 -0.557,-1.125 -1.849,-2.5 z m 56.75,-20.206 c 2.6751,-0.515 2.9277,-1.82 0.5305,-2.74 -0.9458,-0.363 -1.4025,-0.343 -1.0156,0.044 0.3872,0.387 -0.0765,1.297 -1.0309,2.021 -0.954,0.725 -1.509,1.27 -1.234,1.213 0.275,-0.057 1.512,-0.299 2.75,-0.538 z m -3.75,-0.204 c 0,-0.943 -7.892,-6.09 -9.338,-6.09 -0.364,0 -0.662,0.525 -0.662,1.167 0,0.641 0.282,0.884 0.627,0.539 0.345,-0.345 2.595,0.727 5,2.382 2.405,1.654 4.373,2.555 4.373,2.002 z m -7.441,-1.535 c -1.068,-0.855 -2.38,-1.555 -2.917,-1.555 -1.27,0 -0.703,0.462 2.358,1.92 2.357,1.122 2.389,1.102 0.559,-0.365 z m -5.573,-2.305 c -0.016,-0.872 -11.036,-4.533 -11.687,-3.882 -0.376,0.375 9.952,4.632 11.239,4.632 0.254,0 0.456,-0.337 0.448,-0.75 z" />
  <metadata
     id="metadata4">
    <rdf:RDF>
      <cc:Work>
        <dc:format>image/svg+xml</dc:format>
        <dc:type
           rdf:resource="http://purl.org/dc/dcmitype/StillImage" />
        <cc:license
           rdf:resource="http://creativecommons.org/publicdomain/zero/1.0/" />
        <dc:publisher>
          <cc:Agent
             rdf:about="http://openclipart.org/">
            <dc:title>Openclipart</dc:title>
          </cc:Agent>
        </dc:publisher>
        <dc:date>2009-04-03T10:30:21</dc:date>
        <dc:description>Source: http://commons.wikimedia.org/wiki/File:Bat_(PSF).jpg</dc:description>
        <dc:source>https://openclipart.org/detail/23889/bat-by-papapishu-23889</dc:source>
        <dc:creator>
          <cc:Agent>
            <dc:title>papapishu</dc:title>
          </cc:Agent>
        </dc:creator>
        <dc:subject>
          <rdf:Bag>
            <rdf:li>animal</rdf:li>
            <rdf:li>bat</rdf:li>
            <rdf:li>biology</rdf:li>
            <rdf:li>black and white</rdf:li>
            <rdf:li>contour</rdf:li>
            <rdf:li>externalsource</rdf:li>
            <rdf:li>greyscale</rdf:li>
            <rdf:li>line art</rdf:li>
            <rdf:li>mammal</rdf:li>
            <rdf:li>outline</rdf:li>
            <rdf:li>psf</rdf:li>
            <rdf:li>wikimedia commons</rdf:li>
            <rdf:li>zoology</rdf:li>
          </rdf:Bag>
        </dc:subject>
      </cc:Work>
      <cc:License
         rdf:about="http://creativecommons.org/publicdomain/zero/1.0/">
        <cc:permits
           rdf:resource="http://creativecommons.org/ns#Reproduction" />
        <cc:permits
           rdf:resource="http://creativecommons.org/ns#Distribution" />
        <cc:permits
           rdf:resource="http://creativecommons.org/ns#DerivativeWorks" />
      </cc:License>
    </rdf:RDF>
  </metadata>
</svg>
