<?xml version="1.0" encoding="UTF-8" standalone="no"?>
<svg
   width="1920"
   height="70"
   viewBox="0 0 1920 69.999999"
   fill="none"
   version="1.1"
   id="svg4"
   sodipodi:docname="footer_stalagmites_2.svg"
   inkscape:version="1.1.1 (3bf5ae0d25, 2021-09-20)"
   xmlns:inkscape="http://www.inkscape.org/namespaces/inkscape"
   xmlns:sodipodi="http://sodipodi.sourceforge.net/DTD/sodipodi-0.dtd"
   xmlns="http://www.w3.org/2000/svg"
   xmlns:svg="http://www.w3.org/2000/svg">
  <defs
     id="defs8">
    <linearGradient
       y2="1"
       x2="0"
       id="linearGradient7389">
      <stop
         offset="0"
         stop-opacity="0.996094"
         stop-color="#000000"
         id="stop7385" />
      <stop
         offset="1"
         stop-opacity="0.996094"
         stop-color="#7f3f00"
         id="stop7387" />
    </linearGradient>
    <linearGradient
       y2="1"
       x2="0"
       id="linearGradient4424">
      <stop
         offset="0"
         stop-opacity="0.996094"
         stop-color="#000000"
         id="stop4420" />
      <stop
         offset="1"
         stop-opacity="0.996094"
         stop-color="#7f3f00"
         id="stop4422" />
    </linearGradient>
    <linearGradient
       y2="1"
       x2="0"
       id="linearGradient2715">
      <stop
         offset="0"
         stop-opacity="0.996094"
         stop-color="#000000"
         id="stop2711" />
      <stop
         offset="1"
         stop-opacity="0.996094"
         stop-color="#7f3f00"
         id="stop2713" />
    </linearGradient>
    <linearGradient
       y2="1"
       x2="0"
       id="linearGradient883">
      <stop
         offset="0"
         stop-opacity="0.996094"
         stop-color="#000000"
         id="stop879" />
      <stop
         offset="1"
         stop-opacity="0.996094"
         stop-color="#7f3f00"
         id="stop881" />
    </linearGradient>
    <linearGradient
       y2="1"
       x2="0"
       id="svg_1">
      <stop
         offset="0"
         stop-opacity="0.996094"
         stop-color="#000000"
         id="stop38" />
      <stop
         offset="1"
         stop-opacity="0.996094"
         stop-color="#7f3f00"
         id="stop40" />
    </linearGradient>
    <linearGradient
       y2="1"
       x2="0"
       id="svg_1-1">
      <stop
         offset="0"
         stop-opacity="0.996094"
         stop-color="#000000"
         id="stop38-0" />
      <stop
         offset="1"
         stop-opacity="0.996094"
         stop-color="#7f3f00"
         id="stop40-6" />
    </linearGradient>
    <linearGradient
       y2="1"
       x2="0"
       id="svg_1-17">
      <stop
         offset="0"
         stop-opacity="0.996094"
         stop-color="#000000"
         id="stop38-05" />
      <stop
         offset="1"
         stop-opacity="0.996094"
         stop-color="#7f3f00"
         id="stop40-8" />
    </linearGradient>
    <linearGradient
       y2="1"
       x2="0"
       id="svg_1-6">
      <stop
         offset="0"
         stop-opacity="0.996094"
         stop-color="#000000"
         id="stop38-00" />
      <stop
         offset="1"
         stop-opacity="0.996094"
         stop-color="#7f3f00"
         id="stop40-2" />
    </linearGradient>
    <linearGradient
       y2="1"
       x2="0"
       id="svg_1-3">
      <stop
         offset="0"
         stop-opacity="0.996094"
         stop-color="#000000"
         id="stop38-09" />
      <stop
         offset="1"
         stop-opacity="0.996094"
         stop-color="#7f3f00"
         id="stop40-5" />
    </linearGradient>
  </defs>
  <sodipodi:namedview
     id="namedview6"
     pagecolor="#ffffff"
     bordercolor="#666666"
     borderopacity="1.0"
     inkscape:pageshadow="2"
     inkscape:pageopacity="0.0"
     inkscape:pagecheckerboard="0"
     showgrid="false"
     inkscape:zoom="16"
     inkscape:cx="-7.53125"
     inkscape:cy="76.46875"
     inkscape:window-width="1600"
     inkscape:window-height="837"
     inkscape:window-x="-8"
     inkscape:window-y="-8"
     inkscape:window-maximized="1"
     inkscape:current-layer="svg4"
     fit-margin-top="0"
     fit-margin-left="0"
     fit-margin-right="0"
     fit-margin-bottom="0"
     inkscape:lockguides="false" />
  <path
     id="rect2"
     style="fill:#f5f5f5"
     d="M 0,0 -0.1875,64.988281 C 1.4693124,64.279594 2.2593076,64.043157 4.2363281,63.445312 6.7429137,62.687317 4.9509706,62.471647 6.3828125,61.984375 7.8153571,61.497097 7.458447,59.871261 9.2480469,59.113281 11.038385,58.355285 7.4587831,58.518009 8.890625,57.597656 c 1.432537,-0.920358 2.505658,-0.649587 3.9375,-1.732422 1.432537,-1.08284 2.507947,-1.57061 3.582031,-1.787109 1.074751,-0.216521 -0.715813,-1.623047 3.222656,-1.623047 3.938428,0 2.505152,1.514999 3.220704,1.839844 0.71629,0.324861 2.866479,0.108274 3.582031,0.974609 0.71629,0.866189 -0.357422,0.92009 -0.357422,1.515625 0,0.595645 1.790069,2.220277 3.222656,2.761719 1.431799,0.541409 1.072816,3.628264 1.789063,3.953125 0.715597,0.324828 -1.431343,1.354131 0.716797,2.382812 2.148827,1.028705 5.371093,-0.704452 5.371093,-1.029296 0,-0.324861 5.011719,-2.978958 5.011719,-3.41211 0,-0.433135 0.716975,-1.298968 1.791016,-1.894531 1.074048,-0.595617 -0.715394,-0.865569 -1.431641,-1.677734 -0.716297,-0.812035 1.788843,-3.627138 5.011719,-4.222657 3.222137,-0.59553 -0.715014,-0.974512 -1.789063,-2.707031 -1.074041,-1.732524 -0.717395,-1.028585 2.863282,-1.732422 3.580676,-0.703973 0.715917,-0.542424 0.357422,-1.841797 -0.357794,-1.29947 2.865784,-1.244474 3.582031,-2.05664 0.71629,-0.81203 1.074219,-1.625082 1.074219,-2.59961 0,-0.974648 1.432489,-1.94985 4.296874,-2.978515 2.86438,-1.028682 -0.359374,-0.919447 -0.359374,-1.460938 0,-0.541344 1.433593,-0.487845 1.433593,-1.408203 0,-0.920353 0.715193,-1.353316 2.863281,-2.111328 2.148835,-0.757996 2.148267,-1.028838 1.074219,-1.570312 -1.074786,-0.541385 3.938348,-0.920548 6.802735,-0.595704 2.864379,0.324823 2.865733,1.67897 3.582031,2.382813 0.716247,0.703842 -1.432739,1.516385 1.431641,2.761719 2.864385,1.245197 2.14793,4.384835 1.43164,4.980468 -0.71629,0.59553 2.507435,1.083106 2.865234,1.570313 0.358497,0.487305 1.074189,2.16478 3.580079,2.814453 2.506585,0.649815 -3.22143,1.245986 -0.714844,1.625 2.505933,0.378976 1.789789,2.273391 -0.716797,3.03125 -2.506636,0.758012 3.223206,2.166867 3.939453,3.033203 0.71629,0.866319 1.431769,3.573593 2.505859,3.898438 1.074049,0.324844 -1.073969,2.977296 5.371094,4.601562 6.445056,1.624244 10.382814,-0.271301 10.382814,-1.029297 0,-0.757979 3.58061,-3.680389 4.29687,-4.330078 0.71628,-0.649667 2.50694,-1.624518 2.14844,-2.166016 -0.35778,-0.54136 3.58178,-2.273351 6.80469,-2.652343 3.22216,-0.378998 -1.43292,-0.920629 0.35742,-1.570313 1.79034,-0.649672 2.5055,-1.733382 2.86328,-2.220703 0.3585,-0.48719 3.22248,-0.433249 2.14844,-0.974609 -1.07407,-0.541497 8.5e-4,-2.761152 2.86523,-3.681641 2.86439,-0.920358 1.43164,-1.354367 1.43164,-2.220703 0,-0.866188 0.35898,-1.56967 5.01368,-1.894531 4.65472,-0.324828 4.2974,1.625058 5.01367,2.220703 0.71557,0.595514 2.14751,2.761001 3.58008,3.464844 1.43182,0.703842 6.80346,2.924282 4.29687,3.736328 -2.50661,0.812149 -1.07389,1.514632 1.07422,2.001953 2.14883,0.487207 -0.71663,1.191993 0.35742,1.841797 1.07404,0.649672 1.0749,2.273863 2.86524,2.707031 1.79033,0.433151 1.78974,1.786645 3.58007,2.328125 1.79032,0.54136 5.37045,2.273578 13.24805,2.869141 7.87688,0.595562 5.72962,0.163161 15.03906,-0.703125 9.30942,-0.866254 10.38331,-8.37e-4 13.60547,-2.59961 1.18949,-0.959344 -0.3576,-2.00267 1.07422,-2.652344 1.43257,-0.649683 1.07422,-1.46166 1.07422,-2.111328 0,-0.649689 2.50742,-2.274016 4.65625,-2.707031 2.14811,-0.433168 3.57973,0.972991 3.9375,1.785156 0.35778,0.81203 1.07492,1.57102 2.86523,2.220703 1.79034,0.649822 -0.35869,2.653121 1.43165,3.898438 1.79032,1.245214 4.29687,0.216797 4.29687,0.216797 0,0 1.43307,-2.003815 0.7168,-2.382813 -0.71627,-0.378998 2.50604,-1.949407 3.58007,-2.544922 1.07407,-0.59565 1.07474,-1.299955 1.79102,-2.382812 0.71627,-1.082835 -0.71628,-1.786748 0,-2.328125 0.71627,-0.541475 2.86416,-1.082021 3.22266,-2.435547 0.35778,-1.35351 1.43141,-1.732032 4.65429,-1.894531 3.22216,-0.162477 2.50551,0.974431 2.86329,1.732422 0.35776,0.757996 2.86471,0.974835 2.14843,2.166015 -0.71554,1.191164 2.86432,1.677535 4.29688,2.435547 1.43254,0.757991 3.58075,2.653585 5.37109,3.357422 1.79034,0.703826 3.22284,2.382435 4.29688,3.898438 1.07407,1.515992 2.50706,1.460495 5.01367,1.027343 2.50658,-0.433167 0.35867,-1.299529 1.07422,-1.949218 0.71584,-0.649799 1.07334,-4.005918 0.71484,-4.601563 -0.35777,-0.595519 1.79122,-0.70374 0.35938,-1.732422 -1.43255,-1.028687 0.71625,-0.812553 1.79101,-1.408203 1.07427,-0.595514 0.356,-0.431577 1.07227,-1.189453 0.71629,-0.758012 6.7e-4,-1.246817 1.79101,-1.896484 1.79034,-0.649673 -1.07424,-2.814512 1.43164,-3.410157 2.50661,-0.59553 0.71715,-1.245008 0.35938,-2.111328 -0.3585,-0.866221 2.14844,-1.40849 2.14844,-2.978515 0,-1.570179 0.53636,-1.570502 3.04296,-2.166016 2.50661,-0.59565 -2.32717,-2.028828 5.90821,-4.113281 2.14955,-0.54396 -0.35742,-1.245635 -0.35742,-1.78711 0,-0.541376 -0.35938,-1.679228 -0.35938,-2.220703 0,-0.541376 1.78958,-2.002913 2.50586,-2.490234 0.71627,-0.487207 -1.43129,-1.461403 -1.78906,-2.273438 -0.35777,-0.812165 1.78959,-2.111128 2.50586,-2.86914 0.71555,-0.757996 -3.8e-4,-3.250012 0.35742,-4.603516 0.35776,-1.353662 2.50829,-1.245047 5.73047,-1.136719 3.22288,0.108324 2.50586,1.949288 2.50586,2.544922 0,0.59553 2.14951,1.192258 1.79101,2.058594 -0.35778,0.866319 0.3567,1.568958 1.07227,2.597656 0.71627,1.028687 2.50797,3.356602 3.58203,4.439453 1.07405,1.082835 -0.71627,1.462799 0,1.841797 0.71628,0.379015 -1.4329,1.732459 0.35742,2.328125 1.79034,0.595514 2.14895,3.302679 2.86524,4.277344 0.71626,0.974512 -1.79102,1.352522 -1.79102,1.839844 0,0.487206 2.14844,0.324419 2.14844,0.919922 0,0.59553 2.14823,1.949316 3.58008,2.923828 1.43255,0.974528 -0.35779,1.082663 0,2.111328 0.35849,1.028681 1.07526,1.245526 2.50781,2.166015 1.43183,0.92036 3.57972,6.389115 3.9375,6.822266 0.35849,0.433168 1.79153,2.815678 2.50781,3.519531 0.71627,0.703843 4.6543,0.811691 4.6543,1.894532 0,1.082835 6.4449,3.085543 11.09961,3.626953 4.65544,0.541409 6.08662,-1.190931 7.87695,-1.732422 1.79034,-0.541344 1.79154,-0.919814 2.50781,-1.298828 0.71629,-0.378998 2.50586,-1.027695 2.50586,-1.839844 0,-0.812182 1.07334,-2.112822 0.71485,-2.654297 -0.35778,-0.541366 0.71731,-1.028585 1.43359,-1.732422 0.71628,-0.703842 -0.71592,-0.866102 -0.35742,-1.732422 0.35778,-0.866204 2.14665,-1.624966 3.2207,-2.599609 1.07406,-0.974512 5.37162,-0.161149 6.08789,0.326172 0.71628,0.48719 1.07386,1.353941 1.43164,1.787109 0.3585,0.433021 6.8e-4,0.919578 1.79102,1.460938 1.79032,0.541491 -0.71572,1.245484 -1.07422,1.570312 -0.35779,0.324856 2.14844,1.353942 2.14844,1.78711 0,0.433151 2.86503,1.787034 4.29687,2.166015 1.43255,0.379009 2.14807,0.810989 2.50586,1.244141 0.35777,0.433031 0.71731,2.112796 1.43359,3.033203 0.71556,0.920407 0.35633,1.02702 3.22071,1.189453 2.86439,0.162411 2.5069,-0.594743 3.93945,-1.082031 1.43183,-0.487272 1.07529,-1.840885 0.7168,-3.302734 -0.35777,-1.461835 2.14825,-1.840562 3.58008,-2.490235 1.43255,-0.649683 -7.4e-4,-2.491706 2.50585,-3.033203 2.5066,-0.541344 0.35743,-0.593923 0.35743,-1.189453 0,-0.595634 0.71784,-1.407577 2.15039,-1.732422 1.43184,-0.324959 0.71628,-1.08456 0,-1.734375 -0.71627,-0.649673 1.78886,-1.352653 3.2207,-1.839844 1.43255,-0.487338 -0.71504,-0.758055 0.7168,-1.949218 1.43255,-1.19116 1.07363,-1.677735 4.65429,-1.677735 3.58081,0 2.50653,1.245095 3.22266,1.732422 0.71613,0.487338 0.3594,1.137184 1.43359,1.949219 1.0742,0.812166 0.43795,2.057863 0.71485,2.597656 0.71613,1.40768 0.71615,2.978942 1.07422,3.412109 0.35806,0.433015 1.43359,1.893911 1.43359,2.21875 0,0.324981 0.35811,1.353516 2.14844,1.353516 1.79033,0 3.16815,-0.514052 6.44531,-0.378906 1.96936,0.08111 2.14777,1.353187 1.43164,1.894531 -0.71613,0.541491 1.78916,0.866194 2.86328,1.353516 1.0742,0.487206 2.14976,1.949358 2.50781,2.544922 0.35807,0.595562 2.86329,0.867495 2.86329,2.058593 0,1.191126 2.14849,2.97707 5.37109,3.03125 3.22252,0.05412 3.58139,-0.703033 3.93945,-1.082031 0.35807,-0.378998 -0.35869,-1.246309 1.43164,-1.462891 1.79033,-0.21657 1.43231,-0.649997 2.14844,-1.191406 0.71613,-0.541426 2.14781,-1.082414 3.58008,-1.894531 1.43226,-0.812182 3.22398,-0.866325 4.65625,-1.353516 1.43219,-0.487343 -0.0349,-1.413396 0.71484,-2.490234 0.35807,-0.514376 5.19337,-0.622218 5.73047,0.05469 0,0 0.71487,2.165671 1.78906,2.707032 1.0742,0.541496 1.07487,0.215069 0.7168,1.40625 -0.35806,1.191131 1.78984,1.4085 4.6543,2.599609 2.86453,1.191131 1.07424,2.544204 2.14844,3.248047 1.07419,0.703853 4.29691,2.057876 5.37109,2.761719 0.37052,0.242778 0.48944,0.801979 0.64844,1.302734 l 334.25924,0.08737 c 0.24962,-0.816197 2.51733,-2.276188 3.01658,-2.666069 1.02248,-0.798619 0.20042,-3.554598 2.24566,-4.86662 2.04527,-1.312007 1.63658,-1.597866 3.06836,-2.396485 1.43175,-0.798619 0.4087,-1.027629 1.22656,-1.541015 0.81827,-0.513394 0.61451,-2.222883 1.63672,-3.021485 1.02264,-0.798619 -1.02294,-0.627979 -0.20508,-1.597656 0.81826,-0.969683 1.43214,-0.685305 2.25,-1.826172 0.81826,-1.140873 1.43141,-1.654709 2.04493,-1.882813 0.61389,-0.228125 -0.40785,-1.710937 1.84179,-1.710937 2.24962,0 1.43113,1.597199 1.83985,1.939453 0.40914,0.342271 1.6362,0.114579 2.04492,1.027344 0.40914,0.91261 -0.20313,0.970204 -0.20313,1.597656 0,0.627567 1.02156,2.337744 1.83985,2.908203 0.81783,0.570425 0.61432,3.821792 1.02343,4.164063 0.40875,0.342236 -0.8188,1.425954 0.40821,2.509765 1.2274,1.083835 3.06836,-0.74173 3.06836,-1.083984 0,-0.342271 2.86328,-3.137385 2.86328,-3.59375 0,-0.456348 0.40995,-1.368613 1.02344,-1.996094 0.61349,-0.627538 -0.40925,-0.911886 -0.81836,-1.767578 -0.40915,-0.855554 1.02238,-3.821784 2.86328,-4.449219 1.84047,-0.627446 -0.40995,-1.028146 -1.02344,-2.853515 -0.61349,-1.825419 -0.40855,-1.082661 1.63672,-1.824219 2.04527,-0.741701 0.4079,-0.570444 0.20312,-1.939453 -0.20437,-1.369113 1.63776,-1.312277 2.04688,-2.167969 0.40914,-0.855548 0.61328,-1.711525 0.61328,-2.738281 0,-1.026882 0.817,-2.052925 2.45313,-3.136719 1.63611,-1.083811 -0.20313,-0.970503 -0.20313,-1.541016 0,-0.570355 0.81836,-0.512739 0.81836,-1.482421 0,-0.969677 0.40779,-1.425973 1.63477,-2.22461 1.22739,-0.798619 1.22872,-1.083803 0.61523,-1.654297 -0.46044,-0.427801 1.03512,-0.759306 2.50195,-0.753906 0.48895,0.0018 0.97378,0.03944 1.38282,0.125 1.63611,0.342231 1.63577,1.768202 2.04492,2.509766 0.40911,0.741563 -0.81777,1.598081 0.81836,2.910156 1.63612,1.311931 1.2275,4.620491 0.81836,5.248047 -0.40915,0.627446 1.43234,1.140979 1.63671,1.654297 0.20478,0.513421 0.61357,2.282306 2.04493,2.966797 1.43175,0.68464 -1.83996,1.31161 -0.40821,1.710937 1.43138,0.399287 1.0216,2.394883 -0.41015,3.19336 -1.43178,0.798636 1.84088,2.282547 2.25,3.195312 0.40914,0.912748 0.81812,3.765168 1.43164,4.107422 0.61349,0.342254 -0.61304,3.136341 3.06836,4.847656 3.68139,1.711292 5.92968,-0.285365 5.92968,-1.083984 0,-0.798602 2.04595,-3.877993 2.45508,-4.5625 0.40914,-0.684485 1.43134,-1.710733 1.22656,-2.28125 -0.20435,-0.570373 2.04581,-2.395618 3.88672,-2.794922 1.84049,-0.39931 -0.81755,-0.969795 0.20508,-1.654297 1.02264,-0.68449 1.43041,-1.826406 1.63477,-2.339844 0.20477,-0.5133 1.842,-0.45697 1.22851,-1.027343 -0.6135,-0.570518 -10e-4,-2.909086 1.63477,-3.878907 1.63612,-0.969682 0.81836,-1.425125 0.81836,-2.33789 0,-0.91261 0.20454,-1.653823 2.86328,-1.996094 2.65876,-0.342237 2.45415,1.710323 2.86328,2.337891 0.40873,0.627428 1.2286,2.908827 2.04688,3.65039 0.81785,0.741563 3.88487,3.081935 2.45312,3.9375 -1.43176,0.855675 -0.61371,1.595937 0.61328,2.109375 1.22741,0.513318 -0.40841,1.254825 0.20508,1.939453 0.61349,0.684491 0.61409,2.397133 1.63672,2.853516 1.02263,0.456365 1.02229,1.882625 2.04492,2.453125 1.02262,0.570373 3.06675,2.394004 7.56641,3.021484 4.49924,0.627481 3.27233,0.172479 8.58984,-0.740234 5.3175,-0.912679 5.93295,-2.34e-4 7.77344,-2.738281 0.67938,-1.010759 -0.20457,-2.110432 0.61328,-2.794922 0.81828,-0.684502 0.61328,-1.540125 0.61328,-2.22461 0,-0.684507 1.4308,-2.397294 2.6582,-2.853515 1.227,-0.456383 2.04565,1.02712 2.25,1.882812 0.20437,0.855548 0.6141,1.655342 1.63672,2.339844 1.02264,0.684646 -0.20427,2.795365 0.81836,4.107422 1.02264,1.311948 2.45313,0.226562 2.45313,0.226562 0,0 0.81928,-2.110456 0.41015,-2.509765 -0.40913,-0.39931 1.43144,-2.052259 2.04492,-2.679688 0.6135,-0.627572 0.61236,-1.370828 1.02149,-2.511718 0.40913,-1.140869 -0.40913,-1.880782 0,-2.451172 0.40913,-0.570494 1.63702,-1.142295 1.8418,-2.56836 0.20436,-1.426048 0.8173,-1.824885 2.6582,-1.996094 1.84048,-0.171184 1.43236,1.027559 1.63672,1.826172 0.20436,0.798619 1.63569,1.026232 1.22656,2.28125 -0.40872,1.255002 1.63681,1.76777 2.45508,2.566407 0.81826,0.798613 2.04572,2.795551 3.06836,3.537109 1.02263,0.741546 1.81836,2.720703 1.81836,2.720703 l 3.67824,4.352187 4.48986,3.123909 5.73839,8.715818 L 1213.416,70 c -0.03,-0.120474 -0.1082,-0.235493 0.2695,-0.412109 2.1046,-0.983957 2.4355,-5.522166 6.6446,-7.138672 4.2091,-1.616486 3.3679,-1.969169 6.3144,-2.953125 2.9466,-0.983957 0.8423,-1.263955 2.5254,-1.896485 1.684,-0.632536 1.2635,-2.742627 3.3672,-3.726562 2.1046,-0.983956 -2.105,-0.772085 -0.4219,-1.966797 1.684,-1.194719 2.9477,-0.844369 4.6309,-2.25 1.684,-1.405638 2.9464,-2.037321 4.209,-2.318359 1.2634,-0.281067 -0.8407,-2.109375 3.789,-2.109375 4.6297,0 2.9461,1.968943 3.7871,2.390625 0.8421,0.421702 3.3679,0.141032 4.209,1.265625 0.842,1.124401 -0.4199,1.193731 -0.4199,1.966796 0,0.773209 2.1031,2.881138 3.7871,3.583985 1.6831,0.702805 1.2635,4.709157 2.1055,5.130859 0.8412,0.42166 -1.6834,1.758416 0.8418,3.09375 2.526,1.335362 6.3125,-0.914256 6.3125,-1.335937 0,-0.421703 5.8926,-3.86546 5.8926,-4.427735 0,-0.562253 0.8429,-1.687836 2.1054,-2.460937 1.2626,-0.773172 -0.8416,-1.123459 -1.6836,-2.177735 -0.842,-1.054104 2.1041,-4.709377 5.8926,-5.482421 3.7877,-0.773059 -0.8409,-1.264686 -2.1035,-3.513672 -1.2625,-2.249 -0.8439,-1.336348 3.3652,-2.25 4.2092,-0.91383 0.8433,-0.701954 0.4219,-2.388672 -0.4206,-1.686846 3.367,-1.617601 4.209,-2.671875 0.842,-1.054097 1.2617,-2.10801 1.2617,-3.373047 0,-1.265193 1.6837,-2.529922 5.0508,-3.865234 3.3671,-1.335334 -0.4199,-1.193574 -0.4199,-1.896485 0,-0.702719 1.6836,-0.633406 1.6836,-1.828125 0,-1.194712 0.842,-1.756257 3.3672,-2.740234 2.5259,-0.983956 2.5262,-1.336173 1.2636,-2.039063 -0.9475,-0.527082 2.1297,-0.936287 5.1485,-0.929687 1.0062,0.0022 2.0058,0.05083 2.8476,0.15625 3.3671,0.421653 3.367,2.178137 4.209,3.091797 0.842,0.913659 -1.6835,1.969367 1.6836,3.585937 3.3671,1.616393 2.5256,5.69165 1.6836,6.464844 -0.842,0.773059 2.9466,1.406617 3.3672,2.039063 0.4214,0.632571 1.2633,2.810955 4.209,3.654296 2.9465,0.843526 -3.7864,1.617376 -0.8399,2.109375 2.9458,0.49195 2.1028,2.951768 -0.8437,3.935547 -2.9466,0.983978 3.7889,2.810955 4.6308,3.935547 0.842,1.124571 1.6827,4.638866 2.9453,5.060547 1.2626,0.421681 -1.2618,3.864193 6.3145,5.972656 7.5762,2.108435 12.2051,-0.350028 12.2051,-1.333984 0,-0.983935 4.2107,-4.779684 5.0527,-5.623047 0.842,-0.843334 2.9468,-2.109582 2.5254,-2.8125 -0.4206,-0.702741 4.2075,-2.951388 7.9961,-3.443359 3.7877,-0.491979 -1.6827,-1.193754 0.4219,-2.03711 2.1045,-0.843341 2.9466,-2.250219 3.3672,-2.882812 0.4214,-0.632423 3.7879,-0.560931 2.5253,-1.263672 -1.2625,-0.702918 10e-5,-3.584408 3.3672,-4.779297 3.3672,-1.194719 1.6836,-1.758219 1.6836,-2.882813 0,-1.1244 0.421,-2.037281 5.8926,-2.458984 5.4717,-0.42166 5.0506,2.107651 5.8926,2.88086 0.8412,0.773037 2.525,3.584387 4.209,4.498046 1.6831,0.91366 7.9972,3.795491 5.0508,4.84961 -2.9466,1.054253 -1.2635,1.968969 1.2617,2.601562 2.526,0.632444 -0.8407,1.545161 0.4218,2.388672 1.2626,0.843342 1.2627,2.951376 3.3672,3.513672 2.1046,0.562275 8.9169,2.957259 11.0215,3.660156 2.1046,0.702741 7.0699,15.049164 16.3301,15.822266 L 1417.7539,70 h 318.957 c 0.829,-2.903299 1.8961,-6.134851 2.8965,-6.601562 1.6622,-0.775397 -1.6622,-3.599178 1.6621,-4.873047 3.3244,-1.273853 2.6592,-1.550777 4.9864,-2.326172 2.3271,-0.775395 0.6667,-0.997637 1.9961,-1.496094 1.33,-0.498463 0.9967,-2.158215 2.6582,-2.933594 1.6621,-0.775395 -1.6614,-0.609302 -0.3321,-1.550781 1.33,-0.941484 2.3269,-0.665746 3.6563,-1.773438 1.33,-1.107696 2.327,-1.606656 3.3242,-1.828124 0.9978,-0.221493 -0.6644,-1.660157 2.9922,-1.660157 3.6565,0 2.3278,1.550512 2.9922,1.882813 0.665,0.332318 2.6599,0.109871 3.3242,0.996094 0.665,0.88607 -0.332,0.941575 -0.332,1.550781 0,0.609317 1.6621,2.270347 2.9921,2.824219 1.3294,0.553836 0.9972,3.71065 1.6622,4.042968 0.6643,0.332285 -1.3304,1.385206 0.664,2.4375 1.995,1.052317 4.9863,-0.720433 4.9863,-1.052734 0,-0.332318 4.6543,-3.045187 4.6543,-3.488281 0,-0.443078 0.6651,-1.33022 1.6621,-1.939453 0.9972,-0.609291 -0.665,-0.885989 -1.33,-1.716797 -0.6651,-0.830675 1.6621,-3.711124 4.6543,-4.320313 2.9915,-0.6092 -0.665,-0.995291 -1.6621,-2.767578 -0.9972,-1.772338 -0.6643,-1.053443 2.6601,-1.773438 3.3244,-0.720132 0.6649,-0.553613 0.332,-1.882812 -0.3321,-1.329299 2.6593,-1.27466 3.3243,-2.105469 0.665,-0.830669 0.998,-1.661305 0.998,-2.658203 0,-0.99702 1.3289,-1.992644 3.9883,-3.044922 2.6593,-1.052294 -0.332,-0.942172 -0.332,-1.496094 0,-0.553769 1.33,-0.497968 1.33,-1.439453 0,-0.941478 0.6639,-1.384744 2.6582,-2.160156 1.9951,-0.775395 1.9953,-1.053518 0.9981,-1.607422 -0.7484,-0.415361 1.6822,-0.735669 4.0664,-0.730469 0.7947,0.0017 1.5852,0.03997 2.25,0.123047 2.6593,0.332279 2.6592,1.715549 3.3242,2.435547 0.665,0.719999 -1.3293,1.552253 1.3301,2.826172 2.6593,1.27378 1.9951,4.484444 1.3301,5.09375 -0.665,0.6092 2.326,1.109032 2.6582,1.607422 0.3328,0.498491 0.9977,2.214321 3.3242,2.878906 2.3272,0.664731 -2.9912,1.274395 -0.6641,1.66211 2.3266,0.387675 1.6631,2.326307 -0.664,3.101562 -2.3272,0.775412 2.9912,2.215341 3.6562,3.101563 0.665,0.886205 1.329,3.65598 2.3262,3.988281 0.9972,0.332301 -0.9974,3.045481 4.9863,4.707031 5.9837,1.661528 9.6406,-0.277339 9.6406,-1.052734 0,-0.775379 3.3253,-3.765086 3.9903,-4.429688 0.665,-0.664579 2.327,-1.66287 1.9941,-2.216797 -0.3322,-0.553786 3.3242,-2.325198 6.3164,-2.71289 2.9915,-0.387698 -1.3301,-0.940873 0.3321,-1.605469 1.6621,-0.664585 2.3279,-1.772977 2.6601,-2.271484 0.3328,-0.498374 2.9913,-0.444261 1.9942,-0.998047 -0.9972,-0.553927 8e-4,-2.824007 2.6601,-3.765625 2.6594,-0.941484 1.3301,-1.38331 1.3301,-2.269531 0,-0.886072 0.3308,-1.607136 4.6523,-1.939454 4.3216,-0.332284 3.9893,1.662167 4.6543,2.271485 0.6644,0.609183 1.9942,2.824923 3.3242,3.544922 1.3294,0.719998 6.3174,2.989627 3.9903,3.820312 -2.3272,0.830792 -0.9983,1.550321 0.9961,2.048828 1.995,0.49839 -0.6632,1.220046 0.334,1.884766 0.9971,0.664585 0.996,2.324467 2.6582,2.767578 1.6621,0.443094 1.662,1.828902 3.3242,2.382813 1.6621,0.553786 3.237,3.451313 10.5508,4.060546 7.313,0.609234 8.6737,-7.791074 14.2109,-1.095703 2.3752,2.872006 9.9046,10.144107 11.7813,9.403969 L 1920,0 Z"
     sodipodi:nodetypes="ccscccccsccscccsscccscccscsscccccccccccssscccscccsccccccsccsscscccccscsccsscsssscccccsccsccsscsccssccssccssccccssccsscsccccccscscsccccsccccsscccsscccssssssscsccssssccsssccccssccscccssssssscsssssccssssscsssssssscsscscssccscsssssscscssscsssscsscsscccccsssccccssccscccssssssscsssssccssssscsssssssscsscssssccscssscccsssssccssscssssssssssscsssssssssssscsssssssscsscsssssssssssssccc" />
</svg>
