<?xml version="1.0" encoding="UTF-8" standalone="no"?>
<svg
   width="375"
   height="16.619141"
   viewBox="0 0 375 16.619141"
   fill="none"
   version="1.1"
   id="svg4"
   sodipodi:docname="footer_stalagmites_mobile.svg"
   inkscape:version="1.1.1 (3bf5ae0d25, 2021-09-20)"
   xmlns:inkscape="http://www.inkscape.org/namespaces/inkscape"
   xmlns:sodipodi="http://sodipodi.sourceforge.net/DTD/sodipodi-0.dtd"
   xmlns:xlink="http://www.w3.org/1999/xlink"
   xmlns="http://www.w3.org/2000/svg"
   xmlns:svg="http://www.w3.org/2000/svg">
  <defs
     id="defs8">
    <linearGradient
       y2="1175.6898"
       x2="0.11741285"
       id="linearGradient1706"
       gradientTransform="matrix(-2.4419784,0,0,-0.40950403,147.85396,217.02821)"
       x1="0.11741285"
       y1="914.6615"
       gradientUnits="userSpaceOnUse">
      <stop
         offset="0"
         stop-opacity="0.996094"
         stop-color="#000000"
         id="stop1702" />
      <stop
         offset="1"
         stop-opacity="0.996094"
         stop-color="#7f3f00"
         id="stop1704" />
    </linearGradient>
    <linearGradient
       y2="1175.6898"
       x2="0.11741285"
       id="linearGradient1548"
       gradientTransform="matrix(-2.4419784,0,0,-0.40950403,147.85396,217.02821)"
       x1="0.11741285"
       y1="914.6615"
       gradientUnits="userSpaceOnUse">
      <stop
         offset="0"
         stop-opacity="0.996094"
         stop-color="#000000"
         id="stop1544" />
      <stop
         offset="1"
         stop-opacity="0.996094"
         stop-color="#7f3f00"
         id="stop1546" />
    </linearGradient>
    <linearGradient
       y2="1175.6898"
       x2="0.11741285"
       id="svg_1"
       gradientTransform="matrix(-2.4419784,0,0,-0.40950403,147.85396,217.02821)"
       x1="0.11741285"
       y1="914.6615"
       gradientUnits="userSpaceOnUse"
       xlink:href="#linearGradient1706">
      <stop
         offset="0"
         stop-opacity="0.996094"
         stop-color="#000000"
         id="stop853" />
      <stop
         offset="1"
         stop-opacity="0.996094"
         stop-color="#7f3f00"
         id="stop855" />
    </linearGradient>
  </defs>
  <sodipodi:namedview
     id="namedview6"
     pagecolor="#ffffff"
     bordercolor="#666666"
     borderopacity="1.0"
     inkscape:pageshadow="2"
     inkscape:pageopacity="0.0"
     inkscape:pagecheckerboard="0"
     showgrid="false"
     inkscape:lockguides="false"
     inkscape:zoom="64.503223"
     inkscape:cx="-2.069664"
     inkscape:cy="18.301411"
     inkscape:window-width="1600"
     inkscape:window-height="837"
     inkscape:window-x="-8"
     inkscape:window-y="-8"
     inkscape:window-maximized="1"
     inkscape:current-layer="svg4"
     fit-margin-top="0"
     fit-margin-left="0"
     fit-margin-right="0"
     fit-margin-bottom="0" />
  <path
     id="rect2"
     style="fill:#f5f5f5"
     d="M 0,0 V 16.291 C 2.0810506,15.776801 1.7870676,15.683159 3.3652344,15.353516 4.997231,15.012621 3.8314235,14.914454 4.7636719,14.695312 5.6963782,14.47617 5.4637274,13.745184 6.6289062,13.404297 7.7945665,13.063404 5.4642355,13.136567 6.3964844,12.722656 c 0.9327015,-0.413912 1.630252,-0.292312 2.5625,-0.779297 0.9327018,-0.486985 1.6327126,-0.705364 2.3320316,-0.802734 0.699751,-0.09738 -0.466618,-0.730469 2.097656,-0.730469 2.564245,0 1.633725,0.682033 2.099609,0.828125 0.466365,0.146099 1.864192,0.04788 2.330078,0.4375 0.466364,0.389551 -0.232421,0.413811 -0.232421,0.681641 0,0.267879 1.164921,0.998684 2.097656,1.242187 0.93222,0.243488 0.699677,1.631244 1.166015,1.777344 0.465913,0.146085 -0.93182,0.609638 0.466797,1.072266 1.399065,0.462639 3.496094,-0.316798 3.496094,-0.462891 0,-0.1461 3.263672,-1.340354 3.263672,-1.535156 0,-0.194793 0.466725,-0.58372 1.166016,-0.851563 0.699294,-0.267867 -0.465305,-0.390604 -0.931641,-0.755859 -0.46637,-0.365196 1.165311,-1.630615 3.263672,-1.898438 2.097879,-0.267826 -0.46672,-0.437632 -1.166016,-1.2167964 -0.699289,-0.7791678 -0.466085,-0.4627605 1.865235,-0.7792968 2.331318,-0.316598 0.465831,-0.243758 0.232421,-0.828125 -0.232954,-0.58441 1.865696,-0.5605263 2.332032,-0.9257813 0.466366,-0.3651936 0.699218,-0.729694 0.699218,-1.1679687 0,-0.4383286 0.931921,-0.8772225 2.796875,-1.3398438 1.86495,-0.4626295 -0.232422,-0.4146786 -0.232422,-0.6582031 0,-0.2434585 0.931641,-0.2189 0.931641,-0.6328125 0,-0.4139097 0.466648,-0.6083174 1.865235,-0.9492188 1.39907,-0.3408925 1.398513,-0.4615608 0.699218,-0.7050781 -0.699775,-0.2434722 2.564734,-0.4156226 4.429688,-0.2695313 1.864951,0.1460826 1.865663,0.7557269 2.332031,1.0722657 0.466337,0.3165388 -0.933311,0.6821234 0.931641,1.2421875 1.864953,0.5600021 1.399958,1.9723598 0.933593,2.2402344 -0.466364,0.2678273 1.630322,0.485967 1.863282,0.7050781 0.233411,0.219156 0.700486,0.9754013 2.332031,1.2675781 1.631996,0.2922413 -2.09684,0.5600146 -0.464844,0.7304688 1.631572,0.1704365 1.165198,1.0224494 -0.466797,1.3632812 -1.63203,0.3409 2.098117,0.973664 2.564453,1.363281 0.466366,0.38961 0.931537,1.605862 1.63086,1.751953 0.699296,0.146093 -0.698227,1.339832 3.498047,2.070313 4.196271,0.730472 6.759765,-0.121997 6.759765,-0.462891 0,-0.340886 2.330526,-1.65508 2.796875,-1.947265 0.466355,-0.292175 1.633798,-0.731083 1.400391,-0.97461 -0.232948,-0.243466 2.331305,-1.022914 4.429687,-1.193359 2.097893,-0.170447 -0.933239,-0.412895 0.232422,-0.7050782 1.165659,-0.2921774 1.632291,-0.7788833 1.865235,-0.9980469 0.23341,-0.219104 2.097722,-0.1959879 1.398437,-0.4394531 -0.69931,-0.2435274 2.88e-4,-1.240325 1.865235,-1.6542969 1.864954,-0.4139127 0.93164,-0.6103829 0.93164,-1 0,-0.3895507 0.233076,-0.7054623 3.263672,-0.8515625 3.030614,-0.1460849 2.799275,0.7301675 3.265625,0.9980468 0.465899,0.2678202 1.397358,1.2420544 2.330078,1.5585938 0.932235,0.3165388 4.42887,1.3144863 2.796875,1.6796875 -1.632009,0.3652474 -0.699379,0.6831805 0.699219,0.9023435 1.399072,0.219111 -0.464919,0.533936 0.234375,0.826172 0.69929,0.292177 0.699571,1.023941 1.865234,1.21875 1.165658,0.194802 1.164418,0.803355 2.330078,1.046875 1.165646,0.243466 3.497986,1.023174 8.626956,1.291016 5.1285,0.267842 3.72978,0.07319 9.79101,-0.316407 6.0612,-0.389579 6.7615,-0.0012 8.85938,-1.169921 0.77451,-0.431446 -0.23303,-0.901183 0.69922,-1.19336 0.9327,-0.292182 0.69922,-0.657042 0.69922,-0.949219 0,-0.292183 1.63217,-1.0220574 3.03125,-1.2167964 1.3986,-0.1948088 2.33152,0.4374794 2.56445,0.8027344 0.23295,0.365195 0.69764,0.705865 1.86328,0.998047 1.16567,0.292244 -0.23209,1.193849 0.93359,1.753906 0.74767,0.359201 1.56509,2.09505 2.08204,3.335938 0.0984,-0.708383 0.26604,-1.466524 0.53124,-2.306641 l 0.79297,-0.505859 1.28711,-0.232422 c 0,0 0.86402,-0.561726 0.43164,-0.667969 -0.43242,-0.106237 1.51371,-0.545958 2.16211,-0.712891 0.64844,-0.166971 0.64766,-0.364424 1.08008,-0.667968 0.43238,-0.303539 -0.43242,-0.500585 0,-0.652344 0.43238,-0.151786 1.72879,-0.304177 1.94531,-0.683594 0.21596,-0.3794142 0.86489,-0.4857059 2.81055,-0.5312499 1.94522,-0.045545 1.51252,0.2738494 1.72852,0.4863279 0.21597,0.212482 1.72928,0.273511 1.29687,0.607422 -0.43198,0.333905 1.73083,0.469155 2.5957,0.681641 0.86481,0.212477 2.16134,0.744106 3.24219,0.941406 1.08085,0.197293 1.94535,0.668791 2.59375,1.09375 0.64843,0.424964 1.51212,0.40853 3.02539,0.287109 1.51319,-0.121425 0.21648,-0.364756 0.64844,-0.546875 0.43239,-0.18215 0.65008,-1.122091 0.43359,-1.289062 -0.21594,-0.166934 1.07924,-0.197972 0.21485,-0.486328 -0.86486,-0.288366 0.4332,-0.227558 1.08203,-0.394532 0.64842,-0.166932 0.21604,-0.121538 0.64844,-0.333984 0.43241,-0.212484 -7.4e-4,-0.349136 1.08007,-0.53125 1.08092,-0.1821159 -0.64759,-0.7881071 0.86524,-0.955078 1.51332,-0.1669384 0.43278,-0.3489514 0.2168,-0.5917969 -0.21643,-0.242818 1.29687,-0.3958311 1.29687,-0.8359375 0,-0.4401508 0.32267,-0.4385347 1.83594,-0.6054687 1.51326,-0.1669712 -1.40531,-0.5699869 3.5664,-1.1542969 1.29765,-0.1524814 -0.21484,-0.348215 -0.21484,-0.5 0,-0.1517584 -0.2168,-0.4712608 -0.2168,-0.6230469 0,-0.1517574 1.08127,-0.5626146 1.51368,-0.6992187 0.43239,-0.1365735 -0.86603,-0.4090909 -1.08204,-0.6367188 -0.21595,-0.2276649 1.08129,-0.5922024 1.51368,-0.8046875 0.432,-0.2124797 7.8e-4,-0.9096506 0.21679,-1.2890625 0.21597,-0.3794575 1.51179,-0.3487353 3.45703,-0.3183594 1.94566,0.030366 1.51368,0.545924 1.51368,0.7128907 0,0.1669384 1.29855,0.3333229 1.08203,0.5761719 -0.21598,0.2428454 0.21646,0.4401518 0.64843,0.7285156 0.43243,0.2883605 1.51176,0.9405912 2.16016,1.2441406 0.64845,0.3035382 -0.43241,0.4093846 0,0.515625 0.43249,0.1062445 -0.86403,0.4873216 0.2168,0.6542969 1.08084,0.166934 1.29804,0.9240488 1.73047,1.1972656 0.43242,0.2731733 -1.08203,0.3809732 -1.08203,0.5175781 0,0.1365735 1.29687,0.090882 1.29687,0.2578125 0,0.1669382 1.29769,0.545187 2.16211,0.8183594 0.86483,0.2731789 -0.21597,0.3034428 0,0.5917969 0.21643,0.2883582 0.64882,0.3493926 1.51367,0.6074218 0.86438,0.2579949 2.16096,1.7906908 2.37695,1.9121098 0.2164,0.121428 1.08126,0.789026 1.51368,0.986328 0.43245,0.197301 2.81054,0.22771 2.81054,0.53125 0,0.303538 3.89112,0.86581 6.70118,1.017578 2.81049,0.151766 3.67307,-0.334538 4.7539,-0.486328 1.08085,-0.15175 1.08129,-0.257043 1.51367,-0.363281 0.43244,-0.106241 1.51368,-0.287964 1.51368,-0.515626 0,-0.227671 0.64815,-0.592354 0.43164,-0.74414 -0.21598,-0.151753 0.43279,-0.28903 0.86523,-0.486328 0.43239,-0.197302 -0.43329,-0.241526 -0.2168,-0.484375 0.216,-0.242813 1.29693,-0.455306 1.94532,-0.728516 0.64843,-0.2731797 3.2434,-0.04676 3.67578,0.08984 0.43245,0.136568 0.64924,0.380526 0.86523,0.501953 0.21641,0.121383 -7.5e-4,0.256449 1.08008,0.408203 1.08079,0.151788 -0.43194,0.350356 -0.64844,0.441406 -0.21599,0.09106 1.29688,0.378575 1.29688,0.5 0,0.121421 1.72937,0.501182 2.59375,0.607422 0.86489,0.106244 1.29767,0.22819 1.51367,0.34961 0.21597,0.121386 0.4328,0.591602 0.86523,0.849609 0.43198,0.258017 0.21607,0.288454 1.94532,0.333984 1.72924,0.04553 1.51212,-0.166138 2.37695,-0.302734 0.86439,-0.136592 0.64812,-0.515999 0.43164,-0.925781 -0.21598,-0.409779 1.29769,-0.517104 2.16211,-0.699219 0.86481,-0.182118 4.7e-4,-0.69782 1.51367,-0.849609 1.51323,-0.151751 0.21485,-0.167049 0.21485,-0.333985 -10e-6,-0.166968 0.434,-0.395268 1.29882,-0.486328 0.86441,-0.09109 0.43243,-0.302221 0,-0.484375 -0.4324,-0.182116 1.08094,-0.3810097 1.94532,-0.517578 0.86484,-0.1366094 -0.43275,-0.2110171 0.43164,-0.5449219 0.86483,-0.3339036 0.64887,-0.4707031 2.81054,-0.4707031 2.16183,0 1.51296,0.3477666 1.94532,0.484375 0.4323,0.1366093 0.21675,0.319246 0.86523,0.546875 0.64856,0.2276648 0.26447,0.577204 0.43164,0.728516 0.43225,0.394598 0.4322,0.835607 0.64844,0.957031 0.21617,0.121384 0.86523,0.530034 0.86523,0.621094 0,0.0911 0.21606,0.380859 1.29688,0.380859 1.08084,0 1.91223,-0.145302 3.89062,-0.107422 1.18891,0.02274 1.29757,0.3795 0.86524,0.53125 -0.43234,0.151787 1.08007,0.242303 1.72851,0.378906 0.64851,0.136573 1.2974,0.547895 1.51367,0.714844 C 257.48763,14.090775 259,14.166114 259,14.5 c 0,0.333895 1.29671,0.834429 3.24219,0.849609 1.94545,0.01517 2.16265,-0.196494 2.3789,-0.302734 0.21616,-0.10624 -0.21754,-0.349446 0.86329,-0.410156 1.08073,-0.06071 0.86454,-0.182219 1.29687,-0.333985 0.43234,-0.151773 1.29743,-0.303599 2.16211,-0.53125 0.86464,-0.22767 1.94586,-0.242335 2.81055,-0.378906 0.8646,-0.136609 -0.0209,-0.397361 0.43164,-0.699219 0.21616,-0.144189 3.13476,-0.174125 3.45898,0.01563 0,0 0.43159,0.608015 1.08008,0.759766 0.64858,0.151793 0.64984,0.06062 0.43359,0.394531 -0.21616,0.333895 1.08125,0.394627 2.81055,0.728516 1.7293,0.333896 0.64841,0.712855 1.29687,0.910156 0.6485,0.197302 2.59373,0.576137 3.24219,0.773438 0.003,7.92e-4 0.003,0.0031 0.006,0.0039 -0.0485,-0.267788 -0.06,-0.556375 0.3086,-0.734375 0.71603,-0.345747 0.57295,-0.420403 1.07421,-0.63086 0.50117,-0.210456 0.14334,-0.270954 0.42969,-0.40625 0.28646,-0.135291 0.21438,-0.586422 0.57227,-0.796874 0.35806,-0.210456 -0.35665,-0.164388 -0.0703,-0.419922 0.28648,-0.255537 0.50077,-0.179822 0.78711,-0.480469 0.28646,-0.300651 0.50201,-0.435984 0.7168,-0.496094 0.21492,-0.06012 -0.14307,-0.451172 0.64453,-0.451172 0.78758,0 0.50143,0.419586 0.64453,0.509766 0.14323,0.0902 0.57176,0.03095 0.71485,0.271484 0.14328,0.240496 -0.0703,0.254571 -0.0703,0.419922 10e-6,0.16538 0.35805,0.61725 0.64454,0.767578 0.28631,0.150321 0.21419,1.007436 0.35742,1.097657 0.14309,0.09019 -0.28698,0.374543 0.14258,0.660156 0.42973,0.285618 1.07422,-0.194976 1.07422,-0.285156 0,-0.0902 1.00195,-0.827007 1.00195,-0.947266 0,-0.120259 0.14459,-0.360033 0.35937,-0.525391 0.21478,-0.165371 -0.14386,-0.2413 -0.28711,-0.466797 -0.14323,-0.225461 0.35748,-1.006528 1.00196,-1.171875 0.64434,-0.165348 -0.14264,-0.270921 -0.35743,-0.751953 -0.21478,-0.481032 -0.14378,-0.28505 0.57227,-0.480468 0.71599,-0.195457 0.14387,-0.15095 0.0723,-0.511719 -0.0716,-0.360798 0.57161,-0.344816 0.71484,-0.5703128 0.14329,-0.2254576 0.21484,-0.4520784 0.21484,-0.7226562 0,-0.2706078 0.28656,-0.5405576 0.85938,-0.8261719 0.57284,-0.2856001 -0.0703,-0.2559053 -0.0703,-0.40625 0,-0.1503071 0.28515,-0.1350908 0.28515,-0.390625 0,-0.255536 0.14465,-0.3754752 0.57422,-0.5859375 0.42972,-0.210456 0.42963,-0.2852022 0.21484,-0.4355468 C 297.4257,6.3613786 298.42721,6.2555121 299,6.3457031 c 0.57281,0.090187 0.57355,0.4666895 0.7168,0.6621094 0.14323,0.1954199 -0.28569,0.4198635 0.28711,0.765625 0.57281,0.3457286 0.42841,1.2174319 0.28515,1.3828125 -0.14324,0.1653494 0.50077,0.3022214 0.57227,0.4375 0.0717,0.135298 0.21567,0.60087 0.71679,0.78125 0.50124,0.180419 -0.64382,0.345946 -0.14257,0.451172 0.50112,0.105222 0.35673,0.63138 -0.14453,0.841797 -0.50125,0.210463 0.64583,0.601262 0.78906,0.841797 0.14325,0.240533 0.2852,0.991851 0.5,1.082031 0.21478,0.09019 -0.21464,0.826368 1.07422,1.277344 1.28884,0.450966 2.07617,-0.0747 2.07617,-0.285157 0,-0.210453 0.71615,-1.022737 0.85937,-1.203125 0.14326,-0.180377 0.50139,-0.451218 0.42969,-0.601562 -0.0715,-0.150308 0.71681,-0.631103 1.36133,-0.736328 0.64431,-0.105229 -0.28771,-0.255164 0.0703,-0.435547 0.35802,-0.180382 0.50272,-0.481877 0.57422,-0.617188 0.0717,-0.135276 0.64448,-0.119218 0.42969,-0.269531 -0.21477,-0.150346 -5.7e-4,-0.7678658 0.57226,-1.0234374 0.5728,-0.255537 0.28711,-0.3746986 0.28711,-0.6152344 0,-0.2405013 0.0711,-0.4371527 1.00196,-0.5273437 0.93092,-0.090185 0.85872,0.4518021 1.00195,0.6171875 0.14309,0.1653446 0.43032,0.7674706 0.7168,0.962891 0.28633,0.195422 1.36062,0.811646 0.85937,1.037109 -0.50126,0.225493 -0.21475,0.419378 0.21485,0.554687 0.42971,0.135273 -0.14447,0.331302 0.0703,0.511719 0.21478,0.18038 0.21621,0.631693 0.57422,0.751953 0.35804,0.120264 0.35683,0.496141 0.71484,0.646485 0.35802,0.150309 1.07507,0.631517 2.65039,0.796875 1.57518,0.165355 1.1442,0.04521 3.00586,-0.195313 1.86164,-0.240513 2.07831,-0.0011 2.72266,-0.722656 0.23787,-0.26636 -0.0715,-0.555947 0.21484,-0.736328 0.2865,-0.180385 0.21484,-0.405559 0.21484,-0.585938 0,-0.180386 0.49997,-0.631723 0.92969,-0.751953 0.42958,-0.120268 0.71561,0.270598 0.78711,0.496094 0.0715,0.225458 0.21621,0.436802 0.57422,0.617188 0.35797,0.180421 -0.0729,0.736272 0.28516,1.082031 0.35802,0.345726 0.85937,0.06055 0.85937,0.06055 0,0 0.28776,-0.556885 0.14453,-0.66211 -0.14325,-0.105228 0.50006,-0.541686 0.71485,-0.707031 0.21476,-0.165381 0.21612,-0.359504 0.35937,-0.660156 0.14323,-0.300649 -0.14325,-0.496171 0,-0.646485 0.14323,-0.150341 0.57088,-0.30193 0.64258,-0.677734 0.0716,-0.3758013 0.28713,-0.4802746 0.93164,-0.5253906 0.6443,-0.045111 0.50076,0.2700146 0.57226,0.4804686 0.0715,0.210456 0.57295,0.270833 0.42969,0.601563 -0.14308,0.330726 0.5729,0.46532 0.85938,0.675781 0.28648,0.210456 0.71619,0.738175 1.07422,0.933594 0.35802,0.195418 0.64459,0.661114 0.85937,1.082031 0.2148,0.420911 0.50072,0.405417 1.00195,0.285156 0.50127,-0.120269 0.0718,-0.360631 0.21485,-0.541015 0.14325,-0.180417 0.21613,-1.111963 0.14453,-1.277344 -0.0716,-0.165344 0.35664,-0.196808 0.0703,-0.482422 -0.28648,-0.285619 0.14446,-0.225244 0.35938,-0.390625 0.21478,-0.165344 0.0716,-0.119655 0.21484,-0.330078 0.14325,-0.210461 -6.1e-4,-0.345013 0.35742,-0.525391 0.35794,-0.18038 -0.21596,-0.7818832 0.28516,-0.9472655 0.50118,-0.1653479 0.14376,-0.3454048 0.0723,-0.5859375 -0.0717,-0.2405077 0.42969,-0.3922113 0.42969,-0.828125 0,-0.4359603 0.10813,-0.4362193 0.60938,-0.6015625 0.50126,-0.1653823 -0.46522,-0.5638278 1.18164,-1.1425781 0.4299,-0.1510292 -0.0723,-0.345749 -0.0723,-0.4960938 0,-0.1503145 -0.0723,-0.4648898 -0.0723,-0.6152344 0,-0.150307 0.35872,-0.5561117 0.50195,-0.6914062 0.14324,-0.1352789 -0.28592,-0.4054019 -0.35742,-0.6308594 -0.0715,-0.2254984 0.35676,-0.5864112 0.5,-0.796875 0.143,-0.2104559 7.6e-4,-0.9034977 0.0723,-1.2792968 0.0715,-0.3758122 0.50018,-0.3445532 1.14453,-0.3144532 0.6445,0.030078 0.50196,0.5416554 0.50196,0.7070313 0,0.165351 0.42902,0.329772 0.35742,0.5703125 -0.0715,0.2405327 0.0717,0.4370374 0.21484,0.7226562 0.14324,0.2856128 0.50201,0.931767 0.7168,1.2324219 0.21479,0.3006487 -0.14324,0.4045402 0,0.5097656 0.1431,0.105235 -0.28576,0.4811011 0.0723,0.6464844 0.35802,0.1653431 0.42902,0.9168811 0.57226,1.1875 0.14322,0.2705687 -0.35742,0.3764085 -0.35742,0.5117187 0,0.1352695 0.42969,0.090516 0.42969,0.2558594 0,0.1653494 0.42851,0.5399765 0.71484,0.8105469 0.28647,0.2705844 -0.0715,0.3022826 0,0.5878906 0.0717,0.2856129 0.21549,0.3440367 0.50195,0.5996094 0.28634,0.2555368 0.71561,1.7742705 0.78711,1.8945315 0.0717,0.120267 0.35872,0.783089 0.50196,0.978515 0.14325,0.195421 0.92968,0.224742 0.92968,0.525391 0,0.300649 1.28988,0.857481 2.22071,1.007813 0.93095,0.150318 1.21619,-0.332077 1.57422,-0.482422 0.35803,-0.150304 0.35872,-0.254149 0.50195,-0.359375 0.14323,-0.105228 0.50195,-0.286226 0.50195,-0.511719 0,-0.225501 0.21418,-0.585983 0.14258,-0.736328 -0.0715,-0.150309 0.14387,-0.287001 0.28711,-0.482422 0.1433,-0.19542 -0.14397,-0.239938 -0.0723,-0.480469 0.0716,-0.240501 0.42975,-0.450095 0.64453,-0.720703 0.2148,-0.270578 1.07357,-0.04545 1.2168,0.08984 0.14324,0.135268 0.21561,0.375832 0.28711,0.496094 0.0717,0.120225 -6.1e-4,0.255936 0.35742,0.40625 0.35801,0.150342 -0.14324,0.345356 -0.21484,0.435546 -0.0715,0.0902 0.42969,0.375818 0.42969,0.496094 0,0.120265 0.57304,0.496337 0.85937,0.601563 0.28648,0.105232 0.43045,0.225443 0.50195,0.345703 0.0716,0.120231 0.14191,0.586247 0.28516,0.841797 0.14309,0.255546 0.0717,0.284978 0.64453,0.330078 0.57281,0.04509 0.50064,-0.165485 0.78711,-0.300781 0.28632,-0.135291 0.21613,-0.510137 0.14453,-0.916016 -0.0715,-0.405877 0.42853,-0.511023 0.71485,-0.691406 0.28648,-0.180382 6.9e-4,-0.691452 0.50195,-0.841797 0.50121,-0.150304 0.0723,-0.166681 0.0723,-0.332031 0,-0.165376 0.14322,-0.390289 0.42968,-0.480469 0.28634,-0.09023 0.14324,-0.300049 0,-0.480469 -0.14322,-0.180379 0.35821,-0.3764554 0.64453,-0.5117188 0.28649,-0.1353085 -0.14376,-0.2102902 0.14258,-0.5410156 0.28647,-0.3307285 0.21364,-0.4667968 0.92969,-0.4667968 0.71606,-2e-7 0.50131,0.3471116 0.64453,0.4824218 0.1432,0.1353089 0.0723,0.3155567 0.28711,0.5410156 0.21491,0.2254998 0.0872,0.5708258 0.14258,0.7207028 0.14322,0.390839 0.14324,0.82699 0.21484,0.947266 0.0716,0.120225 0.28711,0.527007 0.28711,0.617187 0,0.09023 0.0717,0.375 0.42969,0.375 0.35802,2e-6 0.63371,-0.142988 1.28906,-0.105468 0.39377,0.02252 0.43031,0.377045 0.28711,0.527344 -0.14321,0.15034 0.35746,0.239689 0.57227,0.375 0.2148,0.13527 0.4284,0.541672 0.5,0.707031 0.0716,0.165357 0.57422,0.239604 0.57422,0.570312 0,0.330712 0.42977,0.826797 1.07421,0.841797 0.64442,0.01503 0.71551,-0.195556 0.78711,-0.300781 0.0716,-0.10523 -0.0709,-0.34611 0.28711,-0.40625 0.35802,-0.06013 0.28454,-0.179764 0.42774,-0.330078 0.1432,-0.150323 0.43037,-0.299911 0.71679,-0.525391 0.28642,-0.225507 0.64524,-0.241689 0.93164,-0.376953 0.28644,-0.13531 -0.007,-0.392426 0.14258,-0.691406 0.0716,-0.142859 1.03912,-0.172316 1.14649,0.01563 0,0 0.1426,0.601638 0.35742,0.751953 0.2148,0.150344 0.21418,0.0599 0.14258,0.390625 -0.0716,0.330716 0.35883,0.389993 0.93164,0.720703 0.57285,0.330715 0.21488,0.706922 0.42969,0.902344 0.19178,0.174488 0.69376,0.480091 0.95898,0.685547 V 0 Z"
     sodipodi:nodetypes="ccccccccsccscccsscccccccscssccsccccccccssssccscccsscccccsccsccscccsccccsssccsscssssccccssccscsssscccssccsscsssccccssscsscsccccscscscscccsscsscssscsssssscsssssssscscssccssscccssscscscsssssssscssssccsssscsssssssscsscssssccscsssssscscssscsssscsscsssscscsssscssssssscsssccscssssccscsssssscsssscscssccssccsscsscssscssssssssssssssccssssccc" />
</svg>
