<?xml version="1.0" encoding="UTF-8" standalone="no"?>
<svg
   width="834"
   height="23"
   viewBox="0 0 834 23"
   fill="none"
   version="1.1"
   id="svg4"
   sodipodi:docname="rectangle_footer_tablet_final.svg"
   inkscape:version="1.1.1 (3bf5ae0d25, 2021-09-20)"
   xmlns:inkscape="http://www.inkscape.org/namespaces/inkscape"
   xmlns:sodipodi="http://sodipodi.sourceforge.net/DTD/sodipodi-0.dtd"
   xmlns:xlink="http://www.w3.org/1999/xlink"
   xmlns="http://www.w3.org/2000/svg"
   xmlns:svg="http://www.w3.org/2000/svg">
  <defs
     id="defs8">
    <linearGradient
       y2="319.34143"
       x2="1.7838031"
       id="linearGradient6449"
       gradientTransform="matrix(2.0418117,0,0,0.48976114,-126.38728,-383.84285)"
       x1="1.7838031"
       y1="7.1549597"
       gradientUnits="userSpaceOnUse"
       spreadMethod="pad">
      <stop
         offset="0"
         stop-opacity="0.996094"
         stop-color="#000000"
         id="stop6445" />
      <stop
         offset="1"
         stop-opacity="0.996094"
         stop-color="#7f3f00"
         id="stop6447" />
    </linearGradient>
    <linearGradient
       y2="1175.6898"
       x2="0.11741285"
       id="linearGradient6443"
       gradientTransform="scale(2.4419784,0.40950403)"
       x1="0.11741285"
       y1="914.6615"
       gradientUnits="userSpaceOnUse">
      <stop
         offset="0"
         stop-opacity="0.996094"
         stop-color="#000000"
         id="stop6439" />
      <stop
         offset="1"
         stop-opacity="0.996094"
         stop-color="#7f3f00"
         id="stop6441" />
    </linearGradient>
    <linearGradient
       y2="319.34143"
       x2="1.7838031"
       id="linearGradient6296"
       gradientTransform="matrix(2.0418117,0,0,0.48976114,-126.38728,-383.84285)"
       x1="1.7838031"
       y1="7.1549597"
       gradientUnits="userSpaceOnUse"
       spreadMethod="pad">
      <stop
         offset="0"
         stop-opacity="0.996094"
         stop-color="#000000"
         id="stop6292" />
      <stop
         offset="1"
         stop-opacity="0.996094"
         stop-color="#7f3f00"
         id="stop6294" />
    </linearGradient>
    <linearGradient
       y2="319.34143"
       x2="1.7838031"
       id="linearGradient6290"
       gradientTransform="matrix(2.0418117,0,0,0.48976114,-126.38728,-383.84285)"
       x1="1.7838031"
       y1="7.1549597"
       gradientUnits="userSpaceOnUse"
       spreadMethod="pad">
      <stop
         offset="0"
         stop-opacity="0.996094"
         stop-color="#000000"
         id="stop6286" />
      <stop
         offset="1"
         stop-opacity="0.996094"
         stop-color="#7f3f00"
         id="stop6288" />
    </linearGradient>
    <linearGradient
       y2="319.34143"
       x2="1.7838031"
       id="linearGradient6284"
       gradientTransform="matrix(2.0418117,0,0,0.48976114,-126.38728,-383.84285)"
       x1="1.7838031"
       y1="7.1549597"
       gradientUnits="userSpaceOnUse">
      <stop
         offset="0"
         stop-opacity="0.996094"
         stop-color="#000000"
         id="stop6280" />
      <stop
         offset="1"
         stop-opacity="0.996094"
         stop-color="#7f3f00"
         id="stop6282" />
    </linearGradient>
    <linearGradient
       y2="1175.6898"
       x2="0.11741285"
       id="linearGradient6278"
       gradientTransform="scale(2.4419784,0.40950403)"
       x1="0.11741285"
       y1="914.6615"
       gradientUnits="userSpaceOnUse">
      <stop
         offset="0"
         stop-opacity="0.996094"
         stop-color="#000000"
         id="stop6274" />
      <stop
         offset="1"
         stop-opacity="0.996094"
         stop-color="#7f3f00"
         id="stop6276" />
    </linearGradient>
    <linearGradient
       y2="1175.6898"
       x2="0.11741285"
       id="linearGradient5231"
       gradientTransform="scale(2.4419784,0.40950403)"
       x1="0.11741285"
       y1="914.6615"
       gradientUnits="userSpaceOnUse">
      <stop
         offset="0"
         stop-opacity="0.996094"
         stop-color="#000000"
         id="stop5227" />
      <stop
         offset="1"
         stop-opacity="0.996094"
         stop-color="#7f3f00"
         id="stop5229" />
    </linearGradient>
    <linearGradient
       y2="319.34143"
       x2="1.7838031"
       id="svg_1"
       gradientTransform="matrix(2.0418117,0,0,0.48976114,-126.38728,-383.84285)"
       x1="1.7838031"
       y1="7.1549597"
       gradientUnits="userSpaceOnUse"
       xlink:href="#linearGradient6449">
      <stop
         offset="0"
         stop-opacity="0.996094"
         stop-color="#000000"
         id="stop853" />
      <stop
         offset="1"
         stop-opacity="0.996094"
         stop-color="#7f3f00"
         id="stop855" />
    </linearGradient>
    <linearGradient
       y2="1175.6898"
       x2="0.11741285"
       id="svg_1-6"
       gradientTransform="matrix(2.4419784,0,0,0.40950403,-173.19738,-753.64266)"
       x1="0.11741285"
       y1="914.6615"
       gradientUnits="userSpaceOnUse">
      <stop
         offset="0"
         stop-opacity="0.996094"
         stop-color="#000000"
         id="stop1193" />
      <stop
         offset="1"
         stop-opacity="0.996094"
         stop-color="#7f3f00"
         id="stop1195" />
    </linearGradient>
    <linearGradient
       y2="1175.6898"
       x2="0.11741285"
       id="svg_1-0"
       gradientTransform="matrix(2.4419784,0,0,0.40950403,-380.72217,-911.23666)"
       x1="0.11741285"
       y1="914.6615"
       gradientUnits="userSpaceOnUse">
      <stop
         offset="0"
         stop-opacity="0.996094"
         stop-color="#000000"
         id="stop1684" />
      <stop
         offset="1"
         stop-opacity="0.996094"
         stop-color="#7f3f00"
         id="stop1686" />
    </linearGradient>
    <linearGradient
       y2="1"
       x2="0"
       id="svg_1-5">
      <stop
         offset="0"
         stop-opacity="0.996094"
         stop-color="#000000"
         id="stop1992" />
      <stop
         offset="1"
         stop-opacity="0.996094"
         stop-color="#7f3f00"
         id="stop1994" />
    </linearGradient>
    <linearGradient
       y2="1175.6898"
       x2="0.11741285"
       id="svg_1-7"
       gradientTransform="scale(2.4419784,0.40950403)"
       x1="0.11741285"
       y1="914.6615"
       gradientUnits="userSpaceOnUse">
      <stop
         offset="0"
         stop-opacity="0.996094"
         stop-color="#000000"
         id="stop2300" />
      <stop
         offset="1"
         stop-opacity="0.996094"
         stop-color="#7f3f00"
         id="stop2302" />
    </linearGradient>
  </defs>
  <sodipodi:namedview
     id="namedview6"
     pagecolor="#ffffff"
     bordercolor="#666666"
     borderopacity="1.0"
     inkscape:pageshadow="2"
     inkscape:pageopacity="0.0"
     inkscape:pagecheckerboard="0"
     showgrid="false"
     inkscape:lockguides="true"
     inkscape:zoom="2.8284271"
     inkscape:cx="765.26631"
     inkscape:cy="66.291261"
     inkscape:window-width="1600"
     inkscape:window-height="837"
     inkscape:window-x="-8"
     inkscape:window-y="-8"
     inkscape:window-maximized="1"
     inkscape:current-layer="svg4"
     fit-margin-top="0"
     fit-margin-left="0"
     fit-margin-right="0"
     fit-margin-bottom="0" />
  <path
     id="rect2"
     style="fill:#f5f5f5"
     inkscape:label="rect2"
     d="m 0,0 v 11.394531 c 0.51441968,0.07127 0.79100822,0.06858 1.3203125,0.144531 0.9178562,-0.04753 0.7144917,0.284132 0.8164063,0.50586 0.1019142,0.22173 0.8153651,0.286321 0.6113281,0.634766 -0.2038287,0.34844 0.8165331,0.491155 1.2246093,0.71289 0.4080721,0.221728 1.0212574,0.774582 1.53125,0.980469 0.5099926,0.205884 0.9167069,0.697162 1.2226563,1.140625 0.3059575,0.44346 0.7137069,0.427487 1.4277344,0.300781 0.7140215,-0.126711 0.1028099,-0.380264 0.3066406,-0.570312 0.2040351,-0.190079 0.3052456,-1.171464 0.203125,-1.345703 -0.1019144,-0.174203 0.5113875,-0.204949 0.1035156,-0.50586 -0.4080721,-0.300913 0.20361,-0.237869 0.5097657,-0.412109 0.3059492,-0.174201 0.1006526,-0.127915 0.3046874,-0.34961 0.2040432,-0.221735 0.00173,-0.362693 0.5117188,-0.552734 0.509993,-0.190044 -0.3075713,-0.823808 0.40625,-0.998047 0.714028,-0.174205 0.20543,-0.36377 0.103516,-0.617187 -0.102121,-0.253388 0.611328,-0.411828 0.611328,-0.8710941 0,-0.4593107 0.153159,-0.4605651 0.867187,-0.6347657 0.714027,-0.1742403 -0.662319,-0.5933777 1.683594,-1.203125 0.612317,-0.1591199 -0.103516,-0.3650444 -0.103516,-0.5234374 0,-0.1583643 -0.101562,-0.4900445 -0.101562,-0.6484376 0,-0.1583641 0.510806,-0.5859637 0.714844,-0.7285156 C 14.479426,5.7109972 13.867539,5.4250375 13.765625,5.1875 13.663711,4.9499241 14.274481,4.5713442 14.478516,4.3496094 c 0.20383,-0.2217301 -3.58e-4,-0.9517274 0.101562,-1.3476563 0.10191,-0.3959749 0.71495,-0.3637202 1.632813,-0.3320312 0.918064,0.031687 0.71289,0.569905 0.71289,0.7441406 0,0.1742053 0.61384,0.3481408 0.511719,0.6015625 -0.101917,0.2534169 0.100853,0.4588494 0.304688,0.7597656 0.204035,0.3009129 0.713578,0.982071 1.019531,1.2988282 0.305954,0.3167524 -0.204035,0.4281974 0,0.5390624 0.204039,0.11087 -0.406473,0.5073955 0.103515,0.6816407 0.509993,0.1742005 0.610414,0.9648888 0.814454,1.25 0.204034,0.2850655 -0.509766,0.3965105 -0.509766,0.5390625 0,0.1425183 0.613281,0.095334 0.613281,0.2695312 0,0.1742053 0.611659,0.5704035 1.019531,0.8554684 0.408074,0.28507 -0.101918,0.316281 0,0.617188 0.102121,0.300911 0.304817,0.363549 0.712891,0.632812 0.407868,0.269225 1.021131,1.869388 1.123047,1.996094 0.102121,0.12671 0.508851,0.823405 0.71289,1.029297 0.204036,0.205889 1.326172,0.237934 1.326172,0.554687 0,0.316753 1.836177,0.902173 3.16211,1.060547 1.32614,0.158373 1.734149,-0.347461 2.24414,-0.505859 0.509992,-0.158355 0.510809,-0.26999 0.714844,-0.380859 0.204039,-0.110865 0.712891,-0.299539 0.712891,-0.53711 0,-0.237581 0.307198,-0.61895 0.205078,-0.777343 -0.101915,-0.158361 0.204166,-0.299973 0.408203,-0.50586 0.204037,-0.205889 -0.205636,-0.254395 -0.103516,-0.507812 0.101917,-0.253383 0.612015,-0.474662 0.917969,-0.759766 0.305953,-0.285067 1.530338,-0.04685 1.734375,0.0957 0.204037,0.142514 0.306287,0.394772 0.408203,0.521485 0.102121,0.126665 -2.27e-4,0.269374 0.509766,0.427734 0.509988,0.158398 -0.20452,0.363964 -0.306641,0.458984 -0.101918,0.09503 0.613282,0.396727 0.613282,0.523438 0,0.126706 0.814784,0.521952 1.222656,0.632812 0.408074,0.110869 0.612924,0.238529 0.714844,0.365235 0.101914,0.126671 0.204164,0.617479 0.408203,0.886718 0.203833,0.269241 0.102026,0.300137 0.917968,0.347657 0.815946,0.04751 0.71302,-0.173865 1.121094,-0.316407 0.407868,-0.142538 0.307198,-0.539174 0.205078,-0.966797 -0.101915,-0.427616 0.611663,-0.538472 1.019531,-0.728515 0.408075,-0.190046 8.17e-4,-0.728319 0.714844,-0.886719 0.714026,-0.158354 0.101563,-0.173451 0.101563,-0.347656 0,-0.174235 0.203256,-0.412793 0.611328,-0.507813 0.407872,-0.09506 0.204039,-0.315774 0,-0.505859 -0.204035,-0.190043 0.510097,-0.396548 0.917969,-0.539062 0.408072,-0.142559 -0.202794,-0.221872 0.205078,-0.570313 0.408074,-0.348439 0.304237,-0.490234 1.324218,-0.490234 1.020021,0 0.713973,0.363305 0.917969,0.505859 0.203997,0.142557 0.102208,0.332775 0.408203,0.570312 0.305994,0.237577 0.126199,0.603818 0.205078,0.761719 0.203996,0.411776 0.204643,0.869383 0.306641,0.996094 0.101998,0.126666 0.40625,0.555371 0.40625,0.650391 0,0.09506 0.10329,0.396484 0.613281,0.396484 0.50999,0 0.902413,-0.150858 1.835938,-0.111328 0.56099,0.02373 0.612199,0.396332 0.408203,0.554687 -0.203997,0.158398 0.508479,0.251981 0.814453,0.394532 0.305994,0.142519 0.612846,0.571878 0.714844,0.746093 0.101998,0.174214 0.816406,0.253141 0.816406,0.601563 0,0.348429 0.611314,0.870869 1.529297,0.886719 0.917962,0.01583 1.021049,-0.205542 1.123047,-0.316407 0.101998,-0.110865 -0.103741,-0.364374 0.40625,-0.427734 0.50999,-0.06335 0.409285,-0.191235 0.613281,-0.349609 0.203994,-0.158378 0.611538,-0.317127 1.019531,-0.554688 0.407992,-0.237581 0.91818,-0.252017 1.326172,-0.394531 0.407972,-0.142558 -0.01043,-0.413518 0.203125,-0.728516 0.101998,-0.150466 1.479816,-0.182384 1.632813,0.01563 0,0 0.20377,0.632657 0.509765,0.791016 0.305994,0.158399 0.305123,0.06366 0.203125,0.412109 -0.101998,0.348432 0.510207,0.411341 1.326172,0.759766 0.815984,0.348431 0.307288,0.745283 0.613282,0.951172 0.305994,0.205893 1.223306,0.600751 1.529296,0.80664 0.305993,0.205892 0.306641,0.951172 0.306641,0.951172 C 65.641333,20.692912 65.886034,21.848745 66.125,23 h 65.34375 c 0.0832,-0.275975 0.27564,-0.52875 0.67773,-0.720703 1.57571,-0.752205 1.26217,-0.915179 2.36524,-1.373047 1.10305,-0.457868 0.31521,-0.588476 0.94531,-0.882812 0.63041,-0.29434 0.47223,-1.276517 1.25977,-1.734376 0.78785,-0.457867 -0.7883,-0.360076 -0.15821,-0.916015 0.63041,-0.555943 1.10428,-0.390835 1.73438,-1.044922 0.63041,-0.654091 1.10156,-0.949301 1.57422,-1.080078 0.47296,-0.130789 -0.31325,-0.980469 1.41992,-0.980469 1.73315,0 1.10308,0.915105 1.41797,1.111328 0.31521,0.196232 1.25934,0.06458 1.57422,0.587891 0.31521,0.523222 -0.15625,0.556282 -0.15625,0.916015 0,0.3598 0.78755,1.34091 1.41797,1.667969 0.63008,0.327038 0.47191,2.192439 0.7871,2.388672 0.31491,0.196212 -0.62891,0.816125 0.31641,1.4375 0.94561,0.621389 2.36328,-0.424872 2.36328,-0.621094 0,-0.196233 2.20508,-1.798901 2.20508,-2.060547 0,-0.261635 0.31641,-0.784781 0.78906,-1.144531 0.47264,-0.359783 -0.31566,-0.523083 -0.63086,-1.013672 -0.31521,-0.49051 0.78682,-2.191058 2.20508,-2.550781 1.41794,-0.359731 -0.31447,-0.588236 -0.78711,-1.634766 -0.47265,-1.04653 -0.31595,-0.621723 1.25977,-1.046874 1.57572,-0.425236 0.31596,-0.326443 0.1582,-1.111329 -0.15745,-0.784947 1.26098,-0.753551 1.57617,-1.2441402 0.31521,-0.4905069 0.47266,-0.9796952 0.47266,-1.5683594 0,-0.5887368 0.63012,-1.1774624 1.89062,-1.7988282 1.2605,-0.6213756 -0.1582,-0.5557243 -0.1582,-0.8828124 0,-0.326999 0.63086,-0.2956198 0.63086,-0.8515626 0,-0.5559395 0.31448,-0.8175128 1.25977,-1.2753906 0.94562,-0.4578678 0.9453,-0.6201874 0.47265,-0.9472656 -0.35472,-0.245269 0.79766,-0.4366627 1.92774,-0.4335938 0.37669,0.00102 0.75128,0.02321 1.0664,0.072266 1.26051,0.1962093 1.26096,1.0142966 1.57618,1.4394531 0.31518,0.4251564 -0.62965,0.9157243 0.63085,1.6679688 1.26051,0.7521621 0.94412,2.6499727 0.62891,3.0097656 -0.31521,0.3597303 1.10426,0.6529682 1.26172,0.9472656 0.15776,0.2943569 0.47148,1.3087367 1.57422,1.7011717 1.10305,0.392521 -1.4175,0.751525 -0.31446,0.980469 1.10276,0.228921 0.7886,1.374246 -0.31445,1.832031 -1.10308,0.457878 1.41723,1.308721 1.73242,1.832031 0.31522,0.523301 0.63086,2.157293 1.10352,2.353516 0.47265,0.196222 -0.47294,1.800111 2.36328,2.78125 2.83622,0.981125 4.57031,-0.163226 4.57031,-0.621094 0,-0.457858 1.57543,-2.224743 1.89063,-2.617188 0.31521,-0.392431 1.10307,-0.981502 0.94531,-1.308593 -0.15745,-0.327009 1.57587,-1.372632 2.99414,-1.601563 1.41795,-0.228934 -0.6316,-0.556777 0.15625,-0.949218 0.78786,-0.392436 1.10427,-1.045477 1.26172,-1.339844 0.15776,-0.294287 1.41795,-0.262835 0.94531,-0.589844 -0.47266,-0.327091 -7.3e-4,-1.668587 1.25977,-2.2246091 1.2605,-0.5559429 0.63086,-0.8165331 0.63086,-1.3398437 0,-0.5232215 0.15673,-0.9482989 2.20508,-1.1445313 2.04836,-0.1962126 1.89183,0.9800442 2.20703,1.3398438 0.3149,0.3597203 0.94575,1.6685933 1.57617,2.0937493 0.63008,0.425156 2.99367,1.765343 1.89062,2.25586 -1.10306,0.490579 -0.47264,0.916571 0.47266,1.210937 0.94562,0.294298 -0.31639,0.718814 0.15625,1.111328 0.47265,0.392435 0.47387,1.375064 1.26172,1.636719 0.78786,0.261646 0.78831,1.079169 1.57617,1.40625 0.78785,0.327009 2.36346,1.372672 5.83008,1.732422 3.46631,0.35975 2.52047,0.0975 6.61719,-0.425781 4.09671,-0.523261 4.57033,0.0014 5.98828,-1.56836 0.52344,-0.579492 -0.15744,-1.21108 0.47265,-1.603515 0.63042,-0.392442 0.47266,-0.882959 0.47266,-1.275391 0,-0.392445 1.10126,-1.373202 2.04687,-1.634766 0.94531,-0.261656 1.57693,0.587537 1.73438,1.078126 0.15744,0.490507 0.47192,0.949355 1.25977,1.341796 0.78786,0.392525 -0.15699,1.603235 0.63085,2.355469 0.78786,0.752172 1.89063,0.130859 1.89063,0.130859 0,0 0.62965,-1.210519 0.31445,-1.439453 -0.3152,-0.228934 1.10353,-1.177389 1.57618,-1.537109 0.47266,-0.359803 0.47386,-0.785352 0.78906,-1.439453 0.3152,-0.654087 -0.3152,-1.079231 0,-1.40625 0.3152,-0.327078 1.26021,-0.653105 1.41797,-1.470703 0.15745,-0.817588 0.6286,-1.0483273 2.04687,-1.1464843 1.41794,-0.098144 1.10428,0.5890103 1.26172,1.0468743 0.15744,0.457868 1.26051,0.589061 0.94531,1.308594 -0.31488,0.719523 1.26021,1.014778 1.89063,1.472656 0.6304,0.457865 1.57542,1.602191 2.36328,2.027344 0.78786,0.425147 1.41798,1.437774 1.89062,2.353516 0.47266,0.915736 1.10398,0.884693 2.20704,0.623047 1.10304,-0.261655 0.98393,-0.103649 1.29882,-0.496094 0.3152,-0.392511 1.60503,0.174253 1.44727,-0.185547 -0.15745,-0.359723 4.68674,0.86747 4.05664,0.246094 L 299.73242,23 h 84.76953 c 0.39691,-0.900379 0.90582,-1.862383 1.94727,-2.207031 1.97566,-0.653799 1.57984,-0.797346 2.96289,-1.195313 1.38303,-0.397968 0.39552,-0.509794 1.18555,-0.765625 0.79042,-0.255833 0.59264,-1.109853 1.58007,-1.507812 0.98783,-0.397968 -0.98729,-0.311713 -0.19726,-0.794922 0.79042,-0.483212 1.3838,-0.341639 2.17383,-0.910156 0.79041,-0.56852 1.38198,-0.823833 1.97461,-0.9375 0.593,-0.11368 -0.39379,-0.853516 1.77929,-0.853516 2.17306,0 1.38254,0.796246 1.77735,0.966797 0.39522,0.170561 1.5798,0.05687 1.97461,0.511719 0.39522,0.454771 -0.19727,0.48225 -0.19727,0.794921 0,0.31273 0.98886,1.166901 1.7793,1.451172 0.79001,0.284254 0.59309,1.903658 0.98828,2.074219 0.39483,0.170543 -0.79072,0.709915 0.39453,1.25 1.18564,0.540096 2.96289,-0.36851 2.96289,-0.539062 0,-0.170561 2.76563,-1.5636 2.76563,-1.791016 0,-0.227407 0.39567,-0.681455 0.98828,-0.994141 0.59261,-0.312715 -0.39582,-0.456404 -0.79102,-0.882812 -0.39522,-0.42634 0.98739,-1.904134 2.76563,-2.216797 1.77784,-0.312668 -0.39372,-0.510305 -0.98633,-1.419922 -0.59261,-0.90962 -0.39559,-0.540624 1.58008,-0.910156 1.97566,-0.369605 0.39507,-0.284592 0.19726,-0.966797 -0.19741,-0.682256 1.58137,-0.65367 1.97656,-1.080078 0.39522,-0.4263368 0.5918,-0.8535819 0.5918,-1.3652345 0,-0.5117157 0.79065,-1.0224239 2.3711,-1.5625 1.58043,-0.5400846 -0.19727,-0.4832811 -0.19727,-0.7675781 0,-0.2842196 0.78906,-0.2570224 0.78906,-0.7402344 0,-0.4832092 0.39486,-0.7094456 1.58008,-1.1074219 1.18564,-0.3979676 1.18637,-0.5399303 0.59375,-0.8242187 -0.44476,-0.2131817 1.00105,-0.3796205 2.41797,-0.3769532 0.4723,8.892e-4 0.94082,0.021815 1.33594,0.064453 1.58044,0.1705404 1.57939,0.8804643 1.97461,1.25 0.3952,0.3695357 -0.78943,0.795386 0.79101,1.4492187 1.58045,0.653761 1.18624,2.3025111 0.79102,2.6152344 -0.39521,0.3126688 1.38265,0.5684226 1.58007,0.8242187 0.19781,0.2558479 0.59196,1.137421 1.97461,1.478516 1.38302,0.34117 -1.77756,0.654523 -0.39453,0.853516 1.38267,0.198972 0.98849,1.1939 -0.39453,1.591796 -1.38306,0.397976 1.77669,1.136949 2.17188,1.591797 0.39522,0.454841 0.79212,1.876323 1.38476,2.046875 0.59261,0.170552 -0.59322,1.563234 2.96289,2.416016 3.55611,0.85277 5.72852,-0.143048 5.72852,-0.541016 0,-0.397959 1.97588,-1.932334 2.37109,-2.273437 0.39521,-0.341093 1.38335,-0.852419 1.18555,-1.136719 -0.19741,-0.284228 1.97565,-1.193597 3.75391,-1.392578 1.77785,-0.198984 -0.79057,-0.483118 0.19726,-0.824219 0.98784,-0.341095 1.38267,-0.910161 1.58008,-1.166015 0.1978,-0.255789 1.77816,-0.227491 1.18555,-0.511719 -0.59263,-0.2843 -3.7e-4,-1.450313 1.58007,-1.9335942 1.58045,-0.483212 0.79102,-0.7111667 0.79102,-1.1660156 0,-0.4547714 0.19736,-0.8235802 2.76563,-0.9941406 2.56826,-0.1705433 2.37041,0.8532866 2.76562,1.1660156 0.39482,0.3126602 1.18614,1.4488238 1.97656,1.8183598 0.79002,0.369535 3.75412,1.536545 2.3711,1.96289 -1.38304,0.4264 -0.59345,0.794925 0.59179,1.050782 1.18564,0.255796 -0.39534,0.625633 0.19727,0.966796 0.59261,0.341097 0.59224,1.194449 1.58008,1.421876 0.98783,0.227415 0.98873,0.936412 1.97656,1.220703 0.98782,0.284228 2.96402,1.195126 7.31055,1.507812 4.34612,0.312686 3.16032,0.08568 8.29687,-0.369141 5.13654,-0.454806 5.72996,-8.1e-4 7.50781,-1.365234 0.65631,-0.50368 -0.19822,-1.051482 0.5918,-1.392578 0.79043,-0.3411 0.59375,-0.768283 0.59375,-1.109375 0,-0.341103 1.38272,-1.192578 2.56836,-1.419922 1.18523,-0.227425 1.97447,0.511092 2.17188,0.9375 0.19739,0.426337 0.59421,0.822962 1.58203,1.164063 0.98784,0.341173 -0.19878,1.393051 0.78906,2.046875 0.98783,0.65377 2.37109,0.115234 2.37109,0.115234 0,0 0.78974,-1.052969 0.39453,-1.251953 -0.39521,-0.198984 1.38396,-1.023278 1.97657,-1.335938 5.35943,3.027851 8.26693,5.785406 9.26953,8.291016 h 115.4414 c 0.11388,-0.07011 0.1404,-0.154633 0.33594,-0.210938 1.68193,-0.484283 1.34601,-0.588028 2.52344,-0.882812 1.17741,-0.294784 0.33524,-0.378859 1.00781,-0.568359 0.6729,-0.189502 0.50508,-0.82241 1.3457,-1.117188 0.84096,-0.294784 -0.84053,-0.231919 -0.16796,-0.589844 0.6729,-0.357927 1.17705,-0.252714 1.8496,-0.673828 0.67291,-0.421116 1.17908,-0.609159 1.6836,-0.693359 0.50484,-0.08421 -0.33633,-0.632813 1.51367,-0.632813 1.84998,0 1.17756,0.590465 1.51367,0.716797 0.33646,0.126338 1.34552,0.04199 1.68164,0.378906 0.33646,0.336862 -0.16797,0.358241 -0.16797,0.589844 0,0.231646 0.84075,0.8617 1.51368,1.072266 0.67255,0.210554 0.50341,1.410771 0.83984,1.537109 0.33614,0.126326 -0.6731,0.527681 0.33594,0.927735 1.00936,0.400062 2.52343,-0.274059 2.52343,-0.400391 10e-6,-0.126338 2.35547,-1.15772 2.35547,-1.326172 0,-0.168446 0.33534,-0.506667 0.83985,-0.738281 0.5045,-0.231635 -0.33544,-0.336493 -0.67188,-0.652344 -0.33647,-0.3158 0.8416,-1.410981 2.35547,-1.642578 1.51352,-0.231602 -0.33729,-0.378958 -0.8418,-1.052734 -0.5045,-0.673777 -0.33623,-0.400107 1.34571,-0.673828 1.68193,-0.273776 0.33637,-0.209519 0.16797,-0.714844 -0.16806,-0.505364 1.3452,-0.484929 1.68164,-0.800782 0.33646,-0.315796 0.5039,-0.630772 0.5039,-1.009765 0,-0.37904 0.67405,-0.758156 2.01953,-1.158203 1.34547,-0.400054 -0.16796,-0.357775 -0.16796,-0.56836 0,-0.210529 0.67187,-0.190902 0.67187,-0.548828 0,-0.357925 0.33669,-0.525521 1.3457,-0.820312 1.00936,-0.294784 1.01037,-0.400749 0.50586,-0.611328 -0.50485,-0.2105457 1.84984,-0.3568012 3.19532,-0.2304693 1.34547,0.1263243 1.34518,0.6520573 1.68164,0.9257813 0.33644,0.273724 -0.6736,0.58991 0.67187,1.074219 1.34547,0.484257 1.01029,1.705858 0.67383,1.9375 -0.33646,0.231601 1.17568,0.419901 1.34375,0.609375 0.16839,0.189513 0.50651,0.843045 1.68359,1.095703 1.17741,0.252712 -1.51334,0.48346 -0.33593,0.630859 1.1771,0.147383 0.83952,0.884957 -0.3379,1.179688 -1.17742,0.29479 1.51317,0.84277 1.84961,1.179687 0.33646,0.336911 0.67322,1.389293 1.17774,1.515625 0.50451,0.126332 -0.50396,1.157387 2.52344,1.789063 3.02741,0.631668 4.87695,-0.105607 4.87695,-0.400391 0,-0.294778 1.68308,-1.43093 2.01953,-1.683594 0.33646,-0.252653 1.1762,-0.631208 1.00781,-0.841796 -0.16806,-0.210534 1.68339,-0.88386 3.19727,-1.03125 1.51353,-0.147392 -0.67299,-0.358668 0.16797,-0.611328 0.84097,-0.252659 1.17569,-0.673763 1.34375,-0.863282 0.16839,-0.189468 1.51426,-0.168371 1.00976,-0.378906 -0.50452,-0.210588 2.4e-4,-1.073663 1.34571,-1.431641 1.34548,-0.357927 0.67382,-0.526364 0.67382,-0.863281 0,-0.336861 0.16709,-0.611942 2.35352,-0.738281 2.18644,-0.126325 2.01902,0.631636 2.35547,0.863281 0.33613,0.231595 1.00873,1.073932 1.68164,1.347656 0.67256,0.273723 3.19499,1.137321 2.01758,1.453125 -1.17741,0.315845 -0.50316,0.589778 0.50586,0.779297 1.00936,0.189474 -0.33653,0.464089 0.16797,0.716797 0.50451,0.252657 0.50473,0.884276 1.3457,1.052735 0.84096,0.168452 0.84067,0.693715 1.68164,0.904296 0.84096,0.210535 2.52235,0.885574 6.22266,1.117188 3.69997,0.231614 2.69157,0.06346 7.06445,-0.273438 4.37287,-0.336886 4.87709,-0.0011 6.39062,-1.011718 0.5587,-0.373089 -0.16865,-0.778592 0.50391,-1.03125 0.67292,-0.252661 0.50586,-0.569611 0.50586,-0.822266 0,-0.252664 1.17619,-0.884334 2.18555,-1.052734 1.00902,-0.168458 1.68351,0.379461 1.85156,0.695312 0.16806,0.315798 0.5028,0.610619 1.34375,0.863281 0.84097,0.252714 -0.16713,1.031322 0.67383,1.515625 0.84097,0.48426 2.01757,0.08398 2.01757,0.08398 0,0 0.67239,-0.77839 0.33594,-0.925781 -0.33645,-0.147392 1.1791,-0.75864 1.6836,-0.990235 0.50452,-0.231648 0.50339,-0.504659 0.83984,-0.925781 0.33645,-0.421114 -0.33645,-0.695709 0,-0.90625 0.33645,-0.210579 1.34527,-0.420881 1.51367,-0.947266 0.16806,-0.526379 0.67363,-0.673128 2.1875,-0.736328 1.51353,-0.06319 1.17766,0.379046 1.34571,0.673828 0.16804,0.294785 1.34427,0.378547 1.00781,0.841797 -0.33611,0.463243 1.34662,0.652476 2.01953,0.947266 0.6729,0.294782 1.68051,1.032919 2.52148,1.30664 0.84097,0.273718 1.51503,0.926052 2.01953,1.515625 0.50452,0.589568 1.1761,0.568843 2.35352,0.400391 1.17741,-0.168459 0.16974,-0.505149 0.50586,-0.757813 0.33645,-0.252705 0.50433,-1.559369 0.33594,-1.791015 -0.16806,-0.231597 0.84054,-0.273774 0.16797,-0.673828 -0.6729,-0.400055 0.33694,-0.315227 0.84179,-0.546875 0.5045,-0.231595 0.16746,-0.168153 0.50391,-0.462891 0.33647,-0.29479 -10e-4,-0.483672 0.83984,-0.736328 0.84097,-0.252657 -0.50324,-1.096479 0.67383,-1.328125 1.17742,-0.231601 0.33602,-0.483402 0.16797,-0.820312 -0.1684,-0.336875 1.00976,-0.547622 1.00976,-1.158204 2e-5,-0.610641 0.25227,-0.610202 1.42969,-0.841796 1.17742,-0.231649 -1.09297,-0.79092 2.77539,-1.6015632 1.0097,-0.2115458 -0.16797,-0.4827802 -0.16797,-0.6933594 0,-0.210541 -0.16992,-0.6527019 -0.16992,-0.8632812 0,-0.210541 0.84129,-0.779231 1.17774,-0.96875 0.33645,-0.1894744 -0.67179,-0.5689657 -0.83985,-0.8847656 -0.16805,-0.315851 0.83933,-0.8204438 1.17578,-1.1152344 0.33611,-0.2947842 -10e-5,-1.2646387 0.16797,-1.7910156 0.16804,-0.5264387 1.17788,-0.4835353 2.69141,-0.4414063 1.51387,0.042127 1.17773,0.7585927 1.17773,0.9902344 0,0.2316013 1.01019,0.4619107 0.8418,0.7988281 -0.16806,0.3369111 0.16779,0.6116588 0.50391,1.0117188 0.33645,0.4000557 1.17713,1.3054421 1.68164,1.7265624 0.50451,0.4211141 -0.33645,0.5674517 0,0.7148438 0.33645,0.1473985 -0.67299,0.6745956 0.16797,0.90625 0.84097,0.2315949 1.00924,1.2850172 1.3457,1.6640622 0.33645,0.378988 -0.83984,0.525325 -0.83984,0.714844 0,0.189474 1.00781,0.125831 1.00781,0.357422 0,0.231601 1.00906,0.757732 1.68164,1.136719 0.6729,0.378994 -0.16807,0.422219 0,0.822265 0.16839,0.400053 0.50483,0.483819 1.17773,0.841797 0.67257,0.357927 1.68156,2.483891 1.84961,2.652344 0.1684,0.168458 0.84129,1.095413 1.17774,1.369141 0.33645,0.273724 2.1875,0.317165 2.1875,0.738281 0,0.421114 3.02646,1.199602 5.21289,1.410156 2.18678,0.210554 2.86021,-0.463242 3.70117,-0.673828 0.84097,-0.210528 0.84128,-0.35846 1.17773,-0.505859 0.33645,-0.147392 1.17579,-0.398999 1.17579,-0.714844 -2e-5,-0.315857 0.50628,-0.822624 0.33789,-1.033203 -0.16806,-0.210537 0.33542,-0.400106 0.67187,-0.673828 0.33646,-0.273724 -0.33637,-0.336917 -0.16797,-0.673828 0.16805,-0.336867 1.00916,-0.630728 1.51367,-1.009766 0.50451,-0.378987 2.52293,-0.06257 2.85938,0.126953 0.33646,0.189468 0.50381,0.524901 0.67187,0.69336 0.1684,0.1684 8.3e-4,0.357824 0.8418,0.568359 0.84096,0.210585 -0.33552,0.485002 -0.50391,0.611328 -0.16806,0.126336 1.00782,0.526854 1.00782,0.695313 0,0.168452 1.34696,0.69441 2.01953,0.841796 0.6729,0.147396 1.00772,0.315923 1.17578,0.484375 0.16805,0.168406 0.33738,0.821742 0.67383,1.179688 0.33612,0.357946 0.1682,0.399721 1.51367,0.462891 1.34548,0.06316 1.1767,-0.232369 1.84961,-0.421876 0.67256,-0.1895 0.50434,-0.71469 0.33594,-1.283203 -0.16805,-0.568506 1.00907,-0.716092 1.68164,-0.96875 0.6729,-0.252661 3.1e-4,-0.9691 1.17773,-1.179687 1.17741,-0.210529 0.16797,-0.23129 0.16797,-0.462891 0,-0.231642 0.33687,-0.547496 1.00977,-0.673828 0.67257,-0.126376 0.33646,-0.421116 0,-0.673828 -0.33645,-0.252658 0.8411,-0.527329 1.51367,-0.716797 0.6729,-0.189526 -0.33663,-0.294569 0.33594,-0.757812 0.6729,-0.463241 0.50557,-0.652344 2.1875,-0.652344 1.68199,0 1.17728,0.484307 1.51367,0.673828 0.33638,0.189526 0.16729,0.442013 0.67187,0.757812 0.50458,0.315853 0.20782,0.801794 0.33789,1.011719 0.33638,0.547446 0.33572,1.157714 0.50391,1.326172 0.1682,0.1684 0.67187,0.736951 0.67187,0.863281 0,0.126385 0.1688,0.525391 1.00977,0.525391 0.84096,0 0.83288,-1.302369 2.37224,-1.249809 0.92506,0.03154 1.21514,-0.474089 0.87875,-0.26356 -0.33638,0.210585 0.80669,0.06199 1.31123,0.251512 0.50458,0.189476 0.40092,0.448646 0.68398,0.406141 0,0 0.35958,-0.280996 0.82242,-0.26235 0.25412,0.01024 1.19755,0.210071 1.47174,0.06665 0.45318,-0.237044 1.09528,0.0013 1.26347,-0.146042 0.16819,-0.147392 0.419,-1.035793 1.25996,-1.120023 0.84096,-0.08422 1.15414,-0.355773 1.49053,-0.566326 0.33638,-0.210561 1.44594,-0.02994 1.91417,-0.607119 0.33929,-0.418245 3.0529,-3.410981 3.65065,-3.531896 V 0 Z"
     sodipodi:nodetypes="cccsccscccccccsccsccsscccccscccsccssccccssccsscsccccccsccccccccsccccsscccsscccsscsssccsccsssscccsscccccsccscccsscccscccssssccssscccsccsssssccscccsscccccscssscscscccscsscsscsssscccccssccccssccscccssssssscsssssccssssscsssssssscsscssssccscsssssscscssscscccssssccssscssssssssssscsssssscsssscsssssssscsscsssscssssssssssssssscsssscsscsssscccsssscssssssscsssccssssssscscsssssscscsscscssscsscsssssscssscsssssssssssssccc" />
</svg>
