<?xml version="1.0" encoding="UTF-8" standalone="no"?>
<svg
   width="834"
   height="23"
   viewBox="0 0 834 23"
   fill="none"
   version="1.1"
   id="svg4"
   sodipodi:docname="header_stalactites_tablet.svg"
   inkscape:version="1.1.1 (3bf5ae0d25, 2021-09-20)"
   xmlns:inkscape="http://www.inkscape.org/namespaces/inkscape"
   xmlns:sodipodi="http://sodipodi.sourceforge.net/DTD/sodipodi-0.dtd"
   xmlns:xlink="http://www.w3.org/1999/xlink"
   xmlns="http://www.w3.org/2000/svg"
   xmlns:svg="http://www.w3.org/2000/svg">
  <defs
     id="defs8">
    <linearGradient
       y2="1"
       x2="0"
       id="linearGradient6068"
       x1="0"
       y1="0"
       gradientUnits="objectBoundingBox"
       spreadMethod="pad">
      <stop
         offset="0"
         stop-opacity="0.996094"
         stop-color="#000000"
         id="stop6064" />
      <stop
         offset="1"
         stop-opacity="0.996094"
         stop-color="#7f3f00"
         id="stop6066" />
    </linearGradient>
    <linearGradient
       y2="1"
       x2="0"
       id="linearGradient6062"
       x1="0"
       y1="0"
       gradientUnits="objectBoundingBox"
       spreadMethod="pad">
      <stop
         offset="0"
         stop-opacity="0.996094"
         stop-color="#000000"
         id="stop6058" />
      <stop
         offset="1"
         stop-opacity="0.996094"
         stop-color="#7f3f00"
         id="stop6060" />
    </linearGradient>
    <linearGradient
       y2="1"
       x2="0"
       id="linearGradient6056"
       x1="0"
       y1="0"
       gradientUnits="objectBoundingBox"
       spreadMethod="pad">
      <stop
         offset="0"
         stop-opacity="0.996094"
         stop-color="#000000"
         id="stop6052" />
      <stop
         offset="1"
         stop-opacity="0.996094"
         stop-color="#7f3f00"
         id="stop6054" />
    </linearGradient>
    <linearGradient
       y2="1"
       x2="0"
       id="linearGradient5974"
       x1="0"
       y1="0"
       gradientUnits="objectBoundingBox"
       spreadMethod="pad">
      <stop
         offset="0"
         stop-opacity="0.996094"
         stop-color="#000000"
         id="stop5970" />
      <stop
         offset="1"
         stop-opacity="0.996094"
         stop-color="#7f3f00"
         id="stop5972" />
    </linearGradient>
    <linearGradient
       y2="1"
       x2="0"
       id="linearGradient5968"
       x1="0"
       y1="0"
       gradientUnits="objectBoundingBox"
       spreadMethod="pad">
      <stop
         offset="0"
         stop-opacity="0.996094"
         stop-color="#000000"
         id="stop5964" />
      <stop
         offset="1"
         stop-opacity="0.996094"
         stop-color="#7f3f00"
         id="stop5966" />
    </linearGradient>
    <linearGradient
       y2="1"
       x2="0"
       id="linearGradient5962"
       x1="0"
       y1="0"
       gradientUnits="objectBoundingBox"
       spreadMethod="pad">
      <stop
         offset="0"
         stop-opacity="0.996094"
         stop-color="#000000"
         id="stop5958" />
      <stop
         offset="1"
         stop-opacity="0.996094"
         stop-color="#7f3f00"
         id="stop5960" />
    </linearGradient>
    <linearGradient
       y2="1"
       x2="0"
       id="linearGradient5918"
       x1="0"
       y1="0"
       gradientUnits="objectBoundingBox"
       spreadMethod="pad">
      <stop
         offset="0"
         stop-opacity="0.996094"
         stop-color="#000000"
         id="stop5914" />
      <stop
         offset="1"
         stop-opacity="0.996094"
         stop-color="#7f3f00"
         id="stop5916" />
    </linearGradient>
    <linearGradient
       y2="1"
       x2="0"
       id="linearGradient5912"
       x1="0"
       y1="0"
       gradientUnits="objectBoundingBox"
       spreadMethod="pad">
      <stop
         offset="0"
         stop-opacity="0.996094"
         stop-color="#000000"
         id="stop5908" />
      <stop
         offset="1"
         stop-opacity="0.996094"
         stop-color="#7f3f00"
         id="stop5910" />
    </linearGradient>
    <linearGradient
       y2="1"
       x2="0"
       id="linearGradient5906"
       x1="0"
       y1="0"
       gradientUnits="objectBoundingBox"
       spreadMethod="pad">
      <stop
         offset="0"
         stop-opacity="0.996094"
         stop-color="#000000"
         id="stop5902" />
      <stop
         offset="1"
         stop-opacity="0.996094"
         stop-color="#7f3f00"
         id="stop5904" />
    </linearGradient>
    <linearGradient
       y2="1"
       x2="0"
       id="linearGradient5466"
       x1="0"
       y1="0"
       gradientUnits="objectBoundingBox"
       spreadMethod="pad">
      <stop
         offset="0"
         stop-opacity="0.996094"
         stop-color="#000000"
         id="stop5462" />
      <stop
         offset="1"
         stop-opacity="0.996094"
         stop-color="#7f3f00"
         id="stop5464" />
    </linearGradient>
    <linearGradient
       y2="1"
       x2="0"
       id="linearGradient5422"
       x1="0"
       y1="0"
       gradientUnits="objectBoundingBox"
       spreadMethod="pad">
      <stop
         offset="0"
         stop-opacity="0.996094"
         stop-color="#000000"
         id="stop5418" />
      <stop
         offset="1"
         stop-opacity="0.996094"
         stop-color="#7f3f00"
         id="stop5420" />
    </linearGradient>
    <linearGradient
       y2="1"
       x2="0"
       id="linearGradient5378">
      <stop
         offset="0"
         stop-opacity="0.996094"
         stop-color="#000000"
         id="stop5374" />
      <stop
         offset="1"
         stop-opacity="0.996094"
         stop-color="#7f3f00"
         id="stop5376" />
    </linearGradient>
    <linearGradient
       y2="1"
       x2="0"
       id="linearGradient3540">
      <stop
         offset="0"
         stop-opacity="0.996094"
         stop-color="#000000"
         id="stop3536" />
      <stop
         offset="1"
         stop-opacity="0.996094"
         stop-color="#7f3f00"
         id="stop3538" />
    </linearGradient>
    <linearGradient
       y2="1"
       x2="0"
       id="linearGradient2050">
      <stop
         offset="0"
         stop-opacity="0.996094"
         stop-color="#000000"
         id="stop2046" />
      <stop
         offset="1"
         stop-opacity="0.996094"
         stop-color="#7f3f00"
         id="stop2048" />
    </linearGradient>
    <linearGradient
       y2="1"
       x2="0"
       id="linearGradient1586">
      <stop
         offset="0"
         stop-opacity="0.996094"
         stop-color="#000000"
         id="stop1582" />
      <stop
         offset="1"
         stop-opacity="0.996094"
         stop-color="#7f3f00"
         id="stop1584" />
    </linearGradient>
    <linearGradient
       y2="1"
       x2="0"
       id="linearGradient1289">
      <stop
         offset="0"
         stop-opacity="0.996094"
         stop-color="#000000"
         id="stop1285" />
      <stop
         offset="1"
         stop-opacity="0.996094"
         stop-color="#7f3f00"
         id="stop1287" />
    </linearGradient>
    <linearGradient
       y2="1"
       x2="0"
       id="svg_1"
       xlink:href="#linearGradient6068">
      <stop
         offset="0"
         stop-opacity="0.996094"
         stop-color="#000000"
         id="stop853" />
      <stop
         offset="1"
         stop-opacity="0.996094"
         stop-color="#7f3f00"
         id="stop855" />
    </linearGradient>
    <linearGradient
       y2="1"
       x2="0"
       id="svg_1-1">
      <stop
         offset="0"
         stop-opacity="0.996094"
         stop-color="#000000"
         id="stop853-1" />
      <stop
         offset="1"
         stop-opacity="0.996094"
         stop-color="#7f3f00"
         id="stop855-1" />
    </linearGradient>
    <linearGradient
       y2="1"
       x2="0"
       id="svg_1-7">
      <stop
         offset="0"
         stop-opacity="0.996094"
         stop-color="#000000"
         id="stop853-2" />
      <stop
         offset="1"
         stop-opacity="0.996094"
         stop-color="#7f3f00"
         id="stop855-0" />
    </linearGradient>
    <linearGradient
       y2="1"
       x2="0"
       id="svg_1-8">
      <stop
         offset="0"
         stop-opacity="0.996094"
         stop-color="#000000"
         id="stop853-8" />
      <stop
         offset="1"
         stop-opacity="0.996094"
         stop-color="#7f3f00"
         id="stop855-5" />
    </linearGradient>
    <linearGradient
       y2="319.34143"
       x2="1.7838031"
       id="svg_1-5"
       gradientTransform="matrix(2.0418117,0,0,0.48976114,-406.25,-556.25)"
       x1="1.7838031"
       y1="7.1549597"
       gradientUnits="userSpaceOnUse">
      <stop
         offset="0"
         stop-opacity="0.996094"
         stop-color="#000000"
         id="stop3766" />
      <stop
         offset="1"
         stop-opacity="0.996094"
         stop-color="#7f3f00"
         id="stop3768" />
    </linearGradient>
    <linearGradient
       y2="319.34143"
       x2="1.7838031"
       id="svg_1-9"
       gradientTransform="matrix(2.0418117,0,0,0.48976114,-325,-981.25)"
       x1="1.7838031"
       y1="7.1549597"
       gradientUnits="userSpaceOnUse">
      <stop
         offset="0"
         stop-opacity="0.996094"
         stop-color="#000000"
         id="stop4284" />
      <stop
         offset="1"
         stop-opacity="0.996094"
         stop-color="#7f3f00"
         id="stop4286" />
    </linearGradient>
  </defs>
  <sodipodi:namedview
     id="namedview6"
     pagecolor="#ffffff"
     bordercolor="#666666"
     borderopacity="1.0"
     inkscape:pageshadow="2"
     inkscape:pageopacity="0.0"
     inkscape:pagecheckerboard="0"
     showgrid="false"
     inkscape:zoom="20.48"
     inkscape:cx="-2.6611328"
     inkscape:cy="11.743164"
     inkscape:window-width="1600"
     inkscape:window-height="837"
     inkscape:window-x="-8"
     inkscape:window-y="-8"
     inkscape:window-maximized="1"
     inkscape:current-layer="svg4"
     fit-margin-top="0"
     fit-margin-left="0"
     fit-margin-right="0"
     fit-margin-bottom="0"
     inkscape:lockguides="true" />
  <path
     id="rect2"
     style="fill:#f5f5ff"
     d="m 192.7168,0 c -0.0461,0.02194194 -0.0203,0.03846936 -0.0781,0.06054687 -0.76061,0.29041401 0.76143,1.34906493 -0.75976,1.82617193 -1.52121,0.4771049 -1.21633,0.5806807 -2.28125,0.8710937 -1.06489,0.290414 -0.30576,0.3719009 -0.91407,0.5585937 -0.6086,0.1866921 -0.4565,0.8092074 -1.21679,1.0996094 -0.7606,0.290419 0.76064,0.2294123 0.15234,0.5820313 -0.6086,0.352625 -1.06553,0.2472314 -1.67383,0.6621093 -0.6086,0.4148741 -1.06322,0.6025969 -1.51953,0.6855469 -0.45659,0.08295 0.30407,0.6230469 -1.36914,0.6230469 -1.6732,0 -1.06515,-0.5806231 -1.36914,-0.7050781 -0.30431,-0.12446 -1.21748,-0.043083 -1.52148,-0.375 -0.3043,-0.33187 0.15234,-0.3519182 0.15234,-0.5800781 0,-0.2282171 -0.76052,-0.8511458 -1.36914,-1.0585938 -0.60829,-0.207437 -0.45743,-1.3892119 -0.76172,-1.5136719 -0.30401,-0.12446 0.60988,-0.5179804 -0.30273,-0.9121093 -0.9129,-0.3941291 -2.28321,0.2681181 -2.28321,0.3925781 0,0.124465 -2.1289,1.1426387 -2.1289,1.3085937 0,0.165948 -0.30542,0.4964284 -0.76172,0.7246094 -0.45629,0.228197 0.30508,0.3333623 0.60937,0.6445312 0.30431,0.3111201 -0.76166,1.3890226 -2.13086,1.6171876 -1.36889,0.228166 0.30542,0.3733213 0.76172,1.0371093 0.45629,0.663793 0.30442,0.3943925 -1.21679,0.6640625 -1.52122,0.269715 -0.30466,0.2072491 -0.15235,0.7050782 0.152,0.4978815 -1.21718,0.4778925 -1.52148,0.7890624 -0.3043,0.3111158 -0.45508,0.6207708 -0.45508,0.9941408 0,0.373422 -0.60926,0.746502 -1.82617,1.140625 -1.2169,0.394124 0.15234,0.353089 0.15234,0.560547 0,0.207416 -0.60937,0.186443 -0.60937,0.539062 0,0.352625 -0.3042,0.52013 -1.2168,0.810547 -0.9129,0.290419 -0.91333,0.394105 -0.45703,0.601563 0.4566,0.207404 -1.67176,0.351023 -2.88867,0.226562 -1.2169,-0.124454 -1.21718,-0.642445 -1.52149,-0.912109 -0.30428,-0.269669 0.60753,-0.581462 -0.60937,-1.058594 -1.21691,-0.477074 -0.91174,-1.67999 -0.60743,-1.908203 0.3043,-0.228165 -1.06478,-0.414897 -1.21679,-0.601563 -0.1523,-0.1867072 -0.45689,-0.8292105 -1.52149,-1.0781246 -1.06489,-0.2489675 1.36958,-0.4778369 0.30469,-0.6230469 -1.06462,-0.145203 -0.76215,-0.8697913 0.30273,-1.1601563 1.06493,-0.290418 -1.36758,-0.8301863 -1.67187,-1.1621093 -0.30431,-0.331918 -0.61009,-1.3696846 -1.06641,-1.4941407 -0.45629,-0.1244529 0.45686,-1.1413568 -2.28125,-1.7636718 -2.73812,-0.622305 -4.41015,0.1041222 -4.41015,0.3945312 0,0.290413 -1.52187,1.4112423 -1.82617,1.6601563 -0.3043,0.248915 -1.06442,0.6226111 -0.91211,0.8300781 0.152,0.207411 -1.52141,0.870416 -2.89063,1.015625 -1.36889,0.145204 0.60827,0.3526485 -0.15234,0.6015625 -0.7606,0.248921 -1.06481,0.6648505 -1.2168,0.8515625 -0.15231,0.186661 -1.37035,0.1656369 -0.91406,0.3730469 0.45632,0.207462 1e-4,1.0574892 -1.2168,1.4101562 -1.21689,0.3526249 -0.60742,0.5176869 -0.60742,0.8496099 0,0.33187 -0.15336,0.602103 -2.13086,0.726562 -1.9775,0.12446 -1.8246,-0.621398 -2.12891,-0.849609 -0.304,-0.228166 -0.91287,-1.0584614 -1.52148,-1.3281254 -0.60829,-0.2696701 -2.88911,-1.1205196 -1.82422,-1.4316406 1.06491,-0.311168 0.45557,-0.5808641 -0.45703,-0.7675781 -0.91291,-0.18666 0.30396,-0.4561162 -0.15234,-0.7050781 -0.45629,-0.248915 -0.45619,-0.8711494 -1.2168,-1.0371094 -0.7606,-0.165963 -0.76088,-0.6851162 -1.52149,-0.8925782 -0.7606,-0.2074159 -2.28219,-0.8714283 -5.6289,-1.0996093 -3.34641,-0.228181 -2.43366,-0.060419 -6.38867,0.2714843 -3.955,0.3318961 -4.41041,-0.00154 -5.7793,0.9941407 -0.5053,0.367561 0.15126,0.7686591 -0.45703,1.0175781 -0.60861,0.248915 -0.45703,0.5596797 -0.45703,0.8085938 0,0.2489148 -1.06367,0.8712023 -1.97657,1.0371093 -0.91261,0.165963 -1.52183,-0.3743788 -1.67382,-0.6855469 -0.152,-0.311115 -0.4562,-0.6006943 -1.2168,-0.8496093 -0.7606,-0.248966 0.15122,-1.0170146 -0.60938,-1.4941407 -0.76061,-0.4770789 -1.82421,-0.082031 -1.82421,-0.082031 0,0 -0.60899,0.7668994 -0.30469,0.9121094 0.3043,0.145204 -1.065194,0.7464494 -1.521486,0.9746094 -0.456306,0.2282189 -0.455465,0.4991824 -0.759766,0.9140624 -0.304302,0.414873 0.304301,0.6832101 0,0.890625 C 97.869526,8.3363702 96.956992,8.5439165 96.804688,9.0625 96.652691,9.5810766 96.195375,9.7268025 94.826172,9.7890625 93.457275,9.8513165 93.761372,9.41542 93.609375,9.125 93.457377,8.8345824 92.392965,8.7512999 92.697266,8.2949219 93.001261,7.8385449 91.479704,7.6517471 90.871094,7.3613281 90.262498,7.0709091 89.350445,6.3458409 88.589844,6.0761719 87.829237,5.8065079 87.219964,5.1628692 86.763672,4.5820312 86.307366,4.0012052 85.699668,4.021552 84.634766,4.1875 83.56987,4.353469 84.481728,4.6866269 84.177734,4.9355469 83.873432,5.1845089 83.722696,6.4710057 83.875,6.6992188 c 0.151998,0.2281648 -0.76064,0.2679853 -0.152344,0.6621093 0.608603,0.394123 -0.305111,0.3128026 -0.761718,0.5410157 -0.456293,0.2281639 -0.150784,0.1647121 -0.455079,0.4550781 -0.304315,0.290419 -0.0011,0.477649 -0.761718,0.7265625 -0.760607,0.2489151 0.457172,1.0784226 -0.607422,1.3066406 -1.064902,0.228159 -0.304341,0.476677 -0.152344,0.808594 0.152305,0.33187 -0.912109,0.539091 -0.912109,1.140625 0,0.601587 -0.23002,0.601913 -1.294922,0.830078 -1.064909,0.228213 0.988941,0.77755 -2.509766,1.576172 -0.913213,0.208416 0.152344,0.478084 0.152344,0.685547 0,0.20741 0.152344,0.642151 0.152344,0.849609 0,0.207414 -0.76015,0.768364 -1.064454,0.955078 -0.304302,0.18666 0.607763,0.559974 0.759766,0.871094 0.151997,0.311168 -0.760151,0.809196 -1.064453,1.099609 -0.303994,0.290419 -3.47e-4,1.245093 -0.152344,1.763672 -0.151997,0.518633 -1.064697,0.477047 -2.433593,0.435547 -1.369212,-0.0415 -1.064454,-0.748345 -1.064454,-0.976562 0,-0.228167 -0.912068,-0.455188 -0.759765,-0.78711 0.152002,-0.331919 -0.153036,-0.60197 -0.457031,-0.996094 -0.3043,-0.394124 -1.065185,-1.286293 -1.521485,-1.701172 -0.4563,-0.414872 0.304301,-0.559875 0,-0.705078 -0.304305,-0.14521 0.608259,-0.66436 -0.152344,-0.892578 -0.760605,-0.22816 -0.912492,-1.265244 -1.216797,-1.638672 -0.304299,-0.373374 0.759766,-0.518369 0.759766,-0.705078 0,-0.186666 -0.912109,-0.123403 -0.912109,-0.351562 0,-0.228166 -0.913186,-0.747724 -1.521485,-1.121094 -0.608603,-0.373374 0.151999,-0.414465 0,-0.808594 C 65.619181,10.328537 65.315635,10.24525 64.707031,9.8925781 64.098735,9.5399516 63.185205,7.4452549 63.033203,7.2792969 62.8809,7.1133329 62.273051,6.2013086 61.96875,5.9316406 61.664447,5.6619766 59.992188,5.6199511 59.992188,5.2050781 c -10e-7,-0.414878 -2.739295,-1.183194 -4.716797,-1.390625 -1.977813,-0.207442 -2.585102,0.4565995 -3.345703,0.6640625 -0.760606,0.207409 -0.760156,0.3528379 -1.064454,0.4980469 -0.304305,0.14521 -1.066406,0.3939111 -1.066406,0.7050781 0,0.311168 -0.455036,0.8101202 -0.302734,1.0175782 0.151996,0.2074159 -0.30507,0.3924453 -0.609375,0.6621093 -0.304298,0.269669 0.304648,0.3321405 0.152343,0.6640625 -0.152,0.33187 -0.912841,0.6226723 -1.36914,0.9960938 -0.456298,0.3733731 -2.28163,0.061713 -2.585938,-0.125 C 44.779689,8.7098284 44.62856,8.3788486 44.476562,8.2128906 44.324258,8.0469786 44.475444,7.8597538 43.714844,7.6523438 42.954237,7.4448797 44.019571,7.1752363 44.171875,7.0507812 44.323872,6.9263213 43.257812,6.5331505 43.257812,6.3671875 43.257813,6.2012275 42.041896,5.6823184 41.433594,5.5371094 40.82499,5.3919054 40.521138,5.2245517 40.369141,5.0585938 40.217137,4.8926828 40.064068,4.2510785 39.759766,3.8984375 c -0.304,-0.352651 -0.152242,-0.3948113 -1.369141,-0.4570313 -1.216906,-0.062233 -1.065218,0.2273705 -1.673828,0.4140626 -0.608295,0.1866929 -0.455039,0.7055369 -0.302735,1.265625 0.151998,0.560082 -0.913182,0.7061631 -1.521484,0.9550781 -0.608603,0.248914 4.49e-4,0.9546454 -1.064453,1.1621093 -1.064902,0.207409 -0.152344,0.2269142 -0.152344,0.4550782 0,0.228212 -0.305459,0.5396035 -0.914062,0.6640625 -0.608303,0.124508 -0.304302,0.415096 0,0.6640625 0.304301,0.2489141 -0.760839,0.5184156 -1.369141,0.7050781 -0.608603,0.186713 0.305569,0.2916695 -0.302734,0.7480465 -0.608603,0.456378 -0.457308,0.642579 -1.978516,0.642579 -1.521266,-2e-6 -1.064898,-0.47735 -1.36914,-0.664063 C 27.437952,10.266411 27.591124,10.018146 27.134766,9.7070312 26.678402,9.3958603 26.947718,8.9177485 26.830078,8.7109375 26.525842,8.1716055 26.525168,7.5702619 26.373047,7.4042969 26.220925,7.238392 25.765625,6.6771874 25.765625,6.5527344 c 0,-0.1245141 -0.153461,-0.5175782 -0.914063,-0.5175782 -0.7606,0 -1.346015,0.1963013 -2.738281,0.1445313 C 21.276616,6.1486105 21.201623,5.6605411 21.505859,5.453125 21.810102,5.2456621 20.745394,5.1222609 20.289062,4.9355469 19.832707,4.7488869 19.376731,4.1891245 19.224609,3.9609375 19.072488,3.7327626 18.007812,3.628236 18.007812,3.171875 c 0,-0.456362 -0.914117,-1.1413494 -2.283203,-1.1621094 -1.369053,-0.020744 -1.51976,0.2708117 -1.671875,0.4160156 C 13.900612,2.5709843 14.20396,2.901395 13.443359,2.984375 12.682759,3.067345 12.835493,3.2339695 12.53125,3.4414062 12.227008,3.6488433 11.618251,3.8568109 11.009766,4.1679688 10.401287,4.4791368 9.6397353,4.4988869 9.03125,4.6855469 8.4227971,4.8722609 9.0470118,5.228054 8.7285156,5.640625 8.5763942,5.837702 6.5211476,5.8784836 6.2929688,5.6191406 c -10e-8,0 -0.303408,-0.8296983 -0.7597657,-1.0371094 C 5.0768389,4.3745684 5.0763942,4.4993517 5.2285156,4.0429688 5.380637,3.5866077 4.468885,3.503231 3.2519531,3.046875 2.0349885,2.5905081 0.72351334,3.7076267 0.72351334,3.7076267 c 0,0 -0.25786713,1.6176052 -0.76049378,0.9913733 L 0,23 H 834 V 4.6992188 c -0.5053,0.3559416 0.15127,0.7433262 -0.45703,0.984375 -0.60863,0.2410476 -0.45508,0.5441085 -0.45508,0.7851562 0,0.2410505 -1.06557,0.8432413 -1.97851,1.0039062 -0.91265,0.1607158 -1.52182,-0.3627288 -1.67383,-0.6640624 -0.152,-0.3012868 -0.45618,-0.5812183 -1.2168,-0.8222657 -0.76063,-0.2410978 0.1532,-0.9852159 -0.60742,-1.4472656 -0.76063,-0.4620092 -1.82617,-0.080078 -1.82617,-0.080078 0,0 -0.609,0.7441468 -0.30469,0.8847656 0.30431,0.1406206 -1.06518,0.7224063 -1.52149,0.9433594 -0.45632,0.2210023 -0.45545,0.483004 -0.75976,0.8847656 -0.3043,0.4017636 0.30431,0.6624243 0,0.8632812 -0.3043,0.2009041 -1.21682,0.4021039 -1.36914,0.9042969 -0.15199,0.502192 -0.60926,0.642835 -1.97852,0.703125 -1.36893,0.060286 -1.06479,-0.3632942 -1.21679,-0.6445312 -0.15201,-0.281238 -1.21643,-0.3607794 -0.91211,-0.8027344 0.304,-0.441955 -1.21755,-0.6230575 -1.82618,-0.9042969 -0.60861,-0.2812384 -1.52062,-0.9829967 -2.28125,-1.2441406 -0.76063,-0.261143 -1.36986,-0.8847878 -1.82617,-1.4472656 -0.45632,-0.5624707 -1.06396,-0.5415635 -2.1289,-0.3808594 -1.06492,0.1607271 -0.15303,0.4816057 -0.45704,0.7226562 -0.3043,0.2410948 -0.45504,1.4860312 -0.30273,1.7070313 0.152,0.2209533 -0.76065,0.2609119 -0.15234,0.6425781 0.60862,0.3816685 -0.30511,0.3024366 -0.76172,0.5234375 -0.45631,0.220954 -0.15077,0.1602153 -0.45508,0.4414063 -0.30432,0.281238 -10e-4,0.462078 -0.76172,0.703125 -0.76063,0.241048 0.45721,1.0446225 -0.60742,1.2656245 -1.06493,0.22095 -0.30434,0.461774 -0.15234,0.783203 0.15231,0.321383 -0.91407,0.522942 -0.91407,1.105469 0,0.582571 -0.22802,0.581782 -1.29297,0.802735 -1.06493,0.221001 0.98905,0.753959 -2.50976,1.527343 -0.91323,0.20183 0.15234,0.461204 0.15234,0.66211 0,0.200858 0.15235,0.623314 0.15235,0.824219 0,0.200859 -0.76015,0.743019 -1.06446,0.923828 -0.30431,0.180762 0.60776,0.542463 0.75977,0.84375 0.152,0.301333 -0.76014,0.783214 -1.06445,1.064453 -0.304,0.281239 -3.4e-4,1.204842 -0.15235,1.707031 -0.15199,0.502239 -1.06465,0.462075 -2.43359,0.421875 -1.36925,-0.04019 -1.06446,-0.722358 -1.06446,-0.943359 10e-6,-0.220954 -0.91402,-0.442242 -0.76171,-0.763672 0.152,-0.321428 -0.15107,-0.583176 -0.45508,-0.964844 -0.30431,-0.381667 -1.06518,-1.24472 -1.52149,-1.646484 -0.45632,-0.401763 0.30431,-0.542977 0,-0.683594 -0.30432,-0.140622 0.60828,-0.642278 -0.15234,-0.863281 -0.76063,-0.220951 -0.91249,-1.226268 -1.2168,-1.587891 -0.3043,-0.361571 0.75977,-0.500831 0.75977,-0.681641 0,-0.180764 -0.91211,-0.120845 -0.91211,-0.341797 0,-0.220951 -0.91316,-0.722413 -1.52148,-1.083984 -0.60862,-0.361572 0.152,-0.40349 0,-0.785156 -0.15232,-0.381668 -0.45584,-0.461209 -1.06446,-0.8027344 -0.60831,-0.341479 -1.52183,-2.370536 -1.67383,-2.53125 -0.15231,-0.1607162 -0.76014,-1.0435446 -1.06445,-1.3046875 -0.30432,-0.2611429 -1.97852,-0.3013623 -1.97852,-0.703125 0,-0.4017626 -2.73728,-1.1448274 -4.71484,-1.3457031 -1.97787,-0.200884 -2.58703,0.4416722 -3.34766,0.642578 -0.76062,0.2008559 -0.76014,0.3398492 -1.06445,0.4804688 -0.30431,0.1406187 -1.06445,0.3822599 -1.06445,0.6835937 0,0.3013348 -0.45699,0.7834703 -0.30469,0.984375 0.152,0.2008579 -0.3031,0.3814351 -0.60742,0.6425781 -0.30431,0.261144 0.3027,0.3211462 0.15039,0.6425782 -0.15201,0.3213818 -0.91087,0.6032227 -1.36719,0.9648437 -0.45631,0.361575 -2.28357,0.059718 -2.58789,-0.1210937 C 769.80311,8.5965807 769.652,8.2759484 769.5,8.1152344 c -0.15231,-0.160667 8.6e-4,-0.3421117 -0.75977,-0.5429688 -0.76062,-0.2009069 0.30278,-0.4615079 0.45508,-0.5820312 0.15201,-0.1205252 -0.91211,-0.5013934 -0.91211,-0.6621094 0,-0.1607142 -1.21785,-0.6640689 -1.82617,-0.8046875 -0.60862,-0.1406209 -0.91245,-0.3002224 -1.06445,-0.4609375 -0.15201,-0.1606679 -0.30507,-0.7835045 -0.60938,-1.125 -0.30401,-0.3415035 -0.15221,-0.3831014 -1.36914,-0.4433594 -1.21694,-0.060267 -1.06325,0.2215493 -1.67187,0.4023438 -0.60832,0.1807914 -0.457,0.6822269 -0.30469,1.2246094 0.152,0.5423822 -0.91317,0.6847326 -1.52148,0.9257812 -0.60863,0.2410476 4.8e-4,0.924094 -1.06446,1.125 -1.06494,0.2008557 -0.15234,0.2204536 -0.15234,0.4414062 0,0.2210022 -0.30348,0.5220552 -0.91211,0.6425782 -0.60831,0.12057 -0.30431,0.4014821 0,0.6425781 0.30432,0.241048 -0.76083,0.5028318 -1.36914,0.6835937 -0.60863,0.180812 0.30362,0.2807028 -0.30469,0.7226568 -0.60863,0.441953 -0.45726,0.623046 -1.97851,0.623046 -1.5213,0 -1.06489,-0.461768 -1.36915,-0.642578 -0.30423,-0.180813 -0.15104,-0.4233221 -0.60742,-0.7246091 -0.45637,-0.301334 -0.18704,-0.7626137 -0.30468,-0.9628907 -0.30425,-0.5222848 -0.30492,-1.1049088 -0.45704,-1.265625 -0.15213,-0.1606659 -0.60742,-0.7036954 -0.60742,-0.8242187 0,-0.1205733 -0.15344,-0.5019531 -0.91406,-0.5019531 -0.76062,0 -1.34597,0.190763 -2.73828,0.140625 -0.83668,-0.030095 -0.91168,-0.5022681 -0.60742,-0.703125 0.30424,-0.2009058 -0.76045,-0.3211427 -1.2168,-0.5019532 -0.45637,-0.1807622 -0.91232,-0.7223852 -1.06445,-0.9433593 -0.15212,-0.2209653 -1.2168,-0.3217376 -1.2168,-0.7636719 0,-0.4419394 -0.91407,-1.10491 -2.2832,-1.125 -1.36909,-0.020086 -1.52171,0.259775 -1.67383,0.4003906 -0.15212,0.1406138 0.1532,0.4626218 -0.60742,0.5429688 -0.76062,0.080354 -0.60786,0.2405233 -0.91211,0.4414062 -0.30425,0.2008817 -0.913,0.4018054 -1.52149,0.703125 -0.60851,0.3013338 -1.37001,0.3211906 -1.97851,0.5019532 -0.60847,0.1808103 0.0138,0.5262513 -0.30469,0.9257812 -0.15212,0.1908556 -2.20541,0.229661 -2.43359,-0.021484 0,0 -0.30339,-0.8030504 -0.75977,-1.0039062 -0.45637,-0.2009068 -0.45681,-0.079526 -0.30469,-0.5214844 0.15213,-0.4419394 -0.76154,-0.5229104 -1.97851,-0.9648438 -1.217,-0.4419404 -0.45573,-0.9439331 -0.91211,-1.2050781 -0.45637,-0.261148 -1.82489,-0.7642476 -2.28125,-1.0253906 C 724.76968,0.70519599 724.69211,0.29750826 724.66016,0 H 601.92969 c -1.97847,0.15712742 -2.68,0.07710479 -3.58203,0.9609375 -0.39189,0.3840064 0.1163,0.8024472 -0.35547,1.0625 -0.47202,0.260053 -0.35352,0.5856504 -0.35352,0.8457031 0,0.2600565 -0.82517,0.9086962 -1.5332,1.0820313 -0.70777,0.1733875 -1.181,-0.3897536 -1.29883,-0.7148438 -0.11788,-0.3250422 -0.35346,-0.628618 -0.94336,-0.8886719 -0.58983,-0.260108 0.11723,-1.0620681 -0.47266,-1.56054682 -0.58991,-0.498429 -1.41406,-0.0859375 -1.41406,-0.0859375 0,-2e-8 -0.47234,0.80141782 -0.23633,0.95312502 0.23599,0.1517063 -0.8258,0.7811587 -1.17968,1.0195312 -0.3539,0.2384285 -0.35384,0.5196847 -0.58985,0.953125 -0.236,0.4334404 0.23601,0.714945 0,0.9316407 -0.236,0.2167448 -0.94438,0.4328225 -1.0625,0.9746093 -0.11788,0.5417865 -0.4713,0.6947286 -1.5332,0.7597657 -1.06161,0.065038 -0.82553,-0.3899488 -0.94336,-0.6933594 -0.11788,-0.3034137 -0.945,-0.3903863 -0.70898,-0.8671875 0.23575,-0.4768008 -0.94401,-0.671196 -1.41602,-0.9746094 -0.47201,-0.3034144 -1.17964,-1.0620168 -1.76953,-1.34375 -0.5899,-0.2817332 -1.06213,-0.9537161 -1.41602,-1.56054688 -0.3539,-0.60681488 -0.82448,-0.58548665 -1.65039,-0.41210937 -0.82589,0.17339787 -0.11775,0.51924309 -0.35351,0.77929685 -0.23601,0.2601051 -0.35446,1.6053242 -0.23633,1.84375 0.11787,0.2383753 -0.59091,0.2815983 -0.11914,0.6933594 0.47202,0.4117589 -0.23574,0.3240753 -0.58984,0.5625 -0.35389,0.2383761 -0.11751,0.173201 -0.35352,0.4765625 -0.236,0.3034139 6e-5,0.4997124 -0.58984,0.7597656 -0.58989,0.260053 0.35301,1.1268096 -0.47266,1.3652344 -0.82591,0.2383773 -0.23502,0.4969775 -0.11719,0.84375 0.11812,0.346722 -0.70703,0.5649035 -0.70703,1.1933594 0,0.6285063 -0.17802,0.6268613 -1.00391,0.8652344 -0.82591,0.2384272 0.76622,0.8140742 -1.94726,1.6484372 -0.7082,0.217743 0.11914,0.498098 0.11914,0.714844 0,0.216693 0.11719,0.671929 0.11719,0.888672 0,0.216698 -0.59017,0.801027 -0.82618,0.996094 -0.23601,0.195016 0.47202,0.585116 0.58985,0.910156 0.11788,0.325096 -0.58821,0.845023 -0.82422,1.148437 -0.23576,0.303411 -10e-4,1.301963 -0.11914,1.84375 -0.11788,0.541839 -0.82505,0.498448 -1.88672,0.455079 -1.06191,-0.04336 -0.82617,-0.781105 -0.82617,-1.019532 0,-0.238373 -0.70796,-0.477442 -0.58984,-0.824218 0.11786,-0.34677 -0.11775,-0.627298 -0.35352,-1.039063 -0.23601,-0.41176 -0.8258,-1.343903 -1.17969,-1.777344 -0.35389,-0.433443 0.236,-0.584622 0,-0.736328 -0.23595,-0.151707 0.47075,-0.69321 -0.11914,-0.931641 -0.5899,-0.238374 -0.70736,-1.322755 -0.94336,-1.71289 -0.23601,-0.3900802 0.58985,-0.5412623 0.58985,-0.7363282 0,-0.1950141 -0.70704,-0.1307707 -0.70704,-0.3691407 0,-0.2383752 -0.70791,-0.7798431 -1.17968,-1.1699219 -0.47201,-0.39008 0.11794,-0.4339436 0,-0.8457031 -0.11812,-0.4117602 -0.35417,-0.4987337 -0.82618,-0.8671875 -0.47175,-0.3684004 -1.18088,-2.5570811 -1.29882,-2.7304687 -0.11812,-0.1733875 -0.59017,-1.1264701 -0.82618,-1.4082031 -0.23601,-0.2817344 -1.5332,-0.3243722 -1.5332,-0.7578126 0,-0.4334412 -2.12257,-1.2364131 -3.65625,-1.45312495 -1.53393,-0.21672195 -2.00581,0.47661482 -2.5957,0.69335937 -0.58991,0.2166959 -0.59017,0.36977708 -0.82617,0.52148438 -0.236,0.1517063 -0.82618,0.4112334 -0.82618,0.7363281 0,0.3250948 -0.35444,0.8457546 -0.23632,1.0625 0.11788,0.216695 -0.23471,0.4116253 -0.47071,0.6933594 -0.23595,0.2817331 0.23531,0.3465854 0.11719,0.6933594 -0.11788,0.3467223 -0.70862,0.6489273 -1.0625,1.0390625 -0.35389,0.3900798 -1.76985,0.066161 -2.00586,-0.1289063 -0.23601,-0.1950121 -0.35275,-0.5414577 -0.4707,-0.7148437 -0.11812,-0.1733353 3e-5,-0.3692416 -0.58984,-0.5859375 -0.58992,-0.2167445 0.23538,-0.4988833 0.35351,-0.6289063 0.11788,-0.1300298 -0.70703,-0.5414571 -0.70703,-0.7148437 0,-0.1733875 -0.94423,-0.7154804 -1.41602,-0.8671875 C 545.49284,1.6979032 545.25649,1.52495 545.13867,1.3515625 545.02078,1.1782281 544.90202,0.50709465 544.66602,0.13867188 544.61988,0.0665817 544.59209,0.0499018 544.5625,0 h -2.11523 c -0.0496,0.0322692 -0.0704,0.06471613 -0.14063,0.09375 -0.47178,0.19504725 -0.35445,0.73711508 -0.23633,1.3222656 0.11789,0.5851474 -0.70792,0.737994 -1.17969,0.9980469 -0.47202,0.2600528 0.002,0.9961461 -0.82421,1.2128906 -0.82596,0.2166959 -0.11914,0.2381891 -0.11914,0.4765625 0,0.2384276 -0.23502,0.563333 -0.70704,0.6933594 -0.47177,0.1300788 -0.23601,0.4332542 0,0.6933594 0.236,0.2600565 -0.59071,0.5432658 -1.0625,0.7382812 -0.472,0.1950643 0.23545,0.302499 -0.23632,0.7792969 -0.47201,0.4768008 -0.35342,0.671875 -1.53321,0.671875 -1.17984,0 -0.82654,-0.4982918 -1.0625,-0.6933594 -0.23595,-0.1950677 -0.11675,-0.4562079 -0.4707,-0.78125 -0.35394,-0.325094 -0.14503,-0.8229953 -0.23633,-1.0390625 -0.23595,-0.5634673 -0.23553,-1.1918478 -0.35351,-1.3652344 -0.11798,-0.1733353 -0.47266,-0.7586448 -0.47266,-0.8886718 0,-0.1300819 -0.11713,-0.5429688 -0.70703,-0.5429688 -0.58989,0 -1.0452,0.2064408 -2.125,0.1523438 -0.64888,-0.032467 -0.70666,-0.5411207 -0.4707,-0.7578125 0.23595,-0.2167483 -0.59141,-0.3479018 -0.94532,-0.5429688 C 529.21052,1.0256873 528.85822,0.44152088 528.74023,0.203125 528.70306,0.12800605 528.54403,0.0649859 528.41406,0 H 411.30273 c -0.089,0.2093826 -0.22371,0.40913682 -0.53515,0.55859375 -1.40598,0.67469725 -1.12514,0.81978175 -2.10938,1.23046875 -0.98423,0.4106876 -0.28153,0.5289586 -0.84375,0.7929687 -0.5625,0.2640056 -0.4223,1.1440142 -1.125,1.5546876 -0.70299,0.4106917 0.70286,0.3216542 0.14063,0.8203124 -0.56249,0.4986585 -0.98467,0.3527552 -1.54688,0.9394532 -0.5625,0.586694 -0.98451,0.851441 -1.40625,0.96875 -0.42201,0.11731 0.28084,0.8789062 -1.26562,0.8789062 -1.54645,0 -0.98271,-0.8200977 -1.26367,-0.9960937 -0.28126,-0.176003 -1.12528,-0.059913 -1.40625,-0.5292969 -0.28126,-0.469314 0.14062,-0.4976525 0.14062,-0.8203125 0,-0.3227261 -0.7031,-1.2027398 -1.26562,-1.4960937 -0.56221,-0.2933494 -0.42189,-1.9665713 -0.70313,-2.1425782 -0.28098,-0.1760021 0.56223,-0.7317076 -0.28125,-1.28906248 -0.84375,-0.55735425 -2.10937,0.38063436 -2.10937,0.55664068 0,0.1760115 -1.96875,1.6129754 -1.96875,1.8476562 0,0.2346754 -0.28139,0.7046554 -0.70313,1.0273438 -0.42173,0.3226976 0.28126,0.4681674 0.5625,0.9082031 0.28126,0.4399708 -0.70132,1.9664025 -1.9668,2.2890625 -1.2652,0.322656 0.2814,0.528098 0.70313,1.4667968 0.42173,0.938698 0.28097,0.5561521 -1.125,0.9375 -1.40598,0.3814181 -0.2814,0.294039 -0.14063,0.9980468 0.14049,0.704075 -1.125,0.675198 -1.40625,1.115235 -0.28124,0.439968 -0.42187,0.880201 -0.42187,1.408203 0,0.528076 -0.56278,1.055931 -1.6875,1.613281 -1.12471,0.55735 0.14062,0.497633 0.14062,0.791016 0,0.293311 -0.5625,0.265018 -0.5625,0.763671 0,0.498662 -0.28153,0.733836 -1.125,1.144532 -0.84375,0.410692 -0.84361,0.556228 -0.42187,0.849609 0.42201,0.293311 -1.5452,0.498263 -2.66992,0.322266 -1.12473,-0.176002 -1.125,-0.90772 -1.40625,-1.289063 -0.28124,-0.381354 0.56222,-0.821359 -0.5625,-1.496094 -1.12471,-0.674659 -0.84375,-2.376493 -0.5625,-2.699218 0.28126,-0.322656 -0.98451,-0.587596 -1.125,-0.851563 -0.14077,-0.264039 -0.4223,-1.173387 -1.40625,-1.52539 -0.98423,-0.352075 1.26548,-0.6735648 0.28125,-0.8789068 -0.98397,-0.2053459 -0.70298,-1.2319571 0.28125,-1.6425781 0.98425,-0.410697 -1.26564,-1.1751472 -1.54688,-1.6445312 -0.28126,-0.469384 -0.56262,-1.9353309 -0.98437,-2.1113281 -0.42173,-0.1760023 0.42328,-1.6141016 -2.10742,-2.4941407 -2.53069,-0.88003826 -4.07813,0.1479164 -4.07813,0.5585938 0,0.4106876 -1.40626,1.9936989 -1.6875,2.3457031 -0.28125,0.3520048 -0.98451,0.8804461 -0.84375,1.1738281 0.14048,0.293316 -1.40442,1.232149 -2.66992,1.4375 -1.26519,0.205345 0.56236,0.4995635 -0.14063,0.8515625 -0.70299,0.352005 -0.98452,0.9371299 -1.125,1.2011719 -0.14077,0.263964 -1.26548,0.2359889 -0.84375,0.5292969 0.42174,0.2933856 -2.8e-4,1.4954166 -1.125,1.9941406 -1.12471,0.498663 -0.5625,0.733741 -0.5625,1.203125 0,0.469309 -0.14105,0.851337 -1.96875,1.027344 -1.8277,0.176002 -1.68751,-0.880399 -1.96875,-1.203125 -0.28098,-0.322655 -0.84374,-1.495604 -1.40625,-1.876953 -0.56221,-0.381348 -2.66976,-1.585426 -1.68554,-2.025391 0.98424,-0.440041 0.42159,-0.8218995 -0.42188,-1.0859375 -0.84375,-0.263968 0.28112,-0.6440237 -0.14062,-0.9960937 -0.42172,-0.3520041 -0.42201,-1.2321029 -1.125,-1.4667969 -0.70299,-0.234694 -0.70327,-0.9683369 -1.40625,-1.2617188 -0.70299,-0.2933167 -2.10799,-1.2319992 -5.20118,-1.5546875 -3.09289,-0.3226795 -2.25085,-0.088497 -5.90624,0.3808594 -3.65541,0.4693473 -4.0766,1.578e-4 -5.3418,1.4082031 -0.46703,0.5197829 0.14033,1.0855 -0.42188,1.4375 -0.56251,0.352004 -0.42187,0.7925283 -0.42187,1.1445313 0,0.352005 -0.98438,1.2321769 -1.82813,1.4667968 -0.84347,0.2346951 -1.40639,-0.5287128 -1.54687,-0.96875 -0.14048,-0.4399699 -0.42202,-0.8511199 -1.125,-1.203125 -0.70299,-0.352074 0.14049,-1.4365978 -0.5625,-2.1113281 -0.70299,-0.6746694 -1.68555,-0.1171875 -1.68555,-0.1171875 0,0 -0.5625,1.0856697 -0.28125,1.2910156 0.28124,0.2053461 -0.98452,1.0562453 -1.40625,1.3789063 -0.42173,0.322725 -0.42186,0.7043156 -0.70312,1.2910156 -0.28125,0.586694 0.28126,0.9664546 0,1.2597657 -0.28125,0.2933818 -1.12487,0.5869606 -1.26563,1.3203122 -0.14048,0.733348 -0.56263,0.939304 -1.82812,1.027344 -1.26519,0.08804 -0.98452,-0.528755 -1.125,-0.939453 -0.14047,-0.410686 -1.12305,-0.526489 -0.8418,-1.1718751 0.28095,-0.645386 -1.12499,-0.9096155 -1.6875,-1.3203125 -0.56249,-0.410692 -1.4064,-1.4389645 -2.10938,-1.8203125 -0.70299,-0.381348 -1.26577,-1.2899386 -1.6875,-2.1113281 C 312.19888,2.7236708 311.45868,1.2845725 311.20508,0 Z"
     sodipodi:nodetypes="ccsscccccsccscccsssccscccssssccsscccsscsssssccscccsscccccscssscscccccscsccsscsscccccccsccsccsscccsssccssccssccccssccsscsccccccsccccccccsccccsscccssccccscccsccccccccccccsssssscsssscsscsssssccsssscssssssscsssccssssssscscsssssscscsscscssscsscsssssscssscssssssssssssssscsssssccscssssscsssscsscsssscccsssscsssssssccssccssssssccccsssssscscsscscssssccsccsscsscssscsssssssccssccccssccscccssssssscsssssccsssscsssssssscsscssssccscsssssscscssscsssscsscssccc" />
</svg>
