<?xml version="1.0" encoding="UTF-8" standalone="no"?>
<svg
   width="375"
   height="12"
   viewBox="0 0 375 12"
   fill="none"
   version="1.1"
   id="svg11"
   sodipodi:docname="header_stalactites_mobile.svg"
   inkscape:version="1.1.1 (3bf5ae0d25, 2021-09-20)"
   xmlns:inkscape="http://www.inkscape.org/namespaces/inkscape"
   xmlns:sodipodi="http://sodipodi.sourceforge.net/DTD/sodipodi-0.dtd"
   xmlns="http://www.w3.org/2000/svg"
   xmlns:svg="http://www.w3.org/2000/svg">
  <sodipodi:namedview
     id="namedview13"
     pagecolor="#ffffff"
     bordercolor="#666666"
     borderopacity="1.0"
     inkscape:pageshadow="2"
     inkscape:pageopacity="0.0"
     inkscape:pagecheckerboard="0"
     showgrid="false"
     inkscape:zoom="1.4253333"
     inkscape:cx="114.71001"
     inkscape:cy="-90.85594"
     inkscape:window-width="1600"
     inkscape:window-height="837"
     inkscape:window-x="-8"
     inkscape:window-y="-8"
     inkscape:window-maximized="1"
     inkscape:current-layer="svg11" />
  <path
     d="M 87.0271,4.4e-6 C 80.0546,0.197093 47.5771,0.406254 47.5771,0.406254 47.1807,0.275814 44.5915,2.39813 44.3537,2.11719 44.1159,1.83625 43.7983,1.84744 43.2433,1.92774 c -0.5549,0.08028 -0.0785,0.24093 -0.2369,0.36133 -0.1586,0.12042 -0.2381,0.74118 -0.1587,0.85156 0.0792,0.11036 -0.3953,0.13162 -0.0783,0.32226 0.3172,0.19067 -0.1596,0.14938 -0.3975,0.25977 -0.2378,0.11036 -0.0784,0.08025 -0.237,0.2207 -0.1586,0.14047 -0.0011,0.23117 -0.3975,0.35157 -0.3964,0.12039 0.2375,0.52243 -0.3173,0.63281 -0.555,0.11036 -0.1575,0.23007 -0.0783,0.39062 0.0794,0.16052 -0.4759,0.26179 -0.4759,0.55274 0,0.29098 -0.1187,0.29003 -0.6736,0.40039 -0.555,0.11039 0.5152,0.37544 -1.3082,0.76172 -0.4759,0.10081 0.0784,0.23168 0.0784,0.33203 0,0.10032 0.0803,0.31177 0.0803,0.41211 0,0.10033 -0.3957,0.37064 -0.5542,0.46094 -0.1586,0.09029 0.3163,0.27139 0.3955,0.42187 0.0792,0.15052 -0.3956,0.39078 -0.5542,0.53125 -0.1584,0.14047 -0.0011,0.60268 -0.0803,0.85349 -0.0792,0.2508 -0.5555,0.2311 -1.2689,0.211 -0.7136,-0.0201 -0.5542,-0.36231 -0.5542,-0.47269 0,-0.11036 -0.475,-0.22031 -0.3956,-0.38086 C 36.1101,9.2418 35.9504,9.11057 35.792,8.91993 35.6334,8.7293 35.2366,8.29834 34.9988,8.09766 c -0.2378,-0.20067 0.1586,-0.2716 0,-0.3418 C 34.8402,7.68562 35.3169,7.4346 34.9205,7.32422 34.5241,7.21386 34.4446,6.71383 34.286,6.53321 c -0.1586,-0.18059 0.3956,-0.2515 0.3956,-0.3418 0,-0.09026 -0.4759,-0.05956 -0.4759,-0.16992 0,-0.11036 -0.4741,-0.36237 -0.7911,-0.54297 -0.3172,-0.1806 0.0792,-0.19999 0,-0.39063 C 33.3352,4.89726 33.1756,4.85614 32.8584,4.68555 32.5414,4.51499 32.0662,3.50218 31.987,3.42188 31.9076,3.34161 31.5913,2.89997 31.4328,2.76954 31.2742,2.6391 30.4007,2.61864 30.4007,2.41797 30.4007,2.21729 28.9736,1.84643 27.9431,1.7461 26.9123,1.64577 26.5966,1.96801 26.2002,2.06836 25.8038,2.16868 25.8026,2.2384 25.644,2.3086 c -0.1586,0.07024 -0.5542,0.19128 -0.5542,0.34179 0,0.15051 -0.238,0.38989 -0.1586,0.49024 0.0792,0.10032 -0.1587,0.19182 -0.3173,0.32226 -0.1585,0.13043 0.1597,0.15978 0.0803,0.32032 C 24.615,3.94374 24.2173,4.08501 23.9795,4.26563 23.7417,4.44625 22.7907,4.29538 22.6321,4.20508 22.4736,4.11479 22.3941,3.95335 22.3149,3.87305 22.2355,3.7928 22.3157,3.70384 21.9193,3.60352 21.5229,3.50317 22.0769,3.3727 22.1563,3.3125 22.2355,3.2523 21.6804,3.06077 21.6804,2.98047 21.6804,2.9002 21.0476,2.65028 20.7306,2.58008 20.4135,2.50985 20.2537,2.42796 20.1745,2.34766 20.0953,2.26741 20.0158,1.95768 19.8572,1.78711 19.6988,1.61657 19.7786,1.59651 19.1444,1.56641 c -0.6342,-0.0301 -0.5543,0.10892 -0.8715,0.19922 -0.317,0.0903 -0.238,0.34238 -0.1586,0.61328 0.0792,0.27091 -0.4761,0.34054 -0.7931,0.46094 -0.3172,0.1204 -0.0012,0.46215 -0.5561,0.5625 -0.555,0.10032 -0.0784,0.11034 -0.0784,0.2207 0,0.11039 -0.1587,0.26011 -0.4758,0.32031 -0.3171,0.06022 -0.1586,0.20185 0,0.32227 0.1585,0.1204 -0.3959,0.24954 -0.7129,0.33984 -0.3171,0.09031 0.1584,0.14058 -0.1586,0.36133 -0.3172,0.22073 -0.2373,0.31055 -1.0301,0.31055 -0.7928,0 -0.5562,-0.23001 -0.7147,-0.32031 C 13.436,4.86673 13.5151,4.74619 13.2773,4.59571 13.0395,4.4452 13.18,4.21527 13.1187,4.11524 12.9602,3.85437 12.9611,3.56273 12.8817,3.48243 12.8025,3.40218 12.5645,3.13052 12.5645,3.07032 c 0,-0.06022 -0.0795,-0.25 -0.4759,-0.25 -0.3964,0 -0.702,0.09531 -1.4276,0.07031 C 10.225,2.8756 10.1852,2.63939 10.3438,2.53907 10.5023,2.43872 9.94906,2.37937 9.71124,2.28907 9.47341,2.19878 9.23439,1.92679 9.15508,1.81641 9.07581,1.70605 8.52059,1.65629 8.52059,1.43555 8.52059,1.21482 8.04539,0.883051 7.3319,0.873051 6.61841,0.863011 6.53976,1.00402 6.46045,1.07422 6.38118,1.14445 6.5396,1.30561 6.14321,1.34571 5.74686,1.38584 5.8259,1.46607 5.66734,1.56641 5.50879,1.66674 5.19133,1.76747 4.87422,1.91797 4.55712,2.06848 4.16126,2.07767 3.84416,2.16797 3.52707,2.25828 3.85152,2.42936 3.68553,2.62891 3.60625,2.72428 2.53546,2.74459 2.41655,2.61914 c 0,0 -0.15775,-0.40163 -0.39558,-0.50195 C 1.78311,2.01684 1.78304,2.07818 1.86235,1.85743 1.94162,1.63669 1.46648,1.59574 0.83228,1.375 0.198062,1.15426 0.594251,0.903882 0.356412,0.773442 0.28528,0.734429 0.130966,0.874111 0,0.82 V 11.2305 H 375 V 0.820317 c -0.053,0.059819 -0.088,0.122843 -0.211,0.167969 -0.745,0.272614 -0.595,0.332104 -1.117,0.498044 -0.521,0.16592 -0.148,0.21165 -0.446,0.31836 -0.298,0.10667 -0.225,0.46298 -0.597,0.62891 -0.373,0.16593 0.372,0.13056 0.074,0.33203 -0.298,0.20147 -0.521,0.14187 -0.819,0.37891 -0.298,0.23704 -0.52,0.34322 -0.744,0.39062 -0.223,0.04739 0.148,0.35547 -0.672,0.35547 -0.819,0 -0.52,-0.33124 -0.669,-0.40234 -0.149,-0.07111 -0.596,-0.02325 -0.744,-0.2129 -0.149,-0.18961 0.074,-0.20167 0.074,-0.33203 0,-0.13039 -0.372,-0.48499 -0.67,-0.60351 -0.298,-0.11853 -0.225,-0.79414 -0.374,-0.86524 -0.149,-0.07111 0.298,-0.29629 -0.149,-0.521481 -0.447,-0.22518 -1.116,0.153511 -1.116,0.224611 0,0.07111 -1.044,0.65119 -1.044,0.74609 0,0.09481 -0.148,0.28564 -0.372,0.41602 -0.223,0.13037 0.149,0.1894 0.298,0.36719 0.149,0.17776 -0.371,0.79345 -1.042,0.92382 -0.67,0.13036 0.149,0.21254 0.372,0.5918 0.224,0.37926 0.15,0.22679 -0.595,0.38086 -0.745,0.1541 -0.149,0.11789 -0.075,0.40234 0.075,0.28446 -0.597,0.27339 -0.746,0.45118 -0.149,0.17777 -0.223,0.35504 -0.223,0.56835 0,0.21336 -0.297,0.42717 -0.893,0.65235 -0.596,0.22512 0.075,0.19981 0.075,0.31836 0,0.1185 -0.298,0.10711 -0.298,0.30859 0,0.20147 -0.149,0.29695 -0.595,0.46289 -0.447,0.16593 -0.449,0.22522 -0.226,0.34375 0.224,0.11846 -0.818,0.20196 -1.414,0.13086 -0.595,-0.0711 -0.595,-0.3674 -0.744,-0.52148 -0.149,-0.15408 0.297,-0.33286 -0.299,-0.60547 -0.596,-0.27258 -0.447,-0.95945 -0.298,-1.08985 0.149,-0.13035 -0.521,-0.23714 -0.595,-0.34375 -0.075,-0.10669 -0.223,-0.47497 -0.744,-0.61718 -0.522,-0.14226 0.67,-0.27257 0.148,-0.35547 -0.521,-0.08297 -0.372,-0.49816 0.149,-0.66406 0.522,-0.16594 -0.669,-0.47246 -0.818,-0.66211 -0.149,-0.18965 -0.3,-0.78242 -0.523,-0.85352 -0.224,-0.07111 0.224,-0.65225 -1.116,-1.00781 -1.341,-0.35555 -2.16,0.05869 -2.16,0.22461 0,0.16594 -0.746,0.80699 -0.895,0.94922 -0.149,0.14221 -0.522,0.35413 -0.447,0.47265 0.074,0.11852 -0.743,0.49913 -1.414,0.58203 -0.67,0.08297 0.298,0.20152 -0.074,0.34375 -0.373,0.14221 -0.523,0.37767 -0.598,0.48438 -0.074,0.10662 -0.669,0.09632 -0.446,0.21484 0.223,0.11853 0,0.60318 -0.595,0.80469 -0.596,0.20146 -0.298,0.29669 -0.298,0.48633 0,0.18961 -0.076,0.34296 -1.044,0.41406 -0.968,0.0711 -0.893,-0.35398 -1.042,-0.48437 C 346.041,5.88332 345.741,5.40799 345.443,5.25391 345.145,5.09983 344.029,4.61526 344.55,4.4375 345.072,4.25971 344.774,4.10477 344.327,3.99805 343.88,3.8914 344.476,3.73796 344.253,3.59571 344.029,3.45349 344.03,3.09686 343.657,3.00196 343.285,2.90714 343.284,2.61073 342.911,2.49219 342.633,2.4036 342.075,0.839075 341.127,4.4e-6 h -60.662 c 0.018,0.4395396 -0.033,1.0014756 -0.599,1.2011756 -0.862,0.30395 -0.69,0.37163 -1.293,0.55664 -0.603,0.18501 -0.172,0.23653 -0.517,0.35547 -0.345,0.11893 -0.259,0.51616 -0.689,0.70117 -0.431,0.18501 0.43,0.1445 0.086,0.36914 -0.345,0.22464 -0.605,0.15953 -0.95,0.42383 -0.345,0.26431 -0.603,0.38274 -0.862,0.43554 -0.258,0.05285 0.173,0.39649 -0.775,0.39649 -0.948,0 -0.603,-0.36992 -0.776,-0.44922 -0.172,-0.0793 -0.689,-0.02683 -0.861,-0.23828 -0.173,-0.21143 0.086,-0.22379 0.086,-0.36914 0,-0.14539 -0.431,-0.54167 -0.776,-0.67383 -0.344,-0.13215 -0.258,-0.88554 -0.43,-0.96484 -0.173,-0.07929 0.344,-0.33095 -0.173,-0.58204 -0.517,-0.251076 -1.292,0.17266 -1.292,0.25196 0,0.07929 -1.207,0.72631 -1.207,0.83203 0,0.10572 -0.172,0.31752 -0.43,0.46289 -0.259,0.14538 0.172,0.20997 0.344,0.4082 0.173,0.19821 -0.43,0.88589 -1.206,1.03125 -0.776,0.14536 0.172,0.23923 0.431,0.66211 0.258,0.42289 0.172,0.25008 -0.69,0.42188 -0.861,0.17183 -0.172,0.13205 -0.086,0.44921 0.086,0.31719 -0.689,0.30372 -0.861,0.50196 -0.173,0.19821 -0.259,0.39689 -0.259,0.63476 0,0.23789 -0.344,0.47549 -1.034,0.72657 -0.689,0.25109 0.086,0.22525 0.086,0.35742 0,0.13213 -0.344,0.1191 -0.344,0.34375 0,0.22464 -0.173,0.3306 -0.69,0.51562 -0.517,0.18501 -0.519,0.25065 -0.26,0.38282 0.259,0.13215 -0.948,0.22383 -1.637,0.14453 -0.69,-0.07928 -0.69,-0.40829 -0.862,-0.58008 -0.172,-0.1718 0.345,-0.37181 -0.345,-0.67578 -0.689,-0.30393 -0.517,-1.06947 -0.344,-1.21485 0.172,-0.14536 -0.603,-0.26389 -0.69,-0.38281 -0.086,-0.11894 -0.258,-0.52892 -0.861,-0.6875 -0.604,-0.15861 0.775,-0.30398 0.172,-0.39648 -0.603,-0.09251 -0.431,-0.55525 0.172,-0.74024 0.604,-0.18501 -0.775,-0.52878 -0.947,-0.74023 -0.173,-0.21146 -0.345,-0.87187 -0.604,-0.95117 -0.258,-0.07929 0.259,-0.72659 -1.292,-1.12305 -1.551,-0.39645 -2.499,0.06499 -2.499,0.25 0,0.18501 -0.861,0.90002 -1.034,1.05859 -0.172,0.15858 -0.603,0.39518 -0.517,0.52735 0.086,0.13214 -0.863,0.55593 -1.639,0.64843 -0.775,0.09251 0.347,0.22424 -0.084,0.38282 -0.431,0.15858 -0.605,0.42402 -0.691,0.54297 -0.087,0.11891 -0.776,0.10419 -0.517,0.23632 0.258,0.13217 0,0.67376 -0.69,0.89844 -0.689,0.22464 -0.344,0.33151 -0.344,0.54297 0,0.21142 -0.086,0.38359 -1.207,0.46289 -1.12,0.07928 -1.034,-0.39759 -1.206,-0.54297 -0.172,-0.14536 -0.517,-0.6739 -0.862,-0.8457 -0.344,-0.17179 -1.637,-0.7139 -1.034,-0.91211 0.604,-0.19823 0.259,-0.36933 -0.258,-0.48828 -0.517,-0.11891 0.172,-0.29061 -0.086,-0.44922 -0.259,-0.15858 -0.259,-0.55444 -0.69,-0.66016 -0.43,-0.10573 -0.577,-1.52994 -1.008,-1.66211 -0.273,-0.08362 -0.416,-1.039986 -0.93,-1.7871056 h -51.198 c -0.149,0.1921656 0.315,0.6290956 -0.304,0.8437496 -0.685,0.237776 -0.548,0.288856 -1.028,0.433596 -0.479,0.14474 -0.137,0.18629 -0.411,0.2793 -0.274,0.09304 -0.206,0.40409 -0.548,0.54882 -0.343,0.14474 0.342,0.11333 0.068,0.28907 -0.274,0.17575 -0.478,0.1233 -0.752,0.33007 -0.274,0.20677 -0.48,0.3005 -0.685,0.3418 -0.206,0.04134 0.137,0.31055 -0.617,0.31055 -0.754,0 -0.48,-0.28957 -0.617,-0.35157 -0.137,-0.06203 -0.548,-0.02012 -0.685,-0.18554 -0.137,-0.1654 0.068,-0.17731 0.068,-0.29102 0,-0.11374 -0.343,-0.422 -0.617,-0.52539 -0.274,-0.10339 -0.205,-0.69386 -0.342,-0.75586 -0.137,-0.06203 0.274,-0.25865 -0.137,-0.455076 -0.412,-0.19643 -1.029,0.135266 -1.029,0.197266 0,0.06203 -0.959,0.56769 -0.959,0.65039 0,0.08271 -0.137,0.24955 -0.343,0.36328 -0.205,0.11373 0.137,0.16523 0.274,0.32031 0.137,0.15506 -0.343,0.69098 -0.959,0.80469 -0.617,0.11372 0.137,0.18675 0.342,0.51758 0.206,0.33082 0.139,0.19763 -0.546,0.33203 -0.685,0.13443 -0.137,0.10149 -0.068,0.34961 0.068,0.24813 -0.549,0.23944 -0.686,0.39453 -0.137,0.15506 -0.206,0.31002 -0.206,0.4961 0,0.18611 -0.274,0.37192 -0.822,0.56835 -0.548,0.19644 0.069,0.1759 0.069,0.2793 0,0.10337 -0.275,0.09183 -0.275,0.26758 0,0.17574 -0.137,0.25955 -0.548,0.4043 -0.411,0.14474 -0.411,0.19543 -0.206,0.29882 0.206,0.10342 -0.754,0.17724 -1.302,0.11524 -0.548,-0.06202 -0.548,-0.32068 -0.685,-0.45508 -0.137,-0.1344 0.274,-0.28954 -0.274,-0.52734 -0.549,-0.23777 -0.412,-0.83743 -0.275,-0.95117 0.138,-0.11371 -0.479,-0.20779 -0.548,-0.30079 -0.068,-0.09305 -0.204,-0.41305 -0.683,-0.53711 -0.48,-0.12408 0.614,-0.23814 0.135,-0.31054 -0.48,-0.07237 -0.343,-0.43342 0.137,-0.57813 0.48,-0.14474 -0.615,-0.41465 -0.752,-0.58008 -0.137,-0.16541 -0.274,-0.68214 -0.48,-0.74414 -0.205,-0.06203 0.205,-0.56874 -1.028,-0.8789 -1.233,-0.310152 -1.988,0.05253 -1.988,0.19726 0,0.14474 -0.685,0.70212 -0.822,0.82618 -0.137,0.12405 -0.48,0.31066 -0.411,0.41406 0.068,0.10337 -0.686,0.43346 -1.303,0.50586 -0.616,0.07237 0.274,0.17672 -0.068,0.30078 -0.343,0.12406 -0.478,0.33073 -0.547,0.42383 -0.068,0.09299 -0.616,0.08217 -0.411,0.18554 0.206,0.1034 0,0.52737 -0.548,0.70313 -0.548,0.17575 -0.274,0.2584 -0.274,0.42383 0,0.1654 -0.069,0.29933 -0.96,0.36132 -0.891,0.06203 -0.822,-0.31008 -0.96,-0.42382 -0.136,-0.11371 -0.411,-0.52576 -0.685,-0.66016 -0.274,-0.1344 -1.302,-0.55978 -0.822,-0.71484 0.479,-0.15509 0.205,-0.28776 -0.206,-0.38086 -0.411,-0.09303 0.137,-0.22748 -0.069,-0.35157 -0.205,-0.12405 -0.205,-0.43487 -0.548,-0.51757 -0.343,-0.08271 -0.343,-0.34192 -0.685,-0.44532 -0.343,-0.10337 -1.027,-0.43315 -2.534,-0.54687 -1.508,-0.11372 -1.098,-0.03065 -2.879,0.13477 -1.782,0.16541 -1.986,-1.5e-4 -2.603,0.49609 -0.227,0.18319 0.069,0.3818 -0.205,0.50586 -0.274,0.12405 -0.206,0.27829 -0.206,0.40234 0,0.12406 -0.48,0.43488 -0.891,0.51758 -0.411,0.08271 -0.685,-0.18672 -0.754,-0.3418 -0.068,-0.15506 -0.206,-0.29976 -0.548,-0.42383 -0.343,-0.12408 0.068,-0.50635 -0.274,-0.74414 -0.343,-0.23773 -0.823,-0.04101 -0.823,-0.04101 0,0 -0.274,0.38268 -0.137,0.45508 0.137,0.07237 -0.48,0.3726 -0.685,0.48632 -0.206,0.11374 -0.206,0.24831 -0.343,0.45508 -0.137,0.20677 0.137,0.33999 0,0.44336 -0.137,0.1034 -0.548,0.20834 -0.617,0.4668 -0.068,0.25845 -0.272,0.33033 -0.889,0.36133 -0.617,0.03103 -0.48,-0.18729 -0.548,-0.33203 -0.069,-0.14474 -0.549,-0.18465 -0.412,-0.41211 0.137,-0.22745 -0.548,-0.32011 -0.822,-0.46485 -0.274,-0.14475 -0.686,-0.50818 -1.028,-0.64258 -0.343,-0.1344 -0.617,-0.45465 -0.823,-0.74414 -0.205,-0.28943 -0.48,-0.27801 -0.959,-0.19531 -0.48,0.08272 -0.069,0.24704 -0.206,0.3711 -0.137,0.12408 -0.206,0.76516 -0.137,0.8789 0.068,0.11371 -0.343,0.1356 -0.069,0.33203 0.275,0.19639 -0.137,0.15384 -0.342,0.26758 -0.206,0.11372 -0.069,0.08381 -0.206,0.22852 -0.137,0.14475 0,0.23726 -0.343,0.36132 -0.342,0.12405 0.208,0.53666 -0.272,0.6504 -0.479,0.1137 -0.137,0.23887 -0.068,0.40429 0.068,0.1654 -0.412,0.26856 -0.412,0.56836 0,0.29983 -0.104,0.30035 -0.583,0.41406 -0.48,0.11374 0.446,0.38713 -1.13,0.78516 -0.411,0.10387 0.068,0.2384 0.068,0.3418 0,0.10337 0.069,0.32043 0.069,0.42383 0,0.10337 -0.343,0.38151 -0.48,0.47461 -0.137,0.09303 0.274,0.27854 0.343,0.43359 0.068,0.15509 -0.343,0.40409 -0.48,0.54883 -0.137,0.14474 0,0.62043 -0.068,0.87893 -0.069,0.2585 -0.48,0.2375 -1.097,0.2168 -0.617,-0.0207 -0.48,-0.3726 -0.48,-0.4864 0,-0.11367 -0.411,-0.22712 -0.343,-0.39254 0.069,-0.16543 -0.068,-0.29966 -0.205,-0.49609 -0.137,-0.19642 -0.48,-0.64088 -0.686,-0.84766 -0.205,-0.20677 0.137,-0.27916 0,-0.35156 -0.137,-0.07237 0.274,-0.33157 -0.068,-0.44531 -0.343,-0.11372 -0.411,-0.6303 -0.549,-0.81641 -0.137,-0.18609 0.343,-0.25846 0.343,-0.35156 0,-0.09304 -0.409,-0.06207 -0.409,-0.17578 0,-0.11372 -0.411,-0.37251 -0.685,-0.5586 -0.275,-0.18608 0.068,-0.20592 0,-0.40234 -0.069,-0.19643 -0.206,-0.2383 -0.48,-0.41406 -0.274,-0.17575 -0.686,-1.22004 -0.754,-1.30274 -0.069,-0.08272 -0.343,-0.53747 -0.48,-0.67187 -0.137,-0.1344 -0.891,-0.15456 -0.891,-0.36133 0,-0.20677 -1.234,-0.58998 -2.125,-0.69336 -0.891,-0.10338 -1.163,0.22863 -1.506,0.33203 -0.342,0.10337 -0.342,0.17565 -0.48,0.24805 -0.137,0.07237 -0.479,0.19648 -0.479,0.35156 0,0.15509 -0.206,0.40246 -0.137,0.50586 0.068,0.10337 -0.137,0.19763 -0.275,0.33203 -0.137,0.1344 0.138,0.16466 0.069,0.33008 -0.068,0.1654 -0.411,0.30998 -0.617,0.49609 -0.205,0.18604 -1.028,0.0306 -1.165,-0.0625 -0.137,-0.09303 -0.206,-0.25714 -0.274,-0.33984 -0.069,-0.08268 0,-0.17593 -0.343,-0.2793 -0.343,-0.1034 0.137,-0.23878 0.206,-0.30078 0.068,-0.06203 -0.412,-0.25909 -0.412,-0.34179 0,-0.08271 -0.548,-0.33971 -0.822,-0.41211 -0.274,-0.07237 -0.411,-0.15558 -0.48,-0.23828 -0.068,-0.08269 -0.137,-0.40238 -0.274,-0.57813 -0.137,-0.17575 -0.069,-0.19752 -0.617,-0.22852 -0.548,-0.03102 -0.478,0.11404 -0.752,0.20704 -0.274,0.09304 -0.205,0.35172 -0.137,0.63086 0.069,0.27914 -0.411,0.35054 -0.685,0.4746 -0.274,0.12406 0,0.47668 -0.48,0.58008 -0.48,0.10337 -0.069,0.11285 -0.069,0.22657 0,0.11374 -0.137,0.27003 -0.411,0.33203 -0.274,0.06206 -0.137,0.20598 0,0.33007 0.137,0.12405 -0.343,0.25857 -0.617,0.35157 -0.274,0.09306 0.137,0.14559 -0.137,0.37304 -0.274,0.22749 -0.206,0.32032 -0.891,0.32032 -0.685,0 -0.48,-0.23893 -0.617,-0.33203 C 116.331,5.02023 116.4,4.89725 116.194,4.74219 115.989,4.5871 116.11,4.34917 116.057,4.2461 115.92,3.9773 115.92,3.67645 115.851,3.59375 c -0.068,-0.08269 -0.274,-0.36182 -0.274,-0.42382 0,-0.06206 -0.068,-0.25782 -0.411,-0.25782 -0.343,0 -0.605,0.09807 -1.232,0.07227 -0.377,-0.01549 -0.411,-0.25796 -0.274,-0.36133 0.137,-0.1034 -0.343,-0.16676 -0.548,-0.25976 -0.206,-0.09303 -0.412,-0.3726 -0.48,-0.48633 -0.069,-0.11372 -0.548,-0.16514 -0.548,-0.39258 0,-0.22745 -0.412,-0.567826 -1.029,-0.578126 -0.616,-0.01033 -0.685,0.134636 -0.753,0.207036 -0.069,0.07237 0.068,0.23799 -0.275,0.27929 -0.342,0.04136 -0.274,0.12318 -0.411,0.22657 -0.137,0.10338 -0.411,0.20624 -0.685,0.36132 -0.274,0.15508 -0.617,0.16677 -0.891,0.25977 -0.274,0.09306 0.006,0.26899 -0.137,0.47461 -0.069,0.09826 -0.992,0.11948 -1.095,-0.00977 0,0 -0.137,-0.41421 -0.343,-0.51758 C 106.26,2.0841 106.26,2.14738 106.328,1.91992 106.397,1.69247 105.985,1.65128 105.437,1.42383 104.889,1.19639 105.231,0.937124 105.026,0.802734 104.82,0.668324 104.203,0.409791 103.998,0.275391 103.919,0.224191 103.891,0.107069 103.861,0 Z"
     fill="#f5f5f5"
     id="path2"
     sodipodi:nodetypes="ccssccccccccscssscccsssccccccsscccccscccscccsccccscccsccccsccccsccccssccccsccccccccccccccccccscsscsscsssssscsccscssssscccsssccccsccssccccscsscscsccccccssccscsccsccsssccsccscscsssscsccccscccsscscscccscsccscccccccscsscsssssscsscsccscsssssscsscccccsscssscccccssccscccsccccsssccccscsscccsscccscccscccsccssccscsscscsccssccscsssccsccccccccsccssccscsccccsccccssccccscccsscccccscccc" />
  <defs
     id="defs9">
    <clipPath
       id="clip0_274_2">
      <rect
         width="375"
         height="11.2305"
         fill="white"
         id="rect6" />
    </clipPath>
  </defs>
</svg>
