<?xml version="1.0" encoding="UTF-8" standalone="no"?>
<svg
   width="1920"
   height="45"
   viewBox="0 0 1920 45"
   fill="none"
   version="1.1"
   id="svg4"
   sodipodi:docname="retangle_header_stalactites_desktop_2.svg"
   inkscape:version="1.1.1 (3bf5ae0d25, 2021-09-20)"
   xmlns:inkscape="http://www.inkscape.org/namespaces/inkscape"
   xmlns:sodipodi="http://sodipodi.sourceforge.net/DTD/sodipodi-0.dtd"
   xmlns:xlink="http://www.w3.org/1999/xlink"
   xmlns="http://www.w3.org/2000/svg"
   xmlns:svg="http://www.w3.org/2000/svg">
  <defs
     id="defs8">
    <linearGradient
       y2="319.34143"
       x2="1.7838031"
       id="linearGradient1367"
       gradientTransform="matrix(2.0418117,0,0,0.48976114,-71.842844,-840.56127)"
       x1="1.7838031"
       y1="7.1549597"
       gradientUnits="userSpaceOnUse"
       spreadMethod="pad">
      <stop
         offset="0"
         stop-opacity="0.996094"
         stop-color="#000000"
         id="stop1363" />
      <stop
         offset="1"
         stop-opacity="0.996094"
         stop-color="#7f3f00"
         id="stop1365" />
    </linearGradient>
    <linearGradient
       y2="1"
       x2="0"
       id="linearGradient1361">
      <stop
         offset="0"
         stop-opacity="0.996094"
         stop-color="#000000"
         id="stop1357" />
      <stop
         offset="1"
         stop-opacity="0.996094"
         stop-color="#7f3f00"
         id="stop1359" />
    </linearGradient>
    <linearGradient
       y2="319.34143"
       x2="1.7838031"
       id="linearGradient1177"
       gradientTransform="matrix(2.0418117,0,0,0.48976114,-71.842844,-840.56127)"
       x1="1.7838031"
       y1="7.1549597"
       gradientUnits="userSpaceOnUse"
       spreadMethod="pad">
      <stop
         offset="0"
         stop-opacity="0.996094"
         stop-color="#000000"
         id="stop1173" />
      <stop
         offset="1"
         stop-opacity="0.996094"
         stop-color="#7f3f00"
         id="stop1175" />
    </linearGradient>
    <linearGradient
       y2="319.34143"
       x2="1.7838031"
       id="linearGradient1095"
       gradientTransform="matrix(2.0418117,0,0,0.48976114,-71.842844,-840.56127)"
       x1="1.7838031"
       y1="7.1549597"
       gradientUnits="userSpaceOnUse"
       spreadMethod="pad">
      <stop
         offset="0"
         stop-opacity="0.996094"
         stop-color="#000000"
         id="stop1091" />
      <stop
         offset="1"
         stop-opacity="0.996094"
         stop-color="#7f3f00"
         id="stop1093" />
    </linearGradient>
    <linearGradient
       y2="1"
       x2="0"
       id="linearGradient1089">
      <stop
         offset="0"
         stop-opacity="0.996094"
         stop-color="#000000"
         id="stop1085" />
      <stop
         offset="1"
         stop-opacity="0.996094"
         stop-color="#7f3f00"
         id="stop1087" />
    </linearGradient>
    <linearGradient
       y2="319.34143"
       x2="1.7838031"
       id="linearGradient1301"
       gradientTransform="matrix(2.0418117,0,0,0.48976114,-71.842844,-840.56127)"
       x1="1.7838031"
       y1="7.1549597"
       gradientUnits="userSpaceOnUse"
       spreadMethod="pad">
      <stop
         offset="0"
         stop-opacity="0.996094"
         stop-color="#000000"
         id="stop1297" />
      <stop
         offset="1"
         stop-opacity="0.996094"
         stop-color="#7f3f00"
         id="stop1299" />
    </linearGradient>
    <linearGradient
       y2="319.34143"
       x2="1.7838031"
       id="linearGradient1295"
       gradientTransform="matrix(2.0418117,0,0,0.48976114,-71.842844,-840.56127)"
       x1="1.7838031"
       y1="7.1549597"
       gradientUnits="userSpaceOnUse"
       spreadMethod="pad">
      <stop
         offset="0"
         stop-opacity="0.996094"
         stop-color="#000000"
         id="stop1291" />
      <stop
         offset="1"
         stop-opacity="0.996094"
         stop-color="#7f3f00"
         id="stop1293" />
    </linearGradient>
    <linearGradient
       y2="319.34143"
       x2="1.7838031"
       id="linearGradient1289"
       gradientTransform="matrix(2.0418117,0,0,0.48976114,-71.842844,-840.56127)"
       x1="1.7838031"
       y1="7.1549597"
       gradientUnits="userSpaceOnUse">
      <stop
         offset="0"
         stop-opacity="0.996094"
         stop-color="#000000"
         id="stop1285" />
      <stop
         offset="1"
         stop-opacity="0.996094"
         stop-color="#7f3f00"
         id="stop1287" />
    </linearGradient>
    <linearGradient
       y2="319.34143"
       x2="1.7838031"
       id="svg_1"
       gradientTransform="matrix(1.7518969,0,0,0.48976114,57.710056,-753.46883)"
       x1="1.7838031"
       y1="7.1549597"
       gradientUnits="userSpaceOnUse"
       xlink:href="#linearGradient1367">
      <stop
         offset="0"
         stop-opacity="0.996094"
         stop-color="#000000"
         id="stop1000" />
      <stop
         offset="1"
         stop-opacity="0.996094"
         stop-color="#7f3f00"
         id="stop1002" />
    </linearGradient>
    <linearGradient
       y2="1"
       x2="0"
       id="svg_1-8">
      <stop
         offset="0"
         stop-opacity="0.996094"
         stop-color="#000000"
         id="stop866" />
      <stop
         offset="1"
         stop-opacity="0.996094"
         stop-color="#7f3f00"
         id="stop868" />
    </linearGradient>
    <linearGradient
       y2="1"
       x2="0"
       id="svg_1-8-6">
      <stop
         offset="0"
         stop-opacity="0.996094"
         stop-color="#000000"
         id="stop866-0" />
      <stop
         offset="1"
         stop-opacity="0.996094"
         stop-color="#7f3f00"
         id="stop868-3" />
    </linearGradient>
    <linearGradient
       y2="1"
       x2="0"
       id="svg_1-8-8">
      <stop
         offset="0"
         stop-opacity="0.996094"
         stop-color="#000000"
         id="stop866-1" />
      <stop
         offset="1"
         stop-opacity="0.996094"
         stop-color="#7f3f00"
         id="stop868-0" />
    </linearGradient>
    <linearGradient
       y2="1"
       x2="0"
       id="svg_1-8-5">
      <stop
         offset="0"
         stop-opacity="0.996094"
         stop-color="#000000"
         id="stop866-10" />
      <stop
         offset="1"
         stop-opacity="0.996094"
         stop-color="#7f3f00"
         id="stop868-5" />
    </linearGradient>
    <linearGradient
       y2="1"
       x2="0"
       id="svg_1-6">
      <stop
         offset="0"
         stop-opacity="0.996094"
         stop-color="#000000"
         id="stop888" />
      <stop
         offset="1"
         stop-opacity="0.996094"
         stop-color="#7f3f00"
         id="stop890" />
    </linearGradient>
  </defs>
  <sodipodi:namedview
     id="namedview6"
     pagecolor="#ffffff"
     bordercolor="#666666"
     borderopacity="1.0"
     inkscape:pageshadow="2"
     inkscape:pageopacity="0.0"
     inkscape:pagecheckerboard="0"
     showgrid="false"
     inkscape:zoom="0.25"
     inkscape:cx="610"
     inkscape:cy="454"
     inkscape:window-width="1600"
     inkscape:window-height="837"
     inkscape:window-x="-8"
     inkscape:window-y="-8"
     inkscape:window-maximized="1"
     inkscape:current-layer="svg4"
     inkscape:lockguides="false"
     fit-margin-top="0"
     fit-margin-left="0"
     fit-margin-right="0"
     fit-margin-bottom="0" />
  <path
     id="rect2"
     style="fill:#f5f5f5"
     d="m 278.63867,0 c -0.0555,0.19929703 -0.1703,0.43366802 -0.65625,0.68164062 -1.09963,0.56110998 1.09961,2.60552378 -1.09961,3.52734378 -2.1993,0.92183 -1.75921,1.1224737 -3.29883,1.6835937 -1.53953,0.5611 -0.43891,0.7213213 -1.31836,1.0820313 -0.87988,0.36071 -0.66062,1.5639 -1.75976,2.125 -1.09966,0.56112 1.09818,0.4397739 0.21875,1.1210936 -0.87988,0.68129 -1.53853,0.481623 -2.41797,1.283203 -0.87983,0.8016 -1.53949,1.161986 -2.19922,1.322266 -0.66009,0.16028 0.43858,1.203125 -1.98047,1.203125 -2.41899,0 -1.53901,-1.122811 -1.97851,-1.363281 -0.43998,-0.24046 -1.75972,-0.08135 -2.19922,-0.722657 -0.43994,-0.64121 0.21875,-0.680253 0.21875,-1.121093 0,-0.44094 -1.09858,-1.6441125 -1.97852,-2.0449222 -0.87939,-0.4008003 -0.65971,-2.6853113 -1.09961,-2.9257813 -0.43955,-0.24047 0.87998,-1.0021719 -0.43945,-1.7636719 -1.3198,-0.7615 -3.29883,0.5212488 -3.29883,0.7617188 0,0.24048 -3.08008,2.2047506 -3.08008,2.5253906 0,0.32063 -0.43992,0.9614737 -1.0996,1.4023438 -0.65964,0.4408998 0.44094,0.6429314 0.88085,1.2441402 0.43997,0.60112 -1.10057,2.68415 -3.08007,3.125 -1.97902,0.44084 0.43992,0.721407 1.09961,2.003907 0.6597,1.28253 0.44149,0.762183 -1.75782,1.283203 -2.19925,0.52113 -0.44089,0.399458 -0.2207,1.361328 0.21975,0.96195 -1.75931,0.922227 -2.19922,1.523437 -0.43998,0.60113 -0.66016,1.202428 -0.66015,1.923829 -2e-5,0.721478 -0.87936,1.443578 -2.63868,2.205078 -1.75931,0.7615 0.22071,0.681181 0.22071,1.082031 0,0.40073 -0.88086,0.359715 -0.88086,1.041015 0,0.681305 -0.44038,1.003327 -1.75977,1.564454 -1.31981,0.561116 -1.31984,0.76127 -0.66016,1.162109 0.66014,0.400719 -2.4184,0.681873 -4.17773,0.441406 -1.75925,-0.240461 -1.75922,-1.242645 -2.19922,-1.763672 -0.43989,-0.521031 0.88042,-1.123056 -0.8789,-2.044921 -1.75932,-0.92177 -1.3208,-3.246571 -0.88086,-3.6875 0.43998,-0.440841 -1.53803,-0.80146 -1.75782,-1.16211 -0.22018,-0.36076 -0.66008,-1.603054 -2.19921,-2.083984 -1.53956,-0.48103 1.97897,-0.922565 0.43945,-1.203125 -1.53917,-0.28056 -1.10009,-1.683121 0.43945,-2.244141 1.5396,-0.56112 -1.97997,-1.602831 -2.41992,-2.24414 -0.43994,-0.641311 -0.87933,-2.6443061 -1.53906,-2.8847661 -0.65968,-0.24046 0.65978,-2.2058331 -3.29883,-3.4082031 -3.95857,-1.20238 -6.37695,0.2006187 -6.37695,0.7617187 0,0.56111 -2.2007,2.7260813 -2.64063,3.2070313 -0.43995,0.4809202 -1.53854,1.2026652 -1.31836,1.6035152 0.21976,0.40074 -2.20014,1.682331 -4.17969,1.962891 -1.97906,0.28056 0.88089,0.681179 -0.21875,1.162109 -1.09962,0.48093 -1.54003,1.283792 -1.75976,1.644532 -0.22021,0.36066 -1.98,0.319953 -1.32031,0.720703 0.65969,0.40085 0.001,2.045162 -1.75782,2.726562 -1.75931,0.68131 -0.88086,1.001268 -0.88086,1.642578 0,0.6412 -0.21923,1.161864 -3.07812,1.402344 -2.859,0.24046 -2.64014,-1.201638 -3.08008,-1.642578 -0.4395,-0.44083 -1.31933,-2.045386 -2.19922,-2.566406 -0.87939,-0.52103 -4.17821,-2.162552 -2.63867,-2.763672 1.53955,-0.60122 0.65921,-1.123625 -0.66016,-1.484375 -1.31982,-0.36065 0.44094,-0.880298 -0.21875,-1.361328 -0.65965,-0.48093 -0.6601,-1.683257 -1.75976,-2.003906 -1.09964,-0.320651 -1.0996,-1.3237699 -2.19922,-1.7246099 -1.09964,-0.40075 -3.29828,-1.6821569 -8.13672,-2.1230469 -4.83802,-0.4408598 -3.51844,-0.1217387 -9.23633,0.5195313 -5.7179,0.64127 -6.37837,4.81e-5 -8.35742,1.9238281 -0.73055,0.7101604 0.21923,1.4838934 -0.66016,1.9648434 -0.87992,0.48093 -0.66015,1.08156 -0.66015,1.5625 0,0.48094 -1.53956,1.683357 -2.85938,2.003907 -1.31936,0.32067 -2.19821,-0.721056 -2.41797,-1.322266 -0.2197,-0.60112 -0.66015,-1.161648 -1.75976,-1.642578 -1.09964,-0.48104 0.21875,-1.964839 -0.88086,-2.8867189 -1.09963,-0.92179 -2.63867,-0.1601562 -2.63867,-0.1601562 0,0 -0.87938,1.4831121 -0.43946,1.7636721 0.43995,0.28056 -1.53951,1.441962 -2.19921,1.882812 -0.65968,0.44093 -0.65968,0.962082 -1.09961,1.763672 -0.43994,0.80158 0.43993,1.323869 0,1.72461 -0.43994,0.400839 -1.75833,0.800774 -1.97852,1.802734 -0.21972,1.00196 -0.87987,1.282064 -2.85937,1.402344 -1.97903,0.12029 -1.54001,-0.72014 -1.75977,-1.28125 -0.2197,-0.56112 -1.76025,-0.721736 -1.32031,-1.603516 0.4395,-0.88178 -1.75879,-1.243577 -2.63867,-1.804688 -0.87989,-0.561128 -2.1992,-1.963365 -3.29883,-2.484374 -1.09961,-0.521032 -1.97903,-1.762526 -2.63867,-2.8847661 -0.65975,-1.12222 -1.53855,-1.0823388 -3.07813,-0.7617188 -1.53951,0.32068 -0.22065,0.9624304 -0.66016,1.4433589 -0.43994,0.481041 -0.65963,2.965311 -0.43945,3.40625 0.21976,0.44084 -1.10013,0.519753 -0.2207,1.28125 0.87987,0.761481 -0.43945,0.602029 -1.09961,1.042969 -0.65963,0.44084 -0.22026,0.31983 -0.66016,0.88086 -0.43997,0.56111 7e-5,0.923366 -1.09961,1.404297 -1.09961,0.48094 0.66024,2.082507 -0.8789,2.523437 -1.53956,0.44083 -0.44047,0.923143 -0.22071,1.564453 0.22018,0.64122 -1.31836,1.040885 -1.31836,2.203125 0,1.16233 -0.33152,1.162678 -1.87109,1.603516 -1.53958,0.440933 1.42931,1.503834 -3.62891,3.046875 -1.32025,0.402683 0.22071,0.921426 0.22071,1.322265 0,0.400744 0.2207,1.241738 0.2207,1.642579 0,0.400748 -1.10106,1.483001 -1.54102,1.84375 -0.43993,0.360652 0.87988,1.082471 1.09961,1.683593 0.21976,0.601213 -1.09912,1.563879 -1.53906,2.125 -0.43951,0.56112 10e-4,2.404299 -0.21875,3.40625 -0.21975,1.00206 -1.54045,0.921977 -3.51953,0.841797 -1.9795,-0.08019 -1.53906,-1.443824 -1.53906,-1.884766 0,-0.440834 -1.3198,-0.880166 -1.09961,-1.521484 0.21976,-0.641302 -0.22066,-1.162334 -0.66016,-1.923828 -0.43994,-0.761493 -1.539526,-2.485521 -2.199216,-3.287109 -0.659692,-0.801585 0.43995,-1.082722 0,-1.363282 -0.439942,-0.280561 0.878929,-1.281721 -0.220703,-1.722656 -1.09962,-0.440839 -1.317873,-2.44452 -1.757813,-3.166015 -0.43995,-0.721407 1.09961,-1.002528 1.09961,-1.363282 0,-0.360649 -1.320313,-0.240811 -1.320313,-0.68164 0,-0.44085 -1.319789,-1.442673 -2.199219,-2.164063 -0.87989,-0.72141 0.21976,-0.80101 0,-1.5625 -0.22018,-0.76149 -0.659172,-0.922125 -1.539062,-1.603515 -0.87944,-0.681322 -2.200132,-4.730132 -2.419922,-5.050782 -0.22018,-0.32066 -1.099123,-2.082495 -1.539063,-2.603515 -0.43995,-0.52104 -2.859375,-0.602707 -2.859375,-1.404297 0,-0.8015807 -3.957459,-2.2847571 -6.816406,-2.6855471 -2.859396,-0.4008 -3.740227,0.8823631 -4.839844,1.2832031 -1.099633,0.40074 -1.099121,0.6823298 -1.539062,0.962891 -0.43994,0.28055 -1.539063,0.760118 -1.539063,1.361328 0,0.60122 -0.65966,1.564004 -0.439453,1.964843 0.219737,0.400751 -0.440916,0.760223 -0.880859,1.28125 -0.439936,0.521011 0.44091,0.641884 0.220703,1.283204 -0.219736,0.64122 -1.318813,1.202318 -1.978516,1.923828 -0.659703,0.72139 -3.300299,0.120515 -3.740234,-0.240235 -0.439943,-0.36065 -0.659139,-1.001615 -0.878906,-1.322265 -0.220176,-0.32055 6e-6,-0.68128 -1.09961,-1.082032 -1.099622,-0.400838 0.439973,-0.921639 0.660157,-1.162109 0.21976,-0.24046 -1.320313,-1.003549 -1.320313,-1.324219 0,-0.32065 -1.759217,-1.321002 -2.638672,-1.601562 -0.879878,-0.28056 -1.319324,-0.601215 -1.539062,-0.921875 -0.219759,-0.32056 -0.440917,-1.5628006 -0.88086,-2.2441408 -0.439496,-0.6813599 -0.219196,-0.7625825 -1.978515,-0.8828124 -1.759326,-0.12024 -1.540035,0.4400712 -2.419922,0.8007812 -0.87944,0.36071 -0.659636,1.3631615 -0.439453,2.445313 0.21976,1.082148 -1.31978,1.362808 -2.199219,1.84375 -0.879887,0.480928 5.12e-4,1.8433 -1.539063,2.24414 -1.539572,0.40074 -0.220703,0.441983 -0.220703,0.882813 0,0.44095 -0.438473,1.04078 -1.318359,1.28125 -0.87944,0.24055 -0.439944,0.802173 0,1.283203 0.439943,0.48093 -1.10103,1.002621 -1.980469,1.363281 -0.879879,0.36074 0.439987,0.561589 -0.439453,1.443359 -0.879871,0.88177 -0.660113,1.242188 -2.859375,1.242188 -2.199347,0 -1.538666,-0.922463 -1.978515,-1.283203 -0.439853,-0.36076 -0.22108,-0.84223 -0.88086,-1.44336 -0.659772,-0.60121 -0.26938,-1.524238 -0.439453,-1.923828 -0.439851,-1.04205 -0.440219,-2.20474 -0.660156,-2.52539 -0.219929,-0.32055 -0.878907,-1.402107 -0.878907,-1.642579 0,-0.24056 -0.22069,-1.001953 -1.320312,-1.001953 -1.099631,0 -1.944189,0.38131 -3.957031,0.28125 -1.209592,-0.06005 -1.320711,-1.001593 -0.88086,-1.402343 0.439851,-0.40083 -1.100031,-0.641203 -1.759765,-1.001954 C 28.148822,9.7409135 27.48946,8.6576769 27.269531,8.2167969 27.049609,7.7759269 25.509766,7.5750994 25.509766,6.6933594 c 0,-0.88174 -1.319495,-2.2040407 -3.298828,-2.2441406 -1.979287,-0.04007 -2.19804,0.5221843 -2.417969,0.8027343 -0.219925,0.28056 0.218772,0.9217213 -0.88086,1.0820313 -1.099628,0.16032 -0.878507,0.4800592 -1.318359,0.8808594 -0.439852,0.4008 -1.319517,0.8011437 -2.199219,1.4023437 -0.879704,0.60121 -1.979672,0.6413031 -2.859375,1.0019531 -0.87966,0.36076 0.02101,1.0466404 -0.439453,1.8437504 -0.219926,0.3808 -3.1896417,0.462014 -3.5195311,-0.03906 0,0 -0.4398324,-1.6031661 -1.0996094,-2.0039061 C 6.8167845,9.0190789 6.8171834,9.2587431 7.0371094,8.3769531 7.2570344,7.4952131 5.9370964,7.334855 4.1777344,6.453125 2.4183274,5.571375 3.519153,4.5698481 2.859375,4.0488281 2.2874077,3.5971413 0.83592274,2.8234639 0,2.2753906 V 45 H 1920 V 11.056641 c -0.4415,0.45406 -1.1882,1.035433 -1.6973,1.351562 -0.69,0.42862 -0.6901,0.933694 -1.1504,1.712891 -0.4602,0.779199 0.4603,1.286229 0,1.675781 -0.4602,0.389646 -1.84,0.779931 -2.0703,1.753906 -0.2299,0.973973 -0.9195,1.246357 -2.9902,1.363281 -2.0702,0.116922 -1.6119,-0.700645 -1.8418,-1.246093 -0.2299,-0.545445 -1.839,-0.701445 -1.3789,-1.558594 0.4598,-0.857148 -1.8413,-1.208458 -2.7617,-1.753906 -0.9204,-0.545448 -2.3009,-1.909543 -3.4512,-2.416016 -1.1504,-0.506475 -2.0697,-1.713788 -2.7598,-2.8046874 -0.69,-1.0908788 -1.6102,-1.0519119 -3.2207,-0.7402344 -1.6105,0.3117194 -0.2297,0.9348408 -0.6894,1.4023438 -0.4602,0.467595 -0.6914,2.883879 -0.461,3.3125 0.2298,0.428527 -1.1503,0.505871 -0.2304,1.246094 0.9205,0.740225 -0.4598,0.585052 -1.1504,1.013672 -0.69,0.428527 -0.2293,0.310113 -0.6895,0.855468 -0.4603,0.545448 -1e-4,0.897737 -1.1504,1.365235 -1.1503,0.467499 0.69,2.024504 -0.9199,2.453125 -1.6105,0.428525 -0.4601,0.896136 -0.2305,1.519531 0.2305,0.623306 -1.3808,1.012797 -1.3808,2.142578 0,1.129866 -0.3446,1.130066 -1.9551,1.558594 -1.6105,0.42862 1.4963,1.461001 -3.7949,2.960937 -1.381,0.39144 0.2285,0.897465 0.2285,1.28711 0,0.389552 0.2305,1.206061 0.2305,1.595703 0,0.389555 -1.1491,1.442296 -1.6094,1.792969 -0.4601,0.35058 0.9205,1.052388 1.1504,1.636718 0.2299,0.58442 -1.1512,1.519006 -1.6113,2.064453 -0.4598,0.545449 -6e-4,2.336578 -0.2305,3.310547 -0.2299,0.974072 -1.6095,0.89632 -3.6797,0.81836 -2.0707,-0.07795 -1.6113,-1.401455 -1.6113,-1.830078 0,-0.428525 -1.3808,-0.857068 -1.1504,-1.480469 0.2298,-0.62339 -0.2298,-1.130867 -0.6895,-1.871094 -0.4602,-0.740224 -1.6107,-2.414158 -2.3007,-3.193359 -0.6902,-0.779201 0.4601,-1.051499 0,-1.324219 -0.4603,-0.272728 0.9197,-1.247158 -0.2305,-1.675781 -1.1503,-0.428525 -1.3796,-2.376775 -1.8399,-3.078125 -0.4601,-0.70125 1.1504,-0.973549 1.1504,-1.324219 0,-0.350583 -1.3808,-0.233587 -1.3808,-0.662109 0,-0.428528 -1.3809,-1.404222 -2.3008,-2.105469 -0.9205,-0.701253 0.2298,-0.779306 0,-1.519531 -0.2304,-0.740223 -0.6891,-0.894268 -1.6094,-1.556641 -0.92,-0.662275 -2.3013,-4.598458 -2.5312,-4.910156 -0.2303,-0.3117 -1.1493,-2.024777 -1.6094,-2.53125 -0.4602,-0.506475 -2.9902,-0.586037 -2.9902,-1.365235 0,-0.7791978 -4.1423,-2.2197866 -7.1329,-2.6093746 -2.9911,-0.389603 -3.9102,0.8564454 -5.0605,1.2460937 -1.1503,0.389549 -1.1511,0.6628219 -1.6113,0.9355469 -0.4602,0.272724 -1.6094,0.739799 -1.6094,1.324219 0,0.584423 -0.6912,1.520511 -0.4609,1.910156 0.2299,0.389552 -0.4598,0.739621 -0.92,1.246094 -0.4602,0.506475 0.4608,0.622697 0.2305,1.246093 -0.2299,0.623306 -1.3803,1.169748 -2.0703,1.871094 -0.6901,0.70125 -3.4518,0.1163 -3.9121,-0.234375 -0.4601,-0.350578 -0.69,-0.973458 -0.9199,-1.285156 -0.2303,-0.311605 -1e-4,-0.663182 -1.1504,-1.052734 -1.1502,-0.389646 0.461,-0.89516 0.6914,-1.128907 0.2299,-0.233754 -1.3809,-0.973455 -1.3809,-1.285156 0,-0.311697 -1.8399,-1.285871 -2.7597,-1.558594 -0.9205,-0.272724 -1.3816,-0.584787 -1.6114,-0.896484 -0.2299,-0.311609 -0.4597,-1.5193281 -0.9199,-2.1816406 -0.4597,-0.662324 -0.23,-0.7405479 -2.0703,-0.8574219 -1.8403,-0.116885 -1.6108,0.4286539 -2.5313,0.7792969 -0.9199,0.350635 -0.6892,1.3250281 -0.4589,2.3769536 0.2298,1.051921 -1.3809,1.323515 -2.3008,1.791015 -0.9204,0.467501 -9e-4,1.791997 -1.6114,2.181641 -1.6105,0.389553 -0.2304,0.428897 -0.2304,0.857422 0,0.428623 -0.4585,1.012341 -1.3789,1.246093 -0.92,0.233841 -0.4602,0.780454 0,1.248047 0.4602,0.467499 -1.1504,0.973642 -2.0703,1.324219 -0.9204,0.350673 0.4589,0.545198 -0.461,1.402344 -0.9204,0.857145 -0.6897,1.207031 -2.9902,1.207031 -2.3007,0 -1.6102,-0.895421 -2.0703,-1.246094 -0.4601,-0.350675 -0.2299,-0.818013 -0.9199,-1.402344 -0.6903,-0.58442 -0.2831,-1.480715 -0.461,-1.86914 -0.4601,-1.012945 -0.4594,-2.143381 -0.6894,-2.455078 -0.2301,-0.311606 -0.9219,-1.363908 -0.9219,-1.597656 0,-0.233848 -0.2287,-0.97461 -1.3789,-0.97461 -1.1503,0 -2.035,0.370688 -4.1406,0.273438 -1.2653,-0.05837 -1.382,-0.973733 -0.9219,-1.363282 0.4601,-0.389648 -1.1497,-0.623935 -1.8399,-0.974609 -0.6901,-0.350578 -1.3792,-1.4015126 -1.6093,-1.8300781 -0.23,-0.428552 -1.8418,-0.6233588 -1.8418,-1.4804688 0,-0.857118 -1.3788,-2.1426706 -3.4493,-2.1816406 -2.0704,-0.038956 -2.3012,0.5065829 -2.5312,0.7792969 -0.2301,0.272714 0.2303,0.8949442 -0.9199,1.0507812 -1.1503,0.155841 -0.9208,0.4678199 -1.3809,0.8574219 -0.4601,0.389599 -1.3806,0.7788866 -2.3008,1.3632813 -0.9202,0.5844211 -2.07,0.6240333 -2.9902,0.9746093 -0.9201,0.350674 0.021,1.0161479 -0.4609,1.7910159 -0.2301,0.370165 -3.3346,0.448016 -3.6797,-0.03906 0,0 -0.4602,-1.5577124 -1.1504,-1.9472654 -0.6901,-0.3896461 -0.691,-0.156515 -0.461,-1.0136718 0.2301,-0.8571192 -1.1497,-1.0120327 -2.9902,-1.8691407 -1.8403,-0.857121 -0.6906,-1.8314146 -1.3808,-2.3378906 -0.6903,-0.506483 -2.761,-1.4798551 -3.4512,-1.9863281 C 1768.1985,1.5101123 1768.2166,0.44978277 1768.1992,0 H 1460.959 c -0.063,1.0730153 0.3861,2.8139807 -0.541,3.7871094 -1.1347,1.190982 -0.9088,1.4508282 -1.7032,2.1757812 -0.7941,0.724939 -0.2258,0.9324115 -0.6796,1.3984375 -0.454,0.466021 -0.3412,2.0192229 -0.9082,2.7441409 -0.5673,0.724938 0.5669,0.568983 0.1132,1.449219 -0.4539,0.880228 -0.7945,0.620623 -1.248,1.65625 -0.4541,1.035632 -0.7946,1.501904 -1.1348,1.708984 -0.3407,0.20707 0.2266,1.554687 -1.0215,1.554687 -1.2482,0 -0.7945,-1.451046 -1.0214,-1.761718 -0.227,-0.31068 -0.9078,-0.103101 -1.1348,-0.931641 -0.2268,-0.828438 0.1152,-0.879664 0.1152,-1.449219 0,-0.569679 -0.5677,-2.122794 -1.0215,-2.6406248 -0.4538,-0.517803 -0.3412,-3.4705639 -0.5683,-3.78125 -0.2266,-0.310689 0.454,-1.2935077 -0.2266,-2.2773437 -0.6811,-0.983852 -1.7012,0.6717409 -1.7012,0.9824219 0,0.310701 -1.5898,2.8494268 -1.5898,3.2636718 0,0.4142581 -0.2261,1.242908 -0.5664,1.8125 -0.3404,0.5696408 0.2261,0.8267648 0.4531,1.6035158 0.227,0.776627 -0.5664,3.469506 -1.5879,4.039062 -1.021,0.569549 0.226,0.932858 0.5664,2.589844 0.3403,1.656994 0.2285,0.983094 -0.9062,1.65625 -1.1346,0.67327 -0.2268,0.518998 -0.1133,1.761719 0.1134,1.242827 -0.9079,1.190047 -1.1348,1.966797 -0.2271,0.776635 -0.3418,1.554304 -0.3418,2.486328 0,0.932162 -0.4537,1.863826 -1.3613,2.847656 -0.9078,0.983835 0.1133,0.880563 0.1133,1.398438 0,0.517759 -0.4531,0.465474 -0.4531,1.345703 0,0.880228 -0.2276,1.294579 -0.9082,2.019531 -0.681,0.724961 -0.6802,0.984071 -0.3399,1.501953 0.3407,0.517776 -1.2484,0.880993 -2.1562,0.570313 -0.9077,-0.31068 -0.9079,-1.606148 -1.1348,-2.279297 -0.2269,-0.673151 0.4545,-1.449588 -0.4531,-2.640625 -0.9077,-1.190902 -0.6821,-4.193995 -0.4551,-4.763672 0.2268,-0.569548 -0.7928,-1.035997 -0.9062,-1.501953 -0.1136,-0.466076 -0.3408,-2.072007 -1.1348,-2.69336 -0.7944,-0.621468 1.0209,-1.190264 0.2266,-1.552734 -0.7941,-0.362477 -0.5679,-2.17556 0.2265,-2.900391 0.7943,-0.724961 -1.021,-2.069876 -1.248,-2.898437 -0.2268,-0.828561 -0.4546,-3.417851 -0.795,-3.728516 -0.3403,-0.310686 0.3413,-2.8488925 -1.7011,-4.4023435 -2.0424,-1.5534359 -3.291,0.259457 -3.291,0.984375 0,0.724938 -1.1344,3.5212255 -1.3614,4.1425785 -0.2269,0.62136 -0.7953,1.552429 -0.6816,2.070312 0.1134,0.517751 -1.1349,2.176587 -2.1563,2.539063 -1.0211,0.36247 0.4541,0.878653 -0.1132,1.5 -0.5674,0.621352 -0.7929,1.656955 -0.9063,2.123046 -0.1136,0.465956 -1.0219,0.415841 -0.6816,0.933594 0.3403,0.517888 -5e-4,2.639182 -0.9082,3.519532 -0.9077,0.88023 -0.4532,1.294486 -0.4532,2.123046 0,0.828425 -0.113,1.501828 -1.5879,1.8125 -1.4751,0.310686 -1.363,-1.553377 -1.5898,-2.123046 -0.2269,-0.569549 -0.6809,-2.639345 -1.1348,-3.3125 -0.4538,-0.67315 -2.1555,-2.79759 -1.3613,-3.574219 0.7943,-0.77675 0.3409,-1.449945 -0.3398,-1.916016 -0.681,-0.465962 0.227,-1.138297 -0.1133,-1.759765 -0.3403,-0.621354 -0.3407,-2.175557 -0.9082,-2.589844 -0.5673,-0.414266 -0.5675,-1.708689 -1.1348,-2.226563 -0.5674,-0.5177517 -1.701,-2.1745404 -4.1973,-2.7441404 -2.4961,-0.569591 -1.8155,-0.1546748 -4.7656,0.6738282 -2.9501,0.8284979 -3.2915,-0.00111 -4.3125,2.4843752 -0.3756,0.917512 -0.1907,1.784903 -0.6445,2.40625 -0.4538,0.621358 -2.4336,1.654031 -2.4336,2.27539 -0.9616,-6.1070755 -0.043,-8.7694859 -4.3965,-12.5195309 C 1390.5273,2.4431087 1390.2154,0.9908725 1389.7793,0 h -90.3906 c 0.027,0.32592019 -0.078,0.76359935 -0.8907,1.2734375 -1.3519,0.847958 1.3524,3.9370071 -1.3515,5.3300781 -2.704,1.393052 -2.1638,1.6950118 -4.0567,2.5429688 -1.8928,0.8479398 -0.5399,1.0896526 -1.621,1.6347656 -1.0819,0.545095 -0.8127,2.363015 -2.1641,3.210938 -1.352,0.847974 1.3508,0.665735 0.2695,1.695312 -1.0817,1.029596 -1.8914,0.728092 -2.9726,1.939453 -1.0817,1.21136 -1.894,1.755833 -2.7051,1.998047 -0.8115,0.242214 0.5404,1.816406 -2.4336,1.816406 -2.9742,0 -1.8934,-1.695208 -2.4336,-2.058594 -0.541,-0.363382 -2.1627,-0.120696 -2.7031,-1.089843 -0.5408,-0.969001 0.2695,-1.031073 0.2695,-1.697266 0,-0.666338 -1.3518,-2.4822 -2.4336,-3.087891 -1.0813,-0.605688 -0.8107,-4.0584717 -1.3516,-4.4218745 -0.5404,-0.363403 1.0813,-1.5132785 -0.541,-2.6640625 -1.6226,-1.150784 -4.0547,0.7869706 -4.0547,1.1503906 0,0.363403 -3.7871,3.3318694 -3.7871,3.8164064 0,0.484555 -0.5405,1.452877 -1.3515,2.11914 -0.8112,0.666286 0.5411,0.968402 1.082,1.876954 0.5409,0.908407 -1.3515,4.058416 -3.7852,4.724609 -2.4332,0.666193 0.5405,1.09115 1.3516,3.029297 0.811,1.938147 0.5418,1.150119 -2.1621,1.9375 -2.7039,0.787509 -0.5422,0.60502 -0.2715,2.058594 0.2701,1.453701 -2.1622,1.394182 -2.7031,2.302734 -0.5409,0.908407 -0.8106,1.816079 -0.8106,2.90625 0,1.090335 -1.083,2.181266 -3.2461,3.332031 -2.163,1.150766 0.2715,1.029023 0.2715,1.634766 0,0.605599 -1.082,0.544642 -1.082,1.574219 0,1.029596 -0.5419,1.515324 -2.1641,2.363281 -1.6227,0.847976 -1.6216,1.150115 -0.8105,1.755859 0.8116,0.605613 -2.9736,1.029418 -5.1367,0.666016 -2.1631,-0.363385 -2.1643,-1.876681 -2.7051,-2.664063 -0.5409,-0.787381 1.0811,-1.696718 -1.082,-3.089843 -2.1629,-1.39298 -1.621,-4.905928 -1.0801,-5.572266 0.5409,-0.666193 -1.8939,-1.210837 -2.1641,-1.755859 -0.2707,-0.545168 -0.8108,-2.423604 -2.7031,-3.150391 -1.8929,-0.726914 2.4339,-1.392427 0.541,-1.816406 -1.8923,-0.423978 -1.352,-2.544766 0.541,-3.392578 1.8928,-0.847957 -2.4337,-2.421479 -2.9746,-3.390625 -0.5409,-0.969146 -1.0815,-3.997943 -1.8926,-4.361329 -0.8111,-0.363383 0.8104,-3.331405 -4.0566,-5.148437 -4.867,-1.817031 -7.8418,0.3024498 -7.8418,1.150391 0,0.847939 -2.7031,4.118916 -3.2441,4.845703 -0.5408,0.726769 -1.8918,1.818085 -1.6211,2.423828 0.2703,0.605617 -2.7049,2.542818 -5.1387,2.966797 -2.4332,0.423997 1.0824,1.031025 -0.2695,1.757812 -1.352,0.726787 -1.8939,1.937254 -2.1641,2.482422 -0.2707,0.545022 -2.434,0.484246 -1.623,1.089844 0.8111,0.605762 7e-4,3.08942 -2.1621,4.11914 -2.1632,1.029597 -1.0821,1.513276 -1.0821,2.482422 0,0.969002 -0.2701,1.757691 -3.7851,2.121094 -3.5151,0.363402 -3.2442,-1.818037 -3.7852,-2.484375 -0.5403,-0.666193 -1.6233,-3.087618 -2.7051,-3.875 -1.0812,-0.787363 -5.137,-3.27128 -3.2441,-4.179687 1.8928,-0.908551 0.8115,-1.69702 -0.8106,-2.242188 -1.6227,-0.545022 0.5397,-1.331661 -0.2714,-2.058594 -0.8111,-0.726787 -0.8102,-2.54277 -2.1622,-3.027343 -1.352,-0.484574 -1.3512,-1.999725 -2.7031,-2.605469 -1.352,-0.605598 -4.0571,-2.542737 -10.0058,-3.208984 -5.9483,-0.66625 -4.3254,-0.181983 -11.3555,0.787109 -7.03,0.969056 -7.8423,-9.53e-4 -10.2754,2.90625 -0.8982,1.073196 0.2708,2.241963 -0.8105,2.96875 -1.0818,0.726787 -0.8106,1.634541 -0.8106,2.361328 0,0.726787 -1.8929,2.544869 -3.5156,3.029297 -1.6222,0.484573 -2.7044,-1.091448 -2.9746,-2 -0.2702,-0.908407 -0.8121,-1.755635 -2.1641,-2.482422 -1.352,-0.726932 0.2719,-2.968203 -1.0801,-4.361328 -1.352,-1.392998 -3.2461,-0.242188 -3.2461,-0.242188 0,0 -1.0798,2.240084 -0.539,2.664063 0.5409,0.423997 -1.894,2.181463 -2.7051,2.847656 -0.8111,0.666356 -0.8107,1.452703 -1.3516,2.664063 -0.5408,1.21136 0.5409,1.999851 0,2.605468 -0.5408,0.605744 -2.1629,1.210441 -2.4336,2.72461 -0.2702,1.51415 -1.0819,1.939329 -3.5156,2.121094 -2.4332,0.181763 -1.892,-1.091497 -2.1621,-1.939454 -0.2702,-0.847958 -2.164,-1.089344 -1.623,-2.421875 0.5403,-1.332549 -2.1624,-1.876634 -3.2442,-2.724609 -1.0817,-0.847958 -2.7046,-2.968496 -4.0566,-3.755859 -1.352,-0.787382 -2.4331,-2.665394 -3.2442,-4.361329 -0.8111,-1.695895 -1.8923,-1.634945 -3.7851,-1.15039 -1.8928,0.484591 -0.2702,1.4529 -0.8106,2.179687 -0.5408,0.726933 -0.8117,4.482082 -0.541,5.148438 0.2701,0.666192 -1.3528,0.788687 -0.2715,1.939453 1.0818,1.150765 -0.5399,0.907863 -1.3515,1.574219 -0.8111,0.666193 -0.2696,0.484218 -0.8106,1.332031 -0.5409,0.847958 0,1.392354 -1.3535,2.119141 -1.3519,0.726769 0.8122,3.15005 -1.0801,3.816406 -0.9188,0.3234 -1.0352,0.664061 -0.9199,1.037109 0.087,0.156414 0.1519,0.306311 0.2207,0.457032 -0.091,-0.157298 -0.1756,-0.311217 -0.2207,-0.457032 C 1092.658,20.373144 1090.0869,9.579872 1090.6816,0 H 708.73633 c -0.87231,0.83950374 0.90304,3.7774577 -0.90821,5.1132812 -1.82248,1.3441214 -1.45854,1.6369206 -2.73437,2.4550782 -1.2758,0.8181686 -0.36497,1.052161 -1.09375,1.578125 -0.72913,0.525953 -0.54616,2.2775766 -1.45703,3.0957036 -0.91125,0.818177 0.91042,0.6433 0.18164,1.636718 -0.72913,0.993417 -1.27512,0.702286 -2.00391,1.871094 -0.72913,1.168807 -1.27557,1.694029 -1.82226,1.927734 -0.54703,0.233695 0.36398,1.753907 -1.64063,1.753907 -2.00459,0 -1.27642,-1.637665 -1.64062,-1.988282 -0.36458,-0.350628 -1.45807,-0.115679 -1.82227,-1.050781 -0.36458,-0.934951 0.18164,-0.99393 0.18164,-1.636719 0,-0.64293 -0.91145,-2.396059 -1.64062,-2.980468 -0.72875,-0.584408 -0.5456,-3.9149865 -0.91016,-4.2656254 -0.36421,-0.3506281 0.72813,-1.4619143 -0.36523,-2.5722656 -1.09372,-1.1103512 -2.73243,0.7606891 -2.73243,1.1113281 2e-5,0.3506497 -2.55273,3.2141224 -2.55273,3.6816407 0,0.4675192 -0.3635,1.4020682 -0.91016,2.0449222 -0.54667,0.642876 0.36396,0.935864 0.72852,1.8125 0.36458,0.876494 -0.91039,3.91384 -2.55078,4.55664 -1.64001,0.64279 0.36351,1.051822 0.91015,2.921875 0.54669,1.870063 0.36547,1.111371 -1.45703,1.871094 -1.8225,0.759853 -0.36606,0.583815 -0.18359,1.986328 0.18211,1.402642 -1.45771,1.344068 -1.82227,2.220703 -0.36458,0.876495 -0.54687,1.752814 -0.54687,2.804688 0,1.052025 -0.72763,2.104503 -2.18555,3.214843 -1.45791,1.110341 0.18164,0.993651 0.18164,1.578126 0,0.584332 -0.72851,0.526114 -0.72851,1.519531 0,0.993418 -0.36565,1.461118 -1.45899,2.279297 -1.09372,0.818179 -1.09354,1.110849 -0.54687,1.695312 0.54705,0.584329 -2.00497,0.993206 -3.46289,0.642578 -1.45792,-0.350617 -1.45769,-1.812553 -1.82227,-2.572265 -0.36456,-0.759723 0.7294,-1.636272 -0.72851,-2.980469 -1.45793,-1.344046 -1.09309,-4.734012 -0.72852,-5.376953 0.36458,-0.642789 -1.27686,-1.167482 -1.45898,-1.69336 -0.18246,-0.526007 -0.54683,-2.337817 -1.82227,-3.039062 -1.27581,-0.701386 1.64104,-1.344821 0.36524,-1.753906 -1.27549,-0.409084 -0.91252,-2.453446 0.36328,-3.271485 1.27584,-0.818168 -1.63935,-2.338346 -2.00391,-3.273437 -0.36458,-0.935102 -0.7287,-3.856404 -1.27539,-4.207031 -0.54667,-0.350629 0.54604,-3.2155445 -2.73438,-4.9687505 -3.28041,-1.7531943 -5.28515,0.2931811 -5.28515,1.1113281 0,0.818168 -1.82293,3.9745244 -2.1875,4.6757814 -0.36457,0.701245 -1.27427,1.753415 -1.0918,2.337891 0.1821,0.584333 -1.82249,2.454197 -3.46289,2.863281 -1.64002,0.409095 0.72766,0.992114 -0.18359,1.693359 -0.91125,0.701257 -1.27493,1.870467 -1.45703,2.396484 -0.18247,0.52587 -1.64042,0.468412 -1.09375,1.052735 0.54668,0.584473 8.7e-4,2.979098 -1.45704,3.972656 -1.45793,0.993428 -0.73046,1.461382 -0.73046,2.396485 0,0.934947 -0.18164,1.694282 -2.55079,2.044921 -2.36917,0.350628 -2.18621,-1.751601 -2.55078,-2.394531 -0.36421,-0.642789 -1.09507,-2.980532 -1.82422,-3.740234 -0.72877,-0.759712 -3.46134,-3.156709 -2.18554,-4.033203 1.27582,-0.876636 0.54647,-1.636103 -0.54688,-2.16211 -1.09371,-0.525877 0.36309,-1.284932 -0.18359,-1.986328 -0.54666,-0.701257 -0.54578,-2.454324 -1.45703,-2.921875 -0.91125,-0.467551 -0.91102,-1.929208 -1.82227,-2.513672 -0.91124,-0.584333 -2.73459,-2.454813 -6.74414,-3.097656 -4.00919,-0.642844 -2.91597,-0.1752722 -7.6543,0.759766 -4.73833,0.935026 -5.28381,-3.92e-4 -6.92382,2.804687 -0.60537,1.035503 0.18189,2.163976 -0.54688,2.865235 -0.72915,0.701256 -0.54687,1.576087 -0.54687,2.277343 0,0.701257 -1.27542,2.454475 -2.36914,2.921875 -1.09335,0.467551 -1.82376,-1.051099 -2.00586,-1.927734 -0.1821,-0.876495 -0.54578,-1.695228 -1.45704,-2.396484 -0.91124,-0.701398 0.18274,-2.862845 -0.72851,-4.207032 -0.91125,-1.344066 -2.1875,-0.234375 -2.1875,-0.234375 0,0 -0.72981,2.163171 -0.36523,2.572266 0.36454,0.409084 -1.2756,2.103305 -1.82227,2.746094 -0.54668,0.642941 -2.34832,0.850724 -2.71289,2.019531 -0.36456,1.168797 -2.29363,-1.226901 -2.6582,-0.642578 -0.36457,0.584474 -5.07926,-8.994171 -5.26172,-7.533203 C 584.34071,7.303818 583.3514,3.542922 582.63281,0 Z" />
</svg>
