<?xml version="1.0" encoding="UTF-8" standalone="no"?>
<svg
   version="1.2"
   viewBox="0 0 103.05834 35.799999"
   width="103.05833"
   height="35.799999"
   id="svg6"
   sodipodi:docname="logo.svg"
   inkscape:version="1.1.1 (3bf5ae0d25, 2021-09-20)"
   xmlns:inkscape="http://www.inkscape.org/namespaces/inkscape"
   xmlns:sodipodi="http://sodipodi.sourceforge.net/DTD/sodipodi-0.dtd"
   xmlns="http://www.w3.org/2000/svg"
   xmlns:svg="http://www.w3.org/2000/svg">
  <defs
     id="defs10" />
  <sodipodi:namedview
     id="namedview8"
     pagecolor="#ffffff"
     bordercolor="#666666"
     borderopacity="1.0"
     inkscape:pageshadow="2"
     inkscape:pageopacity="0.0"
     inkscape:pagecheckerboard="0"
     showgrid="false"
     fit-margin-top="0"
     fit-margin-left="0"
     fit-margin-right="0"
     fit-margin-bottom="0"
     inkscape:zoom="3.6341209"
     inkscape:cx="39.211684"
     inkscape:cy="35.634478"
     inkscape:window-width="1600"
     inkscape:window-height="837"
     inkscape:window-x="-8"
     inkscape:window-y="-8"
     inkscape:window-maximized="1"
     inkscape:current-layer="svg6" />
  <style
     id="style2">.a{fill:#fff}</style>
  <path
     fill-rule="evenodd"
     class="a"
     d="m 8.325,8.1 q 0,-0.3 -0.1,-0.5 -0.1,-0.3 -0.1,-0.5 0,-0.2 -0.1,-0.3 -0.1,-0.1 -0.2,-0.1 0,-0.1 -0.2,-0.1 -0.2,-0.1 -0.3,-0.1 -0.2,-0.1 -0.2,0.3 0,0.4 -0.3,0.4 -0.2,0 -0.5,-0.4 -0.2,-0.2 -0.2,-0.7 0,-0.5 0.1,-0.9 0,0 2.7,0 h 2.7 v 0.7 q 0,0.5 -0.1,0.7 0,0.1 -0.2,0.1 -0.1,0 -0.3,0.1 -0.1,0.2 -0.2,0.4 -0.2,0.3 -0.1,0.5 0.1,0.2 0.6,0.3 0.3,0 0.3,0.3 0,0.3 -0.3,0.4 -0.3,0.1 -0.3,0.2 -0.1,0.2 0,0.2 0.1,0.1 0.3,0.1 0.2,-0.1 0.3,0.1 0.1,0.2 0,0.4 -0.1,0.2 -0.3,0.2 -0.3,0.1 -0.3,0.3 0,0.1 0.3,0.1 0.2,0 0.1,0.2 0,0.2 -0.3,0.3 -0.2,0.2 -0.8,-0.1 -0.3,-0.2 -0.4,-0.3 -0.2,-0.1 -0.1,-0.2 0.1,-0.1 0.2,-0.2 0.1,0 0,-0.1 0,-0.2 -0.2,-0.3 -0.3,-0.3 -0.3,-0.5 0,-0.3 -0.6,-0.4 -0.4,-0.1 -0.5,-0.2 -0.1,-0.1 -0.1,-0.4 z m 2.7,-0.9 q 0.1,-0.3 0.4,-0.1 0.3,0.1 0.1,0.3 0,0 0,0 -0.1,0.1 -0.3,0.1 -0.1,-0.1 -0.2,-0.1 -0.1,-0.1 0,-0.2 z M 0.925,3.1 q 0.1,0 0.5,0.5 0.4,0.5 0.6,0.5 0.2,0 0.3,0.1 0.1,0 0.1,0.2 0.1,0.2 0.3,0.3 0.2,0 0.3,0 0.2,-0.1 0.2,-0.3 0,-0.2 -0.7,-1 -0.8,-0.7 -1,-0.7 -0.4,0 0.3,-0.8 0.8,-0.9 1.8,-1.3 0.5,-0.2 1.3,-0.4 0.9,-0.1 1.9,-0.1 1,0 2.1,0.3 1,0.4 1.8,1 l 0.5,0.5 -2,2.4 -0.9,-0.4 q -0.6,-0.4 -1.3,-0.5 -0.6,0 -1.1,0.1 -0.4,0.1 -0.8,0.3 -0.4,0.3 -0.6,0.5 -0.1,0.2 -0.2,0.3 -0.1,0.2 -0.4,0.2 -0.2,0 -0.4,0.2 -0.1,0.2 -0.1,0.5 0,0 0.1,0.1 0.1,0 0.1,0.1 0.1,0 0.2,0 0,0 0,0.1 -0.1,0 -0.3,0.1 -0.4,0.2 -0.4,0.5 0,0.6 0.4,0.1 0.3,-0.3 0.4,0.3 0,0.1 0,0.2 0,0.3 -0.1,0.3 0,0.1 -0.3,0.1 -0.5,0 -0.9,-0.1 -0.4,-0.1 -0.4,0 0,0 0,0.1 0.1,0.2 0.6,0.4 0.4,0.2 0.6,0.1 0.2,-0.1 0.4,0.1 0.1,0.1 0.4,0.1 0.2,0 0.6,0.4 0.4,0.4 0.6,0.4 0.1,0 0.6,0.2 0.4,0.3 1,0.3 0.4,0 0.6,0.1 0.2,0 0.5,0.3 0.4,0.5 0.4,0.7 0,0.1 0.5,0.4 0.5,0.3 0.7,0.3 0.2,0 0.2,0.2 0,0.1 -0.3,0.3 -0.4,0.1 -1.4,0.3 -1,0.2 -1.6,0.2 -0.7,0 -1.9,-0.3 -1.2,-0.2 -1.6,-0.5 -0.7,-0.4 -1.1,-0.8 -0.5,-0.4 -0.5,-0.6 0,-0.2 -0.1,-0.4 -0.2,-0.2 -0.3,-0.3 -0.2,-0.2 -0.1,-0.3 0.1,-0.1 -0.2,-0.3 -0.3,-0.1 -0.6,-1.1 -0.3,-1.1 -0.2,-1.9 0,-0.7 0.4,-1.6 0.3,-1 0.5,-1 z m 8.8,3.2 q -0.5,-0.1 -0.5,0 0,0.1 0.2,0.2 0.3,0.2 0.4,0.2 0.2,0 0.1,-0.2 0,-0.1 -0.2,-0.2 z m -8.4,0.2 q 0.2,0 0.2,-0.1 -0.1,-0.2 -0.3,-0.2 -0.1,0 -0.1,0.2 0,0.1 0.2,0.1 z m 1.3,0.4 q 0,-0.2 0,-0.2 -0.1,0 -0.3,0.2 -0.1,0 -0.1,0.1 0,0 0,0 0,0 0.1,0 0.3,0 0.3,-0.1 z m -0.2,2.2 q 0.2,0.3 0.6,-0.1 0.3,-0.2 0.1,-0.3 -0.1,0 -0.3,0 -0.2,0 -0.3,0.1 -0.2,0.2 -0.1,0.3 z m 2.1,0 q -0.7,-0.4 -0.7,-0.3 0,0 0.3,0.3 0.4,0.4 0.6,0.4 0.4,0 0.2,-0.2 -0.1,-0.1 -0.4,-0.2 z m 1,0.8 q -0.4,-0.3 -0.5,-0.2 -0.1,0.1 0.3,0.5 0.2,0.3 0.4,0.1 0.1,-0.2 -0.2,-0.4 z m 0.9,1.6 q 0.1,0 0.1,-0.1 0,-0.2 -0.1,-0.2 -0.2,0 -0.2,0.2 0,0.1 0.2,0.1 z m 10.3,-11.3 q 0.3,-0.2 1.7,-0.2 0.8,0 1.2,0.1 0.4,0.1 0.9,0.3 1.2,0.6 2.2,1.5 1,0.9 1.5,2 0.3,0.6 0.3,2 0.1,1.4 -0.2,2.1 -0.1,0.6 -1.3,1.8 -1.1,1.3 -1.4,1.3 -0.3,0 -0.4,0.3 -0.2,0.3 -1.5,0.5 -1.2,0.3 -2.1,0.2 -0.9,-0.1 -1.5,-0.3 -0.6,-0.2 -0.8,-0.3 -0.3,-0.2 -0.4,-0.3 -0.2,-0.1 -0.3,-0.1 -0.3,0 -1.1,-0.9 -0.7,-0.8 -1.1,-1.6 -0.3,-0.7 -0.4,-1.1 0,-0.4 0,-1.6 l 0.1,-1.6 0.7,-1.2 q 0.8,-1.1 1.3,-1.5 0.4,-0.4 1.3,-0.8 0.8,-0.5 1.3,-0.6 z m 2.4,3.4 q -1.6,-0.6 -2.8,0.9 -0.4,0.4 -0.4,0.6 -0.1,0.3 -0.1,1 0.1,1.4 0.8,2 0.6,0.6 1.9,0.4 2.2,-0.1 2.2,-2.6 0,-0.5 -0.1,-0.7 -0.1,-0.3 -0.5,-0.7 -0.2,-0.3 -0.5,-0.6 -0.3,-0.2 -0.5,-0.3 z m -4.3,1.6 q 0.4,0 0.4,-0.2 0,-0.2 -0.4,-0.2 -0.3,0 -0.3,0.2 0,0.2 0.3,0.2 z m 10.3,0.5 q 0.1,0 1.2,0.2 1.1,0.1 2,0.3 0.3,0 0.4,0.2 0.1,0.2 0.2,1 0.1,1.2 0,1.3 -0.1,0 -0.3,0 -0.1,0 -0.3,-0.1 -0.1,-0.1 0,-0.2 0,-0.1 -0.1,-0.1 -0.2,0 -0.2,0.2 0,0.2 -0.2,0.6 -0.1,0.2 -0.1,0.2 -0.1,0 -0.4,-0.2 -0.2,-0.1 -0.3,-0.1 -0.1,0 -0.2,0.2 -0.3,0.5 -0.2,0.6 0.1,0 0.1,0 0.1,-0.1 0.5,0.2 0.3,0.3 0.7,0.4 0.4,0.1 0.5,-0.1 0.1,-0.2 0.7,-0.1 0.7,0 1,0.1 0.3,0.2 0.4,0 0,-0.1 0.6,0 0.5,0 0.7,0.2 0.1,0.1 0,0.2 -0.1,0.2 -0.3,0.4 -0.3,0.1 -0.4,0.1 -0.1,-0.1 -0.3,0 -0.1,0 -0.1,0.1 -0.1,0.1 0,0.2 0.1,0.1 1.2,0.2 1.1,0 1.2,-0.1 0.1,-0.2 0.2,-0.2 0.2,0 0.5,0.3 0.3,0.3 0.3,0.3 0,0.1 -0.2,0.2 -0.6,0.5 -2.1,0.7 -0.4,0 -0.7,0 -0.1,0 -0.4,-0.3 -0.2,-0.2 -0.5,-0.3 -0.2,-0.1 -0.4,-0.1 -0.2,0 -0.2,-0.2 -0.1,-0.1 -0.3,-0.5 -0.2,-0.4 -0.3,-0.6 -0.1,-0.2 -0.2,-0.2 -0.1,-0.1 -0.2,-0.1 -0.1,0.1 -0.1,0.2 0,0.1 0,0.2 0.1,0.1 0.2,0.1 0.2,0 0.2,0.1 0,0 -0.2,0.3 -0.2,0.6 -0.4,0.8 -0.1,0.2 -0.3,0.1 -0.3,-0.1 -0.2,-0.2 0,0 -0.1,-0.1 -0.1,0 -0.4,0 -0.4,0 -1,-0.7 -0.6,-0.6 -0.6,-1 0,-0.4 0.1,-0.4 0.1,0 0.1,0 0.1,-0.1 0,-0.1 0,-0.1 0,-0.3 0.1,-0.1 0.2,-0.3 0.1,-0.2 0.1,-0.3 -0.1,-0.1 -0.5,-0.1 -0.4,0 -0.6,-0.5 -0.2,-0.5 -0.2,-1.5 0,-1.1 0.2,-1.2 z m 9.4,5.9 q 0.1,-0.2 0.2,-0.1 0.2,0.1 0,0.2 -0.1,0.2 -0.2,0.1 -0.1,-0.1 0,-0.2 z m -3.2,-1.8 q -0.2,0 -0.2,-0.1 0,-0.2 0.2,-0.2 0.1,0 0.1,0.2 0,0.1 -0.1,0.1 z m 1.1,-2.7 q 0.1,-0.2 0.7,-0.2 0.6,-0.1 1.2,0.1 0.7,0.1 1.3,0.2 0.6,0.1 0.7,0.2 0.2,0.2 0,1.2 -0.1,1 -0.4,1.5 -0.4,0.5 -0.4,0.7 0,0.1 -0.2,0.1 -0.1,0 -0.2,-0.1 -0.1,-0.2 -1.1,-0.1 -1,0.1 -1.2,0.3 -0.2,0.2 -0.3,0.1 -0.2,-0.1 -0.3,-0.2 -0.1,-0.2 -0.1,-0.2 0,-0.2 0.2,-0.4 0.3,-0.2 0.5,-0.1 0.3,0.1 0.7,-0.1 0.2,-0.2 0.2,-0.2 0,-0.1 -1,-0.1 -0.4,0 -0.6,-0.2 -0.1,-0.1 0.2,-0.4 0.2,-0.3 0.1,-1.1 0,-0.7 0,-1 z m 0.3,1.6 q 0.1,0.2 0.2,0.2 0.2,-0.1 0.1,-0.2 0,-0.1 -0.2,-0.1 0,0 -0.1,0 0,0 0,0.1 z m 2.8,0.4 q 0,0 -0.2,0 -0.2,-0.1 -0.4,0 -0.3,0.1 -0.3,0.2 -0.2,0.2 -0.4,0.2 -0.1,0 -0.2,0.1 -0.1,0.1 -0.1,0.1 0,0.2 0.3,0.3 0.2,0 0.5,-0.1 0.3,-0.1 0.5,-0.3 0.3,-0.3 0.3,-0.5 z m -5.6,3.6 q 0,-0.2 0,-0.2 0.1,0 0.2,0.1 0.1,0.2 -0.1,0.3 0,0 -0.1,0 0,-0.1 0,-0.2 z m 1.8,-0.5 q -0.1,-0.1 -0.4,-0.1 -0.3,-0.1 -0.4,0 -0.3,0.3 0.3,0.4 0.4,0.1 0.5,-0.1 0.1,-0.1 0,-0.2 z m 0.8,-8.6 q 0,-2.3 0.1,-2.5 0.1,-0.1 1.7,-0.1 1.7,0 2,0.2 0.1,0.1 0.1,2.7 l -0.1,2.7 h -0.3 q -3.3,-0.3 -3.4,-0.5 -0.1,-0.2 -0.1,-2.5 z m -7.1,-2.5 q 0.4,-0.1 1.8,0 1.3,0 1.5,0.2 0.2,0.1 0.2,2.1 v 2 l -0.7,0.1 q -0.5,0 -1.3,-0.2 -0.8,-0.1 -1.1,-0.1 -0.6,0 -0.7,-0.5 -0.2,-0.4 -0.2,-1.8 0.1,-1.5 0.2,-1.7 0.1,-0.1 0.3,-0.1 z m 11.4,-0.7 q 0.3,-0.3 4.5,-0.2 4.3,0 4.7,0.1 0.3,0.1 0.4,0.2 0.1,0.1 0.1,0.6 0.1,0.8 -0.2,1.1 -0.1,0.2 -0.1,0.3 0,0 0.1,0.2 0.1,0.2 0.1,0.4 -0.1,0.3 -0.2,0.4 -0.1,0 -0.7,0.1 -0.8,0 -0.8,-0.1 0,-0.1 0.6,-0.4 0.7,-0.4 0.6,-0.5 0,-0.1 -0.2,-0.1 -0.2,0 -0.5,0.1 l -1,0.5 q -0.7,0.4 -2.1,0.5 -1.1,0 -1.3,0.1 -0.2,0.1 -0.3,0.4 -0.1,0.4 -0.7,0.6 -0.6,0.3 -0.5,0.5 0,0.1 0.5,0 0.4,0 3.1,0 2.8,0 2.9,0 0.1,0.1 0.1,1.5 V 8 l -0.5,0.1 q -0.2,0 -0.3,-0.1 -0.1,0 -0.1,-0.1 0.1,-0.1 0.3,-0.2 0.3,-0.1 0.3,-0.2 0.1,-0.1 -0.1,-0.2 -0.2,-0.1 -0.5,0.2 -0.3,0.2 -0.5,0.2 -0.1,0 -0.2,-0.1 -0.1,0 -0.5,-0.1 -0.5,-0.1 -1.1,-0.1 -0.7,0.1 -0.9,0.1 -0.1,0.1 -0.1,0.3 0,0.2 -0.1,0.2 -0.1,0.1 -0.4,0.1 l -0.5,0.1 -0.1,3.6 h -1.9 q -1.7,0 -1.8,-0.2 -0.1,0 -0.1,-0.1 0,-0.2 0.1,-0.3 0,-0.1 0.1,-0.1 0.2,0 0.2,-0.1 0,-0.2 -0.2,-0.1 0,0 -0.1,-0.1 0,0 0,-0.1 0,-0.2 -0.1,-0.5 0,-0.3 0,-0.4 0,-0.1 0,-0.2 0.1,-0.1 0.3,-0.1 0.4,-0.1 0.4,-0.3 0,-0.1 -0.3,-0.1 -0.3,0 -0.3,-0.1 -0.1,-0.1 -0.1,-0.5 0,-0.3 0,-0.5 0.1,-0.3 0.1,-0.3 0.1,-0.1 0.1,-0.2 0,-0.1 -0.1,-0.2 -0.1,-0.1 -0.1,-0.6 -0.1,-0.4 0,-0.5 0.1,-0.1 0.3,0 0.1,0.1 0.2,0.3 0.1,0.2 0.1,0.4 0,0.2 0.1,0.4 0.1,0.1 0.4,0.3 0.5,0.2 0.6,0.2 0.2,0 -0.2,-0.7 -0.2,-0.4 -0.4,-0.6 -0.4,-0.3 -0.3,-0.4 0,-0.1 0.4,-0.3 0.3,0 0.4,-0.1 0.1,-0.1 0.1,-0.2 -0.1,-0.2 -1.3,0 h -0.4 V 3 q -0.1,-2.4 0,-2.6 z m 5.5,7.7 q -0.1,0 -0.1,-0.1 0,-0.2 0.1,-0.2 0.2,0 0.2,0.2 0,0.1 -0.2,0.1 z m 1.1,0 q -0.3,0 -0.3,-0.1 -0.1,-0.1 0.1,-0.2 0,0 0.2,0 0.3,0 0.3,0.2 0,0.1 -0.3,0.1 z m -0.8,-1.9 q -0.1,-0.2 -0.3,-0.2 -0.1,0 -0.2,0.2 -0.1,0.3 -0.3,0.3 0,0 0,0.1 -0.1,0 0,0 0,0.1 0.2,0 0.3,-0.1 0.5,-0.2 0.1,-0.1 0.1,-0.2 z m -1.4,0.8 q 0.2,0 0.2,-0.1 0,-0.2 -0.1,-0.2 -0.2,0 -0.3,0.2 0,0.1 0.2,0.1 z m 0.2,0.7 q 0,0 0,-0.1 -0.1,-0.2 -0.2,-0.2 -0.1,0 -0.2,0.1 0,0.1 0.1,0.2 0.2,0.1 0.3,0 z m -2.8,0.7 q -0.4,0 -0.7,-0.1 -0.3,0 -0.3,0 -0.1,0 0,0.2 0,0.3 0.6,0.4 0.7,0.2 0.8,0.3 0.2,0.1 0.2,0.1 0.1,0 0.2,-0.1 0.1,-0.2 -0.2,-0.5 -0.3,-0.3 -0.6,-0.3 z m 1.1,1.3 q 0.2,0 0.2,-0.2 0,-0.1 -0.2,-0.1 -0.2,0 -0.2,0.1 0,0.2 0.2,0.2 z m 7.3,-9.3 q 0.2,-0.3 4.5,-0.2 4.3,0 4.7,0.1 0.3,0.1 0.4,0.2 0.1,0.1 0.1,0.6 0,0.8 -0.2,1.1 -0.2,0.2 -0.2,0.3 0.1,0 0.2,0.2 0.1,0.2 0.1,0.4 -0.1,0.3 -0.2,0.4 -0.2,0 -0.7,0.1 -0.8,0 -0.8,-0.1 0,-0.1 0.6,-0.4 0.6,-0.4 0.6,-0.5 0,-0.1 -0.2,-0.1 -0.3,0 -0.5,0.1 l -1,0.5 q -0.7,0.4 -2.2,0.5 -1,0 -1.3,0.1 -0.2,0.1 -0.2,0.4 -0.1,0.4 -0.7,0.6 -0.6,0.3 -0.6,0.5 0,0.1 0.5,0 0.4,0 3.2,0 2.7,0 2.9,0 0.1,0.1 0,1.5 V 8 l -0.4,0.1 q -0.2,0 -0.4,-0.1 -0.1,0 0,-0.1 0,-0.1 0.3,-0.2 0.2,-0.1 0.3,-0.2 0,-0.1 -0.2,-0.2 -0.1,-0.1 -0.5,0.2 -0.2,0.2 -0.4,0.2 -0.1,0 -0.2,-0.1 -0.2,0 -0.6,-0.1 -0.4,-0.1 -1,-0.1 -0.7,0.1 -0.9,0.1 -0.2,0.1 -0.1,0.3 0,0.2 -0.1,0.2 -0.1,0.1 -0.4,0.1 l -0.5,0.1 -0.2,3.6 h -1.8 q -1.7,0 -1.9,-0.2 0,0 0,-0.1 0,-0.2 0.1,-0.3 0,-0.1 0.1,-0.1 0.2,0 0.2,-0.1 0,-0.2 -0.2,-0.1 -0.1,0 -0.1,-0.1 0,0 0,-0.1 0,-0.2 -0.1,-0.5 0,-0.3 -0.1,-0.4 0,-0.1 0.1,-0.2 0,-0.1 0.2,-0.1 0.4,-0.1 0.5,-0.3 0,-0.1 -0.4,-0.1 -0.2,0 -0.3,-0.1 0,-0.1 -0.1,-0.5 0,-0.3 0.1,-0.5 0,-0.3 0.1,-0.3 0.1,-0.1 0.1,-0.2 0,-0.1 -0.1,-0.2 -0.1,-0.1 -0.2,-0.6 0,-0.4 0.1,-0.5 0.1,-0.1 0.2,0 0.2,0.1 0.2,0.3 0.1,0.2 0.1,0.4 0,0.2 0.1,0.4 0.1,0.1 0.4,0.3 0.5,0.2 0.6,0.2 0.3,0 -0.1,-0.7 -0.2,-0.4 -0.5,-0.6 -0.3,-0.3 -0.3,-0.4 0.1,-0.1 0.5,-0.3 0.2,0 0.4,-0.1 0.1,-0.1 0.1,-0.2 -0.1,-0.2 -1.3,0 h -0.4 L 46.925,3 q 0,-2.4 0.1,-2.6 z m 5.5,7.7 q -0.1,0 -0.1,-0.1 0,-0.2 0.1,-0.2 0.2,0 0.2,0.2 0,0.1 -0.2,0.1 z m 1.1,0 q -0.3,0 -0.4,-0.1 0,-0.1 0.1,-0.2 0.1,0 0.2,0 0.4,0 0.4,0.2 0,0.1 -0.3,0.1 z m -0.8,-1.9 q -0.1,-0.2 -0.3,-0.2 -0.2,0 -0.2,0.2 -0.1,0.3 -0.3,0.3 -0.1,0 -0.1,0.1 0,0 0,0 0.1,0.1 0.3,0 0.2,-0.1 0.4,-0.2 0.2,-0.1 0.2,-0.2 z m -1.5,0.8 q 0.3,0 0.3,-0.1 0,-0.2 -0.2,-0.2 -0.1,0 -0.2,0.2 0,0.1 0.1,0.1 z m 0.3,0.7 q 0,0 -0.1,-0.1 0,-0.2 -0.1,-0.2 -0.1,0 -0.2,0.1 -0.1,0.1 0.1,0.2 0.1,0.1 0.3,0 z m -2.9,0.7 q -0.3,0 -0.7,-0.1 -0.2,0 -0.3,0 0,0 0,0.2 0.1,0.3 0.7,0.4 0.7,0.2 0.8,0.3 0.2,0.1 0.2,0.1 0.1,0 0.2,-0.1 0.1,-0.2 -0.2,-0.5 -0.3,-0.3 -0.7,-0.3 z m 1.2,1.3 q 0.1,0 0.1,-0.2 0,-0.1 -0.1,-0.1 -0.2,0 -0.2,0.1 0,0.2 0.2,0.2 z m 14,-0.5 q 0,-0.3 0.2,-0.4 0.3,-0.2 0.3,-0.3 -0.2,-0.1 -0.9,-0.1 -0.7,0 -1.7,0.2 -1,0.1 -1.4,0.2 -0.4,0.2 -0.5,0.3 0,0 0.2,0.2 0.3,0.2 0.5,0.2 0.1,0 0.2,0.3 0,0.2 0,0.8 l -0.1,1.2 h -3.6 v -0.9 q 0,-0.5 0,-0.8 0.1,-0.4 0.1,-0.5 0.1,-0.1 0.1,-0.2 0,-0.2 -0.1,-0.3 -0.1,-0.2 -0.1,-3.9 V 1.4 l 0.8,-0.3 q 0.7,-0.2 0.7,-0.3 0,-0.1 -0.2,-0.1 -0.2,-0.1 -0.4,0 -0.2,0 -0.2,0.1 -0.1,0.1 -0.3,0.2 -0.2,0 -0.3,-0.1 -0.1,-0.1 -0.1,-0.2 0,-0.3 0.7,-0.3 0.7,-0.1 1.1,0.1 0.1,0.1 0.3,0.1 0.1,0 0.2,0 0.2,-0.1 0.5,-0.1 0.3,-0.1 0.7,-0.2 0.7,-0.1 1.8,0 1.2,0 2.1,0.2 1,0.1 1.7,0.6 0.8,0.4 1.2,1.1 0.3,0.5 0.4,1.1 0.2,0.6 0,0.7 -0.2,0.1 -1.9,0.1 -1.2,0.1 -1.5,0 -0.3,0 -0.6,-0.3 -0.2,-0.2 -0.5,-0.3 -0.2,-0.1 -1,-0.1 -0.5,0 -0.7,0 -0.3,0 -0.4,0.1 -0.1,0.1 -0.2,0.2 0,0 -0.1,0.2 0,0.2 -0.1,0.4 -0.1,0.2 -0.1,0.3 0,0 0.1,0.2 0.1,0.2 0.2,0.5 0,0.3 0.2,0.4 0.2,0 1.1,0 0.8,0 1.1,-0.1 0.2,0 0.5,-0.4 0.1,-0.2 0.2,-0.3 0.1,-0.1 0.2,-0.1 0.2,-0.1 0.3,-0.1 0.3,0 0.4,0 0.2,0 0.6,0 0.5,0 0.9,-0.1 1.2,0 1.3,0.2 0.2,0.2 -0.2,1.3 -0.4,1.1 -0.7,1.1 -0.1,0 -0.6,0.4 l -0.6,0.5 0.4,0.5 q 0.5,0.5 0.5,0.6 0,0.1 0.7,1.3 0.8,1.2 0.8,1.3 0,0 -2,0 h -2 l -0.4,-0.5 q -0.3,-0.4 -0.4,-0.6 -0.1,-0.3 -0.5,-0.7 -0.4,-0.5 -0.3,-0.8 0.2,-0.2 0.7,-0.1 0.4,0 0.4,0.2 0,0.2 0.2,0.2 0.1,0 0.1,-0.3 z m -4.2,-0.1 q -0.1,-0.1 -0.2,-0.1 -0.2,-0.1 -0.4,0 -0.2,0.1 -0.4,0.2 -0.2,0.1 -0.4,0.2 -0.2,0.1 -0.4,0.1 -0.3,-0.1 -0.3,0.2 -0.1,0.2 0.2,0.3 0.2,0 0.3,0.1 0.2,0.1 0.2,0.2 0.1,0.1 0.2,0.2 0,0.1 0.1,0 0,-0.1 0.1,-0.4 0,-0.2 0.2,-0.4 0.1,-0.1 0.4,-0.2 0.1,-0.1 0.3,-0.2 0.1,-0.1 0.1,-0.2 z m 8.9,-8.8 q 0.1,-0.2 4.7,-0.1 4.5,0 4.8,0.1 0.2,0.1 0.3,0.4 0,0.2 0,1.2 v 1.5 l -5.9,0.1 v 1.3 l 5.6,0.1 v 0.9 q 0,0.7 -0.1,1 -0.1,0.3 -0.1,0.3 0,0.1 -0.4,0.1 -0.2,0 -0.2,0 -0.1,-0.1 -0.1,-0.1 0,-0.1 -0.1,-0.2 0,-0.1 -0.2,-0.1 -0.1,-0.1 -0.3,-0.2 -0.2,-0.2 -0.4,-0.3 -0.1,0 -0.1,0 0,0.1 0,0.2 0,0.2 0,0.3 0,0 -0.1,0.1 0,0.1 -0.1,0.1 0,0.1 -0.2,0.1 -0.1,0.1 -0.3,0.1 -0.1,0 -0.4,0.1 -0.2,0 -0.6,0 -0.3,0 -0.8,0 -1,0 -1.1,0.2 -0.1,0.1 -0.6,0.1 -0.4,0 -0.5,-0.1 -0.2,-0.2 -0.3,0 -0.1,0.1 0.1,0.2 0.2,0.1 0.4,0.2 0.3,0.1 0.5,0.2 0.2,0.2 0.2,0.3 0,0.1 -0.1,0.2 -0.1,0.1 -0.2,0.1 -0.3,0.1 -0.5,0.2 -0.1,0.2 0.1,0.3 0.2,0.2 0.6,-0.1 0.4,-0.2 0.5,-0.2 0.1,0 0.3,0.2 0.3,0.3 0.5,0.3 0.1,0 0.1,0.1 0,0 -0.1,0.2 0,0.1 0,0.2 0.1,0.1 0.3,0.1 0.2,0 0.3,0.1 0.2,0.1 0.3,0.2 0,0 0.2,-0.1 0.2,-0.2 -0.1,-0.3 -0.3,-0.2 -0.6,-0.5 -0.2,-0.2 -0.2,-0.3 0,-0.1 0.4,-0.1 0.4,-0.1 0.8,0 0.4,0 0.3,0.1 0,0.2 0.3,0.4 0.3,0.2 0.5,0.1 0.1,-0.1 0.2,-0.1 0,-0.2 0,-0.3 -0.1,-0.1 0,-0.2 0.2,0 0.5,0 0.6,0 1.1,0.2 0.5,0.2 0.5,0.5 0,0.1 -0.7,0.3 -0.7,0.1 -1.6,0.4 -1,0.2 -1.5,0.4 -0.9,0.4 -1,0.4 -0.2,0 -0.2,0.2 0,0.1 0.1,0.1 0.1,0 0.2,0 0.2,-0.1 0.4,-0.1 0.2,-0.1 0.5,-0.2 0.3,0 0.7,-0.1 0.7,0 0.8,-0.2 0.3,-0.2 0.9,-0.2 0.6,-0.1 1,0.1 0.5,0.3 0.6,0.7 0.1,0.2 -0.1,0.3 -0.2,0.1 -5,0 h -4.8 v -1.3 q 0,-0.7 0,-1 0.1,-0.3 0.2,-0.4 0.3,-0.1 0.4,0 0.1,0.1 0.2,0.3 0.2,0.1 0.3,0 0.2,-0.2 0.2,-0.3 0,-0.1 -0.2,-0.2 -0.2,-0.2 -0.5,-0.2 -0.2,0 -0.4,-0.1 -0.1,-0.1 -0.1,-0.3 -0.1,-0.3 0.1,-0.3 0.2,0 0.2,-0.1 0,0 -0.2,-0.1 -0.1,-0.2 -0.1,-0.7 0,-0.5 0.1,-0.6 0.2,-0.2 0,-0.4 -0.3,-0.2 -0.3,-1.5 0,-1.2 0.3,-1.4 0.2,-0.3 1.3,-0.4 0.8,-0.1 1.3,-0.3 l 0.4,-0.2 -0.5,-0.1 q -0.5,0 -1.5,0.2 -1,0.3 -1.1,0.3 -0.2,0 -0.2,-1.2 0,-1.1 0.1,-1.2 z m 4,6.5 q 0.4,-0.5 0.3,-0.6 0,-0.1 -0.4,-0.1 -0.4,0 -0.4,0.3 0,0.1 -0.1,0.2 0,0.1 -0.1,0.2 0,0 -0.1,0.1 0,0 0,0.1 0.1,0 0.2,0.1 0.2,0.1 0.3,0 0.1,-0.1 0.3,-0.3 z m -2.3,-0.3 q 0,-0.1 -0.2,-0.2 -0.2,-0.1 -0.3,0 -0.2,0 -0.2,0.2 0,0.2 0.4,0.2 0.2,0 0.3,0 0.1,-0.1 0,-0.2 z m 3.8,0.4 q 0,-0.2 -0.2,-0.3 -0.2,0 -0.2,0 0,0.1 0,0.1 0,0.3 0.3,0.3 0.1,0 0.1,-0.1 z m -3.9,3.1 q 0.2,0 0.2,-0.2 0,-0.1 -0.2,-0.1 -0.1,0 -0.1,0.1 0,0.2 0.1,0.2 z m 2,0.4 q 0.1,-0.1 -0.2,-0.3 -0.4,-0.2 -0.4,0 0,0.2 0.2,0.3 0.3,0.1 0.4,0 z m 0.8,1 q 0.2,0 0.1,-0.2 -0.1,-0.1 -0.2,-0.1 -0.2,0 -0.3,0.1 0,0.2 0.1,0.2 0.2,0.1 0.3,0 z m 13.9,-5.5 q 0.1,-0.2 1.7,-0.1 1.6,0 2.3,0.2 0.9,0.2 1.5,0.8 0.6,0.5 0.9,1.3 0.1,0.4 0,0.6 0,0.1 -0.3,0.2 -0.3,0 -0.5,0.2 -0.3,0.1 -0.2,0.3 0.1,0.1 0.1,0.1 0,0 0.1,-0.1 0.1,-0.2 0.5,-0.2 0.2,0 0.3,0.1 0.1,0 0.1,0.3 0,0.2 -0.1,0.4 -0.1,0.2 -0.1,0.4 0,0.2 -0.3,0.6 -0.1,0.3 -0.2,0.4 -0.2,0.1 -0.3,0.1 -0.2,0 -0.3,0.1 0,0 0,0.1 -0.1,0.2 -0.5,0.4 -0.4,0.2 -0.5,0.1 -0.1,-0.2 -0.3,-0.1 0,0 0,0.1 0,0.1 0,0.2 -0.1,0 -0.3,0.1 -0.3,0 -0.7,0 -0.4,0 -1.1,0 h -1.8 V 12 q 0,-1.4 0.2,-1.6 0.2,-0.1 0.8,-0.1 0.6,0 0.7,0.2 0.1,0.1 0.3,0.1 0.2,0 0.2,0.1 0,0 -0.2,0.1 -0.3,0.2 -0.2,0.3 0.1,0 0.1,0 0.1,0 0.2,-0.1 0,0 0,-0.1 0.1,0 0.1,-0.1 0.1,-0.1 0.2,-0.1 0.8,0 1,0 0.2,-0.1 0.4,-0.3 0.2,-0.3 0.3,-0.3 0.2,0 0.4,0.2 0.3,0.2 0.4,0.1 0.1,0 0.1,-0.1 0,-0.1 -0.1,-0.1 -0.1,-0.1 -0.1,-0.3 0.1,-0.3 0.2,-0.4 0.2,-0.2 0,-0.3 -0.1,0 -0.3,0 -0.2,0 -0.2,-0.1 -0.1,0 -0.1,-0.1 0,0 -0.1,-0.2 -0.1,-0.2 -0.2,-0.3 -0.2,-0.3 -0.3,-0.4 -0.2,-0.1 -0.5,-0.2 -0.5,-0.1 -0.8,-0.1 -0.2,0 -0.3,0.1 0,0.1 0,0.5 -0.1,0.5 -0.1,0.6 -0.1,0.1 -0.3,0.1 -0.1,0.1 -0.1,0.1 -0.1,0 0,0 0,0 0.1,0 0.2,0.1 0.2,0.2 0,0.1 -0.2,0.2 -0.2,0.2 -0.8,0.2 -0.7,0.1 -0.8,0.2 0,0 0,0.1 -0.1,0 -0.1,0 0,0 0,-0.1 -0.1,-0.6 -0.2,-2.3 0,-1.7 0.1,-1.8 z m 1.8,4.2 q 0.1,-0.2 0.3,0.1 0.1,0.1 0,0.2 -0.1,0.1 -0.2,-0.1 -0.2,-0.1 -0.1,-0.2 z m 4.3,0.2 q 0,0 0,-0.1 0,-0.1 -0.1,-0.1 -0.1,0 -0.1,0.1 0.1,0.1 0.2,0.1 z m -0.6,0.6 q -0.2,-0.1 -0.3,-0.1 -0.1,-0.1 -0.3,0 -0.2,0.1 -0.3,0.1 0,0 -0.1,0 0,-0.1 0,0 -0.1,0.1 0.1,0.2 0.2,0 0.3,-0.1 0.1,0 0.2,0 0.1,0 0.1,0.1 0.1,0 0.2,0.1 0.1,0 0.2,0 0.1,0 0.1,-0.1 0,-0.1 -0.2,-0.2 z m -1.4,0.1 q -0.1,-0.2 -0.2,-0.1 -0.2,0.1 0,0.2 0.2,0.1 0.3,0 0,0 -0.1,-0.1 z m -3.3,0.1 q 0,-0.1 -0.1,-0.1 -0.1,-0.1 -0.2,0 -0.2,0.1 -0.1,0.2 0.3,0.1 0.4,0 0,0 0,-0.1 z m 1.5,0.1 q 0.1,0 0.1,-0.1 0,-0.1 -0.1,-0.1 0,0 0,0.1 0,0.1 0,0.1 z m 0.9,0.1 q 0,-0.2 -0.1,-0.2 0,-0.1 0,0 0,0 -0.1,0.1 -0.1,0.2 -0.1,0.2 0,0.1 0.2,0.1 0.1,0 0.1,-0.1 0,0 0,-0.1 z m 0.4,0.2 q 0.1,0 0,-0.1 0,-0.2 -0.1,0 -0.1,0.1 0,0.1 0,0.1 0.1,0 z m -2.6,0 q 0,0 0,0 -0.1,0 -0.1,0 -0.1,0 -0.1,0 -0.1,0 -0.2,0 -0.2,0.1 -0.2,0.2 0,0.1 0.1,0.1 0.1,0 0.3,-0.1 0.2,-0.1 0.2,-0.2 z m 5.8,-5.7 q 0,0 2.6,0 2.7,0 2.9,0.1 0.1,0 0.1,0.2 0,0.1 0,0.7 v 0.8 l -3.4,0.1 v 0.7 l 3.2,0.1 0.1,0.5 q 0,0.4 -0.1,0.6 0,0.2 0,0.2 0,0.1 -0.3,0.1 -0.1,0 -0.1,-0.1 -0.1,0 -0.1,0 0,-0.1 0,-0.1 0,-0.1 -0.1,-0.1 -0.1,0 -0.2,-0.1 -0.1,-0.1 -0.2,-0.1 -0.1,-0.1 -0.1,0 0,0 0,0.1 0,0.1 0,0.1 0,0 0,0.1 -0.1,0 -0.1,0.1 0,0 -0.1,0 -0.1,0 -0.2,0.1 -0.1,0 -0.2,0 -0.2,0 -0.4,0 -0.2,0 -0.4,0 -0.6,0 -0.7,0.1 -0.1,0.1 -0.3,0.1 -0.3,0 -0.4,-0.1 0,-0.1 -0.1,0 0,0.1 0.1,0.1 0.1,0.1 0.2,0.2 0.2,0 0.3,0.1 0.1,0.1 0.1,0.2 0,0 0,0.1 -0.1,0 -0.2,0 -0.2,0.1 -0.2,0.1 -0.1,0.1 0,0.2 0.1,0.1 0.4,0 0.1,-0.2 0.2,-0.2 0.1,0 0.2,0.1 0.2,0.2 0.3,0.2 0,0 0,0.1 0,0 0,0.1 0,0.1 0,0.1 0,0.1 0.1,0.1 0.2,0 0.3,0 0.1,0.1 0.1,0.1 0,0.1 0.1,0 0.1,-0.1 -0.1,-0.2 -0.1,-0.1 -0.3,-0.3 -0.1,-0.1 -0.1,-0.2 0,0 0.2,0 0.3,-0.1 0.5,0 0.2,0 0.2,0.1 0,0.1 0.1,0.2 0.2,0.1 0.4,0 0,0 0,0 0.1,-0.1 0.1,-0.2 -0.1,-0.1 0,-0.1 0,0 0.3,0 0.3,0 0.6,0.1 0.3,0.1 0.3,0.3 -0.1,0.1 -0.4,0.2 -0.4,0.1 -1,0.2 -0.5,0.1 -0.9,0.3 -0.4,0.2 -0.5,0.2 -0.1,0 -0.1,0.1 0,0 0,0.1 0.1,0 0.2,-0.1 0.1,0 0.2,0 0.1,-0.1 0.3,-0.1 0.2,-0.1 0.4,-0.1 0.4,0 0.5,-0.1 0.1,-0.1 0.5,-0.1 0.3,-0.1 0.5,0.1 0.4,0.1 0.4,0.4 0,0.1 -0.1,0.1 -0.1,0.1 -2.9,0 h -2.8 v -0.7 q 0,-0.4 0.1,-0.6 0,-0.2 0.1,-0.2 0.2,-0.1 0.2,0 0.1,0 0.1,0.1 0.1,0.1 0.2,0 0.1,-0.1 0.1,-0.1 0,-0.1 -0.1,-0.2 -0.1,-0.1 -0.3,-0.1 -0.1,0 -0.2,0 -0.1,-0.1 -0.1,-0.2 0,-0.2 0.1,-0.2 0.1,0 0.1,0 0,-0.1 -0.1,-0.1 -0.1,-0.1 -0.1,-0.4 0,-0.3 0.1,-0.4 0.1,-0.1 -0.1,-0.2 -0.1,-0.1 -0.1,-0.9 0,-0.6 0.1,-0.8 0.2,-0.1 0.8,-0.2 0.5,-0.1 0.8,-0.2 l 0.2,-0.1 h -0.3 q -0.3,-0.1 -0.9,0.1 -0.6,0.1 -0.6,0.1 -0.1,0 -0.1,-0.6 0,-0.7 0.1,-0.8 z m 2.3,3.8 q 0.2,-0.3 0.2,-0.3 -0.1,-0.1 -0.3,-0.1 -0.2,0 -0.2,0.2 0,0.1 -0.1,0.1 0,0.1 0,0.1 0,0 -0.1,0.1 0,0 0,0 0.1,0 0.1,0.1 0.1,0 0.2,0 0.1,-0.1 0.2,-0.2 z m -1.3,-0.1 q -0.1,-0.1 -0.2,-0.2 -0.1,0 -0.2,0 -0.1,0 -0.1,0.1 0,0.2 0.3,0.2 0.1,0 0.1,-0.1 0.1,0 0.1,0 z m 2.1,0.2 q 0,-0.1 -0.1,-0.2 -0.1,0 -0.1,0 0,0 0,0.1 0,0.1 0.2,0.1 0,0 0,0 z m -2.2,1.8 q 0.1,0 0.1,-0.1 0,-0.1 -0.1,-0.1 -0.1,0 -0.1,0.1 0,0.1 0.1,0.1 z m 1.1,0.2 q 0.1,-0.1 -0.1,-0.2 -0.2,-0.1 -0.2,0.1 0,0 0.1,0.1 0.2,0.1 0.2,0 z m 0.5,0.6 q 0.1,0 0.1,-0.1 -0.1,-0.1 -0.2,-0.1 -0.1,0 -0.1,0.1 0,0.1 0,0.1 0.1,0.1 0.2,0 z m -96.1,13.9 q 0.1,-0.4 0.5,-0.1 0.5,0.2 0.7,0.1 0.1,-0.2 1.6,-0.2 1.2,0 1.4,0.1 0.3,0.1 0.5,0.5 0.3,0.5 0.8,0.5 0.8,0 1.5,-0.2 0.7,-0.2 0.9,-0.5 0.2,-0.3 0.6,-0.4 0.4,0 2,0 2.1,0 2.3,0.2 0.2,0.2 -0.2,1 -0.3,0.6 -0.3,0.8 0,0.1 -0.6,0.7 -0.6,0.6 -0.7,0.6 -0.1,0 -0.2,0.1 -0.1,0.1 -0.4,0.3 -0.2,0.1 -0.7,0.3 -0.4,0.1 -1.2,0.3 -0.9,0.2 -2.1,0.3 l -1.6,0.1 v 1.7 q -0.1,1.6 -0.3,1.8 -0.2,0.2 -2.4,0.2 l -2.1,-0.1 -0.1,-3.9 q 0,-4 0.1,-4.2 z m 4.2,2.5 q 0.6,0 0.3,-0.5 -0.5,-0.5 -0.9,-0.5 -0.2,0 -0.2,0.3 0,0.2 0.3,0.5 0.2,0.2 0.5,0.2 z m -4.2,-8.9 q 0.1,-0.1 4,0 3.9,0.1 4.9,0.3 0.8,0.2 1.2,0.4 0.5,0.2 1.2,0.9 0.8,0.7 0.9,0.9 0.1,0.2 -0.2,0.4 -0.4,0.2 -0.8,0.2 -0.3,0 -0.4,0.2 -0.1,0.2 -0.1,0.5 -0.1,0.4 -0.3,0.6 -0.2,0.2 -0.3,0.5 -0.1,0.3 -0.3,0.5 -0.1,0.2 -0.5,0.3 -0.8,0.1 -0.9,-0.2 -0.1,-0.2 0.2,-0.5 0.4,-0.3 0.1,-0.2 -0.3,0.1 -1,-0.5 -0.5,-0.4 -0.8,-0.5 -0.3,-0.1 -1,0 -0.6,0 -0.9,0.1 -0.3,0.1 -0.5,0.5 -0.3,0.3 -0.3,0.4 0,0.1 0.1,0.2 0.1,0.1 0.1,0.3 0,0.2 -1.1,0.3 -1.1,0.1 -2.1,0 -1.1,0 -1.1,-0.2 0,-0.2 0.8,-0.3 0.7,-0.1 0.9,-0.3 0.1,-0.1 -0.1,-0.2 -0.2,-0.2 -0.4,-0.5 -0.2,-0.3 -0.1,-0.5 0,-0.2 -0.1,-0.3 0,-0.1 -0.4,0 h -0.5 l -0.2,-1.6 q -0.1,-1.5 0,-1.7 z m 12.3,4.5 q 0,-0.7 0.2,-0.7 0.3,0.1 0.4,0.8 0.2,0.5 0.1,0.7 -0.2,0.5 -0.5,0 -0.1,-0.3 -0.2,-0.8 z m -0.8,1.1 q -0.2,0 -0.2,-0.2 0,-0.2 0.2,-0.2 0.2,0 0.2,0.2 0,0.2 -0.2,0.2 z m -1.9,-1.7 q -0.3,-0.3 -0.4,-0.3 0,0 -0.2,0.2 -0.1,0.2 0.2,0.5 0.3,0.3 0.6,0.3 0.3,0 0,-0.4 -0.1,-0.2 -0.2,-0.3 z m 9.8,-4 q 0.4,-0.2 2.1,-0.2 1,0 1.6,0.1 0.5,0.1 1.1,0.3 1.6,0.8 2.8,2 1.3,1.1 1.9,2.5 0.3,0.8 0.4,2.5 0,1.7 -0.2,2.7 -0.3,0.7 -1.7,2.2 -1.4,1.6 -1.8,1.6 -0.3,0 -0.5,0.4 -0.2,0.4 -1.8,0.7 -1.6,0.3 -2.7,0.2 -1.1,-0.1 -1.9,-0.3 -0.8,-0.3 -1.1,-0.5 -0.3,-0.2 -0.5,-0.3 -0.2,-0.2 -0.4,-0.2 -0.4,0 -1.3,-1.1 -0.9,-1 -1.4,-2 -0.4,-0.9 -0.5,-1.4 0,-0.5 0,-2 l 0.1,-2 0.9,-1.5 q 1,-1.4 1.6,-1.9 0.6,-0.5 1.6,-1.1 1.1,-0.6 1.7,-0.7 z m 3,4.3 q -2,-0.7 -3.5,1.1 -0.5,0.5 -0.5,0.8 -0.1,0.3 -0.1,1.2 0.1,1.8 0.9,2.5 0.9,0.8 2.5,0.6 2.8,-0.2 2.8,-3.3 0,-0.6 -0.2,-0.9 -0.1,-0.4 -0.6,-0.9 -0.3,-0.4 -0.6,-0.7 -0.4,-0.3 -0.7,-0.4 z m -5.3,2 q 0.5,0 0.5,-0.2 0,-0.2 -0.5,-0.2 -0.5,0 -0.5,0.2 0,0.2 0.5,0.2 z m 12.9,0.7 q 0.1,0 1.5,0.2 1.4,0.1 2.5,0.4 0.5,0 0.6,0.2 0.1,0.2 0.2,1.3 0.1,1.5 0,1.6 -0.1,0.1 -0.3,0.1 -0.2,-0.1 -0.4,-0.2 -0.2,-0.1 -0.1,-0.2 0.1,-0.2 -0.1,-0.2 -0.2,0 -0.2,0.3 0,0.3 -0.2,0.7 -0.2,0.2 -0.2,0.3 -0.1,0 -0.5,-0.2 -0.3,-0.2 -0.4,-0.2 -0.1,0 -0.3,0.3 -0.3,0.6 -0.1,0.7 0,0.1 0.1,0 0.1,-0.1 0.5,0.2 0.4,0.4 0.9,0.5 0.6,0.2 0.7,0 0.1,-0.2 0.9,-0.2 0.8,0 1.2,0.2 0.4,0.2 0.5,0 0.1,-0.2 0.8,-0.1 0.7,0 0.9,0.3 0.2,0.1 0,0.3 -0.1,0.3 -0.4,0.5 -0.3,0.1 -0.5,0.1 -0.2,-0.1 -0.3,0 -0.2,0 -0.2,0.2 -0.1,0.1 0,0.2 0.2,0.1 1.5,0.2 1.4,0 1.5,-0.1 0.1,-0.3 0.3,-0.2 0.2,0 0.6,0.3 0.4,0.4 0.4,0.5 0,0 -0.3,0.2 -0.7,0.6 -2.6,0.8 -0.6,0.1 -0.8,0.1 -0.3,-0.1 -0.6,-0.4 -0.3,-0.3 -0.6,-0.4 -0.3,-0.1 -0.5,-0.1 -0.2,-0.1 -0.3,-0.3 -0.1,-0.1 -0.4,-0.6 -0.3,-0.6 -0.3,-0.8 -0.1,-0.2 -0.3,-0.3 -0.1,-0.1 -0.3,0 -0.1,0 -0.1,0.2 0,0.2 0.1,0.3 0.1,0 0.2,0 0.2,0 0.2,0.1 0,0.1 -0.2,0.5 -0.3,0.7 -0.5,1 -0.2,0.2 -0.5,0.1 -0.3,-0.1 -0.2,-0.3 0,0 -0.1,-0.1 -0.2,0 -0.4,0 -0.6,0 -1.4,-0.8 -0.7,-0.8 -0.7,-1.4 0,-0.4 0.2,-0.4 0.1,0 0.1,-0.1 0,0 0,-0.1 -0.1,-0.1 0,-0.3 0.1,-0.2 0.2,-0.4 0.2,-0.2 0.1,-0.4 -0.1,-0.1 -0.6,-0.1 -0.5,0 -0.8,-0.7 -0.2,-0.6 -0.2,-1.9 0,-1.3 0.2,-1.4 z m 11.8,7.4 q 0.2,-0.3 0.4,-0.2 0.2,0.2 0,0.4 -0.2,0.2 -0.4,0.1 -0.1,-0.1 0,-0.3 z m -4,-2.2 q -0.2,0 -0.2,-0.2 0,-0.2 0.2,-0.2 0.2,0 0.2,0.2 0,0.2 -0.2,0.2 z m 1.5,-3.5 q 0.1,-0.2 0.8,-0.3 0.7,0 1.6,0.1 0.8,0.2 1.6,0.3 0.7,0.2 0.8,0.3 0.3,0.3 0.1,1.6 -0.2,1.2 -0.6,1.8 -0.5,0.7 -0.5,0.8 0,0.2 -0.2,0.2 -0.1,0 -0.2,-0.1 -0.2,-0.2 -1.4,-0.1 -1.2,0.1 -1.5,0.3 -0.3,0.2 -0.5,0.2 -0.2,-0.2 -0.3,-0.3 -0.2,-0.2 -0.2,-0.3 0,-0.2 0.4,-0.4 0.3,-0.2 0.6,-0.2 0.3,0.1 0.8,-0.1 0.3,-0.2 0.3,-0.3 0,-0.1 -1.3,-0.1 -0.5,0 -0.7,-0.2 -0.1,-0.1 0.2,-0.5 0.2,-0.4 0.2,-1.4 -0.1,-1 0,-1.3 z m 0.3,2.1 q 0.1,0.2 0.3,0.2 0.2,-0.1 0.1,-0.3 -0.1,0 -0.2,-0.1 -0.1,0 -0.1,0 -0.1,0.1 -0.1,0.2 z m 3.5,0.5 q 0,-0.1 -0.2,-0.1 -0.2,0 -0.5,0.1 -0.3,0 -0.4,0.2 -0.3,0.3 -0.5,0.3 -0.2,0 -0.3,0.1 0,0.1 0,0.1 0,0.3 0.3,0.4 0.3,0 0.7,-0.1 0.4,-0.1 0.6,-0.4 0.3,-0.4 0.3,-0.6 z m -7,4.5 q 0,-0.2 0,-0.3 0.1,0 0.2,0.2 0.2,0.2 0,0.3 -0.1,0 -0.2,0 0,-0.1 0,-0.2 z m 2.3,-0.6 q -0.2,-0.1 -0.5,-0.2 -0.4,0 -0.5,0 -0.4,0.4 0.3,0.6 0.5,0 0.7,-0.2 0.1,-0.1 0,-0.2 z m 1,-10.9 q 0,-2.9 0.1,-3.1 0.1,-0.2 2.2,-0.1 2.1,0 2.4,0.1 0.2,0.1 0.2,3.5 l -0.1,3.4 h -0.5 q -4.1,-0.4 -4.2,-0.7 -0.1,-0.2 -0.1,-3.1 z m -9,-3.2 q 0.5,-0.1 2.3,0 1.7,0.1 1.9,0.2 0.2,0.3 0.2,2.8 v 2.5 l -0.8,0.1 q -0.7,0 -1.7,-0.2 -1,-0.2 -1.4,-0.2 -0.7,0 -0.9,-0.6 -0.2,-0.5 -0.2,-2.3 0.1,-1.9 0.2,-2.1 0.1,-0.1 0.4,-0.2 z m 14.5,-0.9 q 0.3,-0.3 3.8,-0.2 3.5,0.1 5,0.5 1.9,0.5 3.2,1.6 1.4,1.2 1.9,2.9 0.3,1 0.2,1.3 -0.1,0.3 -0.8,0.4 -0.6,0 -1.1,0.4 -0.6,0.4 -0.4,0.7 0.1,0.2 0.2,0.2 0.1,0 0.3,-0.2 0.2,-0.4 1,-0.3 0.5,0 0.7,0.1 0.1,0.1 0.1,0.6 0.1,0.5 -0.2,0.9 -0.2,0.5 -0.2,0.9 0.1,0.6 -0.5,1.4 -0.4,0.6 -0.6,0.8 -0.3,0.2 -0.7,0.2 -0.3,0 -0.5,0.2 -0.1,0 -0.2,0.3 0,0.4 -0.9,0.9 -0.9,0.4 -1.1,0.1 -0.4,-0.3 -0.6,-0.1 -0.1,0 -0.1,0.2 0.1,0.3 0,0.4 -0.2,0.1 -0.7,0.2 -0.5,0.1 -1.5,0.1 -0.9,0 -2.4,0 l -4,-0.1 v -1.2 q 0.1,-3 0.6,-3.4 0.4,-0.2 1.7,-0.1 1.3,0 1.6,0.3 0.2,0.2 0.6,0.2 0.3,0 0.3,0.2 0,0.2 -0.4,0.4 -0.5,0.3 -0.3,0.5 0,0.1 0.2,0.1 0.2,0 0.3,-0.2 0.1,-0.1 0.1,-0.2 0.1,-0.2 0.2,-0.3 0.2,-0.1 0.5,-0.1 1.7,0 2.2,-0.1 0.4,-0.2 0.8,-0.7 0.5,-0.5 0.7,-0.5 0.3,-0.1 0.8,0.3 0.6,0.4 0.9,0.3 0.3,-0.1 0.3,-0.3 0,-0.2 -0.3,-0.3 -0.3,-0.1 -0.2,-0.6 0.1,-0.5 0.5,-0.8 0.4,-0.4 -0.2,-0.6 -0.2,-0.1 -0.6,-0.2 -0.3,0 -0.5,-0.1 -0.1,0 -0.2,-0.1 0,-0.2 -0.2,-0.5 -0.1,-0.4 -0.4,-0.8 -0.4,-0.5 -0.7,-0.7 -0.3,-0.3 -1,-0.5 -1.2,-0.3 -1.8,-0.3 -0.4,0.1 -0.5,0.3 -0.1,0.2 -0.2,1.2 -0.1,1 -0.1,1.2 -0.1,0.2 -0.6,0.2 -0.4,0.1 -0.4,0.1 0,0.1 0.1,0.1 0,0.1 0.2,0.1 0.4,0.2 0.4,0.3 0,0.2 -0.3,0.5 -0.5,0.3 -1.9,0.5 -1.4,0.2 -1.6,0.4 -0.1,0.1 -0.1,0.1 -0.1,0 -0.2,0 0,0 0,0 -0.3,-1.5 -0.4,-5.1 0,-3.7 0.2,-4 z m 3.8,9.2 q 0.3,-0.4 0.7,0.1 0.3,0.3 0.1,0.5 -0.2,0.2 -0.5,-0.1 -0.4,-0.3 -0.3,-0.5 z m 9.4,0.4 q 0.2,0 0.2,-0.2 0,-0.2 -0.3,-0.2 -0.3,0 -0.2,0.2 0.1,0.2 0.3,0.2 z m -1.2,1.3 q -0.4,-0.3 -0.7,-0.3 -0.2,0 -0.7,0.2 -0.3,0.1 -0.5,0.1 -0.2,0 -0.2,0 0,-0.1 -0.2,0.1 -0.1,0.2 0.3,0.3 0.4,0.1 0.7,-0.1 0.3,-0.1 0.4,-0.1 0.2,0 0.3,0.2 0.1,0.1 0.4,0.2 0.2,0.1 0.4,0.1 0.2,-0.1 0.2,-0.2 0,-0.2 -0.4,-0.5 z m -3,0.2 q -0.3,-0.5 -0.6,-0.2 -0.3,0.3 0.2,0.5 0.3,0.2 0.5,0 0.1,-0.1 -0.1,-0.3 z m -7.2,0.3 q 0,-0.2 -0.3,-0.2 -0.2,-0.2 -0.5,-0.1 -0.5,0.2 0,0.4 0.4,0.3 0.7,0.1 0.1,-0.1 0.1,-0.2 z m 3.3,0.2 q 0.2,0 0.2,-0.2 0,-0.2 -0.2,-0.2 -0.2,0 -0.2,0.2 0,0.2 0.2,0.2 z m 1.9,0.2 q -0.1,-0.4 -0.1,-0.5 -0.1,-0.1 -0.2,0 0,0.1 -0.2,0.3 -0.2,0.3 -0.2,0.5 0.1,0.1 0.4,0.1 0.2,0 0.3,-0.1 0,-0.1 0,-0.3 z m 0.8,0.5 q 0.2,0 0.1,-0.3 -0.2,-0.3 -0.3,0 -0.1,0.2 -0.1,0.3 0.1,0.1 0.3,0 z m -5.6,-0.1 q 0,0 -0.1,0 0,0 -0.2,0 -0.1,0 -0.3,0 -0.1,0.1 -0.4,0.1 -0.4,0.1 -0.4,0.4 0,0.3 0.4,0.3 0.2,0 0.6,-0.3 0.4,-0.3 0.4,-0.5 z m 21,-1 q 0,-0.4 0.3,-0.6 0.3,-0.1 0.3,-0.3 -0.1,-0.1 -1.1,-0.1 -0.9,0 -2.2,0.2 -1.3,0.1 -1.7,0.3 -0.5,0.2 -0.6,0.3 -0.1,0.1 0.2,0.3 0.4,0.3 0.6,0.3 0.2,0 0.2,0.3 0.1,0.3 0.1,1.1 l -0.1,1.4 h -4.5 l -0.1,-1.1 q 0,-0.6 0.1,-1 0,-0.5 0.1,-0.6 0.1,-0.1 0.1,-0.3 0,-0.2 -0.1,-0.3 -0.2,-0.3 -0.2,-5 l 0.1,-4.8 0.9,-0.3 q 1,-0.3 1,-0.5 0,-0.1 -0.3,-0.1 -0.2,-0.1 -0.5,0 -0.3,0 -0.3,0.1 -0.1,0.2 -0.4,0.3 -0.2,0 -0.3,-0.1 -0.2,-0.1 -0.2,-0.3 0.1,-0.3 0.9,-0.4 0.9,-0.1 1.4,0.2 0.2,0.1 0.3,0.1 0.2,0 0.4,0 0.2,-0.1 0.5,-0.2 0.4,-0.1 0.9,-0.1 1,-0.2 2.4,-0.1 1.4,0.1 2.6,0.3 1.2,0.2 2.2,0.7 0.9,0.6 1.4,1.4 0.4,0.6 0.6,1.4 0.2,0.7 -0.1,0.9 -0.1,0.1 -2.3,0.2 -1.6,0 -2,0 -0.3,-0.1 -0.7,-0.4 -0.3,-0.4 -0.6,-0.4 -0.3,-0.1 -1.3,-0.1 -0.6,0 -0.9,0 -0.3,0 -0.5,0.1 -0.2,0.1 -0.2,0.2 0,0 -0.1,0.3 -0.1,0.2 -0.2,0.4 -0.1,0.4 -0.1,0.4 0,0.1 0.1,0.4 0.2,0.2 0.2,0.6 0.1,0.3 0.3,0.4 0.2,0 1.3,0 1.2,0 1.5,0 0.2,-0.1 0.6,-0.6 0.2,-0.2 0.3,-0.3 0.2,-0.1 0.3,-0.2 0.1,-0.1 0.4,-0.1 0.2,0 0.4,0 0.3,0 0.8,0 0.5,-0.1 1,-0.1 1.6,-0.1 1.7,0.2 0.3,0.3 -0.2,1.6 -0.5,1.4 -0.9,1.4 -0.1,0 -0.8,0.6 l -0.7,0.6 0.6,0.6 q 0.5,0.6 0.5,0.8 0,0.1 1,1.6 1,1.5 1,1.6 0,0.1 -2.6,0.1 h -2.6 l -0.4,-0.6 q -0.4,-0.5 -0.6,-0.9 -0.1,-0.3 -0.5,-0.8 -0.6,-0.7 -0.4,-1 0.2,-0.2 0.8,-0.2 0.5,0 0.5,0.3 0,0.3 0.2,0.3 0.2,0 0.2,-0.4 z m -5.3,-0.1 q -0.1,-0.2 -0.3,-0.2 -0.2,-0.1 -0.4,0.1 -0.3,0.1 -0.5,0.2 -0.3,0.1 -0.6,0.2 -0.3,0.1 -0.5,0.1 -0.3,0 -0.4,0.3 0,0.3 0.3,0.4 0.3,0 0.4,0.1 0.2,0.1 0.3,0.3 0.1,0.1 0.2,0.2 0,0.1 0.1,0 0.1,-0.1 0.1,-0.4 0.1,-0.4 0.2,-0.6 0.2,-0.1 0.5,-0.3 0.3,-0.1 0.4,-0.2 0.2,-0.1 0.2,-0.2 z m 11.3,-11.2 q 0.1,-0.2 5.8,-0.1 5.7,0 6.2,0.2 0.2,0.1 0.3,0.4 0.1,0.3 0,1.6 v 1.8 l -7.5,0.2 v 1.6 l 7.1,0.2 0.1,1 q 0,0.9 -0.1,1.3 -0.2,0.4 -0.2,0.4 0,0.2 -0.4,0.2 -0.3,0 -0.4,-0.1 -0.1,0 -0.1,-0.1 0,-0.1 0,-0.2 -0.1,-0.1 -0.3,-0.2 -0.2,-0.1 -0.5,-0.3 -0.2,-0.2 -0.4,-0.2 -0.1,-0.1 -0.1,0 0,0 -0.1,0.2 0,0.2 0,0.3 0,0 0,0.2 -0.1,0.1 -0.2,0.1 -0.1,0.1 -0.2,0.2 -0.2,0 -0.4,0.1 -0.2,0 -0.6,0 -0.3,0.1 -0.7,0.1 -0.4,0 -1,0 -1.3,0 -1.5,0.2 -0.1,0.2 -0.6,0.2 -0.6,0 -0.8,-0.2 -0.2,-0.2 -0.3,0 -0.1,0.1 0.1,0.3 0.3,0.1 0.6,0.2 0.3,0.1 0.6,0.3 0.3,0.2 0.3,0.4 0,0.1 -0.2,0.2 -0.1,0.1 -0.2,0.2 -0.5,0 -0.6,0.2 -0.2,0.2 0,0.4 0.2,0.2 0.8,-0.1 0.4,-0.3 0.6,-0.3 0.1,0 0.4,0.2 0.4,0.4 0.6,0.4 0.2,0 0.2,0.1 0,0.1 -0.1,0.3 -0.1,0.1 0,0.2 0,0.2 0.3,0.2 0.2,0 0.4,0.1 0.3,0.1 0.3,0.2 0.1,0.1 0.3,-0.1 0.3,-0.2 -0.2,-0.4 -0.3,-0.2 -0.7,-0.5 -0.3,-0.4 -0.3,-0.5 0,-0.1 0.5,-0.1 0.6,-0.1 1.1,0 0.5,0 0.5,0.2 -0.1,0.2 0.3,0.5 0.3,0.2 0.6,0.1 0.2,-0.1 0.2,-0.2 0.1,-0.2 0.1,-0.3 -0.1,-0.2 0,-0.2 0.1,-0.1 0.6,-0.1 0.7,0 1.4,0.3 0.6,0.3 0.6,0.6 -0.1,0.1 -0.9,0.3 -0.8,0.3 -2,0.5 -1.3,0.3 -2,0.6 -1,0.5 -1.2,0.5 -0.2,0 -0.2,0.2 0,0.2 0.1,0.2 0.1,0 0.3,0 0.2,-0.1 0.5,-0.2 0.2,-0.1 0.6,-0.2 0.4,-0.1 0.9,-0.1 0.8,0 1.1,-0.2 0.3,-0.3 1,-0.4 0.8,0 1.2,0.2 0.8,0.4 0.9,0.9 0.1,0.3 -0.1,0.3 -0.3,0.1 -6.4,0.1 l -6.1,-0.1 v -1.5 q 0,-1 0.1,-1.3 0.1,-0.4 0.3,-0.5 0.3,-0.2 0.4,0 0.1,0.1 0.3,0.3 0.2,0.1 0.4,0 0.2,-0.2 0.2,-0.3 0,-0.2 -0.3,-0.4 -0.2,-0.1 -0.5,-0.1 -0.4,-0.1 -0.6,-0.2 -0.1,-0.1 -0.1,-0.4 -0.1,-0.4 0.2,-0.4 0.1,0 0.1,-0.1 0,0 -0.1,-0.1 -0.3,-0.3 -0.3,-0.9 0,-0.6 0.2,-0.8 0.3,-0.2 -0.1,-0.5 -0.3,-0.2 -0.3,-1.9 0,-1.4 0.3,-1.8 0.4,-0.3 1.7,-0.4 1.1,-0.2 1.7,-0.4 l 0.6,-0.3 h -0.8 q -0.6,-0.1 -1.9,0.2 -1.3,0.3 -1.4,0.3 -0.1,0 -0.2,-1.4 0,-1.5 0.2,-1.6 z m 5,8.2 q 0.5,-0.6 0.4,-0.7 -0.1,-0.2 -0.6,-0.2 -0.4,0 -0.4,0.4 0,0.2 -0.1,0.3 -0.1,0.2 -0.1,0.2 -0.1,0.1 -0.1,0.1 -0.1,0.1 0,0.1 0,0.1 0.1,0.2 0.2,0.1 0.4,0 0.2,-0.1 0.4,-0.4 z m -2.8,-0.3 q -0.1,-0.2 -0.4,-0.3 -0.2,-0.1 -0.4,0 -0.2,0 -0.2,0.2 0,0.3 0.5,0.3 0.3,0 0.4,0 0.1,-0.1 0.1,-0.2 z m 4.7,0.4 q 0,-0.1 -0.3,-0.3 -0.1,0 -0.2,0 -0.1,0.1 0,0.2 0.1,0.2 0.4,0.3 0.1,0 0.1,-0.2 z m -4.9,4 q 0.2,0 0.2,-0.2 0,-0.2 -0.2,-0.2 -0.2,0 -0.2,0.2 0,0.2 0.2,0.2 z m 2.5,0.5 q 0.2,-0.2 -0.3,-0.4 -0.4,-0.3 -0.4,0.1 0,0.1 0.3,0.3 0.3,0.1 0.4,0 z m 1,1.3 q 0.2,-0.1 0.1,-0.3 -0.1,-0.2 -0.2,-0.2 -0.3,0 -0.3,0.2 -0.1,0.2 0,0.3 0.2,0.1 0.4,0 z m 13.1,-3.4 q 0,-0.2 0.1,-0.3 0,-0.1 0.1,-0.1 1.1,0.6 3.5,1.5 l 1,0.4 v 1.6 q 0.1,1.7 -0.2,1.8 -0.2,0.2 -2.4,0.1 l -2.1,-0.1 -0.1,-2.2 q -0.1,-2.2 0.1,-2.7 z m -5.4,-9.1 q -0.3,-0.3 -0.2,-0.5 0.2,-0.3 2.7,-0.2 h 2.6 l 1.9,3.4 q 0.5,1.1 0.6,1.2 0.1,0 0.2,-0.1 0.1,-0.1 0.3,-0.3 0.2,-0.3 0.5,-0.8 0.3,-0.5 0.7,-1.4 l 1,-2 h 2.5 q 2.7,-0.1 2.8,0.3 0.1,0.1 -0.1,0.4 -0.3,0.2 -0.8,1.2 -0.5,0.9 -1,1.8 -0.5,0.8 -0.6,0.9 -0.1,0 -0.4,0.6 -0.4,0.7 -0.8,1.4 -0.4,0.8 -0.6,1.1 l -0.7,1.1 q -0.4,0.6 -0.4,1 0,0.9 -1.5,0.2 -0.3,-0.1 -0.9,-0.3 -1.3,-0.7 -1.7,-0.7 -0.5,0 -0.5,-0.2 0,-0.1 -0.5,-0.3 -0.4,-0.2 -0.5,-0.5 -0.1,-0.2 -0.2,-0.3 -0.1,-0.1 -0.2,-0.1 -0.1,-0.1 -0.3,-0.4 -0.3,-0.4 -0.6,-1 -0.3,-0.6 -0.6,-1 -0.2,-0.4 -0.3,-0.6 -0.1,-0.1 -0.2,-0.2 -0.1,-0.2 -0.1,-0.3 0,-0.1 -0.1,-0.2 -0.2,-0.2 -0.4,-0.5 -0.3,-0.3 -0.4,-0.7 -0.7,-1.4 -1.2,-2 z"
     id="path4" />
</svg>
